G04 #@! TF.GenerationSoftware,KiCad,Pcbnew,8.0.4-8.0.4-0~ubuntu24.04.1*
G04 #@! TF.CreationDate,2024-07-27T18:13:50+02:00*
G04 #@! TF.ProjectId,chrononauts-board,6368726f-6e6f-46e6-9175-74732d626f61,rev?*
G04 #@! TF.SameCoordinates,Original*
G04 #@! TF.FileFunction,Copper,L1,Top*
G04 #@! TF.FilePolarity,Positive*
%FSLAX46Y46*%
G04 Gerber Fmt 4.6, Leading zero omitted, Abs format (unit mm)*
G04 Created by KiCad (PCBNEW 8.0.4-8.0.4-0~ubuntu24.04.1) date 2024-07-27 18:13:50*
%MOMM*%
%LPD*%
G01*
G04 APERTURE LIST*
G04 #@! TA.AperFunction,SMDPad,CuDef*
%ADD10R,0.600000X0.600000*%
G04 #@! TD*
G04 #@! TA.AperFunction,SMDPad,CuDef*
%ADD11R,0.400000X0.500000*%
G04 #@! TD*
G04 #@! TA.AperFunction,SMDPad,CuDef*
%ADD12R,2.100000X1.400000*%
G04 #@! TD*
G04 #@! TA.AperFunction,SMDPad,CuDef*
%ADD13R,0.410000X0.280000*%
G04 #@! TD*
G04 #@! TA.AperFunction,SMDPad,CuDef*
%ADD14R,0.280000X0.410000*%
G04 #@! TD*
G04 #@! TA.AperFunction,SMDPad,CuDef*
%ADD15R,1.100000X0.900000*%
G04 #@! TD*
G04 #@! TA.AperFunction,SMDPad,CuDef*
%ADD16R,1.400000X0.900000*%
G04 #@! TD*
G04 #@! TA.AperFunction,ComponentPad*
%ADD17C,2.600000*%
G04 #@! TD*
G04 #@! TA.AperFunction,ConnectorPad*
%ADD18C,3.800000*%
G04 #@! TD*
G04 #@! TA.AperFunction,SMDPad,CuDef*
%ADD19R,1.400000X1.200000*%
G04 #@! TD*
G04 #@! TA.AperFunction,SMDPad,CuDef*
%ADD20R,0.600000X0.620000*%
G04 #@! TD*
G04 #@! TA.AperFunction,SMDPad,CuDef*
%ADD21R,0.620000X0.600000*%
G04 #@! TD*
G04 #@! TA.AperFunction,SMDPad,CuDef*
%ADD22R,0.947699X0.254800*%
G04 #@! TD*
G04 #@! TA.AperFunction,SMDPad,CuDef*
%ADD23R,0.254800X0.947699*%
G04 #@! TD*
G04 #@! TA.AperFunction,SMDPad,CuDef*
%ADD24R,0.650000X0.720000*%
G04 #@! TD*
G04 #@! TA.AperFunction,SMDPad,CuDef*
%ADD25R,0.720000X0.650000*%
G04 #@! TD*
G04 #@! TA.AperFunction,SMDPad,CuDef*
%ADD26R,0.900000X0.950000*%
G04 #@! TD*
G04 #@! TA.AperFunction,SMDPad,CuDef*
%ADD27R,0.600000X0.750000*%
G04 #@! TD*
G04 #@! TA.AperFunction,SMDPad,CuDef*
%ADD28R,0.750000X0.600000*%
G04 #@! TD*
G04 #@! TA.AperFunction,SMDPad,CuDef*
%ADD29R,0.940000X0.750000*%
G04 #@! TD*
G04 #@! TA.AperFunction,SMDPad,CuDef*
%ADD30R,0.350000X0.650000*%
G04 #@! TD*
G04 #@! TA.AperFunction,SMDPad,CuDef*
%ADD31R,1.219200X0.914400*%
G04 #@! TD*
G04 #@! TA.AperFunction,SMDPad,CuDef*
%ADD32R,0.430000X0.320000*%
G04 #@! TD*
G04 #@! TA.AperFunction,SMDPad,CuDef*
%ADD33R,0.320000X0.430000*%
G04 #@! TD*
G04 #@! TA.AperFunction,SMDPad,CuDef*
%ADD34R,0.600000X0.700000*%
G04 #@! TD*
G04 #@! TA.AperFunction,SMDPad,CuDef*
%ADD35R,5.080000X2.290000*%
G04 #@! TD*
G04 #@! TA.AperFunction,SMDPad,CuDef*
%ADD36R,5.080000X2.415000*%
G04 #@! TD*
G04 #@! TA.AperFunction,SMDPad,CuDef*
%ADD37R,0.600000X1.030000*%
G04 #@! TD*
G04 #@! TA.AperFunction,SMDPad,CuDef*
%ADD38R,0.600000X1.080000*%
G04 #@! TD*
G04 #@! TA.AperFunction,SMDPad,CuDef*
%ADD39R,0.300000X1.150000*%
G04 #@! TD*
G04 #@! TA.AperFunction,ComponentPad*
%ADD40O,1.050000X2.100000*%
G04 #@! TD*
G04 #@! TA.AperFunction,ComponentPad*
%ADD41O,1.000000X2.000000*%
G04 #@! TD*
G04 #@! TA.AperFunction,SMDPad,CuDef*
%ADD42R,0.900000X1.500000*%
G04 #@! TD*
G04 #@! TA.AperFunction,SMDPad,CuDef*
%ADD43R,0.700000X0.700000*%
G04 #@! TD*
G04 #@! TA.AperFunction,SMDPad,CuDef*
%ADD44R,1.100000X3.700000*%
G04 #@! TD*
G04 #@! TA.AperFunction,SMDPad,CuDef*
%ADD45R,1.200000X0.600000*%
G04 #@! TD*
G04 #@! TA.AperFunction,ViaPad*
%ADD46C,0.600000*%
G04 #@! TD*
G04 #@! TA.AperFunction,Conductor*
%ADD47C,0.127000*%
G04 #@! TD*
G04 #@! TA.AperFunction,Conductor*
%ADD48C,0.254000*%
G04 #@! TD*
G04 APERTURE END LIST*
D10*
X142750000Y-80700000D03*
X141350000Y-80700000D03*
D11*
X142050000Y-80400000D03*
D10*
X109300000Y-80700000D03*
X107900000Y-80700000D03*
D11*
X108600000Y-80400000D03*
D12*
X122950000Y-77700000D03*
X113850000Y-77700000D03*
X122950000Y-73200000D03*
X113850000Y-73200000D03*
D13*
X104200000Y-74300000D03*
X104200000Y-74800000D03*
X104200000Y-75300000D03*
X104200000Y-75800000D03*
D14*
X104745000Y-75865000D03*
X105245000Y-75865000D03*
D13*
X105790000Y-75800000D03*
X105790000Y-75300000D03*
X105790000Y-74800000D03*
X105790000Y-74300000D03*
D14*
X105245000Y-74235000D03*
X104745000Y-74235000D03*
D15*
X133400000Y-77300000D03*
D16*
X132250000Y-74000000D03*
D15*
X131100000Y-77300000D03*
D17*
X100800000Y-79500000D03*
D18*
X100800000Y-79500000D03*
D17*
X149900000Y-79500000D03*
D18*
X149900000Y-79500000D03*
D17*
X149850000Y-50600000D03*
D18*
X149850000Y-50600000D03*
D19*
X132600000Y-65460000D03*
X134800000Y-65460000D03*
X134800000Y-63860000D03*
X132600000Y-63860000D03*
D20*
X114770000Y-67600000D03*
X115690000Y-67600000D03*
D21*
X130340000Y-65460000D03*
X130340000Y-66380000D03*
D20*
X144390000Y-58340000D03*
X145310000Y-58340000D03*
D22*
X131936350Y-57419999D03*
X131936350Y-57920001D03*
X131936350Y-58420000D03*
X131936350Y-58919999D03*
X131936350Y-59420001D03*
D23*
X132832599Y-60316250D03*
X133332601Y-60316250D03*
X133832600Y-60316250D03*
X134332599Y-60316250D03*
X134832601Y-60316250D03*
D22*
X135728850Y-59420001D03*
X135728850Y-58919999D03*
X135728850Y-58420000D03*
X135728850Y-57920001D03*
X135728850Y-57419999D03*
D23*
X134832601Y-56523750D03*
X134332599Y-56523750D03*
X133832600Y-56523750D03*
X133332601Y-56523750D03*
X132832599Y-56523750D03*
D24*
X133027600Y-58420000D03*
D25*
X133832600Y-57615000D03*
X133832600Y-59225000D03*
D24*
X134637600Y-58420000D03*
D26*
X122300000Y-68800000D03*
X120700000Y-68800000D03*
D21*
X127950000Y-64000000D03*
X127950000Y-63080000D03*
X139530000Y-61380000D03*
X139530000Y-60460000D03*
X135730000Y-53430000D03*
X135730000Y-54350000D03*
D27*
X114570000Y-56000000D03*
X114570000Y-57100000D03*
D28*
X114530000Y-63000000D03*
X115630000Y-63000000D03*
D29*
X119100000Y-63500000D03*
X119100000Y-64900000D03*
D26*
X120700000Y-67200000D03*
X122300000Y-67200000D03*
D21*
X130500000Y-60340000D03*
X130500000Y-59420000D03*
D30*
X142285000Y-58340000D03*
X143135000Y-58340000D03*
D21*
X126850000Y-64000000D03*
X126850000Y-63080000D03*
D31*
X120860000Y-61638300D03*
X120860000Y-58361700D03*
D21*
X107900000Y-75760000D03*
X107900000Y-74840000D03*
D28*
X109050000Y-78400000D03*
X107950000Y-78400000D03*
X114530000Y-65400000D03*
X115630000Y-65400000D03*
D27*
X101900000Y-74800000D03*
X101900000Y-75900000D03*
D21*
X137090000Y-63860000D03*
X137090000Y-64780000D03*
D20*
X132730000Y-55220000D03*
X133650000Y-55220000D03*
D32*
X120870000Y-56860000D03*
X119770000Y-56860000D03*
D33*
X117330000Y-50930000D03*
X117330000Y-52030000D03*
D20*
X114770000Y-68800000D03*
X115690000Y-68800000D03*
D34*
X134350000Y-52990000D03*
X134350000Y-54090000D03*
D35*
X149100000Y-59050000D03*
D36*
X149100000Y-54667500D03*
X149100000Y-63432500D03*
D27*
X117280000Y-55060000D03*
X117280000Y-56160000D03*
D33*
X117334402Y-52826129D03*
X117334402Y-53926129D03*
D30*
X138265000Y-60460000D03*
X137415000Y-60460000D03*
D20*
X129270000Y-58440000D03*
X130190000Y-58440000D03*
D21*
X125750000Y-64000000D03*
X125750000Y-63080000D03*
D27*
X110750000Y-76550000D03*
X110750000Y-77650000D03*
D20*
X137420000Y-59400000D03*
X138340000Y-59400000D03*
X137380000Y-61530000D03*
X138300000Y-61530000D03*
D27*
X129040000Y-52550000D03*
X129040000Y-51450000D03*
D37*
X126470000Y-55515000D03*
D38*
X125670000Y-55490000D03*
D39*
X124520000Y-55455000D03*
X123520000Y-55455000D03*
X123020000Y-55455000D03*
X122020000Y-55455000D03*
D37*
X120070000Y-55515000D03*
D38*
X120870000Y-55490000D03*
D39*
X121520000Y-55455000D03*
X122520000Y-55455000D03*
X124020000Y-55455000D03*
X125020000Y-55455000D03*
D40*
X127590000Y-54880000D03*
D41*
X127590000Y-50700000D03*
X118950000Y-50700000D03*
D40*
X118950000Y-54880000D03*
D42*
X99630000Y-67800000D03*
X101130000Y-67800000D03*
X102630000Y-67800000D03*
X104130000Y-67800000D03*
X105630000Y-67800000D03*
X107130000Y-67800000D03*
X108630000Y-67800000D03*
X110130000Y-67800000D03*
X111630000Y-67800000D03*
X111630000Y-50300000D03*
X110130000Y-50300000D03*
X108630000Y-50300000D03*
X107130000Y-50300000D03*
X105630000Y-50300000D03*
X104130000Y-50300000D03*
X102630000Y-50300000D03*
X101130000Y-50300000D03*
X99630000Y-50300000D03*
D43*
X105830000Y-58090000D03*
X105830000Y-56990000D03*
X104730000Y-56990000D03*
X104730000Y-58090000D03*
X104730000Y-59190000D03*
X105830000Y-59190000D03*
X106930000Y-59190000D03*
X106930000Y-58090000D03*
X106930000Y-56990000D03*
D21*
X137490000Y-56360000D03*
X137490000Y-57280000D03*
X142280000Y-60320000D03*
X142280000Y-59400000D03*
D20*
X114520000Y-64200000D03*
X115440000Y-64200000D03*
D21*
X144390000Y-60220000D03*
X144390000Y-59300000D03*
D20*
X135220000Y-61670000D03*
X134300000Y-61670000D03*
D30*
X137485000Y-58340000D03*
X138335000Y-58340000D03*
X139885000Y-58340000D03*
X140735000Y-58340000D03*
D28*
X105850000Y-72200000D03*
X104750000Y-72200000D03*
D44*
X123790000Y-59520000D03*
X126790000Y-59520000D03*
D28*
X140200000Y-78400000D03*
X141300000Y-78400000D03*
D45*
X123200000Y-65460000D03*
X123200000Y-64510000D03*
X123200000Y-63560000D03*
X120700000Y-63560000D03*
X120700000Y-65460000D03*
D21*
X136830000Y-53430000D03*
X136830000Y-54350000D03*
D46*
X117350000Y-68250000D03*
X118200000Y-67150000D03*
X119100000Y-65950000D03*
X117350000Y-65950000D03*
X127900000Y-68950000D03*
X126350000Y-68950000D03*
X127100000Y-68250000D03*
X127800000Y-67500000D03*
X119700000Y-68800000D03*
X124900000Y-63100000D03*
X124200000Y-67900000D03*
X121800000Y-63600000D03*
X124400000Y-65400000D03*
X127900000Y-65000000D03*
X107500000Y-74000000D03*
X104700000Y-71300000D03*
X101900000Y-73800000D03*
X122950000Y-71900000D03*
X113850000Y-71900000D03*
X99600000Y-51600000D03*
X128600000Y-79200000D03*
X134500000Y-76300000D03*
X139100000Y-78400000D03*
X143550000Y-79900000D03*
X110200000Y-79800000D03*
X101100000Y-51600000D03*
X109000000Y-77500000D03*
X104100000Y-51600000D03*
X110750000Y-75650000D03*
X110100000Y-69000000D03*
X110100000Y-51600000D03*
X108600000Y-51600000D03*
X117290000Y-50210000D03*
X107480000Y-59740000D03*
X107470000Y-58640000D03*
X145390000Y-60220000D03*
X145410000Y-54670000D03*
X106380000Y-57540000D03*
X134640000Y-57620000D03*
X137910000Y-64780000D03*
X113900000Y-67600000D03*
X106380000Y-59740000D03*
X133530000Y-52990000D03*
X134640000Y-59230000D03*
X116500000Y-53900000D03*
X136830000Y-52620000D03*
X106380000Y-56440000D03*
X145390000Y-63430000D03*
X133030000Y-59230000D03*
X138300000Y-62360000D03*
X130020000Y-51420000D03*
X131920000Y-55220000D03*
X116197999Y-64202001D03*
X133030000Y-57610000D03*
X105280000Y-56440000D03*
X139530000Y-62260000D03*
X105290000Y-58640000D03*
X143290000Y-60320000D03*
X135730000Y-52620000D03*
X129296000Y-59900000D03*
X107470000Y-57540000D03*
X104170000Y-56440000D03*
X104180000Y-59740000D03*
X105280000Y-59740000D03*
X107480000Y-56440000D03*
X138330000Y-56360000D03*
X106380000Y-58640000D03*
X104170000Y-58640000D03*
X133437641Y-62087000D03*
X124400000Y-64500000D03*
X133830000Y-58430000D03*
X128990000Y-53730000D03*
X104170000Y-57540000D03*
X111630000Y-66290000D03*
X130300000Y-67400000D03*
X134882101Y-55310000D03*
X105280000Y-57540000D03*
X117280000Y-57010000D03*
X129273102Y-55693102D03*
X108430000Y-65963000D03*
X129198562Y-57224204D03*
X108993000Y-65316000D03*
X128260000Y-58109602D03*
X109570000Y-64753000D03*
X133490000Y-51780000D03*
X131063500Y-62650000D03*
X132190000Y-62650000D03*
X129850000Y-57690000D03*
X135200000Y-62650000D03*
X136730000Y-62650000D03*
X132045000Y-53225000D03*
X107830000Y-66526000D03*
X129280000Y-54780000D03*
X112630000Y-51600000D03*
X125568571Y-57255445D03*
X126492000Y-56660000D03*
X114570000Y-58089000D03*
D47*
X110750000Y-76550000D02*
X110750000Y-75650000D01*
X129198562Y-57224204D02*
X129296266Y-57126500D01*
X129296266Y-57126500D02*
X130076500Y-57126500D01*
X130076500Y-57126500D02*
X131370000Y-58420000D01*
X131370000Y-58420000D02*
X131936350Y-58420000D01*
D48*
X125750000Y-63080000D02*
X125750000Y-62600000D01*
X125750000Y-62600000D02*
X126800000Y-61550000D01*
X126800000Y-61550000D02*
X126800000Y-59530000D01*
X126800000Y-59530000D02*
X126790000Y-59520000D01*
D47*
X139100000Y-78400000D02*
X140200000Y-78400000D01*
D48*
X127950000Y-63080000D02*
X130633500Y-63080000D01*
X130633500Y-63080000D02*
X131063500Y-62650000D01*
X116197999Y-64202001D02*
X116195998Y-64200000D01*
X116195998Y-64200000D02*
X115440000Y-64200000D01*
D47*
X120700000Y-68800000D02*
X119700000Y-68800000D01*
D48*
X122300000Y-68800000D02*
X123300000Y-68800000D01*
X123300000Y-68800000D02*
X124200000Y-67900000D01*
D47*
X120700000Y-68800000D02*
X120700000Y-65460000D01*
X120700000Y-68800000D02*
X120700000Y-67200000D01*
X127900000Y-65000000D02*
X127900000Y-64050000D01*
X127900000Y-64050000D02*
X127950000Y-64000000D01*
D48*
X124900000Y-63100000D02*
X125730000Y-63100000D01*
X125730000Y-63100000D02*
X125750000Y-63080000D01*
X125730000Y-63060000D02*
X125750000Y-63080000D01*
D47*
X127950000Y-64250000D02*
X127950000Y-64000000D01*
X120700000Y-63560000D02*
X121760000Y-63560000D01*
X121760000Y-63560000D02*
X121800000Y-63600000D01*
X124340000Y-65460000D02*
X124400000Y-65400000D01*
X123200000Y-65460000D02*
X124340000Y-65460000D01*
D48*
X114770000Y-67600000D02*
X113900000Y-67600000D01*
X114770000Y-68800000D02*
X114770000Y-67600000D01*
X134832601Y-56523750D02*
X134832601Y-55359500D01*
X134832601Y-55359500D02*
X134882101Y-55310000D01*
D47*
X133832600Y-57615000D02*
X134635000Y-57615000D01*
X134635000Y-57615000D02*
X134640000Y-57620000D01*
D48*
X131920000Y-55220000D02*
X132730000Y-55220000D01*
X133332601Y-56523750D02*
X133332601Y-56020601D01*
X133332601Y-56020601D02*
X132730000Y-55418000D01*
X132730000Y-55418000D02*
X132730000Y-55220000D01*
X136830000Y-53430000D02*
X136830000Y-52620000D01*
X135730000Y-53430000D02*
X135730000Y-52620000D01*
X134350000Y-52990000D02*
X133530000Y-52990000D01*
D47*
X105790000Y-74800000D02*
X106700000Y-74800000D01*
X106700000Y-74800000D02*
X107500000Y-74000000D01*
D48*
X111630000Y-67800000D02*
X111630000Y-66290000D01*
X123200000Y-64510000D02*
X124390000Y-64510000D01*
X124390000Y-64510000D02*
X124400000Y-64500000D01*
X126850000Y-64000000D02*
X125750000Y-64000000D01*
X130340000Y-66380000D02*
X130340000Y-67360000D01*
X130340000Y-67360000D02*
X130300000Y-67400000D01*
X118950000Y-54880000D02*
X118950000Y-56040000D01*
X118950000Y-56040000D02*
X119770000Y-56860000D01*
X105850000Y-72200000D02*
X107200000Y-72200000D01*
X107200000Y-72200000D02*
X108600000Y-73600000D01*
X108600000Y-73600000D02*
X108600000Y-75400000D01*
X108600000Y-75400000D02*
X108240000Y-75760000D01*
X108240000Y-75760000D02*
X107900000Y-75760000D01*
D47*
X105790000Y-74800000D02*
X105830000Y-74840000D01*
D48*
X107900000Y-74840000D02*
X107900000Y-74400000D01*
X107900000Y-74400000D02*
X107500000Y-74000000D01*
X126470000Y-55515000D02*
X126955000Y-55515000D01*
X126955000Y-55515000D02*
X127590000Y-54880000D01*
X128990000Y-53730000D02*
X128740000Y-53730000D01*
X128740000Y-53730000D02*
X127590000Y-54880000D01*
X129040000Y-51450000D02*
X129990000Y-51450000D01*
X129990000Y-51450000D02*
X130020000Y-51420000D01*
X127590000Y-50700000D02*
X128290000Y-50700000D01*
X128290000Y-50700000D02*
X129040000Y-51450000D01*
X117330000Y-50930000D02*
X117330000Y-50250000D01*
X117330000Y-50250000D02*
X117290000Y-50210000D01*
X117330000Y-50930000D02*
X118720000Y-50930000D01*
X118720000Y-50930000D02*
X118950000Y-50700000D01*
X117280000Y-56160000D02*
X117280000Y-57010000D01*
X119770000Y-56860000D02*
X117980000Y-56860000D01*
X117980000Y-56860000D02*
X117280000Y-56160000D01*
X120070000Y-56560000D02*
X119770000Y-56860000D01*
X134300000Y-61670000D02*
X133854641Y-61670000D01*
X133854641Y-61670000D02*
X133437641Y-62087000D01*
X137090000Y-64780000D02*
X137910000Y-64780000D01*
X149100000Y-63432500D02*
X145392500Y-63432500D01*
X145392500Y-63432500D02*
X145390000Y-63430000D01*
X149100000Y-54667500D02*
X145412500Y-54667500D01*
X145412500Y-54667500D02*
X145410000Y-54670000D01*
X137490000Y-56360000D02*
X138330000Y-56360000D01*
X144390000Y-60220000D02*
X145390000Y-60220000D01*
X142280000Y-60320000D02*
X143290000Y-60320000D01*
X129270000Y-58440000D02*
X129270000Y-59874000D01*
X129270000Y-59874000D02*
X129296000Y-59900000D01*
X130500000Y-60340000D02*
X129736000Y-60340000D01*
X129736000Y-60340000D02*
X129296000Y-59900000D01*
D47*
X117280000Y-55060000D02*
X117280000Y-54833525D01*
X117280000Y-54833525D02*
X118601025Y-53512500D01*
X118601025Y-53512500D02*
X120562500Y-53512500D01*
X120562500Y-53512500D02*
X121520000Y-54470000D01*
X121520000Y-54470000D02*
X121520000Y-55455000D01*
X137090000Y-63860000D02*
X137060000Y-63860000D01*
X137060000Y-63860000D02*
X136080000Y-62880000D01*
X136080000Y-61300000D02*
X135096250Y-60316250D01*
X136080000Y-62880000D02*
X136080000Y-61300000D01*
X135096250Y-60316250D02*
X134832601Y-60316250D01*
X104750000Y-71350000D02*
X104700000Y-71300000D01*
X104750000Y-72200000D02*
X104750000Y-71350000D01*
X101900000Y-74800000D02*
X101900000Y-73800000D01*
X104750000Y-72200000D02*
X104750000Y-74230000D01*
X104750000Y-74230000D02*
X104745000Y-74235000D01*
D48*
X122950000Y-73200000D02*
X122950000Y-71900000D01*
X113850000Y-73200000D02*
X113850000Y-71900000D01*
D47*
X128600000Y-79200000D02*
X130900000Y-79200000D01*
X130900000Y-79200000D02*
X132250000Y-77850000D01*
X132250000Y-77850000D02*
X132250000Y-74000000D01*
X99630000Y-50300000D02*
X99630000Y-51570000D01*
X99630000Y-51570000D02*
X99600000Y-51600000D01*
D48*
X133500000Y-77300000D02*
X134500000Y-76300000D01*
X133400000Y-77300000D02*
X133500000Y-77300000D01*
X142750000Y-80700000D02*
X143550000Y-79900000D01*
X109300000Y-80700000D02*
X110200000Y-79800000D01*
X107900000Y-75760000D02*
X107839000Y-75821000D01*
X107839000Y-75821000D02*
X105790000Y-75821000D01*
D47*
X104100000Y-51600000D02*
X104130000Y-51570000D01*
X104130000Y-51570000D02*
X104130000Y-50300000D01*
X101130000Y-50300000D02*
X101130000Y-51570000D01*
X101130000Y-51570000D02*
X101100000Y-51600000D01*
X108600000Y-51600000D02*
X108630000Y-51570000D01*
X108630000Y-51570000D02*
X108630000Y-50300000D01*
X109050000Y-78400000D02*
X109050000Y-77550000D01*
X109050000Y-77550000D02*
X109000000Y-77500000D01*
X102630000Y-50300000D02*
X102630000Y-52230000D01*
X113900000Y-57100000D02*
X114570000Y-57100000D01*
X102630000Y-52230000D02*
X104100000Y-53700000D01*
X104100000Y-53700000D02*
X113100000Y-53700000D01*
X113600000Y-54200000D02*
X113600000Y-56800000D01*
X113100000Y-53700000D02*
X113600000Y-54200000D01*
X113600000Y-56800000D02*
X113900000Y-57100000D01*
X110130000Y-68970000D02*
X110100000Y-69000000D01*
X110130000Y-67800000D02*
X110130000Y-68970000D01*
X110100000Y-50330000D02*
X110100000Y-51600000D01*
D48*
X117334402Y-53926129D02*
X116526129Y-53926129D01*
X116526129Y-53926129D02*
X116500000Y-53900000D01*
D47*
X121280943Y-52560549D02*
X117300000Y-52560549D01*
X117334402Y-52826129D02*
X117334402Y-52594951D01*
X117334402Y-52594951D02*
X117300000Y-52560549D01*
X121386155Y-52306549D02*
X117330962Y-52306549D01*
X117330962Y-52306549D02*
X106986155Y-52306549D01*
X117330000Y-52030000D02*
X117330962Y-52030962D01*
X117330962Y-52030962D02*
X117330962Y-52306549D01*
X123020000Y-55455000D02*
X123020000Y-54592499D01*
X106507000Y-51223000D02*
X107130000Y-50600000D01*
X123020000Y-54592499D02*
X122897000Y-54469499D01*
X122897000Y-54469499D02*
X122897000Y-53817394D01*
X122897000Y-53817394D02*
X121386155Y-52306549D01*
X106986155Y-52306549D02*
X106507000Y-51827394D01*
X106507000Y-51827394D02*
X106507000Y-51223000D01*
X107130000Y-50600000D02*
X107130000Y-50300000D01*
X122520000Y-55455000D02*
X122520000Y-54592499D01*
X106880943Y-52560549D02*
X106253000Y-51932606D01*
X122520000Y-54592499D02*
X122643000Y-54469499D01*
X122643000Y-54469499D02*
X122643000Y-53922606D01*
X122643000Y-53922606D02*
X121280943Y-52560549D01*
X106253000Y-51223000D02*
X105630000Y-50600000D01*
X105630000Y-50600000D02*
X105630000Y-50300000D01*
X106253000Y-51932606D02*
X106253000Y-51223000D01*
X123020000Y-55455000D02*
X123020000Y-54849000D01*
X123020000Y-54849000D02*
X123179500Y-54689500D01*
X123179500Y-54689500D02*
X123860500Y-54689500D01*
X123860500Y-54689500D02*
X124020000Y-54849000D01*
X124020000Y-54849000D02*
X124020000Y-55455000D01*
X123520000Y-55455000D02*
X123520000Y-56061000D01*
X123520000Y-56061000D02*
X123360500Y-56220500D01*
X123360500Y-56220500D02*
X122679500Y-56220500D01*
X122679500Y-56220500D02*
X122520000Y-56061000D01*
X122520000Y-56061000D02*
X122520000Y-55455000D01*
X131936350Y-59420001D02*
X130500000Y-59420000D01*
X105830000Y-56990000D02*
X106380000Y-56440000D01*
X127590000Y-54880000D02*
X127840000Y-54880000D01*
X104720000Y-58090000D02*
X104170000Y-58640000D01*
X133820000Y-58420000D02*
X133830000Y-58430000D01*
X106380000Y-58640000D02*
X105830000Y-58090000D01*
X104730000Y-56990000D02*
X105280000Y-56440000D01*
X106930000Y-56990000D02*
X107480000Y-56440000D01*
X104720000Y-56990000D02*
X104170000Y-56440000D01*
X133832600Y-58432600D02*
X133830000Y-58430000D01*
X106930000Y-58080000D02*
X107470000Y-57540000D01*
X104720000Y-56990000D02*
X104170000Y-57540000D01*
X105830000Y-59190000D02*
X106380000Y-59740000D01*
X104730000Y-56990000D02*
X104720000Y-56990000D01*
X132730000Y-55320300D02*
X132730000Y-55220000D01*
X134635000Y-59225000D02*
X134640000Y-59230000D01*
X104730000Y-58090000D02*
X104720000Y-58090000D01*
X104720000Y-58090000D02*
X104170000Y-57540000D01*
X105290000Y-58640000D02*
X105280000Y-58640000D01*
X105280000Y-58640000D02*
X104730000Y-58090000D01*
X104730000Y-59190000D02*
X104740000Y-59190000D01*
X105830000Y-59190000D02*
X106380000Y-58640000D01*
X106380000Y-58640000D02*
X106930000Y-59190000D01*
X104730000Y-56990000D02*
X105280000Y-57540000D01*
X106930000Y-57000000D02*
X107470000Y-57540000D01*
X133035000Y-57615000D02*
X133030000Y-57610000D01*
X106930000Y-59190000D02*
X106930000Y-59180000D01*
X104740000Y-59190000D02*
X105290000Y-58640000D01*
X106930000Y-59190000D02*
X106380000Y-59740000D01*
X133035000Y-59225000D02*
X133030000Y-59230000D01*
X105290000Y-58640000D02*
X105290000Y-58630000D01*
X106930000Y-59180000D02*
X107470000Y-58640000D01*
X106930000Y-58100000D02*
X107470000Y-58640000D01*
X105830000Y-56990000D02*
X105280000Y-56440000D01*
X105280000Y-57540000D02*
X105830000Y-56990000D01*
X105280000Y-57540000D02*
X105830000Y-58090000D01*
X133027600Y-59227600D02*
X133030000Y-59230000D01*
X105290000Y-58640000D02*
X105290000Y-58650000D01*
X106380000Y-57540000D02*
X106930000Y-56990000D01*
X106380000Y-57540000D02*
X105830000Y-56990000D01*
X104730000Y-59190000D02*
X104720000Y-59190000D01*
X104730000Y-58090000D02*
X105280000Y-57540000D01*
X104730000Y-59190000D02*
X104180000Y-59740000D01*
X133832600Y-58427400D02*
X133830000Y-58430000D01*
X106380000Y-58640000D02*
X106930000Y-58090000D01*
X104720000Y-59190000D02*
X104170000Y-58640000D01*
X133027600Y-57612400D02*
X133030000Y-57610000D01*
X105830000Y-58090000D02*
X106380000Y-57540000D01*
X105290000Y-58650000D02*
X105830000Y-59190000D01*
X106930000Y-58090000D02*
X106930000Y-58100000D01*
X133840000Y-58420000D02*
X133830000Y-58430000D01*
X105290000Y-58630000D02*
X105830000Y-58090000D01*
X106380000Y-57540000D02*
X106930000Y-58090000D01*
X106930000Y-56990000D02*
X106930000Y-57000000D01*
X134637600Y-59227600D02*
X134640000Y-59230000D01*
X105830000Y-59190000D02*
X105280000Y-59740000D01*
X104730000Y-59190000D02*
X105280000Y-59740000D01*
X106930000Y-59190000D02*
X107480000Y-59740000D01*
X106930000Y-58090000D02*
X106930000Y-58080000D01*
X106930000Y-56990000D02*
X106380000Y-56440000D01*
X131626500Y-61933500D02*
X131626500Y-64173500D01*
X132160000Y-61400000D02*
X131626500Y-61933500D01*
X133832600Y-60944500D02*
X133377100Y-61400000D01*
X131626500Y-64173500D02*
X130340000Y-65460000D01*
X130340000Y-65460000D02*
X132600000Y-65460000D01*
X133377100Y-61400000D02*
X132160000Y-61400000D01*
X133832600Y-60316250D02*
X133832600Y-60944500D01*
X137090000Y-63860000D02*
X134800000Y-63860000D01*
X137405000Y-58420000D02*
X137485000Y-58340000D01*
D48*
X135728850Y-58420000D02*
X137405000Y-58420000D01*
D47*
X137490000Y-57280000D02*
X137490000Y-58335000D01*
X137490000Y-58335000D02*
X137485000Y-58340000D01*
X144390000Y-58340000D02*
X144390000Y-59300000D01*
D48*
X143135000Y-58340000D02*
X144390000Y-58340000D01*
X149100000Y-59050000D02*
X146020000Y-59050000D01*
X146020000Y-59050000D02*
X145310000Y-58340000D01*
D47*
X139530000Y-60460000D02*
X138265000Y-60460000D01*
X136939999Y-58919999D02*
X137420000Y-59400000D01*
X137420000Y-60455000D02*
X137415000Y-60460000D01*
X137420000Y-59400000D02*
X137420000Y-60455000D01*
X135728850Y-58919999D02*
X136939999Y-58919999D01*
X138335000Y-58340000D02*
X138335000Y-59395000D01*
D48*
X138335000Y-58340000D02*
X139885000Y-58340000D01*
D47*
X138335000Y-59395000D02*
X138340000Y-59400000D01*
D48*
X140735000Y-58340000D02*
X142285000Y-58340000D01*
D47*
X142285000Y-58340000D02*
X142285000Y-59395000D01*
X142285000Y-59395000D02*
X142280000Y-59400000D01*
X134318601Y-56509752D02*
X134332599Y-56523750D01*
X134318601Y-54111399D02*
X134318601Y-56509752D01*
X105630000Y-67500000D02*
X107167000Y-65963000D01*
X107167000Y-65963000D02*
X108430000Y-65963000D01*
X130209453Y-55693102D02*
X131936350Y-57419999D01*
X105630000Y-67800000D02*
X105630000Y-67500000D01*
X129273102Y-55693102D02*
X130209453Y-55693102D01*
X104130000Y-67500000D02*
X104130000Y-67800000D01*
X106230000Y-65400000D02*
X104130000Y-67500000D01*
X108909000Y-65400000D02*
X106230000Y-65400000D01*
X108993000Y-65316000D02*
X108909000Y-65400000D01*
X105450000Y-64753000D02*
X102630000Y-67573000D01*
X109570000Y-64753000D02*
X105450000Y-64753000D01*
X102630000Y-67573000D02*
X102630000Y-67800000D01*
X131593750Y-60316250D02*
X132832599Y-60316250D01*
X128260000Y-60106910D02*
X129123090Y-60970000D01*
X130940000Y-60970000D02*
X131593750Y-60316250D01*
X128260000Y-58109602D02*
X128260000Y-60106910D01*
X129123090Y-60970000D02*
X130940000Y-60970000D01*
D48*
X130740000Y-58440000D02*
X130190000Y-58440000D01*
X132045000Y-53245000D02*
X132045000Y-53225000D01*
X115690000Y-65400000D02*
X116350000Y-66060000D01*
X114997000Y-56000000D02*
X115630000Y-56633000D01*
D47*
X134441701Y-61053599D02*
X135040599Y-61053599D01*
D48*
X102397000Y-76397000D02*
X105603000Y-76397000D01*
X136750000Y-62650000D02*
X137380000Y-62020000D01*
X135728850Y-57920001D02*
X136349999Y-57920001D01*
X135728850Y-59420001D02*
X135728850Y-59878850D01*
X132254000Y-62714000D02*
X132190000Y-62650000D01*
X129850000Y-57690000D02*
X130190000Y-58030000D01*
X135220000Y-62630000D02*
X135220000Y-61670000D01*
X135730000Y-54350000D02*
X136830000Y-54350000D01*
X137380000Y-62020000D02*
X137380000Y-61530000D01*
X115630000Y-56633000D02*
X115630000Y-63000000D01*
X125750000Y-63080000D02*
X126850000Y-63080000D01*
X116350000Y-66940000D02*
X115690000Y-67600000D01*
X137580000Y-51780000D02*
X133490000Y-51780000D01*
X133650000Y-54850000D02*
X132045000Y-53245000D01*
X115630000Y-65400000D02*
X115690000Y-65400000D01*
X133832600Y-55402600D02*
X133650000Y-55220000D01*
X130190000Y-58030000D02*
X130190000Y-58440000D01*
X137394000Y-54350000D02*
X138200000Y-53544000D01*
X135728850Y-57419999D02*
X135728850Y-54351150D01*
X135200000Y-62650000D02*
X135136000Y-62714000D01*
X136349999Y-57920001D02*
X136700000Y-57570000D01*
X101900000Y-75900000D02*
X102397000Y-76397000D01*
X136700000Y-54480000D02*
X136830000Y-54350000D01*
X135728850Y-59878850D02*
X137380000Y-61530000D01*
X105790000Y-76210000D02*
X105790000Y-75800000D01*
X115690000Y-68800000D02*
X115690000Y-67600000D01*
D47*
X135040599Y-61053599D02*
X135220000Y-61233000D01*
D48*
X136700000Y-57570000D02*
X136700000Y-54480000D01*
X136730000Y-62650000D02*
X136750000Y-62650000D01*
X116350000Y-66060000D02*
X116350000Y-66940000D01*
X131219999Y-58919999D02*
X130740000Y-58440000D01*
X131936350Y-58919999D02*
X131219999Y-58919999D01*
X138200000Y-53544000D02*
X138200000Y-52400000D01*
X114570000Y-56000000D02*
X114997000Y-56000000D01*
X135200000Y-62650000D02*
X135220000Y-62630000D01*
X135728850Y-54351150D02*
X135730000Y-54350000D01*
X105603000Y-76397000D02*
X105790000Y-76210000D01*
X126850000Y-63080000D02*
X127950000Y-63080000D01*
D47*
X134332599Y-60944497D02*
X134441701Y-61053599D01*
D48*
X135136000Y-62714000D02*
X132254000Y-62714000D01*
D47*
X135220000Y-61233000D02*
X135220000Y-61670000D01*
X134332599Y-60316250D02*
X134332599Y-60944497D01*
D48*
X99630000Y-67800000D02*
X99630000Y-68100000D01*
X136830000Y-54350000D02*
X137394000Y-54350000D01*
X138200000Y-52400000D02*
X137580000Y-51780000D01*
X133832600Y-56523750D02*
X133832600Y-55402600D01*
X133650000Y-55220000D02*
X133650000Y-54850000D01*
D47*
X114530000Y-63000000D02*
X114530000Y-64190000D01*
X114520000Y-64200000D02*
X114510000Y-64190000D01*
X101130000Y-67500000D02*
X101130000Y-67800000D01*
X114530000Y-64190000D02*
X114520000Y-64200000D01*
X104440000Y-64190000D02*
X101130000Y-67500000D01*
X114510000Y-64190000D02*
X104440000Y-64190000D01*
D48*
X120870000Y-55490000D02*
X120870000Y-56860000D01*
X124858500Y-56860000D02*
X125670000Y-56048500D01*
X120870000Y-56860000D02*
X124858500Y-56860000D01*
D47*
X120870000Y-58351700D02*
X120860000Y-58361700D01*
D48*
X125670000Y-56048500D02*
X125670000Y-55455000D01*
X120870000Y-56860000D02*
X120870000Y-58351700D01*
D47*
X132426840Y-56523750D02*
X132832599Y-56523750D01*
X107130000Y-67800000D02*
X107130000Y-67139910D01*
X130683090Y-54780000D02*
X132426840Y-56523750D01*
X129280000Y-54780000D02*
X130683090Y-54780000D01*
X107743910Y-66526000D02*
X107830000Y-66526000D01*
X107130000Y-67139910D02*
X107743910Y-66526000D01*
X108630000Y-66770000D02*
X110000000Y-65400000D01*
X108630000Y-67800000D02*
X108630000Y-66770000D01*
X110000000Y-65400000D02*
X114530000Y-65400000D01*
X127603500Y-60220330D02*
X128680170Y-61297000D01*
X125568571Y-57255445D02*
X127481893Y-57255445D01*
X128680170Y-61297000D02*
X131075448Y-61297000D01*
X133332601Y-60944497D02*
X133332601Y-60316250D01*
X127603500Y-57377052D02*
X127603500Y-60220330D01*
X111630000Y-50600000D02*
X111630000Y-50300000D01*
X131299448Y-61073000D02*
X133204098Y-61073000D01*
X131075448Y-61297000D02*
X131299448Y-61073000D01*
X112630000Y-51600000D02*
X111630000Y-50600000D01*
X127481893Y-57255445D02*
X127603500Y-57377052D01*
X133204098Y-61073000D02*
X133332601Y-60944497D01*
X101900000Y-74800000D02*
X104200000Y-74800000D01*
X114570000Y-58089000D02*
X114570000Y-57100000D01*
X110100000Y-50330000D02*
X110130000Y-50300000D01*
X129040000Y-52550000D02*
X126673000Y-52550000D01*
X124520000Y-54703000D02*
X124520000Y-55455000D01*
X126673000Y-52550000D02*
X124520000Y-54703000D01*
D48*
X107950000Y-80650000D02*
X107900000Y-80700000D01*
D47*
X107950000Y-78400000D02*
X107950000Y-80650000D01*
X141350000Y-80700000D02*
X141350000Y-80500000D01*
X141350000Y-80500000D02*
X141300000Y-80450000D01*
X141300000Y-80450000D02*
X141300000Y-78400000D01*
D48*
X113800000Y-77650000D02*
X113850000Y-77700000D01*
D47*
X110750000Y-77650000D02*
X113800000Y-77650000D01*
X117300000Y-52560549D02*
X106880943Y-52560549D01*
X134637600Y-57622400D02*
X134640000Y-57620000D01*
X134637600Y-58420000D02*
X134637600Y-59227600D01*
X133832600Y-59225000D02*
X133832600Y-58432600D01*
X133832600Y-59225000D02*
X134635000Y-59225000D01*
X133832600Y-59225000D02*
X133035000Y-59225000D01*
X133027600Y-58420000D02*
X133027600Y-59227600D01*
X133027600Y-58420000D02*
X133820000Y-58420000D01*
X133027600Y-58420000D02*
X133027600Y-57612400D01*
X133832600Y-57615000D02*
X133035000Y-57615000D01*
X133832600Y-57615000D02*
X133832600Y-58427400D01*
X134637600Y-58420000D02*
X133840000Y-58420000D01*
X134637600Y-58420000D02*
X134637600Y-57622400D01*
D48*
X139530000Y-61380000D02*
X139530000Y-62260000D01*
X138300000Y-61530000D02*
X138300000Y-62360000D01*
X120070000Y-55515000D02*
X120070000Y-56560000D01*
X115630000Y-63000000D02*
X116259000Y-63000000D01*
X116259000Y-63000000D02*
X116900000Y-63641000D01*
X116900000Y-63641000D02*
X116900000Y-64759000D01*
X116900000Y-64759000D02*
X116259000Y-65400000D01*
X116259000Y-65400000D02*
X115630000Y-65400000D01*
D47*
X126492000Y-56660000D02*
X126493204Y-56661204D01*
X126493204Y-56661204D02*
X130111204Y-56661204D01*
X130111204Y-56661204D02*
X131370001Y-57920001D01*
X131370001Y-57920001D02*
X131936350Y-57920001D01*
G04 #@! TA.AperFunction,Conductor*
G36*
X148944646Y-48430502D02*
G01*
X148991139Y-48484158D01*
X149001243Y-48554432D01*
X148971749Y-48619012D01*
X148926724Y-48652067D01*
X148907693Y-48660334D01*
X148856476Y-48682580D01*
X148604636Y-48835728D01*
X148406492Y-48996930D01*
X148376003Y-49021735D01*
X148174825Y-49237144D01*
X148024082Y-49450699D01*
X148004853Y-49477940D01*
X148004845Y-49477952D01*
X147869254Y-49739629D01*
X147770547Y-50017363D01*
X147770545Y-50017371D01*
X147735878Y-50184204D01*
X147720023Y-50260504D01*
X147710579Y-50305950D01*
X147710578Y-50305956D01*
X147690466Y-50599995D01*
X147690466Y-50600004D01*
X147710578Y-50894043D01*
X147710579Y-50894049D01*
X147710580Y-50894057D01*
X147723321Y-50955368D01*
X147770545Y-51182628D01*
X147770547Y-51182636D01*
X147869254Y-51460370D01*
X148004845Y-51722047D01*
X148004848Y-51722052D01*
X148004852Y-51722059D01*
X148174825Y-51962856D01*
X148376003Y-52178265D01*
X148604639Y-52364274D01*
X148849209Y-52513000D01*
X148856476Y-52517419D01*
X148864990Y-52521117D01*
X149126816Y-52634844D01*
X149410630Y-52714365D01*
X149512642Y-52728386D01*
X149702617Y-52754499D01*
X149702628Y-52754500D01*
X149997372Y-52754500D01*
X149997382Y-52754499D01*
X150136351Y-52735397D01*
X150289370Y-52714365D01*
X150573184Y-52634844D01*
X150843526Y-52517418D01*
X151095361Y-52364274D01*
X151323997Y-52178265D01*
X151525175Y-51962856D01*
X151695148Y-51722059D01*
X151742064Y-51631515D01*
X151811627Y-51497266D01*
X151860726Y-51445985D01*
X151929756Y-51429389D01*
X151996800Y-51452749D01*
X152040571Y-51508647D01*
X152049500Y-51555234D01*
X152049500Y-57644406D01*
X152029498Y-57712527D01*
X151975842Y-57759020D01*
X151905568Y-57769124D01*
X151840988Y-57739630D01*
X151832517Y-57730031D01*
X151832259Y-57730290D01*
X151823485Y-57721516D01*
X151739302Y-57665266D01*
X151665067Y-57650500D01*
X146534936Y-57650500D01*
X146534927Y-57650501D01*
X146460699Y-57665265D01*
X146376515Y-57721516D01*
X146320266Y-57805697D01*
X146305500Y-57879930D01*
X146305500Y-58491787D01*
X146285498Y-58559908D01*
X146231842Y-58606401D01*
X146161568Y-58616505D01*
X146096988Y-58587011D01*
X146090405Y-58580882D01*
X145901404Y-58391881D01*
X145867378Y-58329569D01*
X145864499Y-58302786D01*
X145864499Y-58004936D01*
X145864498Y-58004927D01*
X145849734Y-57930699D01*
X145793484Y-57846516D01*
X145793483Y-57846515D01*
X145709302Y-57790266D01*
X145635068Y-57775500D01*
X144984936Y-57775500D01*
X144984926Y-57775501D01*
X144910699Y-57790266D01*
X144899231Y-57795016D01*
X144897597Y-57791072D01*
X144852174Y-57805265D01*
X144802212Y-57791527D01*
X144800768Y-57795015D01*
X144789303Y-57790266D01*
X144715068Y-57775500D01*
X144064936Y-57775500D01*
X144064926Y-57775501D01*
X143990699Y-57790265D01*
X143906516Y-57846515D01*
X143869107Y-57902502D01*
X143814630Y-57948030D01*
X143764342Y-57958500D01*
X143645681Y-57958500D01*
X143577560Y-57938498D01*
X143540917Y-57902504D01*
X143493484Y-57831516D01*
X143493482Y-57831515D01*
X143493482Y-57831514D01*
X143409302Y-57775266D01*
X143335068Y-57760500D01*
X142934936Y-57760500D01*
X142934926Y-57760501D01*
X142860698Y-57775265D01*
X142780002Y-57829186D01*
X142712249Y-57850401D01*
X142643782Y-57831618D01*
X142639998Y-57829186D01*
X142559302Y-57775266D01*
X142485068Y-57760500D01*
X142084936Y-57760500D01*
X142084926Y-57760501D01*
X142010699Y-57775265D01*
X141926517Y-57831515D01*
X141926516Y-57831516D01*
X141879082Y-57902504D01*
X141824606Y-57948030D01*
X141774319Y-57958500D01*
X141245681Y-57958500D01*
X141177560Y-57938498D01*
X141140917Y-57902504D01*
X141093484Y-57831516D01*
X141093482Y-57831515D01*
X141093482Y-57831514D01*
X141009302Y-57775266D01*
X140935068Y-57760500D01*
X140534936Y-57760500D01*
X140534926Y-57760501D01*
X140460698Y-57775265D01*
X140380002Y-57829186D01*
X140312249Y-57850401D01*
X140243782Y-57831618D01*
X140239998Y-57829186D01*
X140159302Y-57775266D01*
X140085068Y-57760500D01*
X139684936Y-57760500D01*
X139684926Y-57760501D01*
X139610699Y-57775265D01*
X139526517Y-57831515D01*
X139526516Y-57831516D01*
X139479082Y-57902504D01*
X139424606Y-57948030D01*
X139374319Y-57958500D01*
X138845681Y-57958500D01*
X138777560Y-57938498D01*
X138740917Y-57902504D01*
X138693484Y-57831516D01*
X138693482Y-57831515D01*
X138693482Y-57831514D01*
X138609302Y-57775266D01*
X138535069Y-57760500D01*
X138177114Y-57760500D01*
X138108993Y-57740498D01*
X138062500Y-57686842D01*
X138052396Y-57616568D01*
X138053536Y-57609916D01*
X138054499Y-57605074D01*
X138054499Y-57605072D01*
X138054500Y-57605067D01*
X138054499Y-56954934D01*
X138054498Y-56954931D01*
X138054498Y-56954926D01*
X138039734Y-56880699D01*
X138022136Y-56854362D01*
X137983484Y-56796516D01*
X137983483Y-56796515D01*
X137981816Y-56795401D01*
X137978999Y-56792030D01*
X137974710Y-56787741D01*
X137975094Y-56787356D01*
X137936291Y-56740921D01*
X137926431Y-56678279D01*
X137927000Y-56672506D01*
X137927000Y-56487000D01*
X137489000Y-56487000D01*
X137420879Y-56466998D01*
X137374386Y-56413342D01*
X137363000Y-56361000D01*
X137363000Y-56233000D01*
X137617000Y-56233000D01*
X137927000Y-56233000D01*
X137927000Y-56047496D01*
X137926999Y-56047491D01*
X137919631Y-56010447D01*
X137891561Y-55968438D01*
X137849552Y-55940368D01*
X137812508Y-55933000D01*
X137617000Y-55933000D01*
X137617000Y-56233000D01*
X137363000Y-56233000D01*
X137363000Y-55933000D01*
X137207500Y-55933000D01*
X137139379Y-55912998D01*
X137117292Y-55887508D01*
X146433000Y-55887508D01*
X146440368Y-55924552D01*
X146468438Y-55966561D01*
X146510447Y-55994631D01*
X146547491Y-56001999D01*
X146547497Y-56002000D01*
X148973000Y-56002000D01*
X149227000Y-56002000D01*
X151652503Y-56002000D01*
X151652508Y-56001999D01*
X151689552Y-55994631D01*
X151731561Y-55966561D01*
X151759631Y-55924552D01*
X151766999Y-55887508D01*
X151767000Y-55887503D01*
X151767000Y-54794500D01*
X149227000Y-54794500D01*
X149227000Y-56002000D01*
X148973000Y-56002000D01*
X148973000Y-54794500D01*
X146433000Y-54794500D01*
X146433000Y-55887508D01*
X137117292Y-55887508D01*
X137092886Y-55859342D01*
X137081500Y-55807000D01*
X137081500Y-55024527D01*
X137101502Y-54956406D01*
X137155158Y-54909913D01*
X137182920Y-54900948D01*
X137187022Y-54900132D01*
X137239301Y-54889734D01*
X137323484Y-54833484D01*
X137354839Y-54786558D01*
X137409313Y-54741033D01*
X137443165Y-54731639D01*
X137444217Y-54731500D01*
X137444225Y-54731500D01*
X137541254Y-54705501D01*
X137541257Y-54705499D01*
X137541258Y-54705499D01*
X137593975Y-54675063D01*
X137628247Y-54655276D01*
X137699276Y-54584247D01*
X138505276Y-53778247D01*
X138526281Y-53741865D01*
X138555501Y-53691254D01*
X138581500Y-53594225D01*
X138581500Y-53447491D01*
X146433000Y-53447491D01*
X146433000Y-54540500D01*
X148973000Y-54540500D01*
X149227000Y-54540500D01*
X151767000Y-54540500D01*
X151767000Y-53447496D01*
X151766999Y-53447491D01*
X151759631Y-53410447D01*
X151731561Y-53368438D01*
X151689552Y-53340368D01*
X151652508Y-53333000D01*
X149227000Y-53333000D01*
X149227000Y-54540500D01*
X148973000Y-54540500D01*
X148973000Y-53333000D01*
X146547491Y-53333000D01*
X146510447Y-53340368D01*
X146468438Y-53368438D01*
X146440368Y-53410447D01*
X146433000Y-53447491D01*
X138581500Y-53447491D01*
X138581500Y-52349775D01*
X138555501Y-52252746D01*
X138555499Y-52252743D01*
X138555499Y-52252741D01*
X138505278Y-52165756D01*
X138505270Y-52165746D01*
X138429863Y-52090339D01*
X138429840Y-52090318D01*
X137814250Y-51474727D01*
X137814247Y-51474724D01*
X137789369Y-51460361D01*
X137756865Y-51441595D01*
X137727258Y-51424501D01*
X137727255Y-51424500D01*
X137727254Y-51424499D01*
X137727252Y-51424498D01*
X137727251Y-51424498D01*
X137673867Y-51410194D01*
X137630225Y-51398500D01*
X137630223Y-51398500D01*
X133946457Y-51398500D01*
X133878336Y-51378498D01*
X133869753Y-51372462D01*
X133769649Y-51295649D01*
X133769641Y-51295644D01*
X133634752Y-51239771D01*
X133490000Y-51220715D01*
X133345247Y-51239771D01*
X133292182Y-51261752D01*
X133210358Y-51295645D01*
X133210357Y-51295646D01*
X133210356Y-51295646D01*
X133094526Y-51384526D01*
X133005646Y-51500356D01*
X133005645Y-51500358D01*
X133004476Y-51503181D01*
X132949771Y-51635247D01*
X132930715Y-51779999D01*
X132930715Y-51780000D01*
X132949771Y-51924752D01*
X133005644Y-52059641D01*
X133005649Y-52059649D01*
X133094525Y-52175474D01*
X133196433Y-52253671D01*
X133210357Y-52264355D01*
X133345246Y-52320228D01*
X133490000Y-52339285D01*
X133634754Y-52320228D01*
X133769643Y-52264355D01*
X133811809Y-52232000D01*
X133869753Y-52187538D01*
X133935973Y-52161937D01*
X133946457Y-52161500D01*
X137369786Y-52161500D01*
X137437907Y-52181502D01*
X137458881Y-52198404D01*
X137781595Y-52521117D01*
X137815620Y-52583430D01*
X137818500Y-52610213D01*
X137818500Y-53333785D01*
X137798498Y-53401906D01*
X137781595Y-53422880D01*
X137482095Y-53722380D01*
X137419783Y-53756406D01*
X137348968Y-53751341D01*
X137292132Y-53708794D01*
X137267321Y-53642274D01*
X137267000Y-53633285D01*
X137267000Y-53557000D01*
X136829000Y-53557000D01*
X136760879Y-53536998D01*
X136714386Y-53483342D01*
X136703000Y-53431000D01*
X136703000Y-53303000D01*
X136957000Y-53303000D01*
X137267000Y-53303000D01*
X137267000Y-53117496D01*
X137266999Y-53117491D01*
X137259631Y-53080447D01*
X137231561Y-53038438D01*
X137189552Y-53010368D01*
X137152508Y-53003000D01*
X136957000Y-53003000D01*
X136957000Y-53303000D01*
X136703000Y-53303000D01*
X136703000Y-53003000D01*
X136507491Y-53003000D01*
X136470447Y-53010368D01*
X136428438Y-53038438D01*
X136400369Y-53080446D01*
X136396409Y-53090008D01*
X136351860Y-53145288D01*
X136284496Y-53167709D01*
X136215705Y-53150150D01*
X136167327Y-53098188D01*
X136163591Y-53090008D01*
X136159630Y-53080446D01*
X136131561Y-53038438D01*
X136089552Y-53010368D01*
X136052508Y-53003000D01*
X135857000Y-53003000D01*
X135857000Y-53431000D01*
X135836998Y-53499121D01*
X135783342Y-53545614D01*
X135731000Y-53557000D01*
X135293000Y-53557000D01*
X135293000Y-53742512D01*
X135293569Y-53748290D01*
X135280340Y-53818043D01*
X135245138Y-53857589D01*
X135245290Y-53857741D01*
X135242676Y-53860354D01*
X135238187Y-53865398D01*
X135236516Y-53866514D01*
X135180266Y-53950697D01*
X135165500Y-54024930D01*
X135165500Y-54675063D01*
X135165501Y-54675073D01*
X135180265Y-54749300D01*
X135196103Y-54773002D01*
X135236516Y-54833484D01*
X135291353Y-54870125D01*
X135336880Y-54924603D01*
X135347350Y-54974890D01*
X135347350Y-56912335D01*
X135327348Y-56980456D01*
X135273692Y-57026949D01*
X135233696Y-57037729D01*
X135225347Y-57038551D01*
X135155594Y-57025319D01*
X135104067Y-56976477D01*
X135087001Y-56913157D01*
X135087001Y-56650750D01*
X134959600Y-56650750D01*
X134929593Y-56680757D01*
X134867280Y-56714782D01*
X134796465Y-56709716D01*
X134739629Y-56667169D01*
X134714819Y-56600649D01*
X134714498Y-56591676D01*
X134714498Y-56455836D01*
X134734500Y-56387717D01*
X134788156Y-56341224D01*
X134858430Y-56331120D01*
X134923010Y-56360614D01*
X134929593Y-56366743D01*
X134959600Y-56396750D01*
X135087001Y-56396750D01*
X135087001Y-56037396D01*
X135087000Y-56037391D01*
X135079632Y-56000347D01*
X135051562Y-55958338D01*
X135009553Y-55930268D01*
X134972509Y-55922900D01*
X134959601Y-55922900D01*
X134959601Y-55977749D01*
X134939599Y-56045870D01*
X134885943Y-56092363D01*
X134815669Y-56102467D01*
X134751089Y-56072973D01*
X134712705Y-56013247D01*
X134710021Y-56002327D01*
X134709627Y-56000347D01*
X134708020Y-55992267D01*
X134705601Y-55967693D01*
X134705601Y-55922899D01*
X134673506Y-55890804D01*
X134639480Y-55828492D01*
X134636601Y-55801709D01*
X134636601Y-54805556D01*
X134656603Y-54737435D01*
X134710259Y-54690942D01*
X134738016Y-54681978D01*
X134749301Y-54679734D01*
X134833484Y-54623484D01*
X134889734Y-54539301D01*
X134904500Y-54465067D01*
X134904499Y-53714934D01*
X134904498Y-53714930D01*
X134904498Y-53714926D01*
X134889734Y-53640699D01*
X134833484Y-53556515D01*
X134815284Y-53544355D01*
X134769756Y-53489878D01*
X134760909Y-53419434D01*
X134768879Y-53391367D01*
X134769631Y-53389550D01*
X134776999Y-53352508D01*
X134777000Y-53352503D01*
X134777000Y-53117491D01*
X135293000Y-53117491D01*
X135293000Y-53303000D01*
X135603000Y-53303000D01*
X135603000Y-53003000D01*
X135407491Y-53003000D01*
X135370447Y-53010368D01*
X135328438Y-53038438D01*
X135300368Y-53080447D01*
X135293000Y-53117491D01*
X134777000Y-53117491D01*
X134777000Y-53117000D01*
X133923000Y-53117000D01*
X133923000Y-53352508D01*
X133930369Y-53389555D01*
X133931123Y-53391375D01*
X133931583Y-53395659D01*
X133932790Y-53401725D01*
X133932247Y-53401833D01*
X133938710Y-53461965D01*
X133906929Y-53525451D01*
X133884717Y-53544354D01*
X133866515Y-53556516D01*
X133810266Y-53640697D01*
X133795500Y-53714930D01*
X133795500Y-54151787D01*
X133775498Y-54219908D01*
X133721842Y-54266401D01*
X133651568Y-54276505D01*
X133586988Y-54247011D01*
X133580405Y-54240882D01*
X132640557Y-53301034D01*
X132606531Y-53238722D01*
X132604730Y-53228385D01*
X132604284Y-53225002D01*
X132604285Y-53225000D01*
X132585228Y-53080246D01*
X132529355Y-52945358D01*
X132440474Y-52829526D01*
X132440472Y-52829524D01*
X132440471Y-52829523D01*
X132324649Y-52740649D01*
X132324641Y-52740644D01*
X132189752Y-52684771D01*
X132045000Y-52665715D01*
X131900247Y-52684771D01*
X131832802Y-52712708D01*
X131765358Y-52740645D01*
X131765357Y-52740646D01*
X131765356Y-52740646D01*
X131649526Y-52829526D01*
X131560646Y-52945356D01*
X131560645Y-52945358D01*
X131550678Y-52969420D01*
X131504771Y-53080247D01*
X131485715Y-53224999D01*
X131485715Y-53225000D01*
X131504771Y-53369752D01*
X131560644Y-53504641D01*
X131560649Y-53504649D01*
X131649525Y-53620474D01*
X131765350Y-53709350D01*
X131765357Y-53709355D01*
X131900246Y-53765228D01*
X132002320Y-53778665D01*
X132067246Y-53807387D01*
X132074969Y-53814492D01*
X132861143Y-54600666D01*
X132895169Y-54662978D01*
X132890104Y-54733793D01*
X132861143Y-54778856D01*
X132857000Y-54782999D01*
X132857000Y-55221000D01*
X132836998Y-55289121D01*
X132783342Y-55335614D01*
X132731000Y-55347000D01*
X132303000Y-55347000D01*
X132303000Y-55542508D01*
X132310368Y-55579552D01*
X132338438Y-55621561D01*
X132380447Y-55649631D01*
X132417491Y-55656999D01*
X132417497Y-55657000D01*
X132426940Y-55657000D01*
X132495061Y-55677002D01*
X132541554Y-55730658D01*
X132551658Y-55800932D01*
X132526964Y-55855000D01*
X132528609Y-55856099D01*
X132485850Y-55920090D01*
X132431372Y-55965616D01*
X132360929Y-55974463D01*
X132296885Y-55943821D01*
X132291991Y-55939181D01*
X131250302Y-54897491D01*
X132303000Y-54897491D01*
X132303000Y-55093000D01*
X132603000Y-55093000D01*
X132603000Y-54783000D01*
X132417491Y-54783000D01*
X132380447Y-54790368D01*
X132338438Y-54818438D01*
X132310368Y-54860447D01*
X132303000Y-54897491D01*
X131250302Y-54897491D01*
X130878348Y-54525537D01*
X130878346Y-54525535D01*
X130805838Y-54483673D01*
X130805836Y-54483672D01*
X130805834Y-54483671D01*
X130724955Y-54462000D01*
X130724953Y-54462000D01*
X129797058Y-54462000D01*
X129728937Y-54441998D01*
X129697095Y-54412703D01*
X129682109Y-54393173D01*
X129675474Y-54384526D01*
X129675473Y-54384525D01*
X129559649Y-54295649D01*
X129559641Y-54295644D01*
X129424752Y-54239771D01*
X129280000Y-54220715D01*
X129135247Y-54239771D01*
X129067802Y-54267708D01*
X129000358Y-54295645D01*
X129000357Y-54295646D01*
X129000356Y-54295646D01*
X128884526Y-54384526D01*
X128795646Y-54500356D01*
X128795645Y-54500358D01*
X128770756Y-54560445D01*
X128739771Y-54635247D01*
X128720715Y-54779999D01*
X128720715Y-54780000D01*
X128739771Y-54924752D01*
X128795644Y-55059641D01*
X128795649Y-55059649D01*
X128869085Y-55155352D01*
X128894686Y-55221572D01*
X128880421Y-55291121D01*
X128869086Y-55308760D01*
X128788748Y-55413458D01*
X128788747Y-55413460D01*
X128769443Y-55460063D01*
X128732873Y-55548349D01*
X128713817Y-55693101D01*
X128713817Y-55693102D01*
X128732873Y-55837854D01*
X128788746Y-55972743D01*
X128788751Y-55972751D01*
X128870704Y-56079553D01*
X128877628Y-56088576D01*
X128889765Y-56097889D01*
X128914986Y-56117242D01*
X128956853Y-56174580D01*
X128961074Y-56245451D01*
X128926309Y-56307354D01*
X128863596Y-56340635D01*
X128838281Y-56343204D01*
X127009982Y-56343204D01*
X126941861Y-56323202D01*
X126910021Y-56293910D01*
X126887474Y-56264526D01*
X126887472Y-56264525D01*
X126882446Y-56257974D01*
X126883571Y-56257110D01*
X126853770Y-56202535D01*
X126858835Y-56131720D01*
X126872127Y-56105749D01*
X126889630Y-56079553D01*
X126889631Y-56079552D01*
X126896999Y-56042508D01*
X126897000Y-56042503D01*
X126897000Y-55938258D01*
X126917002Y-55870137D01*
X126970658Y-55823644D01*
X127040932Y-55813540D01*
X127105512Y-55843034D01*
X127112095Y-55849163D01*
X127174369Y-55911437D01*
X127174375Y-55911442D01*
X127281161Y-55982794D01*
X127399820Y-56031944D01*
X127399823Y-56031945D01*
X127462999Y-56044511D01*
X127463000Y-56044511D01*
X127463000Y-55703087D01*
X127474204Y-55709556D01*
X127550504Y-55730000D01*
X127629496Y-55730000D01*
X127705796Y-55709556D01*
X127717000Y-55703087D01*
X127717000Y-56044511D01*
X127780176Y-56031945D01*
X127780179Y-56031944D01*
X127898838Y-55982794D01*
X128005624Y-55911442D01*
X128005630Y-55911437D01*
X128096437Y-55820630D01*
X128096442Y-55820624D01*
X128167794Y-55713838D01*
X128216941Y-55595186D01*
X128216943Y-55595181D01*
X128241999Y-55469218D01*
X128242000Y-55469214D01*
X128242000Y-55007000D01*
X127890000Y-55007000D01*
X127890000Y-54753000D01*
X128242000Y-54753000D01*
X128242000Y-54290785D01*
X128241999Y-54290781D01*
X128216943Y-54164818D01*
X128216941Y-54164813D01*
X128167794Y-54046161D01*
X128096442Y-53939375D01*
X128096437Y-53939369D01*
X128005630Y-53848562D01*
X128005624Y-53848557D01*
X127898838Y-53777205D01*
X127780184Y-53728057D01*
X127780181Y-53728056D01*
X127717000Y-53715488D01*
X127717000Y-54056912D01*
X127705796Y-54050444D01*
X127629496Y-54030000D01*
X127550504Y-54030000D01*
X127474204Y-54050444D01*
X127463000Y-54056912D01*
X127463000Y-53715488D01*
X127462999Y-53715488D01*
X127399818Y-53728056D01*
X127399815Y-53728057D01*
X127281161Y-53777205D01*
X127174375Y-53848557D01*
X127174369Y-53848562D01*
X127083562Y-53939369D01*
X127083557Y-53939375D01*
X127012205Y-54046161D01*
X126963058Y-54164813D01*
X126963055Y-54164822D01*
X126957373Y-54193385D01*
X126924463Y-54256293D01*
X126862767Y-54291423D01*
X126791873Y-54287620D01*
X126734288Y-54246093D01*
X126712090Y-54201413D01*
X126700008Y-54156322D01*
X126641455Y-54054905D01*
X126623717Y-54024182D01*
X126623709Y-54024172D01*
X126515827Y-53916290D01*
X126515817Y-53916282D01*
X126383682Y-53839994D01*
X126383680Y-53839993D01*
X126383678Y-53839992D01*
X126236293Y-53800500D01*
X126176410Y-53800500D01*
X126108289Y-53780498D01*
X126061796Y-53726842D01*
X126051692Y-53656568D01*
X126081186Y-53591988D01*
X126087315Y-53585405D01*
X126767815Y-52904905D01*
X126830127Y-52870879D01*
X126856910Y-52868000D01*
X128365771Y-52868000D01*
X128433892Y-52888002D01*
X128480385Y-52941658D01*
X128489350Y-52969420D01*
X128500265Y-53024300D01*
X128556516Y-53108484D01*
X128640697Y-53164733D01*
X128640699Y-53164734D01*
X128714933Y-53179500D01*
X129365066Y-53179499D01*
X129365069Y-53179498D01*
X129365073Y-53179498D01*
X129424343Y-53167709D01*
X129439301Y-53164734D01*
X129523484Y-53108484D01*
X129579734Y-53024301D01*
X129594500Y-52950067D01*
X129594500Y-52627491D01*
X133923000Y-52627491D01*
X133923000Y-52863000D01*
X134223000Y-52863000D01*
X134477000Y-52863000D01*
X134777000Y-52863000D01*
X134777000Y-52627496D01*
X134776999Y-52627491D01*
X134769631Y-52590447D01*
X134741561Y-52548438D01*
X134699552Y-52520368D01*
X134662508Y-52513000D01*
X134477000Y-52513000D01*
X134477000Y-52863000D01*
X134223000Y-52863000D01*
X134223000Y-52513000D01*
X134037491Y-52513000D01*
X134000447Y-52520368D01*
X133958438Y-52548438D01*
X133930368Y-52590447D01*
X133923000Y-52627491D01*
X129594500Y-52627491D01*
X129594499Y-52149934D01*
X129594498Y-52149931D01*
X129594498Y-52149926D01*
X129579734Y-52075699D01*
X129535982Y-52010220D01*
X129523484Y-51991516D01*
X129519044Y-51988549D01*
X129516584Y-51986905D01*
X129471058Y-51932427D01*
X129462212Y-51861984D01*
X129463011Y-51857557D01*
X129466999Y-51837508D01*
X129467000Y-51837503D01*
X129467000Y-51577000D01*
X128613000Y-51577000D01*
X128613000Y-51837508D01*
X128616989Y-51857561D01*
X128610661Y-51928275D01*
X128567106Y-51984342D01*
X128563417Y-51986904D01*
X128556515Y-51991515D01*
X128500266Y-52075697D01*
X128489349Y-52130582D01*
X128456441Y-52193491D01*
X128394746Y-52228623D01*
X128365770Y-52232000D01*
X126714865Y-52232000D01*
X126631135Y-52232000D01*
X126550256Y-52253671D01*
X126550254Y-52253672D01*
X126550251Y-52253673D01*
X126477743Y-52295535D01*
X124286094Y-54487184D01*
X124223782Y-54521210D01*
X124152966Y-54516145D01*
X124107905Y-54487185D01*
X124055757Y-54435037D01*
X124047899Y-54430500D01*
X123983248Y-54393173D01*
X123983246Y-54393172D01*
X123983244Y-54393171D01*
X123902365Y-54371500D01*
X123902363Y-54371500D01*
X123341000Y-54371500D01*
X123272879Y-54351498D01*
X123226386Y-54297842D01*
X123215000Y-54245500D01*
X123215000Y-53775530D01*
X123205980Y-53741866D01*
X123193329Y-53694651D01*
X123162179Y-53640697D01*
X123151465Y-53622140D01*
X123151461Y-53622135D01*
X123123549Y-53594223D01*
X123092257Y-53562931D01*
X122344336Y-52815010D01*
X121581413Y-52052086D01*
X121581411Y-52052084D01*
X121508903Y-52010222D01*
X121508901Y-52010221D01*
X121508899Y-52010220D01*
X121428020Y-51988549D01*
X121428018Y-51988549D01*
X119313789Y-51988549D01*
X119245668Y-51968547D01*
X119199175Y-51914891D01*
X119189071Y-51844617D01*
X119218565Y-51780037D01*
X119243787Y-51757784D01*
X119349687Y-51687023D01*
X119349693Y-51687018D01*
X119437018Y-51599693D01*
X119437023Y-51599687D01*
X119505638Y-51496997D01*
X119552903Y-51382890D01*
X119552904Y-51382889D01*
X119576999Y-51261756D01*
X119577000Y-51261752D01*
X119577000Y-50827000D01*
X119250000Y-50827000D01*
X119250000Y-50573000D01*
X119577000Y-50573000D01*
X119577000Y-50138247D01*
X119576999Y-50138243D01*
X126963000Y-50138243D01*
X126963000Y-50573000D01*
X127290000Y-50573000D01*
X127290000Y-50827000D01*
X126963000Y-50827000D01*
X126963000Y-51261756D01*
X126987095Y-51382889D01*
X126987096Y-51382890D01*
X127034361Y-51496997D01*
X127102976Y-51599687D01*
X127102981Y-51599693D01*
X127190306Y-51687018D01*
X127190312Y-51687023D01*
X127293002Y-51755638D01*
X127407110Y-51802904D01*
X127463000Y-51814020D01*
X127463000Y-51373087D01*
X127474204Y-51379556D01*
X127550504Y-51400000D01*
X127629496Y-51400000D01*
X127705796Y-51379556D01*
X127717000Y-51373087D01*
X127717000Y-51814019D01*
X127772889Y-51802904D01*
X127886997Y-51755638D01*
X127989687Y-51687023D01*
X127989693Y-51687018D01*
X128077018Y-51599693D01*
X128077023Y-51599687D01*
X128145638Y-51496997D01*
X128192903Y-51382890D01*
X128192904Y-51382889D01*
X128216999Y-51261756D01*
X128217000Y-51261752D01*
X128217000Y-51062491D01*
X128613000Y-51062491D01*
X128613000Y-51323000D01*
X128913000Y-51323000D01*
X129167000Y-51323000D01*
X129467000Y-51323000D01*
X129467000Y-51062496D01*
X129466999Y-51062491D01*
X129459631Y-51025447D01*
X129431561Y-50983438D01*
X129389552Y-50955368D01*
X129352508Y-50948000D01*
X129167000Y-50948000D01*
X129167000Y-51323000D01*
X128913000Y-51323000D01*
X128913000Y-50948000D01*
X128727491Y-50948000D01*
X128690447Y-50955368D01*
X128648438Y-50983438D01*
X128620368Y-51025447D01*
X128613000Y-51062491D01*
X128217000Y-51062491D01*
X128217000Y-50827000D01*
X127890000Y-50827000D01*
X127890000Y-50573000D01*
X128217000Y-50573000D01*
X128217000Y-50138247D01*
X128216999Y-50138243D01*
X128192904Y-50017110D01*
X128192903Y-50017109D01*
X128145638Y-49903002D01*
X128077023Y-49800312D01*
X128077018Y-49800306D01*
X127989693Y-49712981D01*
X127989687Y-49712976D01*
X127886997Y-49644361D01*
X127772892Y-49597096D01*
X127717000Y-49585978D01*
X127717000Y-50026912D01*
X127705796Y-50020444D01*
X127629496Y-50000000D01*
X127550504Y-50000000D01*
X127474204Y-50020444D01*
X127463000Y-50026912D01*
X127463000Y-49585978D01*
X127407107Y-49597096D01*
X127293002Y-49644361D01*
X127190312Y-49712976D01*
X127190306Y-49712981D01*
X127102981Y-49800306D01*
X127102976Y-49800312D01*
X127034361Y-49903002D01*
X126987096Y-50017109D01*
X126987095Y-50017110D01*
X126963000Y-50138243D01*
X119576999Y-50138243D01*
X119552904Y-50017110D01*
X119552903Y-50017109D01*
X119505638Y-49903002D01*
X119437023Y-49800312D01*
X119437018Y-49800306D01*
X119349693Y-49712981D01*
X119349687Y-49712976D01*
X119246997Y-49644361D01*
X119132892Y-49597096D01*
X119077000Y-49585978D01*
X119077000Y-50026912D01*
X119065796Y-50020444D01*
X118989496Y-50000000D01*
X118910504Y-50000000D01*
X118834204Y-50020444D01*
X118823000Y-50026912D01*
X118823000Y-49585978D01*
X118767107Y-49597096D01*
X118653002Y-49644361D01*
X118550312Y-49712976D01*
X118550306Y-49712981D01*
X118462981Y-49800306D01*
X118462976Y-49800312D01*
X118394361Y-49903002D01*
X118347096Y-50017109D01*
X118347095Y-50017110D01*
X118323000Y-50138243D01*
X118323000Y-50573000D01*
X118650000Y-50573000D01*
X118650000Y-50827000D01*
X118323000Y-50827000D01*
X118323000Y-51261756D01*
X118347095Y-51382889D01*
X118347096Y-51382890D01*
X118394361Y-51496997D01*
X118462976Y-51599687D01*
X118462981Y-51599693D01*
X118550306Y-51687018D01*
X118550312Y-51687023D01*
X118656213Y-51757784D01*
X118701741Y-51812261D01*
X118710589Y-51882704D01*
X118679947Y-51946748D01*
X118619546Y-51984059D01*
X118586211Y-51988549D01*
X117870499Y-51988549D01*
X117802378Y-51968547D01*
X117755885Y-51914891D01*
X117744499Y-51862549D01*
X117744499Y-51789936D01*
X117744498Y-51789927D01*
X117729734Y-51715699D01*
X117729733Y-51715697D01*
X117673484Y-51631516D01*
X117673483Y-51631515D01*
X117589302Y-51575266D01*
X117515068Y-51560500D01*
X117144936Y-51560500D01*
X117144926Y-51560501D01*
X117070699Y-51575265D01*
X116986515Y-51631516D01*
X116930266Y-51715697D01*
X116915500Y-51789930D01*
X116915500Y-51862549D01*
X116895498Y-51930670D01*
X116841842Y-51977163D01*
X116789500Y-51988549D01*
X113257817Y-51988549D01*
X113189696Y-51968547D01*
X113143203Y-51914891D01*
X113133099Y-51844617D01*
X113141408Y-51814331D01*
X113141537Y-51814019D01*
X113170228Y-51744754D01*
X113189285Y-51600000D01*
X113170228Y-51455246D01*
X113114355Y-51320358D01*
X113025474Y-51204526D01*
X113025472Y-51204524D01*
X113025471Y-51204523D01*
X112964200Y-51157508D01*
X117043000Y-51157508D01*
X117050368Y-51194552D01*
X117078438Y-51236561D01*
X117120447Y-51264631D01*
X117157491Y-51271999D01*
X117157497Y-51272000D01*
X117203000Y-51272000D01*
X117457000Y-51272000D01*
X117502503Y-51272000D01*
X117502508Y-51271999D01*
X117539552Y-51264631D01*
X117581561Y-51236561D01*
X117609631Y-51194552D01*
X117616999Y-51157508D01*
X117617000Y-51157503D01*
X117617000Y-51057000D01*
X117457000Y-51057000D01*
X117457000Y-51272000D01*
X117203000Y-51272000D01*
X117203000Y-51057000D01*
X117043000Y-51057000D01*
X117043000Y-51157508D01*
X112964200Y-51157508D01*
X112909649Y-51115649D01*
X112909641Y-51115644D01*
X112774752Y-51059771D01*
X112630001Y-51040715D01*
X112630000Y-51040715D01*
X112622670Y-51041679D01*
X112594781Y-51045351D01*
X112524632Y-51034409D01*
X112489243Y-51009523D01*
X112371404Y-50891684D01*
X112337378Y-50829372D01*
X112334499Y-50802589D01*
X112334499Y-50702491D01*
X117043000Y-50702491D01*
X117043000Y-50803000D01*
X117203000Y-50803000D01*
X117457000Y-50803000D01*
X117617000Y-50803000D01*
X117617000Y-50702496D01*
X117616999Y-50702491D01*
X117609631Y-50665447D01*
X117581561Y-50623438D01*
X117539552Y-50595368D01*
X117502508Y-50588000D01*
X117457000Y-50588000D01*
X117457000Y-50803000D01*
X117203000Y-50803000D01*
X117203000Y-50588000D01*
X117157491Y-50588000D01*
X117120447Y-50595368D01*
X117078438Y-50623438D01*
X117050368Y-50665447D01*
X117043000Y-50702491D01*
X112334499Y-50702491D01*
X112334499Y-49524936D01*
X112334498Y-49524927D01*
X112319734Y-49450699D01*
X112263483Y-49366515D01*
X112179302Y-49310266D01*
X112105067Y-49295500D01*
X111154936Y-49295500D01*
X111154926Y-49295501D01*
X111080699Y-49310265D01*
X110996516Y-49366515D01*
X110984762Y-49384106D01*
X110930283Y-49429631D01*
X110859840Y-49438477D01*
X110795797Y-49407833D01*
X110775233Y-49384100D01*
X110763483Y-49366515D01*
X110679302Y-49310266D01*
X110605067Y-49295500D01*
X109654936Y-49295500D01*
X109654926Y-49295501D01*
X109580699Y-49310265D01*
X109496516Y-49366515D01*
X109484762Y-49384106D01*
X109430283Y-49429631D01*
X109359840Y-49438477D01*
X109295797Y-49407833D01*
X109275233Y-49384100D01*
X109263483Y-49366515D01*
X109179302Y-49310266D01*
X109105067Y-49295500D01*
X108154936Y-49295500D01*
X108154926Y-49295501D01*
X108080699Y-49310265D01*
X107996516Y-49366515D01*
X107984762Y-49384106D01*
X107930283Y-49429631D01*
X107859840Y-49438477D01*
X107795797Y-49407833D01*
X107775233Y-49384100D01*
X107763483Y-49366515D01*
X107679302Y-49310266D01*
X107605067Y-49295500D01*
X106654936Y-49295500D01*
X106654926Y-49295501D01*
X106580699Y-49310265D01*
X106496516Y-49366515D01*
X106484762Y-49384106D01*
X106430283Y-49429631D01*
X106359840Y-49438477D01*
X106295797Y-49407833D01*
X106275233Y-49384100D01*
X106263483Y-49366515D01*
X106179302Y-49310266D01*
X106105067Y-49295500D01*
X105154936Y-49295500D01*
X105154926Y-49295501D01*
X105080699Y-49310265D01*
X104996516Y-49366515D01*
X104984762Y-49384106D01*
X104930283Y-49429631D01*
X104859840Y-49438477D01*
X104795797Y-49407833D01*
X104775233Y-49384100D01*
X104763483Y-49366515D01*
X104679302Y-49310266D01*
X104605067Y-49295500D01*
X103654936Y-49295500D01*
X103654926Y-49295501D01*
X103580699Y-49310265D01*
X103496516Y-49366515D01*
X103484762Y-49384106D01*
X103430283Y-49429631D01*
X103359840Y-49438477D01*
X103295797Y-49407833D01*
X103275233Y-49384100D01*
X103263483Y-49366515D01*
X103179302Y-49310266D01*
X103105067Y-49295500D01*
X102154936Y-49295500D01*
X102154926Y-49295501D01*
X102080699Y-49310265D01*
X101996516Y-49366515D01*
X101984762Y-49384106D01*
X101930283Y-49429631D01*
X101859840Y-49438477D01*
X101795797Y-49407833D01*
X101775233Y-49384100D01*
X101763483Y-49366515D01*
X101679302Y-49310266D01*
X101605067Y-49295500D01*
X100654936Y-49295500D01*
X100654926Y-49295501D01*
X100580699Y-49310265D01*
X100496516Y-49366515D01*
X100484762Y-49384106D01*
X100430283Y-49429631D01*
X100359840Y-49438477D01*
X100295797Y-49407833D01*
X100275233Y-49384100D01*
X100263483Y-49366515D01*
X100179302Y-49310266D01*
X100105067Y-49295500D01*
X99154936Y-49295500D01*
X99154926Y-49295501D01*
X99080699Y-49310265D01*
X98996515Y-49366516D01*
X98940266Y-49450697D01*
X98925500Y-49524930D01*
X98925500Y-51075063D01*
X98925501Y-51075073D01*
X98940265Y-51149300D01*
X98977167Y-51204526D01*
X98996516Y-51233484D01*
X99005927Y-51239772D01*
X99032026Y-51257211D01*
X99077554Y-51311688D01*
X99086402Y-51382131D01*
X99078433Y-51410194D01*
X99059772Y-51455245D01*
X99059771Y-51455246D01*
X99040715Y-51599999D01*
X99040715Y-51600000D01*
X99059771Y-51744752D01*
X99115644Y-51879641D01*
X99115649Y-51879649D01*
X99204525Y-51995474D01*
X99309076Y-52075699D01*
X99320357Y-52084355D01*
X99455246Y-52140228D01*
X99600000Y-52159285D01*
X99744754Y-52140228D01*
X99879643Y-52084355D01*
X99995474Y-51995474D01*
X100084355Y-51879643D01*
X100140228Y-51744754D01*
X100159285Y-51600000D01*
X100140228Y-51455246D01*
X100134572Y-51441593D01*
X100126984Y-51371005D01*
X100158763Y-51307518D01*
X100180973Y-51288616D01*
X100263484Y-51233484D01*
X100275235Y-51215896D01*
X100329711Y-51170370D01*
X100400154Y-51161521D01*
X100464199Y-51192162D01*
X100484762Y-51215894D01*
X100487984Y-51220715D01*
X100496516Y-51233484D01*
X100532026Y-51257211D01*
X100577554Y-51311688D01*
X100586402Y-51382131D01*
X100578433Y-51410194D01*
X100559772Y-51455245D01*
X100559771Y-51455246D01*
X100540715Y-51599999D01*
X100540715Y-51600000D01*
X100559771Y-51744752D01*
X100615644Y-51879641D01*
X100615649Y-51879649D01*
X100704525Y-51995474D01*
X100809076Y-52075699D01*
X100820357Y-52084355D01*
X100955246Y-52140228D01*
X101100000Y-52159285D01*
X101244754Y-52140228D01*
X101379643Y-52084355D01*
X101495474Y-51995474D01*
X101584355Y-51879643D01*
X101640228Y-51744754D01*
X101659285Y-51600000D01*
X101640228Y-51455246D01*
X101634572Y-51441593D01*
X101626984Y-51371005D01*
X101658763Y-51307518D01*
X101680973Y-51288616D01*
X101763484Y-51233484D01*
X101775235Y-51215896D01*
X101829711Y-51170370D01*
X101900154Y-51161521D01*
X101964199Y-51192162D01*
X101984762Y-51215894D01*
X101996516Y-51233484D01*
X101996517Y-51233485D01*
X102080697Y-51289733D01*
X102080699Y-51289734D01*
X102154933Y-51304500D01*
X102185999Y-51304499D01*
X102254118Y-51324499D01*
X102300612Y-51378154D01*
X102312000Y-51430499D01*
X102312000Y-52188135D01*
X102312000Y-52271865D01*
X102333671Y-52352744D01*
X102333672Y-52352746D01*
X102333673Y-52352748D01*
X102375535Y-52425256D01*
X103904743Y-53954464D01*
X103969877Y-53992068D01*
X103977256Y-53996329D01*
X104058135Y-54018000D01*
X112916090Y-54018000D01*
X112984211Y-54038002D01*
X113005185Y-54054905D01*
X113245095Y-54294815D01*
X113279121Y-54357127D01*
X113282000Y-54383910D01*
X113282000Y-56758135D01*
X113282000Y-56841865D01*
X113303671Y-56922744D01*
X113303672Y-56922746D01*
X113303673Y-56922748D01*
X113345535Y-56995256D01*
X113704743Y-57354464D01*
X113758382Y-57385432D01*
X113777256Y-57396329D01*
X113858135Y-57418000D01*
X113895771Y-57418000D01*
X113963892Y-57438002D01*
X114010385Y-57491658D01*
X114019350Y-57519420D01*
X114030265Y-57574300D01*
X114089834Y-57663450D01*
X114111049Y-57731202D01*
X114092266Y-57799669D01*
X114085966Y-57808802D01*
X114085646Y-57809355D01*
X114085645Y-57809358D01*
X114068644Y-57850401D01*
X114029771Y-57944247D01*
X114010715Y-58088999D01*
X114010715Y-58089000D01*
X114029771Y-58233752D01*
X114085644Y-58368641D01*
X114085649Y-58368649D01*
X114174525Y-58484474D01*
X114290350Y-58573350D01*
X114290357Y-58573355D01*
X114425246Y-58629228D01*
X114570000Y-58648285D01*
X114714754Y-58629228D01*
X114849643Y-58573355D01*
X114965474Y-58484474D01*
X114990003Y-58452508D01*
X115022538Y-58410108D01*
X115079876Y-58368241D01*
X115150747Y-58364019D01*
X115212650Y-58398783D01*
X115245931Y-58461496D01*
X115248500Y-58486812D01*
X115248500Y-62338401D01*
X115228498Y-62406522D01*
X115174842Y-62453015D01*
X115167155Y-62455497D01*
X115167164Y-62455517D01*
X115155698Y-62460266D01*
X115149999Y-62464074D01*
X115082246Y-62485287D01*
X115013780Y-62466502D01*
X115009998Y-62464072D01*
X115004302Y-62460266D01*
X114930068Y-62445500D01*
X114129936Y-62445500D01*
X114129926Y-62445501D01*
X114055699Y-62460265D01*
X113971515Y-62516516D01*
X113915266Y-62600697D01*
X113900500Y-62674930D01*
X113900500Y-63325063D01*
X113900501Y-63325073D01*
X113915265Y-63399300D01*
X113920245Y-63406753D01*
X113971516Y-63483484D01*
X114016522Y-63513556D01*
X114062049Y-63568034D01*
X114070896Y-63638477D01*
X114043311Y-63696132D01*
X114043410Y-63696198D01*
X114042952Y-63696882D01*
X114040255Y-63702521D01*
X114036628Y-63706347D01*
X113980266Y-63790696D01*
X113978808Y-63794218D01*
X113973572Y-63800714D01*
X113973370Y-63801018D01*
X113973342Y-63800999D01*
X113934260Y-63849499D01*
X113866896Y-63871920D01*
X113862399Y-63872000D01*
X104481865Y-63872000D01*
X104398135Y-63872000D01*
X104317256Y-63893671D01*
X104317254Y-63893672D01*
X104317251Y-63893673D01*
X104244743Y-63935535D01*
X101421683Y-66758595D01*
X101359371Y-66792621D01*
X101332588Y-66795500D01*
X100654936Y-66795500D01*
X100654926Y-66795501D01*
X100580699Y-66810265D01*
X100496516Y-66866515D01*
X100484762Y-66884106D01*
X100430283Y-66929631D01*
X100359840Y-66938477D01*
X100295797Y-66907833D01*
X100275233Y-66884100D01*
X100263483Y-66866515D01*
X100179302Y-66810266D01*
X100105067Y-66795500D01*
X99154936Y-66795500D01*
X99154926Y-66795501D01*
X99080699Y-66810265D01*
X98996515Y-66866516D01*
X98940266Y-66950697D01*
X98925500Y-67024930D01*
X98925500Y-68575063D01*
X98925501Y-68575073D01*
X98940265Y-68649300D01*
X98996517Y-68733486D01*
X99005290Y-68742259D01*
X99003759Y-68743789D01*
X99038943Y-68785890D01*
X99049413Y-68836177D01*
X99049413Y-70674006D01*
X99055343Y-70729159D01*
X99066729Y-70781501D01*
X99071690Y-70799584D01*
X99074078Y-70808289D01*
X99124183Y-70896279D01*
X99124188Y-70896286D01*
X99170665Y-70949923D01*
X99170675Y-70949934D01*
X99203964Y-70982056D01*
X99293683Y-71028987D01*
X99361804Y-71048989D01*
X99434913Y-71059500D01*
X99508913Y-71059500D01*
X104028702Y-71059500D01*
X104096823Y-71079502D01*
X104143316Y-71133158D01*
X104153624Y-71201946D01*
X104140715Y-71299999D01*
X104140715Y-71300000D01*
X104159771Y-71444752D01*
X104159772Y-71444754D01*
X104215645Y-71579643D01*
X104215646Y-71579645D01*
X104216449Y-71581582D01*
X104224038Y-71652171D01*
X104197349Y-71705489D01*
X104198410Y-71706198D01*
X104192766Y-71714643D01*
X104192259Y-71715658D01*
X104191705Y-71716231D01*
X104135266Y-71800697D01*
X104120500Y-71874930D01*
X104120500Y-72525063D01*
X104120501Y-72525073D01*
X104135265Y-72599300D01*
X104191516Y-72683484D01*
X104275697Y-72739733D01*
X104275699Y-72739734D01*
X104320385Y-72748622D01*
X104330582Y-72750651D01*
X104393491Y-72783559D01*
X104428623Y-72845254D01*
X104432000Y-72874230D01*
X104432000Y-73779500D01*
X104411998Y-73847621D01*
X104358342Y-73894114D01*
X104306000Y-73905500D01*
X103969936Y-73905500D01*
X103969926Y-73905501D01*
X103895699Y-73920265D01*
X103811515Y-73976516D01*
X103755266Y-74060697D01*
X103740500Y-74134930D01*
X103740500Y-74134933D01*
X103740500Y-74287000D01*
X103740501Y-74355999D01*
X103720499Y-74424120D01*
X103666844Y-74470613D01*
X103614501Y-74482000D01*
X102574229Y-74482000D01*
X102506108Y-74461998D01*
X102459615Y-74408342D01*
X102450650Y-74380580D01*
X102439734Y-74325699D01*
X102376589Y-74231197D01*
X102380288Y-74228724D01*
X102357805Y-74187550D01*
X102362870Y-74116735D01*
X102380966Y-74084059D01*
X102384355Y-74079643D01*
X102440228Y-73944754D01*
X102459285Y-73800000D01*
X102440228Y-73655246D01*
X102384355Y-73520358D01*
X102295474Y-73404526D01*
X102295472Y-73404524D01*
X102295471Y-73404523D01*
X102179649Y-73315649D01*
X102179641Y-73315644D01*
X102044752Y-73259771D01*
X101900000Y-73240715D01*
X101755247Y-73259771D01*
X101687802Y-73287708D01*
X101620358Y-73315645D01*
X101620357Y-73315646D01*
X101620356Y-73315646D01*
X101504526Y-73404526D01*
X101415646Y-73520356D01*
X101415645Y-73520358D01*
X101413750Y-73524933D01*
X101359771Y-73655247D01*
X101340715Y-73799999D01*
X101340715Y-73800000D01*
X101359771Y-73944752D01*
X101415644Y-74079641D01*
X101415649Y-74079649D01*
X101419037Y-74084064D01*
X101444637Y-74150284D01*
X101430372Y-74219833D01*
X101422451Y-74230558D01*
X101423410Y-74231199D01*
X101360266Y-74325697D01*
X101345500Y-74399930D01*
X101345500Y-75200063D01*
X101345501Y-75200073D01*
X101360265Y-75274300D01*
X101364072Y-75279997D01*
X101385287Y-75347749D01*
X101366504Y-75416216D01*
X101364074Y-75419998D01*
X101360266Y-75425696D01*
X101345500Y-75499930D01*
X101345500Y-76300063D01*
X101345501Y-76300073D01*
X101360265Y-76374300D01*
X101416516Y-76458484D01*
X101500697Y-76514733D01*
X101500699Y-76514734D01*
X101574933Y-76529500D01*
X101937786Y-76529499D01*
X102005906Y-76549501D01*
X102026881Y-76566404D01*
X102091724Y-76631247D01*
X102162753Y-76702276D01*
X102162754Y-76702277D01*
X102162756Y-76702278D01*
X102249741Y-76752499D01*
X102249743Y-76752499D01*
X102249746Y-76752501D01*
X102346775Y-76778500D01*
X102346777Y-76778500D01*
X105653223Y-76778500D01*
X105653225Y-76778500D01*
X105750254Y-76752501D01*
X105750257Y-76752499D01*
X105750258Y-76752499D01*
X105833682Y-76704334D01*
X105837247Y-76702276D01*
X105908276Y-76631247D01*
X106095276Y-76444247D01*
X106120389Y-76400750D01*
X106145500Y-76357257D01*
X106145500Y-76357255D01*
X106145502Y-76357253D01*
X106161944Y-76295888D01*
X106198896Y-76235266D01*
X106262757Y-76204245D01*
X106283651Y-76202500D01*
X107313341Y-76202500D01*
X107381462Y-76222502D01*
X107402436Y-76239405D01*
X107406514Y-76243483D01*
X107490697Y-76299733D01*
X107490699Y-76299734D01*
X107564933Y-76314500D01*
X108235066Y-76314499D01*
X108235069Y-76314498D01*
X108235073Y-76314498D01*
X108284326Y-76304701D01*
X108309301Y-76299734D01*
X108393484Y-76243484D01*
X108449734Y-76159301D01*
X108459537Y-76110016D01*
X108492444Y-76047107D01*
X108494021Y-76045502D01*
X108545276Y-75994247D01*
X108889524Y-75649999D01*
X110190715Y-75649999D01*
X110190715Y-75650000D01*
X110209771Y-75794752D01*
X110256026Y-75906420D01*
X110263615Y-75977010D01*
X110244382Y-76024640D01*
X110210266Y-76075697D01*
X110195500Y-76149930D01*
X110195500Y-76950063D01*
X110195501Y-76950073D01*
X110210265Y-77024300D01*
X110214072Y-77029997D01*
X110235287Y-77097749D01*
X110216504Y-77166216D01*
X110214074Y-77169998D01*
X110210266Y-77175696D01*
X110195500Y-77249930D01*
X110195500Y-78050063D01*
X110195501Y-78050073D01*
X110210265Y-78124300D01*
X110266516Y-78208484D01*
X110350697Y-78264733D01*
X110350699Y-78264734D01*
X110424933Y-78279500D01*
X111075066Y-78279499D01*
X111075069Y-78279498D01*
X111075073Y-78279498D01*
X111124326Y-78269701D01*
X111149301Y-78264734D01*
X111233484Y-78208484D01*
X111289734Y-78124301D01*
X111299554Y-78074933D01*
X111300651Y-78069418D01*
X111333559Y-78006509D01*
X111395254Y-77971377D01*
X111424230Y-77968000D01*
X112419501Y-77968000D01*
X112487622Y-77988002D01*
X112534115Y-78041658D01*
X112545501Y-78094000D01*
X112545501Y-78425072D01*
X112560265Y-78499300D01*
X112616516Y-78583484D01*
X112700697Y-78639733D01*
X112700699Y-78639734D01*
X112774933Y-78654500D01*
X114925066Y-78654499D01*
X114925069Y-78654498D01*
X114925073Y-78654498D01*
X114974326Y-78644701D01*
X114999301Y-78639734D01*
X115083484Y-78583484D01*
X115139734Y-78499301D01*
X115154500Y-78425067D01*
X115154499Y-76974934D01*
X115154498Y-76974930D01*
X121645500Y-76974930D01*
X121645500Y-78425063D01*
X121645501Y-78425073D01*
X121660265Y-78499300D01*
X121716516Y-78583484D01*
X121800697Y-78639733D01*
X121800699Y-78639734D01*
X121874933Y-78654500D01*
X124025066Y-78654499D01*
X124025069Y-78654498D01*
X124025073Y-78654498D01*
X124074326Y-78644701D01*
X124099301Y-78639734D01*
X124183484Y-78583484D01*
X124239734Y-78499301D01*
X124254500Y-78425067D01*
X124254499Y-76974934D01*
X124254498Y-76974930D01*
X124254498Y-76974926D01*
X124239734Y-76900699D01*
X124224098Y-76877299D01*
X124183484Y-76816516D01*
X124183483Y-76816515D01*
X124099302Y-76760266D01*
X124025067Y-76745500D01*
X121874936Y-76745500D01*
X121874926Y-76745501D01*
X121800699Y-76760265D01*
X121716515Y-76816516D01*
X121660266Y-76900697D01*
X121645500Y-76974930D01*
X115154498Y-76974930D01*
X115154498Y-76974926D01*
X115139734Y-76900699D01*
X115124098Y-76877299D01*
X115083484Y-76816516D01*
X115083483Y-76816515D01*
X114999302Y-76760266D01*
X114925067Y-76745500D01*
X112774936Y-76745500D01*
X112774926Y-76745501D01*
X112700699Y-76760265D01*
X112616515Y-76816516D01*
X112560266Y-76900697D01*
X112545500Y-76974930D01*
X112545500Y-77206000D01*
X112525498Y-77274121D01*
X112471842Y-77320614D01*
X112419500Y-77332000D01*
X111424229Y-77332000D01*
X111356108Y-77311998D01*
X111309615Y-77258342D01*
X111300650Y-77230580D01*
X111289734Y-77175699D01*
X111289732Y-77175696D01*
X111285926Y-77170001D01*
X111264712Y-77102250D01*
X111283495Y-77033783D01*
X111285929Y-77029995D01*
X111289734Y-77024301D01*
X111304500Y-76950067D01*
X111304499Y-76149934D01*
X111304498Y-76149930D01*
X111304498Y-76149926D01*
X111291597Y-76085067D01*
X111289734Y-76075699D01*
X111255617Y-76024640D01*
X111234402Y-75956890D01*
X111243971Y-75906425D01*
X111290228Y-75794754D01*
X111309285Y-75650000D01*
X111307301Y-75634933D01*
X111290228Y-75505247D01*
X111290228Y-75505246D01*
X111234355Y-75370358D01*
X111145474Y-75254526D01*
X111145472Y-75254524D01*
X111145471Y-75254523D01*
X111029649Y-75165649D01*
X111029641Y-75165644D01*
X110894752Y-75109771D01*
X110750000Y-75090715D01*
X110605247Y-75109771D01*
X110544500Y-75134934D01*
X110470358Y-75165645D01*
X110470357Y-75165646D01*
X110470356Y-75165646D01*
X110354526Y-75254526D01*
X110265646Y-75370356D01*
X110265645Y-75370358D01*
X110245083Y-75419998D01*
X110209771Y-75505247D01*
X110190715Y-75649999D01*
X108889524Y-75649999D01*
X108905276Y-75634247D01*
X108955502Y-75547253D01*
X108981500Y-75450225D01*
X108981500Y-75349775D01*
X108981500Y-73912508D01*
X112673000Y-73912508D01*
X112680368Y-73949552D01*
X112708438Y-73991561D01*
X112750447Y-74019631D01*
X112787491Y-74026999D01*
X112787497Y-74027000D01*
X113723000Y-74027000D01*
X113977000Y-74027000D01*
X114912503Y-74027000D01*
X114912508Y-74026999D01*
X114949552Y-74019631D01*
X114991561Y-73991561D01*
X115019631Y-73949552D01*
X115026999Y-73912508D01*
X121773000Y-73912508D01*
X121780368Y-73949552D01*
X121808438Y-73991561D01*
X121850447Y-74019631D01*
X121887491Y-74026999D01*
X121887497Y-74027000D01*
X122823000Y-74027000D01*
X123077000Y-74027000D01*
X124012503Y-74027000D01*
X124012508Y-74026999D01*
X124049552Y-74019631D01*
X124091561Y-73991561D01*
X124119631Y-73949552D01*
X124126999Y-73912508D01*
X124127000Y-73912503D01*
X124127000Y-73327000D01*
X123077000Y-73327000D01*
X123077000Y-74027000D01*
X122823000Y-74027000D01*
X122823000Y-73327000D01*
X121773000Y-73327000D01*
X121773000Y-73912508D01*
X115026999Y-73912508D01*
X115027000Y-73912503D01*
X115027000Y-73327000D01*
X113977000Y-73327000D01*
X113977000Y-74027000D01*
X113723000Y-74027000D01*
X113723000Y-73327000D01*
X112673000Y-73327000D01*
X112673000Y-73912508D01*
X108981500Y-73912508D01*
X108981500Y-73549775D01*
X108955501Y-73452746D01*
X108955499Y-73452743D01*
X108955499Y-73452741D01*
X108905278Y-73365756D01*
X108905274Y-73365751D01*
X108834247Y-73294724D01*
X108135400Y-72595877D01*
X108027014Y-72487491D01*
X112673000Y-72487491D01*
X112673000Y-73073000D01*
X113723000Y-73073000D01*
X113977000Y-73073000D01*
X115027000Y-73073000D01*
X115027000Y-72487496D01*
X115026999Y-72487491D01*
X121773000Y-72487491D01*
X121773000Y-73073000D01*
X122823000Y-73073000D01*
X123077000Y-73073000D01*
X124127000Y-73073000D01*
X124127000Y-72487496D01*
X124126999Y-72487491D01*
X124119631Y-72450447D01*
X124091561Y-72408438D01*
X124049552Y-72380368D01*
X124012508Y-72373000D01*
X123077000Y-72373000D01*
X123077000Y-73073000D01*
X122823000Y-73073000D01*
X122823000Y-72373000D01*
X121887491Y-72373000D01*
X121850447Y-72380368D01*
X121808438Y-72408438D01*
X121780368Y-72450447D01*
X121773000Y-72487491D01*
X115026999Y-72487491D01*
X115019631Y-72450447D01*
X114991561Y-72408438D01*
X114949552Y-72380368D01*
X114912508Y-72373000D01*
X113977000Y-72373000D01*
X113977000Y-73073000D01*
X113723000Y-73073000D01*
X113723000Y-72373000D01*
X112787491Y-72373000D01*
X112750447Y-72380368D01*
X112708438Y-72408438D01*
X112680368Y-72450447D01*
X112673000Y-72487491D01*
X108027014Y-72487491D01*
X107434254Y-71894730D01*
X107434250Y-71894727D01*
X107434247Y-71894724D01*
X107399969Y-71874934D01*
X107382397Y-71864789D01*
X107347258Y-71844501D01*
X107347255Y-71844500D01*
X107347254Y-71844499D01*
X107347252Y-71844498D01*
X107347251Y-71844498D01*
X107321253Y-71837532D01*
X107250225Y-71818500D01*
X107250223Y-71818500D01*
X107185500Y-71818500D01*
X107117379Y-71798498D01*
X107070886Y-71744842D01*
X107059500Y-71692500D01*
X107059500Y-71185500D01*
X107079502Y-71117379D01*
X107133158Y-71070886D01*
X107185500Y-71059500D01*
X128223413Y-71059500D01*
X128291534Y-71079502D01*
X128338027Y-71133158D01*
X128349413Y-71185500D01*
X128349413Y-77774006D01*
X128355343Y-77829161D01*
X128362938Y-77864074D01*
X128366729Y-77881501D01*
X128374079Y-77908291D01*
X128419469Y-77988002D01*
X128424183Y-77996279D01*
X128424188Y-77996286D01*
X128470665Y-78049923D01*
X128470682Y-78049941D01*
X128490867Y-78069418D01*
X128503964Y-78082056D01*
X128593683Y-78128987D01*
X128661804Y-78148989D01*
X128734913Y-78159500D01*
X128734916Y-78159500D01*
X130297516Y-78159500D01*
X130297522Y-78159500D01*
X130365053Y-78150559D01*
X130428373Y-78133493D01*
X130466524Y-78119939D01*
X130549178Y-78061456D01*
X130549180Y-78061454D01*
X130565898Y-78043818D01*
X130627279Y-78008139D01*
X130657344Y-78004499D01*
X131341589Y-78004499D01*
X131409710Y-78024501D01*
X131456203Y-78078157D01*
X131466307Y-78148431D01*
X131436813Y-78213011D01*
X131430685Y-78219594D01*
X130805185Y-78845095D01*
X130742872Y-78879120D01*
X130716089Y-78882000D01*
X129117058Y-78882000D01*
X129048937Y-78861998D01*
X129017095Y-78832703D01*
X129008716Y-78821783D01*
X128995474Y-78804526D01*
X128988665Y-78799301D01*
X128879649Y-78715649D01*
X128879641Y-78715644D01*
X128744752Y-78659771D01*
X128600000Y-78640715D01*
X128455247Y-78659771D01*
X128407259Y-78679649D01*
X128320358Y-78715645D01*
X128320357Y-78715646D01*
X128320356Y-78715646D01*
X128204526Y-78804526D01*
X128115646Y-78920356D01*
X128115645Y-78920358D01*
X128089466Y-78983559D01*
X128059771Y-79055247D01*
X128040715Y-79199999D01*
X128040715Y-79200000D01*
X128059771Y-79344752D01*
X128115644Y-79479641D01*
X128115649Y-79479649D01*
X128204525Y-79595474D01*
X128320350Y-79684350D01*
X128320357Y-79684355D01*
X128455246Y-79740228D01*
X128600000Y-79759285D01*
X128744754Y-79740228D01*
X128879643Y-79684355D01*
X128995474Y-79595474D01*
X129017095Y-79567296D01*
X129074433Y-79525429D01*
X129117058Y-79518000D01*
X130941863Y-79518000D01*
X130941865Y-79518000D01*
X131022744Y-79496329D01*
X131067727Y-79470357D01*
X131095256Y-79454464D01*
X132149721Y-78399999D01*
X138540715Y-78399999D01*
X138540715Y-78400000D01*
X138559771Y-78544752D01*
X138615644Y-78679641D01*
X138615649Y-78679649D01*
X138704525Y-78795474D01*
X138820350Y-78884350D01*
X138820357Y-78884355D01*
X138955246Y-78940228D01*
X139100000Y-78959285D01*
X139244754Y-78940228D01*
X139379643Y-78884355D01*
X139446414Y-78833119D01*
X139512632Y-78807519D01*
X139582181Y-78821783D01*
X139627881Y-78863079D01*
X139641515Y-78883484D01*
X139725697Y-78939733D01*
X139725699Y-78939734D01*
X139799933Y-78954500D01*
X140600066Y-78954499D01*
X140600069Y-78954498D01*
X140600073Y-78954498D01*
X140636926Y-78947167D01*
X140674301Y-78939734D01*
X140679996Y-78935928D01*
X140747746Y-78914712D01*
X140816213Y-78933493D01*
X140820001Y-78935927D01*
X140823108Y-78938003D01*
X140825699Y-78939734D01*
X140872546Y-78949052D01*
X140880582Y-78950651D01*
X140943491Y-78983559D01*
X140978623Y-79045254D01*
X140982000Y-79074230D01*
X140982000Y-80072002D01*
X140961998Y-80140123D01*
X140926004Y-80176766D01*
X140866515Y-80216516D01*
X140810266Y-80300697D01*
X140795500Y-80374930D01*
X140795500Y-81025063D01*
X140795501Y-81025073D01*
X140810265Y-81099300D01*
X140866516Y-81183484D01*
X140950697Y-81239733D01*
X140950699Y-81239734D01*
X141024933Y-81254500D01*
X141675066Y-81254499D01*
X141675069Y-81254498D01*
X141675073Y-81254498D01*
X141724326Y-81244701D01*
X141749301Y-81239734D01*
X141833484Y-81183484D01*
X141889734Y-81099301D01*
X141904500Y-81025067D01*
X141904499Y-81025058D01*
X141905106Y-81018911D01*
X141907823Y-81019178D01*
X141924502Y-80962378D01*
X141978158Y-80915885D01*
X142030500Y-80904499D01*
X142198163Y-80904499D01*
X142266284Y-80924501D01*
X142312777Y-80978157D01*
X142320464Y-81006702D01*
X142321793Y-81006438D01*
X142330368Y-81049552D01*
X142358438Y-81091561D01*
X142400447Y-81119631D01*
X142437491Y-81126999D01*
X142437497Y-81127000D01*
X142623000Y-81127000D01*
X142877000Y-81127000D01*
X143062503Y-81127000D01*
X143062508Y-81126999D01*
X143099552Y-81119631D01*
X143141561Y-81091561D01*
X143169631Y-81049552D01*
X143176999Y-81012508D01*
X143177000Y-81012503D01*
X143177000Y-80827000D01*
X142877000Y-80827000D01*
X142877000Y-81127000D01*
X142623000Y-81127000D01*
X142623000Y-80573000D01*
X142877000Y-80573000D01*
X143177000Y-80573000D01*
X143177000Y-80387496D01*
X143176999Y-80387491D01*
X143169631Y-80350447D01*
X143141561Y-80308438D01*
X143099552Y-80280368D01*
X143062508Y-80273000D01*
X142877000Y-80273000D01*
X142877000Y-80573000D01*
X142623000Y-80573000D01*
X142623000Y-80272999D01*
X142619884Y-80269883D01*
X142562378Y-80252998D01*
X142515885Y-80199342D01*
X142504499Y-80147000D01*
X142504499Y-80124936D01*
X142504498Y-80124927D01*
X142489734Y-80050699D01*
X142433483Y-79966515D01*
X142349302Y-79910266D01*
X142275068Y-79895500D01*
X141824936Y-79895500D01*
X141824924Y-79895502D01*
X141768579Y-79906709D01*
X141697865Y-79900380D01*
X141641799Y-79856825D01*
X141618181Y-79789872D01*
X141618000Y-79783130D01*
X141618000Y-79074228D01*
X141638002Y-79006107D01*
X141691658Y-78959614D01*
X141719412Y-78950651D01*
X141774301Y-78939734D01*
X141858484Y-78883484D01*
X141914734Y-78799301D01*
X141929500Y-78725067D01*
X141929499Y-78074934D01*
X141929498Y-78074930D01*
X141929498Y-78074926D01*
X141914734Y-78000699D01*
X141861971Y-77921735D01*
X141858484Y-77916516D01*
X141858483Y-77916515D01*
X141774302Y-77860266D01*
X141700068Y-77845500D01*
X140899936Y-77845500D01*
X140899926Y-77845501D01*
X140825698Y-77860266D01*
X140819999Y-77864074D01*
X140752246Y-77885287D01*
X140683780Y-77866502D01*
X140679998Y-77864072D01*
X140674302Y-77860266D01*
X140600068Y-77845500D01*
X139799936Y-77845500D01*
X139799926Y-77845501D01*
X139725699Y-77860265D01*
X139641515Y-77916516D01*
X139627880Y-77936922D01*
X139573402Y-77982448D01*
X139502959Y-77991294D01*
X139446413Y-77966879D01*
X139379649Y-77915649D01*
X139379641Y-77915644D01*
X139244752Y-77859771D01*
X139100000Y-77840715D01*
X138955247Y-77859771D01*
X138902788Y-77881501D01*
X138820358Y-77915645D01*
X138820357Y-77915646D01*
X138820356Y-77915646D01*
X138704526Y-78004526D01*
X138615646Y-78120356D01*
X138615645Y-78120358D01*
X138603135Y-78150560D01*
X138559771Y-78255247D01*
X138540715Y-78399999D01*
X132149721Y-78399999D01*
X132504457Y-78045263D01*
X132504463Y-78045257D01*
X132524529Y-78010502D01*
X132546329Y-77972743D01*
X132562841Y-77911116D01*
X132599791Y-77850496D01*
X132663651Y-77819474D01*
X132734146Y-77827902D01*
X132754548Y-77838963D01*
X132800447Y-77869631D01*
X132837491Y-77876999D01*
X132837497Y-77877000D01*
X133273000Y-77877000D01*
X133527000Y-77877000D01*
X133962503Y-77877000D01*
X133962508Y-77876999D01*
X133999552Y-77869631D01*
X134041561Y-77841561D01*
X134069631Y-77799552D01*
X134076999Y-77762508D01*
X134077000Y-77762503D01*
X134077000Y-77427000D01*
X133527000Y-77427000D01*
X133527000Y-77877000D01*
X133273000Y-77877000D01*
X133273000Y-77173000D01*
X133527000Y-77173000D01*
X134077000Y-77173000D01*
X134077000Y-76837496D01*
X134076999Y-76837491D01*
X134069631Y-76800447D01*
X134041561Y-76758438D01*
X133999552Y-76730368D01*
X133962508Y-76723000D01*
X133527000Y-76723000D01*
X133527000Y-77173000D01*
X133273000Y-77173000D01*
X133273000Y-76723000D01*
X132837491Y-76723000D01*
X132800447Y-76730368D01*
X132764001Y-76754721D01*
X132696248Y-76775935D01*
X132627781Y-76757151D01*
X132580338Y-76704334D01*
X132568000Y-76649955D01*
X132568000Y-74830499D01*
X132588002Y-74762378D01*
X132641658Y-74715885D01*
X132694000Y-74704499D01*
X132975064Y-74704499D01*
X132975066Y-74704499D01*
X132975069Y-74704498D01*
X132975072Y-74704498D01*
X133011663Y-74697219D01*
X133049301Y-74689734D01*
X133133484Y-74633484D01*
X133189734Y-74549301D01*
X133204500Y-74475067D01*
X133204499Y-73524934D01*
X133204498Y-73524930D01*
X133204498Y-73524926D01*
X133189734Y-73450699D01*
X133133483Y-73366515D01*
X133049302Y-73310266D01*
X132975067Y-73295500D01*
X131524936Y-73295500D01*
X131524926Y-73295501D01*
X131450699Y-73310265D01*
X131366515Y-73366516D01*
X131310266Y-73450697D01*
X131295500Y-73524930D01*
X131295500Y-74475063D01*
X131295501Y-74475073D01*
X131310265Y-74549300D01*
X131366516Y-74633484D01*
X131450697Y-74689733D01*
X131450699Y-74689734D01*
X131524933Y-74704500D01*
X131806001Y-74704499D01*
X131874120Y-74724501D01*
X131920613Y-74778156D01*
X131932000Y-74830499D01*
X131932000Y-75836983D01*
X131911998Y-75905104D01*
X131858342Y-75951597D01*
X131788068Y-75961701D01*
X131770504Y-75957880D01*
X131759819Y-75954742D01*
X131747109Y-75951011D01*
X131674000Y-75940500D01*
X131673997Y-75940500D01*
X130085500Y-75940500D01*
X130017379Y-75920498D01*
X129970886Y-75866842D01*
X129959500Y-75814500D01*
X129959500Y-66933000D01*
X129979502Y-66864879D01*
X130033158Y-66818386D01*
X130085500Y-66807000D01*
X130213000Y-66807000D01*
X130467000Y-66807000D01*
X130662503Y-66807000D01*
X130662508Y-66806999D01*
X130699552Y-66799631D01*
X130741561Y-66771561D01*
X130769631Y-66729552D01*
X130776999Y-66692508D01*
X130777000Y-66692503D01*
X130777000Y-66507000D01*
X130467000Y-66507000D01*
X130467000Y-66807000D01*
X130213000Y-66807000D01*
X130213000Y-66379000D01*
X130233002Y-66310879D01*
X130286658Y-66264386D01*
X130339000Y-66253000D01*
X130777000Y-66253000D01*
X130777000Y-66067492D01*
X130776431Y-66061719D01*
X130789655Y-65991964D01*
X130824862Y-65952411D01*
X130824710Y-65952259D01*
X130827340Y-65949628D01*
X130831820Y-65944595D01*
X130833484Y-65943484D01*
X130889734Y-65859301D01*
X130889734Y-65859300D01*
X130891192Y-65855782D01*
X130896427Y-65849285D01*
X130896630Y-65848982D01*
X130896657Y-65849000D01*
X130935740Y-65800501D01*
X131003104Y-65778080D01*
X131007601Y-65778000D01*
X131519501Y-65778000D01*
X131587622Y-65798002D01*
X131634115Y-65851658D01*
X131645501Y-65904000D01*
X131645501Y-66085072D01*
X131660265Y-66159300D01*
X131716516Y-66243484D01*
X131800697Y-66299733D01*
X131800699Y-66299734D01*
X131874933Y-66314500D01*
X133325066Y-66314499D01*
X133325069Y-66314498D01*
X133325073Y-66314498D01*
X133374326Y-66304701D01*
X133399301Y-66299734D01*
X133483484Y-66243484D01*
X133539734Y-66159301D01*
X133554500Y-66085067D01*
X133554499Y-64834934D01*
X133554498Y-64834930D01*
X133554498Y-64834926D01*
X133539734Y-64760700D01*
X133539734Y-64760699D01*
X133519222Y-64730001D01*
X133498007Y-64662251D01*
X133516789Y-64593784D01*
X133519207Y-64590020D01*
X133539734Y-64559301D01*
X133552762Y-64493803D01*
X133554500Y-64485068D01*
X133554500Y-64485067D01*
X133554499Y-63234934D01*
X133554499Y-63234933D01*
X133554499Y-63234929D01*
X133554392Y-63233842D01*
X133554499Y-63233277D01*
X133554499Y-63228744D01*
X133555359Y-63228744D01*
X133567625Y-63164090D01*
X133616469Y-63112565D01*
X133679786Y-63095500D01*
X133720213Y-63095500D01*
X133788334Y-63115502D01*
X133834827Y-63169158D01*
X133844757Y-63228743D01*
X133845500Y-63228743D01*
X133845500Y-63233201D01*
X133845607Y-63233844D01*
X133845500Y-63234930D01*
X133845500Y-64485063D01*
X133845501Y-64485068D01*
X133860266Y-64559301D01*
X133860265Y-64559301D01*
X133880776Y-64589996D01*
X133901992Y-64657749D01*
X133883210Y-64726216D01*
X133880777Y-64730001D01*
X133860266Y-64760697D01*
X133845500Y-64834930D01*
X133845500Y-66085063D01*
X133845501Y-66085073D01*
X133860265Y-66159300D01*
X133916516Y-66243484D01*
X134000697Y-66299733D01*
X134000699Y-66299734D01*
X134074933Y-66314500D01*
X135525066Y-66314499D01*
X135525069Y-66314498D01*
X135525073Y-66314498D01*
X135574326Y-66304701D01*
X135599301Y-66299734D01*
X135683484Y-66243484D01*
X135739734Y-66159301D01*
X135754500Y-66085067D01*
X135754499Y-65092508D01*
X136653000Y-65092508D01*
X136660368Y-65129552D01*
X136688438Y-65171561D01*
X136730447Y-65199631D01*
X136767491Y-65206999D01*
X136767497Y-65207000D01*
X136963000Y-65207000D01*
X137217000Y-65207000D01*
X137412503Y-65207000D01*
X137412508Y-65206999D01*
X137449552Y-65199631D01*
X137491561Y-65171561D01*
X137519631Y-65129552D01*
X137526999Y-65092508D01*
X137527000Y-65092503D01*
X137527000Y-64907000D01*
X137217000Y-64907000D01*
X137217000Y-65207000D01*
X136963000Y-65207000D01*
X136963000Y-64907000D01*
X136653000Y-64907000D01*
X136653000Y-65092508D01*
X135754499Y-65092508D01*
X135754499Y-64834934D01*
X135754498Y-64834930D01*
X135754498Y-64834926D01*
X135739734Y-64760700D01*
X135739734Y-64760699D01*
X135719222Y-64730001D01*
X135698007Y-64662251D01*
X135716789Y-64593784D01*
X135719207Y-64590020D01*
X135739734Y-64559301D01*
X135752762Y-64493803D01*
X135754500Y-64485068D01*
X135754500Y-64304000D01*
X135774502Y-64235879D01*
X135828158Y-64189386D01*
X135880500Y-64178000D01*
X136422400Y-64178000D01*
X136490521Y-64198002D01*
X136537014Y-64251658D01*
X136538810Y-64255786D01*
X136540265Y-64259300D01*
X136596516Y-64343484D01*
X136598181Y-64344597D01*
X136600993Y-64347962D01*
X136605290Y-64352259D01*
X136604905Y-64352643D01*
X136643707Y-64399075D01*
X136653569Y-64461708D01*
X136653000Y-64467486D01*
X136653000Y-64653000D01*
X137527000Y-64653000D01*
X137527000Y-64652508D01*
X146433000Y-64652508D01*
X146440368Y-64689552D01*
X146468438Y-64731561D01*
X146510447Y-64759631D01*
X146547491Y-64766999D01*
X146547497Y-64767000D01*
X148973000Y-64767000D01*
X149227000Y-64767000D01*
X151652503Y-64767000D01*
X151652508Y-64766999D01*
X151689552Y-64759631D01*
X151731561Y-64731561D01*
X151759631Y-64689552D01*
X151766999Y-64652508D01*
X151767000Y-64652503D01*
X151767000Y-63559500D01*
X149227000Y-63559500D01*
X149227000Y-64767000D01*
X148973000Y-64767000D01*
X148973000Y-63559500D01*
X146433000Y-63559500D01*
X146433000Y-64652508D01*
X137527000Y-64652508D01*
X137527000Y-64467492D01*
X137526431Y-64461719D01*
X137539655Y-64391964D01*
X137574862Y-64352411D01*
X137574710Y-64352259D01*
X137577340Y-64349628D01*
X137581820Y-64344595D01*
X137583484Y-64343484D01*
X137639734Y-64259301D01*
X137654500Y-64185067D01*
X137654499Y-63534934D01*
X137654498Y-63534931D01*
X137654498Y-63534926D01*
X137639734Y-63460699D01*
X137603683Y-63406746D01*
X137583484Y-63376516D01*
X137551137Y-63354902D01*
X137499302Y-63320266D01*
X137425069Y-63305500D01*
X137425067Y-63305500D01*
X137157786Y-63305500D01*
X137089665Y-63285498D01*
X137043172Y-63231842D01*
X137033068Y-63161568D01*
X137062562Y-63096988D01*
X137081082Y-63079538D01*
X137125474Y-63045474D01*
X137149279Y-63014451D01*
X137214355Y-62929643D01*
X137270228Y-62794754D01*
X137283665Y-62692675D01*
X137312386Y-62627751D01*
X137319480Y-62620040D01*
X137603870Y-62335650D01*
X137603880Y-62335643D01*
X137685270Y-62254253D01*
X137685276Y-62254247D01*
X137709384Y-62212491D01*
X146433000Y-62212491D01*
X146433000Y-63305500D01*
X148973000Y-63305500D01*
X149227000Y-63305500D01*
X151767000Y-63305500D01*
X151767000Y-62212496D01*
X151766999Y-62212491D01*
X151759631Y-62175447D01*
X151731561Y-62133438D01*
X151689552Y-62105368D01*
X151652508Y-62098000D01*
X149227000Y-62098000D01*
X149227000Y-63305500D01*
X148973000Y-63305500D01*
X148973000Y-62098000D01*
X146547491Y-62098000D01*
X146510447Y-62105368D01*
X146468438Y-62133438D01*
X146440368Y-62175447D01*
X146433000Y-62212491D01*
X137709384Y-62212491D01*
X137735501Y-62167254D01*
X137735502Y-62167253D01*
X137742241Y-62142103D01*
X137779192Y-62081480D01*
X137793942Y-62069950D01*
X137863484Y-62023484D01*
X137864595Y-62021821D01*
X137867960Y-62019008D01*
X137872259Y-62014710D01*
X137872643Y-62015094D01*
X137919071Y-61976294D01*
X137981719Y-61966431D01*
X137987492Y-61967000D01*
X138173000Y-61967000D01*
X138427000Y-61967000D01*
X138612503Y-61967000D01*
X138612508Y-61966999D01*
X138649552Y-61959631D01*
X138691561Y-61931561D01*
X138719631Y-61889552D01*
X138726999Y-61852508D01*
X138727000Y-61852503D01*
X138727000Y-61692508D01*
X139093000Y-61692508D01*
X139100368Y-61729552D01*
X139128438Y-61771561D01*
X139170447Y-61799631D01*
X139207491Y-61806999D01*
X139207497Y-61807000D01*
X139403000Y-61807000D01*
X139657000Y-61807000D01*
X139852503Y-61807000D01*
X139852508Y-61806999D01*
X139889552Y-61799631D01*
X139931561Y-61771561D01*
X139959631Y-61729552D01*
X139966999Y-61692508D01*
X139967000Y-61692503D01*
X139967000Y-61507000D01*
X139657000Y-61507000D01*
X139657000Y-61807000D01*
X139403000Y-61807000D01*
X139403000Y-61507000D01*
X139093000Y-61507000D01*
X139093000Y-61692508D01*
X138727000Y-61692508D01*
X138727000Y-61657000D01*
X138427000Y-61657000D01*
X138427000Y-61967000D01*
X138173000Y-61967000D01*
X138173000Y-61529000D01*
X138193002Y-61460879D01*
X138246658Y-61414386D01*
X138299000Y-61403000D01*
X138727000Y-61403000D01*
X138727000Y-61207496D01*
X138726999Y-61207491D01*
X138719631Y-61170447D01*
X138691561Y-61128437D01*
X138675372Y-61117620D01*
X138629844Y-61063143D01*
X138620996Y-60992700D01*
X138640609Y-60942854D01*
X138679734Y-60884301D01*
X138680705Y-60879420D01*
X138713611Y-60816510D01*
X138775306Y-60781378D01*
X138804284Y-60778000D01*
X138862400Y-60778000D01*
X138930521Y-60798002D01*
X138977014Y-60851658D01*
X138978810Y-60855786D01*
X138980265Y-60859300D01*
X139036516Y-60943484D01*
X139038181Y-60944597D01*
X139040993Y-60947962D01*
X139045290Y-60952259D01*
X139044905Y-60952643D01*
X139083707Y-60999075D01*
X139093569Y-61061708D01*
X139093000Y-61067486D01*
X139093000Y-61253000D01*
X139967000Y-61253000D01*
X139967000Y-61067492D01*
X139966431Y-61061719D01*
X139979655Y-60991964D01*
X140014862Y-60952411D01*
X140014710Y-60952259D01*
X140017340Y-60949628D01*
X140021820Y-60944595D01*
X140023484Y-60943484D01*
X140079734Y-60859301D01*
X140094500Y-60785067D01*
X140094500Y-60632508D01*
X141843000Y-60632508D01*
X141850368Y-60669552D01*
X141878438Y-60711561D01*
X141920447Y-60739631D01*
X141957491Y-60746999D01*
X141957497Y-60747000D01*
X142153000Y-60747000D01*
X142407000Y-60747000D01*
X142602503Y-60747000D01*
X142602508Y-60746999D01*
X142639552Y-60739631D01*
X142681561Y-60711561D01*
X142709631Y-60669552D01*
X142716999Y-60632508D01*
X142717000Y-60632503D01*
X142717000Y-60532508D01*
X143953000Y-60532508D01*
X143960368Y-60569552D01*
X143988438Y-60611561D01*
X144030447Y-60639631D01*
X144067491Y-60646999D01*
X144067497Y-60647000D01*
X144263000Y-60647000D01*
X144517000Y-60647000D01*
X144712503Y-60647000D01*
X144712508Y-60646999D01*
X144749552Y-60639631D01*
X144791561Y-60611561D01*
X144819631Y-60569552D01*
X144826999Y-60532508D01*
X144827000Y-60532503D01*
X144827000Y-60347000D01*
X144517000Y-60347000D01*
X144517000Y-60647000D01*
X144263000Y-60647000D01*
X144263000Y-60347000D01*
X143953000Y-60347000D01*
X143953000Y-60532508D01*
X142717000Y-60532508D01*
X142717000Y-60447000D01*
X142407000Y-60447000D01*
X142407000Y-60747000D01*
X142153000Y-60747000D01*
X142153000Y-60447000D01*
X141843000Y-60447000D01*
X141843000Y-60632508D01*
X140094500Y-60632508D01*
X140094499Y-60134934D01*
X140094498Y-60134931D01*
X140094498Y-60134926D01*
X140079734Y-60060699D01*
X140059302Y-60030121D01*
X140023484Y-59976516D01*
X140020467Y-59974500D01*
X139939302Y-59920266D01*
X139865068Y-59905500D01*
X139194936Y-59905500D01*
X139194926Y-59905501D01*
X139120698Y-59920266D01*
X139069332Y-59954588D01*
X139001579Y-59975803D01*
X138933112Y-59957020D01*
X138885669Y-59904202D01*
X138874312Y-59834120D01*
X138877644Y-59821537D01*
X138877313Y-59821472D01*
X138881968Y-59798068D01*
X138894500Y-59735067D01*
X138894499Y-59064934D01*
X138894498Y-59064931D01*
X138894498Y-59064926D01*
X138879734Y-58990699D01*
X138830825Y-58917502D01*
X138809610Y-58849749D01*
X138828393Y-58781282D01*
X138881210Y-58733839D01*
X138935590Y-58721500D01*
X139374319Y-58721500D01*
X139442440Y-58741502D01*
X139479082Y-58777495D01*
X139523365Y-58843768D01*
X139526517Y-58848485D01*
X139610697Y-58904733D01*
X139610699Y-58904734D01*
X139684933Y-58919500D01*
X140085066Y-58919499D01*
X140085069Y-58919498D01*
X140085073Y-58919498D01*
X140105986Y-58915338D01*
X140159301Y-58904734D01*
X140239997Y-58850813D01*
X140307748Y-58829598D01*
X140376216Y-58848380D01*
X140379990Y-58850805D01*
X140460699Y-58904734D01*
X140534933Y-58919500D01*
X140935066Y-58919499D01*
X140935069Y-58919498D01*
X140935073Y-58919498D01*
X140997908Y-58907000D01*
X141009301Y-58904734D01*
X141093484Y-58848484D01*
X141140917Y-58777495D01*
X141195394Y-58731970D01*
X141245681Y-58721500D01*
X141681092Y-58721500D01*
X141749213Y-58741502D01*
X141795706Y-58795158D01*
X141805810Y-58865432D01*
X141785857Y-58917501D01*
X141779292Y-58927328D01*
X141730265Y-59000699D01*
X141715500Y-59074930D01*
X141715500Y-59725063D01*
X141715501Y-59725073D01*
X141730265Y-59799300D01*
X141786516Y-59883484D01*
X141788181Y-59884597D01*
X141790993Y-59887962D01*
X141795290Y-59892259D01*
X141794905Y-59892643D01*
X141833707Y-59939075D01*
X141843569Y-60001708D01*
X141843000Y-60007486D01*
X141843000Y-60193000D01*
X142717000Y-60193000D01*
X142717000Y-60007492D01*
X142716431Y-60001719D01*
X142729655Y-59931964D01*
X142764862Y-59892411D01*
X142764710Y-59892259D01*
X142767340Y-59889628D01*
X142771820Y-59884595D01*
X142773484Y-59883484D01*
X142829734Y-59799301D01*
X142844500Y-59725067D01*
X142844499Y-59074934D01*
X142843535Y-59070087D01*
X142849858Y-58999373D01*
X142893409Y-58943304D01*
X142960360Y-58919680D01*
X142967077Y-58919499D01*
X143335066Y-58919499D01*
X143335069Y-58919498D01*
X143335073Y-58919498D01*
X143397908Y-58907000D01*
X143409301Y-58904734D01*
X143493484Y-58848484D01*
X143540917Y-58777495D01*
X143595394Y-58731970D01*
X143645681Y-58721500D01*
X143725920Y-58721500D01*
X143794041Y-58741502D01*
X143840534Y-58795158D01*
X143850638Y-58865432D01*
X143842329Y-58895717D01*
X143840266Y-58900696D01*
X143825500Y-58974930D01*
X143825500Y-59625063D01*
X143825501Y-59625073D01*
X143840265Y-59699300D01*
X143896516Y-59783484D01*
X143898181Y-59784597D01*
X143900993Y-59787962D01*
X143905290Y-59792259D01*
X143904905Y-59792643D01*
X143943707Y-59839075D01*
X143953569Y-59901708D01*
X143953000Y-59907486D01*
X143953000Y-60093000D01*
X144827000Y-60093000D01*
X144827000Y-59907492D01*
X144826431Y-59901719D01*
X144839655Y-59831964D01*
X144874862Y-59792411D01*
X144874710Y-59792259D01*
X144877340Y-59789628D01*
X144881820Y-59784595D01*
X144883484Y-59783484D01*
X144939734Y-59699301D01*
X144954500Y-59625067D01*
X144954499Y-59030498D01*
X144974501Y-58962378D01*
X145028157Y-58915885D01*
X145080495Y-58904499D01*
X145282786Y-58904499D01*
X145350907Y-58924501D01*
X145371876Y-58941399D01*
X145785753Y-59355276D01*
X145785754Y-59355277D01*
X145785756Y-59355278D01*
X145800863Y-59364000D01*
X145872747Y-59405502D01*
X145969775Y-59431501D01*
X145969777Y-59431501D01*
X146077943Y-59431501D01*
X146077959Y-59431500D01*
X146179501Y-59431500D01*
X146247622Y-59451502D01*
X146294115Y-59505158D01*
X146305501Y-59557500D01*
X146305501Y-60220072D01*
X146320265Y-60294300D01*
X146376516Y-60378484D01*
X146460697Y-60434733D01*
X146460699Y-60434734D01*
X146534933Y-60449500D01*
X151665066Y-60449499D01*
X151665069Y-60449498D01*
X151665072Y-60449498D01*
X151701663Y-60442219D01*
X151739301Y-60434734D01*
X151823484Y-60378484D01*
X151823484Y-60378482D01*
X151823486Y-60378482D01*
X151832259Y-60369710D01*
X151834753Y-60372204D01*
X151873207Y-60340065D01*
X151943650Y-60331215D01*
X152007695Y-60361853D01*
X152045009Y-60422253D01*
X152049500Y-60455593D01*
X152049500Y-78448270D01*
X152029498Y-78516391D01*
X151975842Y-78562884D01*
X151905568Y-78572988D01*
X151840988Y-78543494D01*
X151811627Y-78506238D01*
X151745154Y-78377952D01*
X151745152Y-78377949D01*
X151745148Y-78377941D01*
X151575175Y-78137144D01*
X151373997Y-77921735D01*
X151145361Y-77735726D01*
X150893526Y-77582582D01*
X150893527Y-77582582D01*
X150893523Y-77582580D01*
X150623187Y-77465157D01*
X150623185Y-77465156D01*
X150623184Y-77465156D01*
X150481277Y-77425395D01*
X150339367Y-77385634D01*
X150047382Y-77345500D01*
X150047372Y-77345500D01*
X149752628Y-77345500D01*
X149752617Y-77345500D01*
X149460632Y-77385634D01*
X149176812Y-77465157D01*
X148906476Y-77582580D01*
X148700745Y-77707688D01*
X148670061Y-77726348D01*
X148654636Y-77735728D01*
X148426008Y-77921731D01*
X148426000Y-77921738D01*
X148276274Y-78082056D01*
X148224825Y-78137144D01*
X148166626Y-78219594D01*
X148054853Y-78377940D01*
X148054845Y-78377952D01*
X147919254Y-78639629D01*
X147820547Y-78917363D01*
X147820545Y-78917371D01*
X147802106Y-79006107D01*
X147761816Y-79199999D01*
X147760579Y-79205950D01*
X147760578Y-79205956D01*
X147740466Y-79499995D01*
X147740466Y-79500004D01*
X147760578Y-79794043D01*
X147760579Y-79794049D01*
X147760580Y-79794057D01*
X147789269Y-79932115D01*
X147820545Y-80082628D01*
X147820547Y-80082636D01*
X147919254Y-80360370D01*
X148054845Y-80622047D01*
X148054848Y-80622052D01*
X148054852Y-80622059D01*
X148224825Y-80862856D01*
X148426003Y-81078265D01*
X148654639Y-81264274D01*
X148906474Y-81417418D01*
X148976724Y-81447931D01*
X149031236Y-81493417D01*
X149052503Y-81561153D01*
X149033774Y-81629634D01*
X148980993Y-81677119D01*
X148926525Y-81689500D01*
X101773475Y-81689500D01*
X101705354Y-81669498D01*
X101658861Y-81615842D01*
X101648757Y-81545568D01*
X101678251Y-81480988D01*
X101723275Y-81447932D01*
X101793526Y-81417418D01*
X102045361Y-81264274D01*
X102273997Y-81078265D01*
X102475175Y-80862856D01*
X102645148Y-80622059D01*
X102734694Y-80449244D01*
X102780745Y-80360370D01*
X102780746Y-80360365D01*
X102780749Y-80360361D01*
X102879453Y-80082635D01*
X102939420Y-79794057D01*
X102941100Y-79769500D01*
X102959534Y-79500004D01*
X102959534Y-79499995D01*
X102939421Y-79205956D01*
X102939420Y-79205950D01*
X102939420Y-79205943D01*
X102879453Y-78917365D01*
X102780749Y-78639639D01*
X102780747Y-78639636D01*
X102780745Y-78639629D01*
X102645154Y-78377952D01*
X102645152Y-78377949D01*
X102645148Y-78377941D01*
X102475175Y-78137144D01*
X102417071Y-78074930D01*
X107320500Y-78074930D01*
X107320500Y-78725063D01*
X107320501Y-78725073D01*
X107335265Y-78799300D01*
X107391516Y-78883484D01*
X107475697Y-78939733D01*
X107475699Y-78939734D01*
X107520385Y-78948622D01*
X107530582Y-78950651D01*
X107593491Y-78983559D01*
X107628623Y-79045254D01*
X107632000Y-79074230D01*
X107632000Y-80030743D01*
X107611998Y-80098864D01*
X107558342Y-80145357D01*
X107530582Y-80154322D01*
X107500698Y-80160266D01*
X107416515Y-80216516D01*
X107360266Y-80300697D01*
X107345500Y-80374930D01*
X107345500Y-81025063D01*
X107345501Y-81025073D01*
X107360265Y-81099300D01*
X107416516Y-81183484D01*
X107500697Y-81239733D01*
X107500699Y-81239734D01*
X107574933Y-81254500D01*
X108225066Y-81254499D01*
X108225069Y-81254498D01*
X108225073Y-81254498D01*
X108274326Y-81244701D01*
X108299301Y-81239734D01*
X108383484Y-81183484D01*
X108439734Y-81099301D01*
X108454500Y-81025067D01*
X108454499Y-81025058D01*
X108455106Y-81018911D01*
X108457823Y-81019178D01*
X108474502Y-80962378D01*
X108528158Y-80915885D01*
X108580500Y-80904499D01*
X108748163Y-80904499D01*
X108816284Y-80924501D01*
X108862777Y-80978157D01*
X108870464Y-81006702D01*
X108871793Y-81006438D01*
X108880368Y-81049552D01*
X108908438Y-81091561D01*
X108950447Y-81119631D01*
X108987491Y-81126999D01*
X108987497Y-81127000D01*
X109173000Y-81127000D01*
X109427000Y-81127000D01*
X109612503Y-81127000D01*
X109612508Y-81126999D01*
X109649552Y-81119631D01*
X109691561Y-81091561D01*
X109719631Y-81049552D01*
X109726999Y-81012508D01*
X109727000Y-81012503D01*
X109727000Y-80827000D01*
X109427000Y-80827000D01*
X109427000Y-81127000D01*
X109173000Y-81127000D01*
X109173000Y-80573000D01*
X109427000Y-80573000D01*
X109727000Y-80573000D01*
X109727000Y-80387496D01*
X109726999Y-80387491D01*
X109719631Y-80350447D01*
X109691561Y-80308438D01*
X109649552Y-80280368D01*
X109612508Y-80273000D01*
X109427000Y-80273000D01*
X109427000Y-80573000D01*
X109173000Y-80573000D01*
X109173000Y-80272999D01*
X109169884Y-80269883D01*
X109112378Y-80252998D01*
X109065885Y-80199342D01*
X109054499Y-80147000D01*
X109054499Y-80124936D01*
X109054498Y-80124927D01*
X109039734Y-80050699D01*
X108983483Y-79966515D01*
X108899302Y-79910266D01*
X108825069Y-79895500D01*
X108394000Y-79895500D01*
X108325879Y-79875498D01*
X108279386Y-79821842D01*
X108268000Y-79769500D01*
X108268000Y-79074228D01*
X108288002Y-79006107D01*
X108341658Y-78959614D01*
X108369412Y-78950651D01*
X108424301Y-78939734D01*
X108429996Y-78935928D01*
X108497746Y-78914712D01*
X108566213Y-78933493D01*
X108570001Y-78935927D01*
X108573108Y-78938003D01*
X108575699Y-78939734D01*
X108649933Y-78954500D01*
X109450066Y-78954499D01*
X109450069Y-78954498D01*
X109450073Y-78954498D01*
X109499326Y-78944701D01*
X109524301Y-78939734D01*
X109608484Y-78883484D01*
X109664734Y-78799301D01*
X109679500Y-78725067D01*
X109679499Y-78074934D01*
X109679498Y-78074930D01*
X109679498Y-78074926D01*
X109664734Y-78000699D01*
X109611971Y-77921735D01*
X109608484Y-77916516D01*
X109608483Y-77916515D01*
X109552835Y-77879331D01*
X109507308Y-77824854D01*
X109498461Y-77754410D01*
X109506428Y-77726352D01*
X109540228Y-77644754D01*
X109559285Y-77500000D01*
X109540228Y-77355246D01*
X109484355Y-77220358D01*
X109395474Y-77104526D01*
X109395472Y-77104524D01*
X109395471Y-77104523D01*
X109279649Y-77015649D01*
X109279641Y-77015644D01*
X109144752Y-76959771D01*
X109000000Y-76940715D01*
X108855247Y-76959771D01*
X108818637Y-76974936D01*
X108720358Y-77015645D01*
X108720357Y-77015646D01*
X108720356Y-77015646D01*
X108604526Y-77104526D01*
X108515646Y-77220356D01*
X108515645Y-77220358D01*
X108487708Y-77287802D01*
X108459771Y-77355247D01*
X108440715Y-77499999D01*
X108440715Y-77500000D01*
X108459771Y-77644752D01*
X108470761Y-77671284D01*
X108478349Y-77741874D01*
X108446568Y-77805360D01*
X108385509Y-77841587D01*
X108354351Y-77845500D01*
X107549936Y-77845500D01*
X107549926Y-77845501D01*
X107475699Y-77860265D01*
X107391515Y-77916516D01*
X107335266Y-78000697D01*
X107320500Y-78074930D01*
X102417071Y-78074930D01*
X102273997Y-77921735D01*
X102045361Y-77735726D01*
X101793526Y-77582582D01*
X101793527Y-77582582D01*
X101793523Y-77582580D01*
X101523187Y-77465157D01*
X101523185Y-77465156D01*
X101523184Y-77465156D01*
X101381277Y-77425395D01*
X101239367Y-77385634D01*
X100947382Y-77345500D01*
X100947372Y-77345500D01*
X100652628Y-77345500D01*
X100652617Y-77345500D01*
X100360632Y-77385634D01*
X100076812Y-77465157D01*
X99806476Y-77582580D01*
X99600745Y-77707688D01*
X99570061Y-77726348D01*
X99554636Y-77735728D01*
X99326008Y-77921731D01*
X99326000Y-77921738D01*
X99176274Y-78082056D01*
X99124825Y-78137144D01*
X99066626Y-78219594D01*
X98954853Y-78377940D01*
X98954845Y-78377952D01*
X98838373Y-78602733D01*
X98789274Y-78654015D01*
X98720244Y-78670610D01*
X98653200Y-78647250D01*
X98609429Y-78591352D01*
X98600500Y-78544765D01*
X98600500Y-59552508D01*
X104253000Y-59552508D01*
X104260368Y-59589552D01*
X104288438Y-59631561D01*
X104330447Y-59659631D01*
X104367491Y-59666999D01*
X104367497Y-59667000D01*
X104603000Y-59667000D01*
X104603000Y-59317000D01*
X104253000Y-59317000D01*
X104253000Y-59552508D01*
X98600500Y-59552508D01*
X98600500Y-57117000D01*
X104253000Y-57117000D01*
X104253000Y-57352508D01*
X104260368Y-57389552D01*
X104288438Y-57431562D01*
X104293936Y-57435236D01*
X104339463Y-57489714D01*
X104348309Y-57560157D01*
X104317667Y-57624201D01*
X104293936Y-57644764D01*
X104288438Y-57648437D01*
X104260368Y-57690447D01*
X104253000Y-57727491D01*
X104253000Y-57963000D01*
X104731000Y-57963000D01*
X104799121Y-57983002D01*
X104845614Y-58036658D01*
X104857000Y-58089000D01*
X104857000Y-58091000D01*
X104836998Y-58159121D01*
X104783342Y-58205614D01*
X104731000Y-58217000D01*
X104253000Y-58217000D01*
X104253000Y-58452508D01*
X104260368Y-58489552D01*
X104288438Y-58531562D01*
X104293936Y-58535236D01*
X104339463Y-58589714D01*
X104348309Y-58660157D01*
X104317667Y-58724201D01*
X104293936Y-58744764D01*
X104288438Y-58748437D01*
X104260368Y-58790447D01*
X104253000Y-58827491D01*
X104253000Y-59063000D01*
X104731000Y-59063000D01*
X104799121Y-59083002D01*
X104845614Y-59136658D01*
X104857000Y-59189000D01*
X104857000Y-59667000D01*
X105092503Y-59667000D01*
X105092508Y-59666999D01*
X105129552Y-59659631D01*
X105171561Y-59631561D01*
X105175234Y-59626066D01*
X105229711Y-59580538D01*
X105300154Y-59571689D01*
X105364198Y-59602330D01*
X105384766Y-59626066D01*
X105388438Y-59631561D01*
X105430447Y-59659631D01*
X105467491Y-59666999D01*
X105467497Y-59667000D01*
X105703000Y-59667000D01*
X105703000Y-59189000D01*
X105723002Y-59120879D01*
X105776658Y-59074386D01*
X105829000Y-59063000D01*
X105831000Y-59063000D01*
X105899121Y-59083002D01*
X105945614Y-59136658D01*
X105957000Y-59189000D01*
X105957000Y-59667000D01*
X106192503Y-59667000D01*
X106192508Y-59666999D01*
X106229552Y-59659631D01*
X106271561Y-59631561D01*
X106275234Y-59626066D01*
X106329711Y-59580538D01*
X106400154Y-59571689D01*
X106464198Y-59602330D01*
X106484766Y-59626066D01*
X106488438Y-59631561D01*
X106530447Y-59659631D01*
X106567491Y-59666999D01*
X106567497Y-59667000D01*
X106803000Y-59667000D01*
X107057000Y-59667000D01*
X107292503Y-59667000D01*
X107292508Y-59666999D01*
X107329552Y-59659631D01*
X107371561Y-59631561D01*
X107399631Y-59589552D01*
X107406999Y-59552508D01*
X107407000Y-59552503D01*
X107407000Y-59317000D01*
X107057000Y-59317000D01*
X107057000Y-59667000D01*
X106803000Y-59667000D01*
X106803000Y-59189000D01*
X106823002Y-59120879D01*
X106876658Y-59074386D01*
X106929000Y-59063000D01*
X107407000Y-59063000D01*
X107407000Y-58827496D01*
X107406999Y-58827491D01*
X107399631Y-58790447D01*
X107371561Y-58748438D01*
X107366066Y-58744766D01*
X107320538Y-58690289D01*
X107311689Y-58619846D01*
X107342330Y-58555802D01*
X107366066Y-58535234D01*
X107371561Y-58531561D01*
X107399631Y-58489552D01*
X107406999Y-58452508D01*
X107407000Y-58452503D01*
X107407000Y-58217000D01*
X106929000Y-58217000D01*
X106860879Y-58196998D01*
X106814386Y-58143342D01*
X106803000Y-58091000D01*
X106803000Y-58089000D01*
X106823002Y-58020879D01*
X106876658Y-57974386D01*
X106929000Y-57963000D01*
X107407000Y-57963000D01*
X107407000Y-57727496D01*
X107406999Y-57727491D01*
X107399631Y-57690447D01*
X107371561Y-57648438D01*
X107366066Y-57644766D01*
X107320538Y-57590289D01*
X107311689Y-57519846D01*
X107342330Y-57455802D01*
X107366066Y-57435234D01*
X107371561Y-57431561D01*
X107399631Y-57389552D01*
X107406999Y-57352508D01*
X107407000Y-57352503D01*
X107407000Y-57117000D01*
X106929000Y-57117000D01*
X106860879Y-57096998D01*
X106814386Y-57043342D01*
X106803000Y-56991000D01*
X106803000Y-56863000D01*
X107057000Y-56863000D01*
X107407000Y-56863000D01*
X107407000Y-56627496D01*
X107406999Y-56627491D01*
X107399631Y-56590447D01*
X107371561Y-56548438D01*
X107329552Y-56520368D01*
X107292508Y-56513000D01*
X107057000Y-56513000D01*
X107057000Y-56863000D01*
X106803000Y-56863000D01*
X106803000Y-56513000D01*
X106567491Y-56513000D01*
X106530447Y-56520368D01*
X106488437Y-56548438D01*
X106484764Y-56553936D01*
X106430286Y-56599463D01*
X106359843Y-56608309D01*
X106295799Y-56577667D01*
X106275236Y-56553936D01*
X106271562Y-56548438D01*
X106229552Y-56520368D01*
X106192508Y-56513000D01*
X105957000Y-56513000D01*
X105957000Y-56991000D01*
X105936998Y-57059121D01*
X105883342Y-57105614D01*
X105831000Y-57117000D01*
X105829000Y-57117000D01*
X105760879Y-57096998D01*
X105714386Y-57043342D01*
X105703000Y-56991000D01*
X105703000Y-56513000D01*
X105467491Y-56513000D01*
X105430447Y-56520368D01*
X105388437Y-56548438D01*
X105384764Y-56553936D01*
X105330286Y-56599463D01*
X105259843Y-56608309D01*
X105195799Y-56577667D01*
X105175236Y-56553936D01*
X105171562Y-56548438D01*
X105129552Y-56520368D01*
X105092508Y-56513000D01*
X104857000Y-56513000D01*
X104857000Y-56991000D01*
X104836998Y-57059121D01*
X104783342Y-57105614D01*
X104731000Y-57117000D01*
X104253000Y-57117000D01*
X98600500Y-57117000D01*
X98600500Y-56627491D01*
X104253000Y-56627491D01*
X104253000Y-56863000D01*
X104603000Y-56863000D01*
X104603000Y-56513000D01*
X104367491Y-56513000D01*
X104330447Y-56520368D01*
X104288438Y-56548438D01*
X104260368Y-56590447D01*
X104253000Y-56627491D01*
X98600500Y-56627491D01*
X98600500Y-48536500D01*
X98620502Y-48468379D01*
X98674158Y-48421886D01*
X98726500Y-48410500D01*
X148876525Y-48410500D01*
X148944646Y-48430502D01*
G37*
G04 #@! TD.AperFunction*
G04 #@! TA.AperFunction,Conductor*
G36*
X107185236Y-72727053D02*
G01*
X107200635Y-72740158D01*
X108181595Y-73721118D01*
X108215621Y-73783430D01*
X108218500Y-73810213D01*
X108218500Y-74287000D01*
X108198498Y-74355121D01*
X108144842Y-74401614D01*
X108092500Y-74413000D01*
X108027000Y-74413000D01*
X108027000Y-74841000D01*
X108006998Y-74909121D01*
X107953342Y-74955614D01*
X107901000Y-74967000D01*
X107463000Y-74967000D01*
X107463000Y-75152512D01*
X107463569Y-75158290D01*
X107450340Y-75228043D01*
X107415138Y-75267589D01*
X107415290Y-75267741D01*
X107412676Y-75270354D01*
X107408187Y-75275398D01*
X107406516Y-75276514D01*
X107350265Y-75360697D01*
X107349845Y-75361714D01*
X107348333Y-75363590D01*
X107343370Y-75371018D01*
X107342705Y-75370574D01*
X107305299Y-75416997D01*
X107237936Y-75439420D01*
X107233435Y-75439500D01*
X106375500Y-75439500D01*
X106307379Y-75419498D01*
X106260886Y-75365842D01*
X106249500Y-75313501D01*
X106249499Y-75134936D01*
X106249498Y-75134926D01*
X106234734Y-75060699D01*
X106178484Y-74976516D01*
X106167800Y-74969377D01*
X106148709Y-74953708D01*
X106118616Y-74923615D01*
X106087375Y-74917397D01*
X106084960Y-74916396D01*
X106029690Y-74871835D01*
X106007285Y-74804466D01*
X106024860Y-74735679D01*
X106076833Y-74687313D01*
X106085042Y-74683568D01*
X106087457Y-74682569D01*
X106118622Y-74676377D01*
X106148709Y-74646290D01*
X106167798Y-74630623D01*
X106178484Y-74623484D01*
X106234734Y-74539301D01*
X106237083Y-74527491D01*
X107463000Y-74527491D01*
X107463000Y-74713000D01*
X107773000Y-74713000D01*
X107773000Y-74413000D01*
X107577491Y-74413000D01*
X107540447Y-74420368D01*
X107498438Y-74448438D01*
X107470368Y-74490447D01*
X107463000Y-74527491D01*
X106237083Y-74527491D01*
X106249500Y-74465067D01*
X106249499Y-74134934D01*
X106249498Y-74134930D01*
X106249498Y-74134926D01*
X106234734Y-74060699D01*
X106178483Y-73976515D01*
X106094302Y-73920266D01*
X106020069Y-73905500D01*
X106020067Y-73905500D01*
X105675244Y-73905500D01*
X105607123Y-73885498D01*
X105570477Y-73849499D01*
X105568483Y-73846515D01*
X105484302Y-73790266D01*
X105410069Y-73775500D01*
X105194000Y-73775500D01*
X105125879Y-73755498D01*
X105079386Y-73701842D01*
X105068000Y-73649500D01*
X105068000Y-72874228D01*
X105088002Y-72806107D01*
X105141658Y-72759614D01*
X105169412Y-72750651D01*
X105224301Y-72739734D01*
X105229996Y-72735928D01*
X105297746Y-72714712D01*
X105366213Y-72733493D01*
X105370001Y-72735927D01*
X105373108Y-72738003D01*
X105375699Y-72739734D01*
X105449933Y-72754500D01*
X106063762Y-72754499D01*
X106131883Y-72774501D01*
X106158985Y-72797985D01*
X106203999Y-72849934D01*
X106237288Y-72882056D01*
X106327007Y-72928987D01*
X106395128Y-72948989D01*
X106468237Y-72959500D01*
X106468240Y-72959500D01*
X106673994Y-72959500D01*
X106674000Y-72959500D01*
X106729159Y-72953570D01*
X106781501Y-72942184D01*
X106808291Y-72934834D01*
X106896278Y-72884731D01*
X106949934Y-72838238D01*
X106982056Y-72804949D01*
X106999892Y-72770852D01*
X107049190Y-72719761D01*
X107118284Y-72703434D01*
X107185236Y-72727053D01*
G37*
G04 #@! TD.AperFunction*
G04 #@! TA.AperFunction,Conductor*
G36*
X113865521Y-65738002D02*
G01*
X113912014Y-65791658D01*
X113913810Y-65795786D01*
X113915265Y-65799300D01*
X113971516Y-65883484D01*
X114055697Y-65939733D01*
X114055699Y-65939734D01*
X114129933Y-65954500D01*
X114930066Y-65954499D01*
X114930069Y-65954498D01*
X114930073Y-65954498D01*
X114966926Y-65947167D01*
X115004301Y-65939734D01*
X115009996Y-65935928D01*
X115077746Y-65914712D01*
X115146213Y-65933493D01*
X115150001Y-65935927D01*
X115153108Y-65938003D01*
X115155699Y-65939734D01*
X115229933Y-65954500D01*
X115652786Y-65954499D01*
X115720906Y-65974501D01*
X115741881Y-65991404D01*
X115931595Y-66181118D01*
X115965621Y-66243430D01*
X115968500Y-66270213D01*
X115968500Y-66729785D01*
X115948498Y-66797906D01*
X115931595Y-66818881D01*
X115751879Y-66998596D01*
X115689567Y-67032621D01*
X115662784Y-67035500D01*
X115364936Y-67035500D01*
X115364926Y-67035501D01*
X115290699Y-67050265D01*
X115206513Y-67106517D01*
X115205398Y-67108187D01*
X115202028Y-67111002D01*
X115197741Y-67115290D01*
X115197356Y-67114905D01*
X115150917Y-67153710D01*
X115088290Y-67163569D01*
X115082512Y-67163000D01*
X114897000Y-67163000D01*
X114897000Y-68037000D01*
X115082506Y-68037000D01*
X115088279Y-68036431D01*
X115158034Y-68049654D01*
X115197588Y-68084862D01*
X115197741Y-68084710D01*
X115200359Y-68087328D01*
X115205401Y-68091816D01*
X115206515Y-68093483D01*
X115209138Y-68095236D01*
X115213568Y-68100537D01*
X115215290Y-68102259D01*
X115215135Y-68102413D01*
X115254665Y-68149714D01*
X115263511Y-68220158D01*
X115232869Y-68284201D01*
X115209138Y-68304764D01*
X115206513Y-68306517D01*
X115205398Y-68308187D01*
X115202028Y-68311002D01*
X115197741Y-68315290D01*
X115197356Y-68314905D01*
X115150917Y-68353710D01*
X115088290Y-68363569D01*
X115082512Y-68363000D01*
X114897000Y-68363000D01*
X114897000Y-68801000D01*
X114876998Y-68869121D01*
X114823342Y-68915614D01*
X114771000Y-68927000D01*
X114343000Y-68927000D01*
X114343000Y-69122508D01*
X114350369Y-69159555D01*
X114353156Y-69166283D01*
X114360745Y-69236873D01*
X114328965Y-69300360D01*
X114267906Y-69336586D01*
X114236747Y-69340500D01*
X110747719Y-69340500D01*
X110679598Y-69320498D01*
X110633105Y-69266842D01*
X110623001Y-69196568D01*
X110631311Y-69166281D01*
X110635776Y-69155501D01*
X110640228Y-69144754D01*
X110659285Y-69000000D01*
X110645686Y-68896706D01*
X110656625Y-68826560D01*
X110700603Y-68775499D01*
X110763484Y-68733484D01*
X110819734Y-68649301D01*
X110823452Y-68630605D01*
X110856357Y-68567698D01*
X110918051Y-68532565D01*
X110988946Y-68536363D01*
X111046533Y-68577887D01*
X111053227Y-68589400D01*
X111053475Y-68589235D01*
X111088438Y-68641561D01*
X111130447Y-68669631D01*
X111167491Y-68676999D01*
X111167497Y-68677000D01*
X111503000Y-68677000D01*
X111757000Y-68677000D01*
X112092503Y-68677000D01*
X112092508Y-68676999D01*
X112129552Y-68669631D01*
X112171561Y-68641561D01*
X112199631Y-68599552D01*
X112206999Y-68562508D01*
X112207000Y-68562503D01*
X112207000Y-68477491D01*
X114343000Y-68477491D01*
X114343000Y-68673000D01*
X114643000Y-68673000D01*
X114643000Y-68363000D01*
X114457491Y-68363000D01*
X114420447Y-68370368D01*
X114378438Y-68398438D01*
X114350368Y-68440447D01*
X114343000Y-68477491D01*
X112207000Y-68477491D01*
X112207000Y-67927000D01*
X111757000Y-67927000D01*
X111757000Y-68677000D01*
X111503000Y-68677000D01*
X111503000Y-67922508D01*
X114343000Y-67922508D01*
X114350368Y-67959552D01*
X114378438Y-68001561D01*
X114420447Y-68029631D01*
X114457491Y-68036999D01*
X114457497Y-68037000D01*
X114643000Y-68037000D01*
X114643000Y-67727000D01*
X114343000Y-67727000D01*
X114343000Y-67922508D01*
X111503000Y-67922508D01*
X111503000Y-67673000D01*
X111757000Y-67673000D01*
X112207000Y-67673000D01*
X112207000Y-67277491D01*
X114343000Y-67277491D01*
X114343000Y-67473000D01*
X114643000Y-67473000D01*
X114643000Y-67163000D01*
X114457491Y-67163000D01*
X114420447Y-67170368D01*
X114378438Y-67198438D01*
X114350368Y-67240447D01*
X114343000Y-67277491D01*
X112207000Y-67277491D01*
X112207000Y-67037496D01*
X112206999Y-67037491D01*
X112199631Y-67000447D01*
X112171561Y-66958438D01*
X112129552Y-66930368D01*
X112092508Y-66923000D01*
X111757000Y-66923000D01*
X111757000Y-67673000D01*
X111503000Y-67673000D01*
X111503000Y-66923000D01*
X111167491Y-66923000D01*
X111130447Y-66930368D01*
X111088438Y-66958438D01*
X111053475Y-67010765D01*
X111050665Y-67008887D01*
X111018873Y-67048325D01*
X110951506Y-67070734D01*
X110882718Y-67053163D01*
X110834349Y-67001193D01*
X110823452Y-66969392D01*
X110819734Y-66950699D01*
X110763483Y-66866515D01*
X110679302Y-66810266D01*
X110605067Y-66795500D01*
X109654936Y-66795500D01*
X109654926Y-66795501D01*
X109580699Y-66810265D01*
X109496516Y-66866515D01*
X109484762Y-66884106D01*
X109430283Y-66929631D01*
X109359840Y-66938477D01*
X109295797Y-66907833D01*
X109275233Y-66884100D01*
X109263484Y-66866516D01*
X109223122Y-66839546D01*
X109177595Y-66785068D01*
X109168749Y-66714625D01*
X109199391Y-66650581D01*
X109203992Y-66645727D01*
X110094817Y-65754902D01*
X110157127Y-65720879D01*
X110183910Y-65718000D01*
X113797400Y-65718000D01*
X113865521Y-65738002D01*
G37*
G04 #@! TD.AperFunction*
G04 #@! TA.AperFunction,Conductor*
G36*
X104964199Y-51192162D02*
G01*
X104984762Y-51215894D01*
X104996516Y-51233484D01*
X104996517Y-51233485D01*
X105080697Y-51289733D01*
X105080699Y-51289734D01*
X105154933Y-51304500D01*
X105809000Y-51304499D01*
X105877121Y-51324501D01*
X105923614Y-51378157D01*
X105935000Y-51430499D01*
X105935000Y-51890741D01*
X105935000Y-51974471D01*
X105956671Y-52055350D01*
X105956672Y-52055352D01*
X105956673Y-52055354D01*
X105998535Y-52127861D01*
X105998536Y-52127862D01*
X105998537Y-52127863D01*
X106626480Y-52755806D01*
X106685686Y-52815012D01*
X106758200Y-52856878D01*
X106839078Y-52878549D01*
X116793903Y-52878549D01*
X116862024Y-52898551D01*
X116908517Y-52952207D01*
X116919903Y-53004549D01*
X116919903Y-53066201D01*
X116934667Y-53140429D01*
X116990918Y-53224613D01*
X117075099Y-53280862D01*
X117075101Y-53280863D01*
X117149335Y-53295629D01*
X117519468Y-53295628D01*
X117519471Y-53295627D01*
X117519475Y-53295627D01*
X117568728Y-53285830D01*
X117593703Y-53280863D01*
X117677886Y-53224613D01*
X117734136Y-53140430D01*
X117748902Y-53066196D01*
X117748902Y-53004549D01*
X117768904Y-52936428D01*
X117822560Y-52889935D01*
X117874902Y-52878549D01*
X121097033Y-52878549D01*
X121165154Y-52898551D01*
X121186128Y-52915454D01*
X122288095Y-54017421D01*
X122322121Y-54079733D01*
X122325000Y-54106516D01*
X122325000Y-54285588D01*
X122304998Y-54353709D01*
X122288095Y-54374683D01*
X122265537Y-54397240D01*
X122265535Y-54397242D01*
X122223673Y-54469750D01*
X122223671Y-54469755D01*
X122207261Y-54531000D01*
X122207232Y-54531105D01*
X122206933Y-54532217D01*
X122169929Y-54592808D01*
X122106041Y-54623774D01*
X122085255Y-54625500D01*
X121964000Y-54625500D01*
X121895879Y-54605498D01*
X121849386Y-54551842D01*
X121838000Y-54499500D01*
X121838000Y-54428136D01*
X121838000Y-54428135D01*
X121816329Y-54347257D01*
X121786533Y-54295649D01*
X121774465Y-54274746D01*
X121774461Y-54274741D01*
X121745220Y-54245500D01*
X121715257Y-54215537D01*
X120757757Y-53258037D01*
X120757756Y-53258036D01*
X120757755Y-53258035D01*
X120685248Y-53216173D01*
X120685246Y-53216172D01*
X120685244Y-53216171D01*
X120604365Y-53194500D01*
X118559160Y-53194500D01*
X118505241Y-53208947D01*
X118478281Y-53216171D01*
X118478276Y-53216173D01*
X118462989Y-53225000D01*
X118405771Y-53258034D01*
X118405765Y-53258039D01*
X117836497Y-53827307D01*
X117774185Y-53861332D01*
X117703369Y-53856267D01*
X117646534Y-53813720D01*
X117621723Y-53747200D01*
X117621402Y-53738211D01*
X117621402Y-53698625D01*
X117621401Y-53698620D01*
X117614033Y-53661576D01*
X117585963Y-53619567D01*
X117543954Y-53591497D01*
X117506910Y-53584129D01*
X117461402Y-53584129D01*
X117461402Y-53927129D01*
X117441400Y-53995250D01*
X117387744Y-54041743D01*
X117335402Y-54053129D01*
X117047402Y-54053129D01*
X117047402Y-54153637D01*
X117054770Y-54190681D01*
X117084048Y-54234499D01*
X117105262Y-54302252D01*
X117086478Y-54370719D01*
X117033660Y-54418162D01*
X116979286Y-54430500D01*
X116954938Y-54430500D01*
X116954926Y-54430501D01*
X116880699Y-54445265D01*
X116796515Y-54501516D01*
X116740266Y-54585697D01*
X116725500Y-54659930D01*
X116725500Y-55460063D01*
X116725501Y-55460073D01*
X116740265Y-55534300D01*
X116793871Y-55614525D01*
X116796516Y-55618484D01*
X116803410Y-55623090D01*
X116848938Y-55677565D01*
X116857788Y-55748007D01*
X116856989Y-55752435D01*
X116853001Y-55772486D01*
X116853000Y-55772496D01*
X116853000Y-56033000D01*
X117707000Y-56033000D01*
X117707000Y-55772496D01*
X117706999Y-55772488D01*
X117703011Y-55752441D01*
X117709337Y-55681727D01*
X117752890Y-55625659D01*
X117756589Y-55623091D01*
X117756592Y-55623089D01*
X117763484Y-55618484D01*
X117819734Y-55534301D01*
X117834500Y-55460067D01*
X117834499Y-54780934D01*
X117854501Y-54712814D01*
X117871404Y-54691840D01*
X118082905Y-54480339D01*
X118145217Y-54446313D01*
X118216032Y-54451378D01*
X118272868Y-54493925D01*
X118297679Y-54560445D01*
X118298000Y-54569434D01*
X118298000Y-54753000D01*
X118650000Y-54753000D01*
X118650000Y-55007000D01*
X118298000Y-55007000D01*
X118298000Y-55469218D01*
X118323056Y-55595181D01*
X118323058Y-55595186D01*
X118372205Y-55713838D01*
X118443557Y-55820624D01*
X118443562Y-55820630D01*
X118534369Y-55911437D01*
X118534375Y-55911442D01*
X118641161Y-55982794D01*
X118759820Y-56031944D01*
X118759823Y-56031945D01*
X118822999Y-56044511D01*
X118823000Y-56044511D01*
X118823000Y-55703087D01*
X118834204Y-55709556D01*
X118910504Y-55730000D01*
X118989496Y-55730000D01*
X119065796Y-55709556D01*
X119077000Y-55703087D01*
X119077000Y-56044511D01*
X119140176Y-56031945D01*
X119140179Y-56031944D01*
X119258838Y-55982794D01*
X119365624Y-55911442D01*
X119365630Y-55911437D01*
X119427905Y-55849163D01*
X119490217Y-55815137D01*
X119561032Y-55820202D01*
X119617868Y-55862749D01*
X119642679Y-55929269D01*
X119643000Y-55938258D01*
X119643000Y-56042508D01*
X119650368Y-56079552D01*
X119678438Y-56121561D01*
X119720447Y-56149631D01*
X119757491Y-56156999D01*
X119757497Y-56157000D01*
X119943000Y-56157000D01*
X119943000Y-55514000D01*
X119963002Y-55445879D01*
X120016658Y-55399386D01*
X120069000Y-55388000D01*
X120071000Y-55388000D01*
X120139121Y-55408002D01*
X120185614Y-55461658D01*
X120197000Y-55514000D01*
X120197000Y-56157000D01*
X120281426Y-56157000D01*
X120349547Y-56177002D01*
X120386189Y-56212995D01*
X120386516Y-56213484D01*
X120416217Y-56233330D01*
X120432502Y-56244211D01*
X120478030Y-56298688D01*
X120488500Y-56348976D01*
X120488500Y-56452875D01*
X120468498Y-56520996D01*
X120467265Y-56522877D01*
X120415266Y-56600697D01*
X120400500Y-56674930D01*
X120400500Y-57045063D01*
X120400501Y-57045073D01*
X120415265Y-57119300D01*
X120467265Y-57197122D01*
X120488480Y-57264874D01*
X120488500Y-57267124D01*
X120488500Y-57524000D01*
X120468498Y-57592121D01*
X120414842Y-57638614D01*
X120362501Y-57650000D01*
X120225337Y-57650000D01*
X120225326Y-57650001D01*
X120151099Y-57664765D01*
X120066915Y-57721016D01*
X120010666Y-57805197D01*
X119995900Y-57879430D01*
X119995900Y-58843963D01*
X119995901Y-58843973D01*
X120010665Y-58918200D01*
X120066916Y-59002384D01*
X120151097Y-59058633D01*
X120151099Y-59058634D01*
X120225333Y-59073400D01*
X121494666Y-59073399D01*
X121494669Y-59073398D01*
X121494673Y-59073398D01*
X121546950Y-59063000D01*
X121568901Y-59058634D01*
X121653084Y-59002384D01*
X121709334Y-58918201D01*
X121724100Y-58843967D01*
X121724099Y-57879434D01*
X121724098Y-57879430D01*
X121724098Y-57879426D01*
X121709334Y-57805199D01*
X121700597Y-57792124D01*
X121653084Y-57721016D01*
X121642776Y-57714128D01*
X121568902Y-57664766D01*
X121494669Y-57650000D01*
X121494667Y-57650000D01*
X121377500Y-57650000D01*
X121309379Y-57629998D01*
X121262886Y-57576342D01*
X121251500Y-57524000D01*
X121251500Y-57367500D01*
X121271502Y-57299379D01*
X121325158Y-57252886D01*
X121377500Y-57241500D01*
X122090158Y-57241500D01*
X122158279Y-57261502D01*
X122204772Y-57315158D01*
X122214876Y-57385432D01*
X122201806Y-57425901D01*
X122171016Y-57484762D01*
X122171013Y-57484770D01*
X122151011Y-57552891D01*
X122140500Y-57626000D01*
X122140500Y-57626002D01*
X122140500Y-60480742D01*
X122120498Y-60548863D01*
X122066842Y-60595356D01*
X121996568Y-60605460D01*
X121956100Y-60592391D01*
X121931712Y-60579634D01*
X121915230Y-60571013D01*
X121847109Y-60551011D01*
X121774000Y-60540500D01*
X118726000Y-60540500D01*
X118725993Y-60540500D01*
X118670838Y-60546430D01*
X118618516Y-60557812D01*
X118618510Y-60557813D01*
X118618499Y-60557816D01*
X118605707Y-60561325D01*
X118591710Y-60565165D01*
X118591709Y-60565166D01*
X118538692Y-60595356D01*
X118503720Y-60615270D01*
X118503713Y-60615275D01*
X118450076Y-60661752D01*
X118450058Y-60661769D01*
X118417944Y-60695049D01*
X118417944Y-60695050D01*
X118371014Y-60784767D01*
X118371013Y-60784770D01*
X118351011Y-60852891D01*
X118340500Y-60926000D01*
X118340500Y-60926002D01*
X118340500Y-62872006D01*
X118346430Y-62927161D01*
X118357813Y-62979488D01*
X118357816Y-62979501D01*
X118363415Y-62999910D01*
X118365165Y-63006288D01*
X118368181Y-63013568D01*
X118366048Y-63014451D01*
X118379700Y-63072250D01*
X118377461Y-63090069D01*
X118375500Y-63099925D01*
X118375500Y-63900063D01*
X118375501Y-63900073D01*
X118390265Y-63974300D01*
X118446516Y-64058484D01*
X118530697Y-64114733D01*
X118530699Y-64114734D01*
X118604933Y-64129500D01*
X119486706Y-64129499D01*
X119554827Y-64149501D01*
X119574199Y-64164830D01*
X119591299Y-64181331D01*
X119626430Y-64243027D01*
X119622628Y-64313921D01*
X119581101Y-64371506D01*
X119515033Y-64397499D01*
X119503806Y-64398000D01*
X119227000Y-64398000D01*
X119227000Y-64773000D01*
X119697000Y-64773000D01*
X119697000Y-64512496D01*
X119696999Y-64512491D01*
X119689631Y-64475447D01*
X119672805Y-64450265D01*
X119651591Y-64382512D01*
X119670374Y-64314045D01*
X119723192Y-64266603D01*
X119793275Y-64255246D01*
X119795424Y-64255535D01*
X119823000Y-64259500D01*
X119823004Y-64259500D01*
X119846994Y-64259500D01*
X119847000Y-64259500D01*
X119902159Y-64253570D01*
X119954501Y-64242184D01*
X119981291Y-64234834D01*
X120069278Y-64184731D01*
X120114814Y-64145274D01*
X120179395Y-64115781D01*
X120197326Y-64114499D01*
X121201161Y-64114499D01*
X121269282Y-64134501D01*
X121288653Y-64149829D01*
X121322049Y-64182055D01*
X121322051Y-64182056D01*
X121411770Y-64228987D01*
X121479891Y-64248989D01*
X121553000Y-64259500D01*
X121553003Y-64259500D01*
X121773994Y-64259500D01*
X121774000Y-64259500D01*
X121829159Y-64253570D01*
X121881501Y-64242184D01*
X121908291Y-64234834D01*
X121996278Y-64184731D01*
X122049934Y-64138238D01*
X122082056Y-64104949D01*
X122088782Y-64092088D01*
X122123727Y-64050527D01*
X122195474Y-63995474D01*
X122195480Y-63995465D01*
X122200181Y-63990766D01*
X122262492Y-63956738D01*
X122333308Y-63961799D01*
X122390146Y-64004343D01*
X122394037Y-64009843D01*
X122416516Y-64043484D01*
X122423410Y-64048090D01*
X122468938Y-64102565D01*
X122477788Y-64173007D01*
X122476989Y-64177435D01*
X122473001Y-64197486D01*
X122473000Y-64197496D01*
X122473000Y-64383000D01*
X123927001Y-64383000D01*
X123928038Y-64381962D01*
X123947002Y-64317379D01*
X124000658Y-64270886D01*
X124053000Y-64259500D01*
X124133055Y-64259500D01*
X124133064Y-64259500D01*
X124183689Y-64254514D01*
X124221683Y-64246956D01*
X124231893Y-64244926D01*
X124231899Y-64244924D01*
X124231907Y-64244923D01*
X124280590Y-64230155D01*
X124307664Y-64218939D01*
X124339430Y-64210426D01*
X124383561Y-64204617D01*
X124416437Y-64204617D01*
X124460565Y-64210426D01*
X124492332Y-64218937D01*
X124519411Y-64230155D01*
X124559064Y-64242184D01*
X124568096Y-64244924D01*
X124568104Y-64244926D01*
X124595782Y-64250430D01*
X124616311Y-64254514D01*
X124666936Y-64259500D01*
X124666945Y-64259500D01*
X124773994Y-64259500D01*
X124774000Y-64259500D01*
X124829159Y-64253570D01*
X124881501Y-64242184D01*
X124908291Y-64234834D01*
X124996278Y-64184731D01*
X125049934Y-64138238D01*
X125082056Y-64104949D01*
X125082060Y-64104941D01*
X125084801Y-64101142D01*
X125140869Y-64057588D01*
X125211583Y-64051261D01*
X125274492Y-64084170D01*
X125309623Y-64145865D01*
X125313000Y-64174840D01*
X125313000Y-64312508D01*
X125320368Y-64349552D01*
X125348438Y-64391561D01*
X125390447Y-64419631D01*
X125427491Y-64426999D01*
X125427497Y-64427000D01*
X125623000Y-64427000D01*
X125623000Y-63999000D01*
X125643002Y-63930879D01*
X125696658Y-63884386D01*
X125749000Y-63873000D01*
X125751000Y-63873000D01*
X125819121Y-63893002D01*
X125865614Y-63946658D01*
X125877000Y-63999000D01*
X125877000Y-64427000D01*
X126072503Y-64427000D01*
X126072508Y-64426999D01*
X126109552Y-64419631D01*
X126151561Y-64391561D01*
X126179631Y-64349551D01*
X126183591Y-64339993D01*
X126228138Y-64284712D01*
X126295501Y-64262290D01*
X126364293Y-64279848D01*
X126412672Y-64331809D01*
X126416409Y-64339993D01*
X126420368Y-64349551D01*
X126448438Y-64391561D01*
X126490447Y-64419631D01*
X126527491Y-64426999D01*
X126527497Y-64427000D01*
X126723000Y-64427000D01*
X126723000Y-63999000D01*
X126743002Y-63930879D01*
X126796658Y-63884386D01*
X126849000Y-63873000D01*
X126851000Y-63873000D01*
X126919121Y-63893002D01*
X126965614Y-63946658D01*
X126977000Y-63999000D01*
X126977000Y-64427000D01*
X127172503Y-64427000D01*
X127172508Y-64426999D01*
X127209552Y-64419631D01*
X127209553Y-64419630D01*
X127246027Y-64395260D01*
X127313780Y-64374045D01*
X127382247Y-64392828D01*
X127420794Y-64430023D01*
X127456517Y-64483486D01*
X127458099Y-64485068D01*
X127460444Y-64489363D01*
X127463411Y-64493803D01*
X127463013Y-64494068D01*
X127492125Y-64547380D01*
X127487060Y-64618195D01*
X127468967Y-64650866D01*
X127415649Y-64720351D01*
X127415646Y-64720356D01*
X127415645Y-64720358D01*
X127393840Y-64773000D01*
X127359771Y-64855247D01*
X127340715Y-64999999D01*
X127340715Y-65000000D01*
X127359771Y-65144752D01*
X127415644Y-65279641D01*
X127415649Y-65279649D01*
X127504525Y-65395474D01*
X127620350Y-65484350D01*
X127620357Y-65484355D01*
X127755246Y-65540228D01*
X127900000Y-65559285D01*
X128044754Y-65540228D01*
X128175196Y-65486196D01*
X128245784Y-65478607D01*
X128309271Y-65510386D01*
X128345499Y-65571444D01*
X128349413Y-65602605D01*
X128349413Y-69214500D01*
X128329411Y-69282621D01*
X128275755Y-69329114D01*
X128223413Y-69340500D01*
X123597066Y-69340500D01*
X123528945Y-69320498D01*
X123482452Y-69266842D01*
X123472348Y-69196568D01*
X123501842Y-69131988D01*
X123527853Y-69110509D01*
X123527695Y-69110303D01*
X123533485Y-69105859D01*
X123534063Y-69105383D01*
X123534240Y-69105280D01*
X123534239Y-69105280D01*
X123534247Y-69105276D01*
X123605276Y-69034247D01*
X124146998Y-68492523D01*
X124209309Y-68458500D01*
X124219632Y-68456700D01*
X124344754Y-68440228D01*
X124479643Y-68384355D01*
X124595474Y-68295474D01*
X124684355Y-68179643D01*
X124740228Y-68044754D01*
X124759285Y-67900000D01*
X124740228Y-67755246D01*
X124684355Y-67620358D01*
X124595474Y-67504526D01*
X124595472Y-67504524D01*
X124595471Y-67504523D01*
X124479649Y-67415649D01*
X124479641Y-67415644D01*
X124344752Y-67359771D01*
X124200000Y-67340715D01*
X124055247Y-67359771D01*
X123987802Y-67387708D01*
X123920358Y-67415645D01*
X123920357Y-67415646D01*
X123920356Y-67415646D01*
X123804526Y-67504526D01*
X123715646Y-67620356D01*
X123715645Y-67620358D01*
X123693840Y-67673000D01*
X123659771Y-67755247D01*
X123643301Y-67880352D01*
X123614578Y-67945279D01*
X123607475Y-67953000D01*
X123213666Y-68346810D01*
X123151353Y-68380835D01*
X123080538Y-68375771D01*
X123023702Y-68333224D01*
X123000991Y-68282295D01*
X122989734Y-68225699D01*
X122958960Y-68179643D01*
X122933484Y-68141516D01*
X122933483Y-68141515D01*
X122849302Y-68085266D01*
X122775067Y-68070500D01*
X121824936Y-68070500D01*
X121824926Y-68070501D01*
X121750699Y-68085265D01*
X121666515Y-68141516D01*
X121604763Y-68233932D01*
X121550285Y-68279459D01*
X121479842Y-68288306D01*
X121415799Y-68257664D01*
X121395234Y-68233931D01*
X121386258Y-68220498D01*
X121333484Y-68141516D01*
X121333483Y-68141515D01*
X121278481Y-68104763D01*
X121232955Y-68050285D01*
X121224108Y-67979842D01*
X121254750Y-67915798D01*
X121278484Y-67895234D01*
X121300757Y-67880352D01*
X121333484Y-67858484D01*
X121389734Y-67774301D01*
X121404500Y-67700067D01*
X121404500Y-67687508D01*
X121723000Y-67687508D01*
X121730368Y-67724552D01*
X121758438Y-67766561D01*
X121800447Y-67794631D01*
X121837491Y-67801999D01*
X121837497Y-67802000D01*
X122173000Y-67802000D01*
X122427000Y-67802000D01*
X122762503Y-67802000D01*
X122762508Y-67801999D01*
X122799552Y-67794631D01*
X122841561Y-67766561D01*
X122869631Y-67724552D01*
X122876999Y-67687508D01*
X122877000Y-67687503D01*
X122877000Y-67327000D01*
X122427000Y-67327000D01*
X122427000Y-67802000D01*
X122173000Y-67802000D01*
X122173000Y-67327000D01*
X121723000Y-67327000D01*
X121723000Y-67687508D01*
X121404500Y-67687508D01*
X121404499Y-66712491D01*
X121723000Y-66712491D01*
X121723000Y-67073000D01*
X122173000Y-67073000D01*
X122427000Y-67073000D01*
X122877000Y-67073000D01*
X122877000Y-66712496D01*
X122876999Y-66712491D01*
X122869631Y-66675447D01*
X122841561Y-66633438D01*
X122799552Y-66605368D01*
X122762508Y-66598000D01*
X122427000Y-66598000D01*
X122427000Y-67073000D01*
X122173000Y-67073000D01*
X122173000Y-66598000D01*
X121837491Y-66598000D01*
X121800447Y-66605368D01*
X121758438Y-66633438D01*
X121730368Y-66675447D01*
X121723000Y-66712491D01*
X121404499Y-66712491D01*
X121404499Y-66699934D01*
X121404498Y-66699930D01*
X121404498Y-66699926D01*
X121389734Y-66625699D01*
X121333483Y-66541515D01*
X121249302Y-66485266D01*
X121175069Y-66470500D01*
X121175067Y-66470500D01*
X121144000Y-66470500D01*
X121075879Y-66450498D01*
X121029386Y-66396842D01*
X121018000Y-66344500D01*
X121018000Y-66140499D01*
X121038002Y-66072378D01*
X121091658Y-66025885D01*
X121144000Y-66014499D01*
X121325064Y-66014499D01*
X121325066Y-66014499D01*
X121325069Y-66014498D01*
X121325072Y-66014498D01*
X121370502Y-66005462D01*
X121399301Y-65999734D01*
X121483484Y-65943484D01*
X121539734Y-65859301D01*
X121554500Y-65785067D01*
X121554499Y-65134934D01*
X121554498Y-65134930D01*
X122345500Y-65134930D01*
X122345500Y-65785063D01*
X122345501Y-65785073D01*
X122360265Y-65859300D01*
X122416516Y-65943484D01*
X122500697Y-65999733D01*
X122500699Y-65999734D01*
X122574933Y-66014500D01*
X123825066Y-66014499D01*
X123825069Y-66014498D01*
X123825073Y-66014498D01*
X123874326Y-66004701D01*
X123899301Y-65999734D01*
X123983484Y-65943484D01*
X123986648Y-65938748D01*
X124041118Y-65893221D01*
X124111561Y-65884368D01*
X124139622Y-65892334D01*
X124255246Y-65940228D01*
X124400000Y-65959285D01*
X124544754Y-65940228D01*
X124679643Y-65884355D01*
X124795474Y-65795474D01*
X124884355Y-65679643D01*
X124940228Y-65544754D01*
X124959285Y-65400000D01*
X124940228Y-65255246D01*
X124884355Y-65120358D01*
X124795474Y-65004526D01*
X124795472Y-65004524D01*
X124795471Y-65004523D01*
X124679649Y-64915649D01*
X124679641Y-64915644D01*
X124544752Y-64859771D01*
X124400000Y-64840715D01*
X124255247Y-64859771D01*
X124120353Y-64915647D01*
X124115991Y-64918166D01*
X124046994Y-64934898D01*
X123979904Y-64911671D01*
X123936022Y-64855861D01*
X123927000Y-64809041D01*
X123927000Y-64637000D01*
X122473000Y-64637000D01*
X122473000Y-64822508D01*
X122476989Y-64842561D01*
X122470661Y-64913275D01*
X122427106Y-64969342D01*
X122423417Y-64971904D01*
X122416515Y-64976515D01*
X122360266Y-65060697D01*
X122345500Y-65134930D01*
X121554498Y-65134930D01*
X121554498Y-65134926D01*
X121539734Y-65060699D01*
X121506525Y-65010999D01*
X121483484Y-64976516D01*
X121476582Y-64971904D01*
X121399302Y-64920266D01*
X121325067Y-64905500D01*
X120074936Y-64905500D01*
X120074926Y-64905501D01*
X120000699Y-64920265D01*
X119916516Y-64976515D01*
X119893665Y-65010714D01*
X119839187Y-65056240D01*
X119768744Y-65065087D01*
X119704701Y-65034445D01*
X119699806Y-65029805D01*
X119697001Y-65027000D01*
X119227000Y-65027000D01*
X119227000Y-65402000D01*
X119582503Y-65402000D01*
X119582508Y-65401999D01*
X119619551Y-65394631D01*
X119649497Y-65374622D01*
X119717250Y-65353407D01*
X119785717Y-65372190D01*
X119833161Y-65425006D01*
X119845500Y-65479387D01*
X119845500Y-65785063D01*
X119845501Y-65785073D01*
X119860265Y-65859300D01*
X119916516Y-65943484D01*
X120000697Y-65999733D01*
X120000699Y-65999734D01*
X120074933Y-66014500D01*
X120256000Y-66014499D01*
X120324120Y-66034501D01*
X120370613Y-66088156D01*
X120382000Y-66140499D01*
X120382000Y-66344500D01*
X120361998Y-66412621D01*
X120308342Y-66459114D01*
X120256003Y-66470500D01*
X120224938Y-66470500D01*
X120224926Y-66470501D01*
X120150699Y-66485265D01*
X120066515Y-66541516D01*
X120010266Y-66625697D01*
X119995500Y-66699930D01*
X119995500Y-67700063D01*
X119995501Y-67700073D01*
X120010265Y-67774300D01*
X120066516Y-67858484D01*
X120121517Y-67895236D01*
X120167044Y-67949713D01*
X120175891Y-68020157D01*
X120145249Y-68084200D01*
X120121517Y-68104764D01*
X120066515Y-68141515D01*
X120014003Y-68220104D01*
X119959525Y-68265631D01*
X119889082Y-68274478D01*
X119861023Y-68266511D01*
X119844752Y-68259771D01*
X119700000Y-68240715D01*
X119555247Y-68259771D01*
X119500871Y-68282295D01*
X119420358Y-68315645D01*
X119420357Y-68315646D01*
X119420356Y-68315646D01*
X119304526Y-68404526D01*
X119215646Y-68520356D01*
X119215645Y-68520358D01*
X119190641Y-68580722D01*
X119159771Y-68655247D01*
X119140715Y-68799999D01*
X119140715Y-68800000D01*
X119159771Y-68944752D01*
X119215644Y-69079641D01*
X119215649Y-69079649D01*
X119260267Y-69137796D01*
X119285868Y-69204016D01*
X119271603Y-69273565D01*
X119222002Y-69324361D01*
X119160305Y-69340500D01*
X116985500Y-69340500D01*
X116917379Y-69320498D01*
X116870886Y-69266842D01*
X116859500Y-69214500D01*
X116859500Y-68626005D01*
X116859499Y-68625993D01*
X116853570Y-68570841D01*
X116842184Y-68518499D01*
X116834834Y-68491709D01*
X116784731Y-68403722D01*
X116784727Y-68403718D01*
X116784724Y-68403713D01*
X116738247Y-68350076D01*
X116738230Y-68350058D01*
X116704949Y-68317944D01*
X116615232Y-68271014D01*
X116615231Y-68271013D01*
X116615230Y-68271013D01*
X116547109Y-68251011D01*
X116474000Y-68240500D01*
X116310981Y-68240500D01*
X116242860Y-68220498D01*
X116196367Y-68166842D01*
X116186263Y-68096568D01*
X116206217Y-68044497D01*
X116229733Y-68009302D01*
X116229732Y-68009302D01*
X116229734Y-68009301D01*
X116244500Y-67935067D01*
X116244499Y-67637212D01*
X116264501Y-67569093D01*
X116281399Y-67548122D01*
X116655276Y-67174247D01*
X116705502Y-67087253D01*
X116731500Y-66990225D01*
X116731500Y-66889775D01*
X116731500Y-66009775D01*
X116728810Y-65999734D01*
X116705502Y-65912747D01*
X116655276Y-65825753D01*
X116655274Y-65825751D01*
X116655270Y-65825746D01*
X116603118Y-65773594D01*
X116569092Y-65711282D01*
X116574157Y-65640467D01*
X116603114Y-65595408D01*
X116911015Y-65287508D01*
X118503000Y-65287508D01*
X118510368Y-65324552D01*
X118538438Y-65366561D01*
X118580447Y-65394631D01*
X118617491Y-65401999D01*
X118617497Y-65402000D01*
X118973000Y-65402000D01*
X118973000Y-65027000D01*
X118503000Y-65027000D01*
X118503000Y-65287508D01*
X116911015Y-65287508D01*
X117205276Y-64993247D01*
X117238964Y-64934898D01*
X117255500Y-64906257D01*
X117255500Y-64906256D01*
X117255502Y-64906253D01*
X117281500Y-64809225D01*
X117281500Y-64708775D01*
X117281500Y-64512491D01*
X118503000Y-64512491D01*
X118503000Y-64773000D01*
X118973000Y-64773000D01*
X118973000Y-64398000D01*
X118617491Y-64398000D01*
X118580447Y-64405368D01*
X118538438Y-64433438D01*
X118510368Y-64475447D01*
X118503000Y-64512491D01*
X117281500Y-64512491D01*
X117281500Y-63590775D01*
X117277005Y-63574000D01*
X117255502Y-63493747D01*
X117233273Y-63455246D01*
X117205278Y-63406756D01*
X117205270Y-63406746D01*
X116493254Y-62694730D01*
X116493250Y-62694727D01*
X116493247Y-62694724D01*
X116483930Y-62689345D01*
X116471208Y-62681999D01*
X116471206Y-62681999D01*
X116406254Y-62644499D01*
X116309225Y-62618500D01*
X116309223Y-62618500D01*
X116308152Y-62618359D01*
X116307314Y-62617988D01*
X116301248Y-62616363D01*
X116301501Y-62615416D01*
X116243226Y-62589634D01*
X116219837Y-62563439D01*
X116188483Y-62516515D01*
X116104302Y-62460265D01*
X116092837Y-62455517D01*
X116094212Y-62452195D01*
X116050007Y-62429071D01*
X116014877Y-62367375D01*
X116011500Y-62338401D01*
X116011500Y-57032508D01*
X119428000Y-57032508D01*
X119435368Y-57069552D01*
X119463438Y-57111561D01*
X119505447Y-57139631D01*
X119542491Y-57146999D01*
X119542497Y-57147000D01*
X119643000Y-57147000D01*
X119897000Y-57147000D01*
X119997503Y-57147000D01*
X119997508Y-57146999D01*
X120034552Y-57139631D01*
X120076561Y-57111561D01*
X120104631Y-57069552D01*
X120111999Y-57032508D01*
X120112000Y-57032503D01*
X120112000Y-56987000D01*
X119897000Y-56987000D01*
X119897000Y-57147000D01*
X119643000Y-57147000D01*
X119643000Y-56987000D01*
X119428000Y-56987000D01*
X119428000Y-57032508D01*
X116011500Y-57032508D01*
X116011500Y-56687491D01*
X119428000Y-56687491D01*
X119428000Y-56733000D01*
X119643000Y-56733000D01*
X119897000Y-56733000D01*
X120112000Y-56733000D01*
X120112000Y-56687496D01*
X120111999Y-56687491D01*
X120104631Y-56650447D01*
X120076561Y-56608438D01*
X120034552Y-56580368D01*
X119997508Y-56573000D01*
X119897000Y-56573000D01*
X119897000Y-56733000D01*
X119643000Y-56733000D01*
X119643000Y-56573000D01*
X119542491Y-56573000D01*
X119505447Y-56580368D01*
X119463438Y-56608438D01*
X119435368Y-56650447D01*
X119428000Y-56687491D01*
X116011500Y-56687491D01*
X116011500Y-56582776D01*
X116010131Y-56577667D01*
X116002050Y-56547508D01*
X116853000Y-56547508D01*
X116860368Y-56584552D01*
X116888438Y-56626561D01*
X116930447Y-56654631D01*
X116967491Y-56661999D01*
X116967497Y-56662000D01*
X117153000Y-56662000D01*
X117407000Y-56662000D01*
X117592503Y-56662000D01*
X117592508Y-56661999D01*
X117629552Y-56654631D01*
X117671561Y-56626561D01*
X117699631Y-56584552D01*
X117706999Y-56547508D01*
X117707000Y-56547503D01*
X117707000Y-56287000D01*
X117407000Y-56287000D01*
X117407000Y-56662000D01*
X117153000Y-56662000D01*
X117153000Y-56287000D01*
X116853000Y-56287000D01*
X116853000Y-56547508D01*
X116002050Y-56547508D01*
X115985501Y-56485746D01*
X115985499Y-56485743D01*
X115985499Y-56485741D01*
X115935278Y-56398756D01*
X115935274Y-56398751D01*
X115901398Y-56364875D01*
X115864247Y-56327724D01*
X115231247Y-55694724D01*
X115231245Y-55694723D01*
X115231243Y-55694721D01*
X115183226Y-55666999D01*
X115183230Y-55666991D01*
X115183195Y-55666981D01*
X115181360Y-55665922D01*
X115132382Y-55614525D01*
X115120813Y-55581401D01*
X115115575Y-55555066D01*
X115109734Y-55525699D01*
X115053484Y-55441516D01*
X115053483Y-55441515D01*
X114969302Y-55385266D01*
X114895068Y-55370500D01*
X114244936Y-55370500D01*
X114244926Y-55370501D01*
X114170699Y-55385265D01*
X114114002Y-55423150D01*
X114046249Y-55444365D01*
X113977782Y-55425582D01*
X113930339Y-55372765D01*
X113918000Y-55318385D01*
X113918000Y-54158136D01*
X113918000Y-54158135D01*
X113899727Y-54089940D01*
X113896329Y-54077256D01*
X113896329Y-54077255D01*
X113854464Y-54004744D01*
X113854462Y-54004741D01*
X113548341Y-53698620D01*
X117047402Y-53698620D01*
X117047402Y-53799129D01*
X117207402Y-53799129D01*
X117207402Y-53584129D01*
X117161893Y-53584129D01*
X117124849Y-53591497D01*
X117082840Y-53619567D01*
X117054770Y-53661576D01*
X117047402Y-53698620D01*
X113548341Y-53698620D01*
X113295256Y-53445535D01*
X113222748Y-53403673D01*
X113222746Y-53403672D01*
X113222744Y-53403671D01*
X113141865Y-53382000D01*
X113141863Y-53382000D01*
X104283910Y-53382000D01*
X104215789Y-53361998D01*
X104194815Y-53345095D01*
X102984905Y-52135185D01*
X102950879Y-52072873D01*
X102948000Y-52046090D01*
X102948000Y-51430499D01*
X102968002Y-51362378D01*
X103021658Y-51315885D01*
X103074000Y-51304499D01*
X103105064Y-51304499D01*
X103105066Y-51304499D01*
X103105069Y-51304498D01*
X103105072Y-51304498D01*
X103149587Y-51295644D01*
X103179301Y-51289734D01*
X103263484Y-51233484D01*
X103275235Y-51215896D01*
X103329711Y-51170370D01*
X103400154Y-51161521D01*
X103464199Y-51192162D01*
X103484762Y-51215894D01*
X103487984Y-51220715D01*
X103496516Y-51233484D01*
X103532026Y-51257211D01*
X103577554Y-51311688D01*
X103586402Y-51382131D01*
X103578433Y-51410194D01*
X103559772Y-51455245D01*
X103559771Y-51455246D01*
X103540715Y-51599999D01*
X103540715Y-51600000D01*
X103559771Y-51744752D01*
X103615644Y-51879641D01*
X103615649Y-51879649D01*
X103704525Y-51995474D01*
X103809076Y-52075699D01*
X103820357Y-52084355D01*
X103955246Y-52140228D01*
X104100000Y-52159285D01*
X104244754Y-52140228D01*
X104379643Y-52084355D01*
X104495474Y-51995474D01*
X104584355Y-51879643D01*
X104640228Y-51744754D01*
X104659285Y-51600000D01*
X104640228Y-51455246D01*
X104634572Y-51441593D01*
X104626984Y-51371005D01*
X104658763Y-51307518D01*
X104680973Y-51288616D01*
X104763484Y-51233484D01*
X104775235Y-51215896D01*
X104829711Y-51170370D01*
X104900154Y-51161521D01*
X104964199Y-51192162D01*
G37*
G04 #@! TD.AperFunction*
G04 #@! TA.AperFunction,Conductor*
G36*
X116247400Y-63532699D02*
G01*
X116270281Y-63550804D01*
X116481595Y-63762118D01*
X116515621Y-63824430D01*
X116518500Y-63851213D01*
X116518500Y-64548785D01*
X116498498Y-64616906D01*
X116481595Y-64637881D01*
X116270280Y-64849195D01*
X116207968Y-64883220D01*
X116137152Y-64878155D01*
X116111182Y-64864863D01*
X116104302Y-64860266D01*
X116030069Y-64845500D01*
X115881848Y-64845500D01*
X115813727Y-64825498D01*
X115767234Y-64771842D01*
X115757130Y-64701568D01*
X115786624Y-64636988D01*
X115811849Y-64614733D01*
X115831561Y-64601562D01*
X115859631Y-64559552D01*
X115866999Y-64522508D01*
X115867000Y-64522503D01*
X115867000Y-64327000D01*
X115439000Y-64327000D01*
X115370879Y-64306998D01*
X115324386Y-64253342D01*
X115313000Y-64201000D01*
X115313000Y-64199000D01*
X115333002Y-64130879D01*
X115386658Y-64084386D01*
X115439000Y-64073000D01*
X115867000Y-64073000D01*
X115867000Y-63877496D01*
X115866999Y-63877491D01*
X115859631Y-63840447D01*
X115831561Y-63798437D01*
X115811847Y-63785265D01*
X115766318Y-63730789D01*
X115757469Y-63660346D01*
X115788109Y-63596302D01*
X115848510Y-63558989D01*
X115881845Y-63554499D01*
X116030066Y-63554499D01*
X116030069Y-63554498D01*
X116030073Y-63554498D01*
X116092908Y-63542000D01*
X116104301Y-63539734D01*
X116111181Y-63535136D01*
X116178932Y-63513919D01*
X116247400Y-63532699D01*
G37*
G04 #@! TD.AperFunction*
G04 #@! TA.AperFunction,Conductor*
G36*
X133822441Y-61508544D02*
G01*
X133867504Y-61537505D01*
X133872999Y-61543000D01*
X134301000Y-61543000D01*
X134369121Y-61563002D01*
X134415614Y-61616658D01*
X134427000Y-61669000D01*
X134427000Y-61671000D01*
X134406998Y-61739121D01*
X134353342Y-61785614D01*
X134301000Y-61797000D01*
X133873000Y-61797000D01*
X133873000Y-61992508D01*
X133880368Y-62029552D01*
X133908438Y-62071561D01*
X133953595Y-62101734D01*
X133999123Y-62156211D01*
X134007972Y-62226654D01*
X133977331Y-62290698D01*
X133916930Y-62328010D01*
X133883594Y-62332500D01*
X132707442Y-62332500D01*
X132639321Y-62312498D01*
X132607480Y-62283204D01*
X132585474Y-62254525D01*
X132469649Y-62165649D01*
X132469641Y-62165644D01*
X132334752Y-62109771D01*
X132203847Y-62092538D01*
X132138920Y-62063816D01*
X132099828Y-62004551D01*
X132098983Y-61933559D01*
X132131195Y-61878524D01*
X132254817Y-61754902D01*
X132317127Y-61720879D01*
X132343910Y-61718000D01*
X133418963Y-61718000D01*
X133418965Y-61718000D01*
X133499844Y-61696329D01*
X133572357Y-61654463D01*
X133689317Y-61537502D01*
X133751625Y-61503480D01*
X133822441Y-61508544D01*
G37*
G04 #@! TD.AperFunction*
G04 #@! TA.AperFunction,Conductor*
G36*
X129339121Y-58333002D02*
G01*
X129385614Y-58386658D01*
X129397000Y-58439000D01*
X129397000Y-58877000D01*
X129582506Y-58877000D01*
X129588279Y-58876431D01*
X129658034Y-58889654D01*
X129697588Y-58924862D01*
X129697741Y-58924710D01*
X129700359Y-58927328D01*
X129705401Y-58931816D01*
X129706515Y-58933484D01*
X129790697Y-58989733D01*
X129790699Y-58989734D01*
X129834081Y-58998363D01*
X129896990Y-59031270D01*
X129932123Y-59092965D01*
X129935500Y-59121942D01*
X129935500Y-59745063D01*
X129935501Y-59745073D01*
X129950265Y-59819300D01*
X130006516Y-59903484D01*
X130008181Y-59904597D01*
X130010993Y-59907962D01*
X130015290Y-59912259D01*
X130014905Y-59912643D01*
X130053707Y-59959075D01*
X130063569Y-60021708D01*
X130063000Y-60027486D01*
X130063000Y-60213000D01*
X130501000Y-60213000D01*
X130569121Y-60233002D01*
X130615614Y-60286658D01*
X130627000Y-60339000D01*
X130627000Y-60341000D01*
X130606998Y-60409121D01*
X130553342Y-60455614D01*
X130501000Y-60467000D01*
X130063000Y-60467000D01*
X130063000Y-60526000D01*
X130042998Y-60594121D01*
X129989342Y-60640614D01*
X129937000Y-60652000D01*
X129307000Y-60652000D01*
X129238879Y-60631998D01*
X129217905Y-60615095D01*
X128614905Y-60012095D01*
X128580879Y-59949783D01*
X128578000Y-59923000D01*
X128578000Y-58626660D01*
X128598002Y-58558539D01*
X128627289Y-58526702D01*
X128640296Y-58516722D01*
X128706512Y-58491121D01*
X128776061Y-58505384D01*
X128826859Y-58554983D01*
X128843000Y-58616684D01*
X128843000Y-58762508D01*
X128850368Y-58799552D01*
X128878438Y-58841561D01*
X128920447Y-58869631D01*
X128957491Y-58876999D01*
X128957497Y-58877000D01*
X129143000Y-58877000D01*
X129143000Y-58439000D01*
X129163002Y-58370879D01*
X129216658Y-58324386D01*
X129269000Y-58313000D01*
X129271000Y-58313000D01*
X129339121Y-58333002D01*
G37*
G04 #@! TD.AperFunction*
G04 #@! TA.AperFunction,Conductor*
G36*
X134875519Y-56950933D02*
G01*
X134933105Y-56992458D01*
X134959099Y-57058525D01*
X134959601Y-57069756D01*
X134959601Y-57124601D01*
X134969805Y-57134805D01*
X135003831Y-57197117D01*
X135004289Y-57248481D01*
X135000500Y-57267526D01*
X135000500Y-57572462D01*
X135000501Y-57572472D01*
X135015011Y-57645419D01*
X135015011Y-57694580D01*
X135000500Y-57767528D01*
X135000500Y-57807000D01*
X134980498Y-57875121D01*
X134926842Y-57921614D01*
X134874500Y-57933000D01*
X134764600Y-57933000D01*
X134764600Y-58907000D01*
X134874501Y-58907000D01*
X134942622Y-58927002D01*
X134989115Y-58980658D01*
X135000501Y-59033000D01*
X135000501Y-59072472D01*
X135015011Y-59145419D01*
X135015011Y-59194580D01*
X135000500Y-59267528D01*
X135000500Y-59461900D01*
X134980498Y-59530021D01*
X134926842Y-59576514D01*
X134874501Y-59587900D01*
X134680137Y-59587900D01*
X134680127Y-59587901D01*
X134607180Y-59602411D01*
X134558018Y-59602411D01*
X134485068Y-59587900D01*
X134445600Y-59587900D01*
X134377479Y-59567898D01*
X134330986Y-59514242D01*
X134319600Y-59461900D01*
X134319600Y-59352000D01*
X133345600Y-59352000D01*
X133345600Y-59461900D01*
X133325598Y-59530021D01*
X133271942Y-59576514D01*
X133219603Y-59587900D01*
X133180138Y-59587900D01*
X133180127Y-59587901D01*
X133107180Y-59602411D01*
X133058018Y-59602411D01*
X132985068Y-59587900D01*
X132790699Y-59587900D01*
X132722578Y-59567898D01*
X132676085Y-59514242D01*
X132664699Y-59461902D01*
X132664699Y-59267535D01*
X132650188Y-59194577D01*
X132650188Y-59145423D01*
X132664700Y-59072466D01*
X132664700Y-59033000D01*
X132684702Y-58964879D01*
X132738358Y-58918386D01*
X132790700Y-58907000D01*
X132900600Y-58907000D01*
X133154600Y-58907000D01*
X133219600Y-58907000D01*
X133287721Y-58927002D01*
X133334214Y-58980658D01*
X133345600Y-59033000D01*
X133345600Y-59098000D01*
X133705600Y-59098000D01*
X133705600Y-58773000D01*
X133959600Y-58773000D01*
X133959600Y-59098000D01*
X134319600Y-59098000D01*
X134319600Y-59033000D01*
X134339602Y-58964879D01*
X134393258Y-58918386D01*
X134445600Y-58907000D01*
X134510600Y-58907000D01*
X134510600Y-58547000D01*
X134185600Y-58547000D01*
X134185600Y-58647000D01*
X134165598Y-58715121D01*
X134111942Y-58761614D01*
X134059600Y-58773000D01*
X133959600Y-58773000D01*
X133705600Y-58773000D01*
X133605600Y-58773000D01*
X133537479Y-58752998D01*
X133490986Y-58699342D01*
X133479600Y-58647000D01*
X133479600Y-58547000D01*
X133154600Y-58547000D01*
X133154600Y-58907000D01*
X132900600Y-58907000D01*
X132900600Y-57933000D01*
X133154600Y-57933000D01*
X133154600Y-58293000D01*
X133479600Y-58293000D01*
X133479600Y-58193000D01*
X133499602Y-58124879D01*
X133553258Y-58078386D01*
X133605600Y-58067000D01*
X133705600Y-58067000D01*
X133959600Y-58067000D01*
X134059600Y-58067000D01*
X134127721Y-58087002D01*
X134174214Y-58140658D01*
X134185600Y-58193000D01*
X134185600Y-58293000D01*
X134510600Y-58293000D01*
X134510600Y-57933000D01*
X134445600Y-57933000D01*
X134377479Y-57912998D01*
X134330986Y-57859342D01*
X134319600Y-57807000D01*
X134319600Y-57742000D01*
X133959600Y-57742000D01*
X133959600Y-58067000D01*
X133705600Y-58067000D01*
X133705600Y-57742000D01*
X133345600Y-57742000D01*
X133345600Y-57807000D01*
X133325598Y-57875121D01*
X133271942Y-57921614D01*
X133219600Y-57933000D01*
X133154600Y-57933000D01*
X132900600Y-57933000D01*
X132790699Y-57933000D01*
X132722578Y-57912998D01*
X132676085Y-57859342D01*
X132664699Y-57807000D01*
X132664699Y-57767537D01*
X132664698Y-57767530D01*
X132659149Y-57739630D01*
X132650188Y-57694577D01*
X132650188Y-57645423D01*
X132664700Y-57572466D01*
X132664699Y-57378098D01*
X132684701Y-57309979D01*
X132738356Y-57263486D01*
X132790696Y-57252099D01*
X132985065Y-57252099D01*
X132985068Y-57252098D01*
X132985072Y-57252098D01*
X133038354Y-57241500D01*
X133059300Y-57237334D01*
X133143483Y-57181084D01*
X133143483Y-57181083D01*
X133149598Y-57176998D01*
X133217350Y-57155783D01*
X133285817Y-57174566D01*
X133333261Y-57227383D01*
X133345600Y-57281763D01*
X133345600Y-57488000D01*
X134319600Y-57488000D01*
X134319600Y-57378099D01*
X134339602Y-57309978D01*
X134393258Y-57263485D01*
X134445599Y-57252099D01*
X134485065Y-57252099D01*
X134485068Y-57252098D01*
X134485071Y-57252098D01*
X134538354Y-57241500D01*
X134559300Y-57237334D01*
X134643483Y-57181084D01*
X134643808Y-57180598D01*
X134644794Y-57179773D01*
X134652259Y-57172309D01*
X134652926Y-57172976D01*
X134679091Y-57151110D01*
X134705601Y-57124601D01*
X134705601Y-57079811D01*
X134708022Y-57055230D01*
X134710022Y-57045175D01*
X134742929Y-56982266D01*
X134804624Y-56947133D01*
X134875519Y-56950933D01*
G37*
G04 #@! TD.AperFunction*
G04 #@! TA.AperFunction,Conductor*
G36*
X121842121Y-60820002D02*
G01*
X121888614Y-60873658D01*
X121900000Y-60926000D01*
X121900000Y-63874000D01*
X121879998Y-63942121D01*
X121826342Y-63988614D01*
X121774000Y-64000000D01*
X121553000Y-64000000D01*
X121484879Y-63979998D01*
X121438386Y-63926342D01*
X121427000Y-63874000D01*
X121427000Y-63687000D01*
X119973000Y-63687000D01*
X119973000Y-63874000D01*
X119952998Y-63942121D01*
X119899342Y-63988614D01*
X119847000Y-64000000D01*
X119823000Y-64000000D01*
X119754879Y-63979998D01*
X119708386Y-63926342D01*
X119697000Y-63874000D01*
X119697000Y-63627000D01*
X119099000Y-63627000D01*
X119030879Y-63606998D01*
X118984386Y-63553342D01*
X118973000Y-63501000D01*
X118973000Y-63373000D01*
X119227000Y-63373000D01*
X119697000Y-63373000D01*
X119697000Y-63247491D01*
X119973000Y-63247491D01*
X119973000Y-63433000D01*
X120573000Y-63433000D01*
X120827000Y-63433000D01*
X121427000Y-63433000D01*
X121427000Y-63247496D01*
X121426999Y-63247491D01*
X121419631Y-63210447D01*
X121391561Y-63168438D01*
X121349552Y-63140368D01*
X121312508Y-63133000D01*
X120827000Y-63133000D01*
X120827000Y-63433000D01*
X120573000Y-63433000D01*
X120573000Y-63133000D01*
X120087491Y-63133000D01*
X120050447Y-63140368D01*
X120008438Y-63168438D01*
X119980368Y-63210447D01*
X119973000Y-63247491D01*
X119697000Y-63247491D01*
X119697000Y-63112496D01*
X119696999Y-63112491D01*
X119689631Y-63075447D01*
X119661561Y-63033438D01*
X119619552Y-63005368D01*
X119582508Y-62998000D01*
X119227000Y-62998000D01*
X119227000Y-63373000D01*
X118973000Y-63373000D01*
X118973000Y-62998000D01*
X118726000Y-62998000D01*
X118657879Y-62977998D01*
X118611386Y-62924342D01*
X118600000Y-62872000D01*
X118600000Y-62108008D01*
X120123400Y-62108008D01*
X120130768Y-62145052D01*
X120158838Y-62187061D01*
X120200847Y-62215131D01*
X120237891Y-62222499D01*
X120237897Y-62222500D01*
X120733000Y-62222500D01*
X120987000Y-62222500D01*
X121482103Y-62222500D01*
X121482108Y-62222499D01*
X121519152Y-62215131D01*
X121561161Y-62187061D01*
X121589231Y-62145052D01*
X121596599Y-62108008D01*
X121596600Y-62108003D01*
X121596600Y-61765300D01*
X120987000Y-61765300D01*
X120987000Y-62222500D01*
X120733000Y-62222500D01*
X120733000Y-61765300D01*
X120123400Y-61765300D01*
X120123400Y-62108008D01*
X118600000Y-62108008D01*
X118600000Y-61168591D01*
X120123400Y-61168591D01*
X120123400Y-61511300D01*
X120733000Y-61511300D01*
X120987000Y-61511300D01*
X121596600Y-61511300D01*
X121596600Y-61168596D01*
X121596599Y-61168591D01*
X121589231Y-61131547D01*
X121561161Y-61089538D01*
X121519152Y-61061468D01*
X121482108Y-61054100D01*
X120987000Y-61054100D01*
X120987000Y-61511300D01*
X120733000Y-61511300D01*
X120733000Y-61054100D01*
X120237891Y-61054100D01*
X120200847Y-61061468D01*
X120158838Y-61089538D01*
X120130768Y-61131547D01*
X120123400Y-61168591D01*
X118600000Y-61168591D01*
X118600000Y-60926000D01*
X118620002Y-60857879D01*
X118673658Y-60811386D01*
X118726000Y-60800000D01*
X121774000Y-60800000D01*
X121842121Y-60820002D01*
G37*
G04 #@! TD.AperFunction*
G04 #@! TA.AperFunction,Conductor*
G36*
X123058917Y-57520002D02*
G01*
X123105410Y-57573658D01*
X123115514Y-57643932D01*
X123114375Y-57650581D01*
X123113000Y-57657491D01*
X123113000Y-59393000D01*
X124467000Y-59393000D01*
X124467000Y-57657496D01*
X124466999Y-57657491D01*
X124465625Y-57650581D01*
X124471953Y-57579867D01*
X124515508Y-57523800D01*
X124582461Y-57500181D01*
X124589204Y-57500000D01*
X124774000Y-57500000D01*
X124842121Y-57520002D01*
X124888614Y-57573658D01*
X124900000Y-57626000D01*
X124900000Y-62430215D01*
X124879998Y-62498336D01*
X124826342Y-62544829D01*
X124790449Y-62555137D01*
X124756598Y-62559594D01*
X124755246Y-62559772D01*
X124620358Y-62615645D01*
X124620357Y-62615646D01*
X124620356Y-62615646D01*
X124504526Y-62704526D01*
X124415646Y-62820356D01*
X124415645Y-62820358D01*
X124404174Y-62848051D01*
X124359771Y-62955247D01*
X124340715Y-63099999D01*
X124340715Y-63100000D01*
X124359771Y-63244752D01*
X124415644Y-63379641D01*
X124415649Y-63379649D01*
X124504525Y-63495474D01*
X124589920Y-63561000D01*
X124620357Y-63584355D01*
X124755246Y-63640228D01*
X124790446Y-63644862D01*
X124855373Y-63673584D01*
X124894465Y-63732849D01*
X124900000Y-63769784D01*
X124900000Y-63874000D01*
X124879998Y-63942121D01*
X124826342Y-63988614D01*
X124774000Y-64000000D01*
X124666936Y-64000000D01*
X124618718Y-63990409D01*
X124544752Y-63959771D01*
X124400000Y-63940715D01*
X124255246Y-63959771D01*
X124255245Y-63959772D01*
X124181282Y-63990409D01*
X124133064Y-64000000D01*
X124053000Y-64000000D01*
X123984879Y-63979998D01*
X123938386Y-63926342D01*
X123927000Y-63874000D01*
X123927000Y-63687000D01*
X123199000Y-63687000D01*
X123130879Y-63666998D01*
X123084386Y-63613342D01*
X123073000Y-63561000D01*
X123073000Y-63433000D01*
X123327000Y-63433000D01*
X123927000Y-63433000D01*
X123927000Y-63247496D01*
X123926999Y-63247491D01*
X123919631Y-63210447D01*
X123891561Y-63168438D01*
X123849552Y-63140368D01*
X123812508Y-63133000D01*
X123327000Y-63133000D01*
X123327000Y-63433000D01*
X123073000Y-63433000D01*
X123073000Y-63133000D01*
X122587488Y-63133000D01*
X122550580Y-63140342D01*
X122479866Y-63134013D01*
X122423799Y-63090459D01*
X122400181Y-63023506D01*
X122400000Y-63016763D01*
X122400000Y-61382508D01*
X123113000Y-61382508D01*
X123120368Y-61419552D01*
X123148438Y-61461561D01*
X123190447Y-61489631D01*
X123227491Y-61496999D01*
X123227497Y-61497000D01*
X123663000Y-61497000D01*
X123917000Y-61497000D01*
X124352503Y-61497000D01*
X124352508Y-61496999D01*
X124389552Y-61489631D01*
X124431561Y-61461561D01*
X124459631Y-61419552D01*
X124466999Y-61382508D01*
X124467000Y-61382503D01*
X124467000Y-59647000D01*
X123917000Y-59647000D01*
X123917000Y-61497000D01*
X123663000Y-61497000D01*
X123663000Y-59647000D01*
X123113000Y-59647000D01*
X123113000Y-61382508D01*
X122400000Y-61382508D01*
X122400000Y-57626000D01*
X122420002Y-57557879D01*
X122473658Y-57511386D01*
X122526000Y-57500000D01*
X122990796Y-57500000D01*
X123058917Y-57520002D01*
G37*
G04 #@! TD.AperFunction*
G04 #@! TA.AperFunction,Conductor*
G36*
X126046064Y-57680825D02*
G01*
X126096860Y-57730426D01*
X126113000Y-57792124D01*
X126113000Y-59393000D01*
X126791000Y-59393000D01*
X126859121Y-59413002D01*
X126905614Y-59466658D01*
X126917000Y-59519000D01*
X126917000Y-61497000D01*
X127274000Y-61497000D01*
X127342121Y-61517002D01*
X127388614Y-61570658D01*
X127400000Y-61623000D01*
X127400000Y-62551892D01*
X127379998Y-62620013D01*
X127326342Y-62666506D01*
X127256068Y-62676610D01*
X127221710Y-62663445D01*
X127221018Y-62665118D01*
X127209552Y-62660368D01*
X127172508Y-62653000D01*
X126977000Y-62653000D01*
X126977000Y-63081000D01*
X126956998Y-63149121D01*
X126903342Y-63195614D01*
X126851000Y-63207000D01*
X126849000Y-63207000D01*
X126780879Y-63186998D01*
X126734386Y-63133342D01*
X126723000Y-63081000D01*
X126723000Y-62653000D01*
X126527491Y-62653000D01*
X126490447Y-62660368D01*
X126448438Y-62688438D01*
X126420369Y-62730446D01*
X126416409Y-62740008D01*
X126371860Y-62795288D01*
X126304496Y-62817709D01*
X126235705Y-62800150D01*
X126187327Y-62748188D01*
X126183591Y-62740008D01*
X126179630Y-62730446D01*
X126151561Y-62688438D01*
X126109552Y-62660368D01*
X126072508Y-62653000D01*
X125877000Y-62653000D01*
X125877000Y-63081000D01*
X125856998Y-63149121D01*
X125803342Y-63195614D01*
X125751000Y-63207000D01*
X125749000Y-63207000D01*
X125680879Y-63186998D01*
X125634386Y-63133342D01*
X125623000Y-63081000D01*
X125623000Y-62653000D01*
X125426000Y-62653000D01*
X125357879Y-62632998D01*
X125311386Y-62579342D01*
X125300000Y-62527000D01*
X125300000Y-61382508D01*
X126113000Y-61382508D01*
X126120368Y-61419552D01*
X126148438Y-61461561D01*
X126190447Y-61489631D01*
X126227491Y-61496999D01*
X126227497Y-61497000D01*
X126663000Y-61497000D01*
X126663000Y-59647000D01*
X126113000Y-59647000D01*
X126113000Y-61382508D01*
X125300000Y-61382508D01*
X125300000Y-57923047D01*
X125320002Y-57854926D01*
X125373658Y-57808433D01*
X125442444Y-57798125D01*
X125568571Y-57814730D01*
X125713325Y-57795673D01*
X125848214Y-57739800D01*
X125910298Y-57692160D01*
X125976515Y-57666561D01*
X126046064Y-57680825D01*
G37*
G04 #@! TD.AperFunction*
G04 #@! TA.AperFunction,Conductor*
G36*
X131242121Y-62520002D02*
G01*
X131288614Y-62573658D01*
X131300000Y-62626000D01*
X131300000Y-63574000D01*
X131279998Y-63642121D01*
X131226342Y-63688614D01*
X131174000Y-63700000D01*
X128608913Y-63700000D01*
X128608913Y-63699999D01*
X128603103Y-63694189D01*
X128554771Y-63679998D01*
X128508278Y-63626342D01*
X128500925Y-63603575D01*
X128499734Y-63600699D01*
X128443483Y-63516515D01*
X128441816Y-63515401D01*
X128438999Y-63512030D01*
X128434710Y-63507741D01*
X128435094Y-63507356D01*
X128396291Y-63460921D01*
X128386431Y-63398279D01*
X128387000Y-63392506D01*
X128387000Y-63207000D01*
X127949000Y-63207000D01*
X127880879Y-63186998D01*
X127834386Y-63133342D01*
X127823000Y-63081000D01*
X127823000Y-63079000D01*
X127843002Y-63010879D01*
X127896658Y-62964386D01*
X127949000Y-62953000D01*
X128387000Y-62953000D01*
X128387000Y-62767496D01*
X128386999Y-62767491D01*
X128379631Y-62730447D01*
X128356615Y-62696001D01*
X128335401Y-62628248D01*
X128354184Y-62559781D01*
X128407002Y-62512339D01*
X128461381Y-62500000D01*
X131174000Y-62500000D01*
X131242121Y-62520002D01*
G37*
G04 #@! TD.AperFunction*
G04 #@! TA.AperFunction,Conductor*
G36*
X127400000Y-62551892D02*
G01*
X127379998Y-62620013D01*
X127326342Y-62666506D01*
X127256068Y-62676610D01*
X127221710Y-62663445D01*
X127221018Y-62665118D01*
X127209552Y-62660368D01*
X127172508Y-62653000D01*
X126977000Y-62653000D01*
X126977000Y-63081000D01*
X126956998Y-63149121D01*
X126903342Y-63195614D01*
X126851000Y-63207000D01*
X126849000Y-63207000D01*
X126780879Y-63186998D01*
X126734386Y-63133342D01*
X126723000Y-63081000D01*
X126723000Y-62653000D01*
X126527491Y-62653000D01*
X126490447Y-62660368D01*
X126448438Y-62688438D01*
X126420369Y-62730446D01*
X126416409Y-62740008D01*
X126371860Y-62795288D01*
X126304496Y-62817709D01*
X126235705Y-62800150D01*
X126187327Y-62748188D01*
X126183591Y-62740008D01*
X126179630Y-62730446D01*
X126151561Y-62688438D01*
X126109552Y-62660368D01*
X126072508Y-62653000D01*
X125877000Y-62653000D01*
X125877000Y-63081000D01*
X125856998Y-63149121D01*
X125803342Y-63195614D01*
X125751000Y-63207000D01*
X125749000Y-63207000D01*
X125680879Y-63186998D01*
X125634386Y-63133342D01*
X125623000Y-63081000D01*
X125623000Y-62653000D01*
X125426000Y-62653000D01*
X125357879Y-62632998D01*
X125311386Y-62579342D01*
X125300000Y-62527000D01*
X125300000Y-62500000D01*
X127400000Y-62500000D01*
X127400000Y-62551892D01*
G37*
G04 #@! TD.AperFunction*
G04 #@! TA.AperFunction,Conductor*
G36*
X129700000Y-70800000D02*
G01*
X104966936Y-70800000D01*
X104918718Y-70790409D01*
X104844752Y-70759771D01*
X104700000Y-70740715D01*
X104555246Y-70759771D01*
X104555245Y-70759772D01*
X104481282Y-70790409D01*
X104433064Y-70800000D01*
X99508913Y-70800000D01*
X99508913Y-69600000D01*
X129700000Y-69600000D01*
X129700000Y-70800000D01*
G37*
G04 #@! TD.AperFunction*
G04 #@! TA.AperFunction,Conductor*
G36*
X129700000Y-70800000D02*
G01*
X128608913Y-70800000D01*
X128608913Y-62500000D01*
X129700000Y-62500000D01*
X129700000Y-70800000D01*
G37*
G04 #@! TD.AperFunction*
G04 #@! TA.AperFunction,Conductor*
G36*
X116542121Y-68520002D02*
G01*
X116588614Y-68573658D01*
X116600000Y-68626000D01*
X116600000Y-70200000D01*
X115208913Y-70200000D01*
X115208913Y-69390246D01*
X115228915Y-69322125D01*
X115245818Y-69301151D01*
X115253480Y-69293488D01*
X115253481Y-69293485D01*
X115253484Y-69293484D01*
X115254595Y-69291821D01*
X115257960Y-69289008D01*
X115262259Y-69284710D01*
X115262643Y-69285094D01*
X115309071Y-69246294D01*
X115371719Y-69236431D01*
X115377492Y-69237000D01*
X115563000Y-69237000D01*
X115817000Y-69237000D01*
X116002503Y-69237000D01*
X116002508Y-69236999D01*
X116039552Y-69229631D01*
X116081561Y-69201561D01*
X116109631Y-69159552D01*
X116116999Y-69122508D01*
X116117000Y-69122503D01*
X116117000Y-68927000D01*
X115817000Y-68927000D01*
X115817000Y-69237000D01*
X115563000Y-69237000D01*
X115563000Y-68799000D01*
X115583002Y-68730879D01*
X115636658Y-68684386D01*
X115689000Y-68673000D01*
X116117000Y-68673000D01*
X116117000Y-68626000D01*
X116137002Y-68557879D01*
X116190658Y-68511386D01*
X116243000Y-68500000D01*
X116474000Y-68500000D01*
X116542121Y-68520002D01*
G37*
G04 #@! TD.AperFunction*
G04 #@! TA.AperFunction,Conductor*
G36*
X129700000Y-77900000D02*
G01*
X129108913Y-77900000D01*
X128734913Y-77900000D01*
X128666792Y-77879998D01*
X128620299Y-77826342D01*
X128608913Y-77774000D01*
X128608913Y-70800000D01*
X128608913Y-69900000D01*
X129700000Y-69900000D01*
X129700000Y-77900000D01*
G37*
G04 #@! TD.AperFunction*
G04 #@! TA.AperFunction,Conductor*
G36*
X131742121Y-76220002D02*
G01*
X131788614Y-76273658D01*
X131800000Y-76326000D01*
X131800000Y-76597522D01*
X131779998Y-76665643D01*
X131726342Y-76712136D01*
X131668698Y-76721742D01*
X131668698Y-76723000D01*
X131227000Y-76723000D01*
X131227000Y-77301000D01*
X131206998Y-77369121D01*
X131153342Y-77415614D01*
X131101000Y-77427000D01*
X130423000Y-77427000D01*
X130423000Y-77768698D01*
X130421580Y-77768698D01*
X130409684Y-77831407D01*
X130360842Y-77882934D01*
X130297522Y-77900000D01*
X129108913Y-77900000D01*
X129108913Y-76837491D01*
X130423000Y-76837491D01*
X130423000Y-77173000D01*
X130973000Y-77173000D01*
X130973000Y-76723000D01*
X130537491Y-76723000D01*
X130500447Y-76730368D01*
X130458438Y-76758438D01*
X130430368Y-76800447D01*
X130423000Y-76837491D01*
X129108913Y-76837491D01*
X129108913Y-76200000D01*
X129700000Y-76200000D01*
X131674000Y-76200000D01*
X131742121Y-76220002D01*
G37*
G04 #@! TD.AperFunction*
G04 #@! TA.AperFunction,Conductor*
G36*
X99699121Y-67693002D02*
G01*
X99745614Y-67746658D01*
X99757000Y-67799000D01*
X99757000Y-68677000D01*
X100074000Y-68677000D01*
X100142121Y-68697002D01*
X100188614Y-68750658D01*
X100200000Y-68803000D01*
X100200000Y-70800000D01*
X99508913Y-70800000D01*
X99434913Y-70800000D01*
X99366792Y-70779998D01*
X99320299Y-70726342D01*
X99308913Y-70674000D01*
X99308913Y-68803000D01*
X99328915Y-68734879D01*
X99382571Y-68688386D01*
X99434913Y-68677000D01*
X99503000Y-68677000D01*
X99503000Y-67799000D01*
X99523002Y-67730879D01*
X99576658Y-67684386D01*
X99629000Y-67673000D01*
X99631000Y-67673000D01*
X99699121Y-67693002D01*
G37*
G04 #@! TD.AperFunction*
G04 #@! TA.AperFunction,Conductor*
G36*
X106800000Y-70800000D02*
G01*
X106800000Y-72574000D01*
X106779998Y-72642121D01*
X106726342Y-72688614D01*
X106674000Y-72700000D01*
X106468237Y-72700000D01*
X106400116Y-72679998D01*
X106353623Y-72626342D01*
X106343519Y-72556068D01*
X106344658Y-72549420D01*
X106351999Y-72512511D01*
X106352000Y-72512503D01*
X106352000Y-72327000D01*
X105849000Y-72327000D01*
X105780879Y-72306998D01*
X105734386Y-72253342D01*
X105723000Y-72201000D01*
X105723000Y-72073000D01*
X105977000Y-72073000D01*
X106352000Y-72073000D01*
X106352000Y-71887496D01*
X106351999Y-71887491D01*
X106344631Y-71850447D01*
X106316561Y-71808438D01*
X106274552Y-71780368D01*
X106237508Y-71773000D01*
X105977000Y-71773000D01*
X105977000Y-72073000D01*
X105723000Y-72073000D01*
X105723000Y-71773000D01*
X105462488Y-71773000D01*
X105459485Y-71773598D01*
X105457883Y-71773454D01*
X105456336Y-71773607D01*
X105456307Y-71773313D01*
X105388771Y-71767264D01*
X105332707Y-71723706D01*
X105309093Y-71656751D01*
X105308913Y-71650017D01*
X105308913Y-70800000D01*
X105308913Y-70200000D01*
X106800000Y-70200000D01*
X106800000Y-70800000D01*
G37*
G04 #@! TD.AperFunction*
M02*
