G04 #@! TF.GenerationSoftware,KiCad,Pcbnew,8.0.4-8.0.4-0~ubuntu24.04.1*
G04 #@! TF.CreationDate,2024-07-22T22:18:46+02:00*
G04 #@! TF.ProjectId,chrononauts-board,6368726f-6e6f-46e6-9175-74732d626f61,rev?*
G04 #@! TF.SameCoordinates,Original*
G04 #@! TF.FileFunction,Legend,Top*
G04 #@! TF.FilePolarity,Positive*
%FSLAX46Y46*%
G04 Gerber Fmt 4.6, Leading zero omitted, Abs format (unit mm)*
G04 Created by KiCad (PCBNEW 8.0.4-8.0.4-0~ubuntu24.04.1) date 2024-07-22 22:18:46*
%MOMM*%
%LPD*%
G01*
G04 APERTURE LIST*
%ADD10C,0.153000*%
%ADD11C,0.254000*%
%ADD12C,0.200000*%
%ADD13C,0.100000*%
%ADD14C,0.010000*%
%ADD15R,1.100000X0.900000*%
%ADD16R,1.400000X0.900000*%
%ADD17R,2.100000X1.400000*%
%ADD18R,0.600000X0.750000*%
%ADD19R,0.750000X0.600000*%
%ADD20R,0.600000X0.600000*%
%ADD21R,0.400000X0.500000*%
%ADD22R,0.410000X0.280000*%
%ADD23R,0.280000X0.410000*%
%ADD24R,0.620000X0.600000*%
%ADD25R,1.400000X1.200000*%
%ADD26R,0.600000X0.620000*%
%ADD27R,0.947699X0.254800*%
%ADD28R,0.254800X0.947699*%
%ADD29R,0.650000X0.720000*%
%ADD30R,0.720000X0.650000*%
%ADD31R,0.900000X0.950000*%
%ADD32R,0.750000X0.940000*%
%ADD33R,0.350000X0.650000*%
%ADD34R,1.219200X0.914400*%
%ADD35R,0.430000X0.320000*%
%ADD36R,0.320000X0.430000*%
%ADD37R,0.600000X0.700000*%
%ADD38R,5.080000X2.290000*%
%ADD39R,5.080000X2.415000*%
%ADD40C,0.650000*%
%ADD41R,0.600000X1.030000*%
%ADD42R,0.600000X1.080000*%
%ADD43R,0.300000X1.150000*%
%ADD44O,1.050000X2.100000*%
%ADD45O,1.000000X2.000000*%
%ADD46R,0.900000X1.500000*%
%ADD47R,0.700000X0.700000*%
%ADD48R,1.100000X3.700000*%
%ADD49R,1.200000X0.600000*%
G04 APERTURE END LIST*
D10*
X134383332Y-49727044D02*
X134288094Y-49774663D01*
X134288094Y-49774663D02*
X134097618Y-49774663D01*
X134097618Y-49774663D02*
X134002380Y-49727044D01*
X134002380Y-49727044D02*
X133954761Y-49679424D01*
X133954761Y-49679424D02*
X133907142Y-49584186D01*
X133907142Y-49584186D02*
X133907142Y-49298472D01*
X133907142Y-49298472D02*
X133954761Y-49203234D01*
X133954761Y-49203234D02*
X134002380Y-49155615D01*
X134002380Y-49155615D02*
X134097618Y-49107996D01*
X134097618Y-49107996D02*
X134288094Y-49107996D01*
X134288094Y-49107996D02*
X134383332Y-49155615D01*
X134811904Y-49774663D02*
X134811904Y-48774663D01*
X135240475Y-49774663D02*
X135240475Y-49250853D01*
X135240475Y-49250853D02*
X135192856Y-49155615D01*
X135192856Y-49155615D02*
X135097618Y-49107996D01*
X135097618Y-49107996D02*
X134954761Y-49107996D01*
X134954761Y-49107996D02*
X134859523Y-49155615D01*
X134859523Y-49155615D02*
X134811904Y-49203234D01*
X135716666Y-49774663D02*
X135716666Y-49107996D01*
X135716666Y-49298472D02*
X135764285Y-49203234D01*
X135764285Y-49203234D02*
X135811904Y-49155615D01*
X135811904Y-49155615D02*
X135907142Y-49107996D01*
X135907142Y-49107996D02*
X136002380Y-49107996D01*
X136478571Y-49774663D02*
X136383333Y-49727044D01*
X136383333Y-49727044D02*
X136335714Y-49679424D01*
X136335714Y-49679424D02*
X136288095Y-49584186D01*
X136288095Y-49584186D02*
X136288095Y-49298472D01*
X136288095Y-49298472D02*
X136335714Y-49203234D01*
X136335714Y-49203234D02*
X136383333Y-49155615D01*
X136383333Y-49155615D02*
X136478571Y-49107996D01*
X136478571Y-49107996D02*
X136621428Y-49107996D01*
X136621428Y-49107996D02*
X136716666Y-49155615D01*
X136716666Y-49155615D02*
X136764285Y-49203234D01*
X136764285Y-49203234D02*
X136811904Y-49298472D01*
X136811904Y-49298472D02*
X136811904Y-49584186D01*
X136811904Y-49584186D02*
X136764285Y-49679424D01*
X136764285Y-49679424D02*
X136716666Y-49727044D01*
X136716666Y-49727044D02*
X136621428Y-49774663D01*
X136621428Y-49774663D02*
X136478571Y-49774663D01*
X137240476Y-49107996D02*
X137240476Y-49774663D01*
X137240476Y-49203234D02*
X137288095Y-49155615D01*
X137288095Y-49155615D02*
X137383333Y-49107996D01*
X137383333Y-49107996D02*
X137526190Y-49107996D01*
X137526190Y-49107996D02*
X137621428Y-49155615D01*
X137621428Y-49155615D02*
X137669047Y-49250853D01*
X137669047Y-49250853D02*
X137669047Y-49774663D01*
X138288095Y-49774663D02*
X138192857Y-49727044D01*
X138192857Y-49727044D02*
X138145238Y-49679424D01*
X138145238Y-49679424D02*
X138097619Y-49584186D01*
X138097619Y-49584186D02*
X138097619Y-49298472D01*
X138097619Y-49298472D02*
X138145238Y-49203234D01*
X138145238Y-49203234D02*
X138192857Y-49155615D01*
X138192857Y-49155615D02*
X138288095Y-49107996D01*
X138288095Y-49107996D02*
X138430952Y-49107996D01*
X138430952Y-49107996D02*
X138526190Y-49155615D01*
X138526190Y-49155615D02*
X138573809Y-49203234D01*
X138573809Y-49203234D02*
X138621428Y-49298472D01*
X138621428Y-49298472D02*
X138621428Y-49584186D01*
X138621428Y-49584186D02*
X138573809Y-49679424D01*
X138573809Y-49679424D02*
X138526190Y-49727044D01*
X138526190Y-49727044D02*
X138430952Y-49774663D01*
X138430952Y-49774663D02*
X138288095Y-49774663D01*
X139050000Y-49107996D02*
X139050000Y-49774663D01*
X139050000Y-49203234D02*
X139097619Y-49155615D01*
X139097619Y-49155615D02*
X139192857Y-49107996D01*
X139192857Y-49107996D02*
X139335714Y-49107996D01*
X139335714Y-49107996D02*
X139430952Y-49155615D01*
X139430952Y-49155615D02*
X139478571Y-49250853D01*
X139478571Y-49250853D02*
X139478571Y-49774663D01*
X140383333Y-49774663D02*
X140383333Y-49250853D01*
X140383333Y-49250853D02*
X140335714Y-49155615D01*
X140335714Y-49155615D02*
X140240476Y-49107996D01*
X140240476Y-49107996D02*
X140050000Y-49107996D01*
X140050000Y-49107996D02*
X139954762Y-49155615D01*
X140383333Y-49727044D02*
X140288095Y-49774663D01*
X140288095Y-49774663D02*
X140050000Y-49774663D01*
X140050000Y-49774663D02*
X139954762Y-49727044D01*
X139954762Y-49727044D02*
X139907143Y-49631805D01*
X139907143Y-49631805D02*
X139907143Y-49536567D01*
X139907143Y-49536567D02*
X139954762Y-49441329D01*
X139954762Y-49441329D02*
X140050000Y-49393710D01*
X140050000Y-49393710D02*
X140288095Y-49393710D01*
X140288095Y-49393710D02*
X140383333Y-49346091D01*
X141288095Y-49107996D02*
X141288095Y-49774663D01*
X140859524Y-49107996D02*
X140859524Y-49631805D01*
X140859524Y-49631805D02*
X140907143Y-49727044D01*
X140907143Y-49727044D02*
X141002381Y-49774663D01*
X141002381Y-49774663D02*
X141145238Y-49774663D01*
X141145238Y-49774663D02*
X141240476Y-49727044D01*
X141240476Y-49727044D02*
X141288095Y-49679424D01*
X141621429Y-49107996D02*
X142002381Y-49107996D01*
X141764286Y-48774663D02*
X141764286Y-49631805D01*
X141764286Y-49631805D02*
X141811905Y-49727044D01*
X141811905Y-49727044D02*
X141907143Y-49774663D01*
X141907143Y-49774663D02*
X142002381Y-49774663D01*
X142288096Y-49727044D02*
X142383334Y-49774663D01*
X142383334Y-49774663D02*
X142573810Y-49774663D01*
X142573810Y-49774663D02*
X142669048Y-49727044D01*
X142669048Y-49727044D02*
X142716667Y-49631805D01*
X142716667Y-49631805D02*
X142716667Y-49584186D01*
X142716667Y-49584186D02*
X142669048Y-49488948D01*
X142669048Y-49488948D02*
X142573810Y-49441329D01*
X142573810Y-49441329D02*
X142430953Y-49441329D01*
X142430953Y-49441329D02*
X142335715Y-49393710D01*
X142335715Y-49393710D02*
X142288096Y-49298472D01*
X142288096Y-49298472D02*
X142288096Y-49250853D01*
X142288096Y-49250853D02*
X142335715Y-49155615D01*
X142335715Y-49155615D02*
X142430953Y-49107996D01*
X142430953Y-49107996D02*
X142573810Y-49107996D01*
X142573810Y-49107996D02*
X142669048Y-49155615D01*
X143145239Y-49393710D02*
X143907144Y-49393710D01*
X144383334Y-49774663D02*
X144383334Y-48774663D01*
X144383334Y-49155615D02*
X144478572Y-49107996D01*
X144478572Y-49107996D02*
X144669048Y-49107996D01*
X144669048Y-49107996D02*
X144764286Y-49155615D01*
X144764286Y-49155615D02*
X144811905Y-49203234D01*
X144811905Y-49203234D02*
X144859524Y-49298472D01*
X144859524Y-49298472D02*
X144859524Y-49584186D01*
X144859524Y-49584186D02*
X144811905Y-49679424D01*
X144811905Y-49679424D02*
X144764286Y-49727044D01*
X144764286Y-49727044D02*
X144669048Y-49774663D01*
X144669048Y-49774663D02*
X144478572Y-49774663D01*
X144478572Y-49774663D02*
X144383334Y-49727044D01*
X145430953Y-49774663D02*
X145335715Y-49727044D01*
X145335715Y-49727044D02*
X145288096Y-49679424D01*
X145288096Y-49679424D02*
X145240477Y-49584186D01*
X145240477Y-49584186D02*
X145240477Y-49298472D01*
X145240477Y-49298472D02*
X145288096Y-49203234D01*
X145288096Y-49203234D02*
X145335715Y-49155615D01*
X145335715Y-49155615D02*
X145430953Y-49107996D01*
X145430953Y-49107996D02*
X145573810Y-49107996D01*
X145573810Y-49107996D02*
X145669048Y-49155615D01*
X145669048Y-49155615D02*
X145716667Y-49203234D01*
X145716667Y-49203234D02*
X145764286Y-49298472D01*
X145764286Y-49298472D02*
X145764286Y-49584186D01*
X145764286Y-49584186D02*
X145716667Y-49679424D01*
X145716667Y-49679424D02*
X145669048Y-49727044D01*
X145669048Y-49727044D02*
X145573810Y-49774663D01*
X145573810Y-49774663D02*
X145430953Y-49774663D01*
X146621429Y-49774663D02*
X146621429Y-49250853D01*
X146621429Y-49250853D02*
X146573810Y-49155615D01*
X146573810Y-49155615D02*
X146478572Y-49107996D01*
X146478572Y-49107996D02*
X146288096Y-49107996D01*
X146288096Y-49107996D02*
X146192858Y-49155615D01*
X146621429Y-49727044D02*
X146526191Y-49774663D01*
X146526191Y-49774663D02*
X146288096Y-49774663D01*
X146288096Y-49774663D02*
X146192858Y-49727044D01*
X146192858Y-49727044D02*
X146145239Y-49631805D01*
X146145239Y-49631805D02*
X146145239Y-49536567D01*
X146145239Y-49536567D02*
X146192858Y-49441329D01*
X146192858Y-49441329D02*
X146288096Y-49393710D01*
X146288096Y-49393710D02*
X146526191Y-49393710D01*
X146526191Y-49393710D02*
X146621429Y-49346091D01*
X147097620Y-49774663D02*
X147097620Y-49107996D01*
X147097620Y-49298472D02*
X147145239Y-49203234D01*
X147145239Y-49203234D02*
X147192858Y-49155615D01*
X147192858Y-49155615D02*
X147288096Y-49107996D01*
X147288096Y-49107996D02*
X147383334Y-49107996D01*
X148145239Y-49774663D02*
X148145239Y-48774663D01*
X148145239Y-49727044D02*
X148050001Y-49774663D01*
X148050001Y-49774663D02*
X147859525Y-49774663D01*
X147859525Y-49774663D02*
X147764287Y-49727044D01*
X147764287Y-49727044D02*
X147716668Y-49679424D01*
X147716668Y-49679424D02*
X147669049Y-49584186D01*
X147669049Y-49584186D02*
X147669049Y-49298472D01*
X147669049Y-49298472D02*
X147716668Y-49203234D01*
X147716668Y-49203234D02*
X147764287Y-49155615D01*
X147764287Y-49155615D02*
X147859525Y-49107996D01*
X147859525Y-49107996D02*
X148050001Y-49107996D01*
X148050001Y-49107996D02*
X148145239Y-49155615D01*
D11*
X132036905Y-70604318D02*
X132460238Y-71874318D01*
X132460238Y-71874318D02*
X132883572Y-70604318D01*
X134032619Y-71874318D02*
X133609285Y-71269556D01*
X133306904Y-71874318D02*
X133306904Y-70604318D01*
X133306904Y-70604318D02*
X133790714Y-70604318D01*
X133790714Y-70604318D02*
X133911666Y-70664794D01*
X133911666Y-70664794D02*
X133972143Y-70725270D01*
X133972143Y-70725270D02*
X134032619Y-70846222D01*
X134032619Y-70846222D02*
X134032619Y-71027651D01*
X134032619Y-71027651D02*
X133972143Y-71148603D01*
X133972143Y-71148603D02*
X133911666Y-71209080D01*
X133911666Y-71209080D02*
X133790714Y-71269556D01*
X133790714Y-71269556D02*
X133306904Y-71269556D01*
X135242143Y-71874318D02*
X134516428Y-71874318D01*
X134879285Y-71874318D02*
X134879285Y-70604318D01*
X134879285Y-70604318D02*
X134758333Y-70785746D01*
X134758333Y-70785746D02*
X134637381Y-70906699D01*
X134637381Y-70906699D02*
X134516428Y-70967175D01*
X119832380Y-81413842D02*
X120013809Y-81474318D01*
X120013809Y-81474318D02*
X120316190Y-81474318D01*
X120316190Y-81474318D02*
X120437142Y-81413842D01*
X120437142Y-81413842D02*
X120497618Y-81353365D01*
X120497618Y-81353365D02*
X120558095Y-81232413D01*
X120558095Y-81232413D02*
X120558095Y-81111461D01*
X120558095Y-81111461D02*
X120497618Y-80990508D01*
X120497618Y-80990508D02*
X120437142Y-80930032D01*
X120437142Y-80930032D02*
X120316190Y-80869556D01*
X120316190Y-80869556D02*
X120074285Y-80809080D01*
X120074285Y-80809080D02*
X119953333Y-80748603D01*
X119953333Y-80748603D02*
X119892856Y-80688127D01*
X119892856Y-80688127D02*
X119832380Y-80567175D01*
X119832380Y-80567175D02*
X119832380Y-80446222D01*
X119832380Y-80446222D02*
X119892856Y-80325270D01*
X119892856Y-80325270D02*
X119953333Y-80264794D01*
X119953333Y-80264794D02*
X120074285Y-80204318D01*
X120074285Y-80204318D02*
X120376666Y-80204318D01*
X120376666Y-80204318D02*
X120558095Y-80264794D01*
X120981428Y-80204318D02*
X121767619Y-80204318D01*
X121767619Y-80204318D02*
X121344285Y-80688127D01*
X121344285Y-80688127D02*
X121525714Y-80688127D01*
X121525714Y-80688127D02*
X121646666Y-80748603D01*
X121646666Y-80748603D02*
X121707142Y-80809080D01*
X121707142Y-80809080D02*
X121767619Y-80930032D01*
X121767619Y-80930032D02*
X121767619Y-81232413D01*
X121767619Y-81232413D02*
X121707142Y-81353365D01*
X121707142Y-81353365D02*
X121646666Y-81413842D01*
X121646666Y-81413842D02*
X121525714Y-81474318D01*
X121525714Y-81474318D02*
X121162857Y-81474318D01*
X121162857Y-81474318D02*
X121041904Y-81413842D01*
X121041904Y-81413842D02*
X120981428Y-81353365D01*
D12*
X100352219Y-75942857D02*
X99876028Y-76276190D01*
X100352219Y-76514285D02*
X99352219Y-76514285D01*
X99352219Y-76514285D02*
X99352219Y-76133333D01*
X99352219Y-76133333D02*
X99399838Y-76038095D01*
X99399838Y-76038095D02*
X99447457Y-75990476D01*
X99447457Y-75990476D02*
X99542695Y-75942857D01*
X99542695Y-75942857D02*
X99685552Y-75942857D01*
X99685552Y-75942857D02*
X99780790Y-75990476D01*
X99780790Y-75990476D02*
X99828409Y-76038095D01*
X99828409Y-76038095D02*
X99876028Y-76133333D01*
X99876028Y-76133333D02*
X99876028Y-76514285D01*
X100352219Y-74990476D02*
X100352219Y-75561904D01*
X100352219Y-75276190D02*
X99352219Y-75276190D01*
X99352219Y-75276190D02*
X99495076Y-75371428D01*
X99495076Y-75371428D02*
X99590314Y-75466666D01*
X99590314Y-75466666D02*
X99637933Y-75561904D01*
X99685552Y-74133333D02*
X100352219Y-74133333D01*
X99304600Y-74371428D02*
X100018885Y-74609523D01*
X100018885Y-74609523D02*
X100018885Y-73990476D01*
X107657142Y-72652219D02*
X107323809Y-72176028D01*
X107085714Y-72652219D02*
X107085714Y-71652219D01*
X107085714Y-71652219D02*
X107466666Y-71652219D01*
X107466666Y-71652219D02*
X107561904Y-71699838D01*
X107561904Y-71699838D02*
X107609523Y-71747457D01*
X107609523Y-71747457D02*
X107657142Y-71842695D01*
X107657142Y-71842695D02*
X107657142Y-71985552D01*
X107657142Y-71985552D02*
X107609523Y-72080790D01*
X107609523Y-72080790D02*
X107561904Y-72128409D01*
X107561904Y-72128409D02*
X107466666Y-72176028D01*
X107466666Y-72176028D02*
X107085714Y-72176028D01*
X108609523Y-72652219D02*
X108038095Y-72652219D01*
X108323809Y-72652219D02*
X108323809Y-71652219D01*
X108323809Y-71652219D02*
X108228571Y-71795076D01*
X108228571Y-71795076D02*
X108133333Y-71890314D01*
X108133333Y-71890314D02*
X108038095Y-71937933D01*
X108942857Y-71652219D02*
X109561904Y-71652219D01*
X109561904Y-71652219D02*
X109228571Y-72033171D01*
X109228571Y-72033171D02*
X109371428Y-72033171D01*
X109371428Y-72033171D02*
X109466666Y-72080790D01*
X109466666Y-72080790D02*
X109514285Y-72128409D01*
X109514285Y-72128409D02*
X109561904Y-72223647D01*
X109561904Y-72223647D02*
X109561904Y-72461742D01*
X109561904Y-72461742D02*
X109514285Y-72556980D01*
X109514285Y-72556980D02*
X109466666Y-72604600D01*
X109466666Y-72604600D02*
X109371428Y-72652219D01*
X109371428Y-72652219D02*
X109085714Y-72652219D01*
X109085714Y-72652219D02*
X108990476Y-72604600D01*
X108990476Y-72604600D02*
X108942857Y-72556980D01*
X113552219Y-74642857D02*
X113076028Y-74976190D01*
X113552219Y-75214285D02*
X112552219Y-75214285D01*
X112552219Y-75214285D02*
X112552219Y-74833333D01*
X112552219Y-74833333D02*
X112599838Y-74738095D01*
X112599838Y-74738095D02*
X112647457Y-74690476D01*
X112647457Y-74690476D02*
X112742695Y-74642857D01*
X112742695Y-74642857D02*
X112885552Y-74642857D01*
X112885552Y-74642857D02*
X112980790Y-74690476D01*
X112980790Y-74690476D02*
X113028409Y-74738095D01*
X113028409Y-74738095D02*
X113076028Y-74833333D01*
X113076028Y-74833333D02*
X113076028Y-75214285D01*
X113552219Y-73690476D02*
X113552219Y-74261904D01*
X113552219Y-73976190D02*
X112552219Y-73976190D01*
X112552219Y-73976190D02*
X112695076Y-74071428D01*
X112695076Y-74071428D02*
X112790314Y-74166666D01*
X112790314Y-74166666D02*
X112837933Y-74261904D01*
X113552219Y-72738095D02*
X113552219Y-73309523D01*
X113552219Y-73023809D02*
X112552219Y-73023809D01*
X112552219Y-73023809D02*
X112695076Y-73119047D01*
X112695076Y-73119047D02*
X112790314Y-73214285D01*
X112790314Y-73214285D02*
X112837933Y-73309523D01*
X109857142Y-77252219D02*
X109523809Y-76776028D01*
X109285714Y-77252219D02*
X109285714Y-76252219D01*
X109285714Y-76252219D02*
X109666666Y-76252219D01*
X109666666Y-76252219D02*
X109761904Y-76299838D01*
X109761904Y-76299838D02*
X109809523Y-76347457D01*
X109809523Y-76347457D02*
X109857142Y-76442695D01*
X109857142Y-76442695D02*
X109857142Y-76585552D01*
X109857142Y-76585552D02*
X109809523Y-76680790D01*
X109809523Y-76680790D02*
X109761904Y-76728409D01*
X109761904Y-76728409D02*
X109666666Y-76776028D01*
X109666666Y-76776028D02*
X109285714Y-76776028D01*
X110809523Y-77252219D02*
X110238095Y-77252219D01*
X110523809Y-77252219D02*
X110523809Y-76252219D01*
X110523809Y-76252219D02*
X110428571Y-76395076D01*
X110428571Y-76395076D02*
X110333333Y-76490314D01*
X110333333Y-76490314D02*
X110238095Y-76537933D01*
X111428571Y-76252219D02*
X111523809Y-76252219D01*
X111523809Y-76252219D02*
X111619047Y-76299838D01*
X111619047Y-76299838D02*
X111666666Y-76347457D01*
X111666666Y-76347457D02*
X111714285Y-76442695D01*
X111714285Y-76442695D02*
X111761904Y-76633171D01*
X111761904Y-76633171D02*
X111761904Y-76871266D01*
X111761904Y-76871266D02*
X111714285Y-77061742D01*
X111714285Y-77061742D02*
X111666666Y-77156980D01*
X111666666Y-77156980D02*
X111619047Y-77204600D01*
X111619047Y-77204600D02*
X111523809Y-77252219D01*
X111523809Y-77252219D02*
X111428571Y-77252219D01*
X111428571Y-77252219D02*
X111333333Y-77204600D01*
X111333333Y-77204600D02*
X111285714Y-77156980D01*
X111285714Y-77156980D02*
X111238095Y-77061742D01*
X111238095Y-77061742D02*
X111190476Y-76871266D01*
X111190476Y-76871266D02*
X111190476Y-76633171D01*
X111190476Y-76633171D02*
X111238095Y-76442695D01*
X111238095Y-76442695D02*
X111285714Y-76347457D01*
X111285714Y-76347457D02*
X111333333Y-76299838D01*
X111333333Y-76299838D02*
X111428571Y-76252219D01*
X139933333Y-77252219D02*
X139600000Y-76776028D01*
X139361905Y-77252219D02*
X139361905Y-76252219D01*
X139361905Y-76252219D02*
X139742857Y-76252219D01*
X139742857Y-76252219D02*
X139838095Y-76299838D01*
X139838095Y-76299838D02*
X139885714Y-76347457D01*
X139885714Y-76347457D02*
X139933333Y-76442695D01*
X139933333Y-76442695D02*
X139933333Y-76585552D01*
X139933333Y-76585552D02*
X139885714Y-76680790D01*
X139885714Y-76680790D02*
X139838095Y-76728409D01*
X139838095Y-76728409D02*
X139742857Y-76776028D01*
X139742857Y-76776028D02*
X139361905Y-76776028D01*
X140409524Y-77252219D02*
X140600000Y-77252219D01*
X140600000Y-77252219D02*
X140695238Y-77204600D01*
X140695238Y-77204600D02*
X140742857Y-77156980D01*
X140742857Y-77156980D02*
X140838095Y-77014123D01*
X140838095Y-77014123D02*
X140885714Y-76823647D01*
X140885714Y-76823647D02*
X140885714Y-76442695D01*
X140885714Y-76442695D02*
X140838095Y-76347457D01*
X140838095Y-76347457D02*
X140790476Y-76299838D01*
X140790476Y-76299838D02*
X140695238Y-76252219D01*
X140695238Y-76252219D02*
X140504762Y-76252219D01*
X140504762Y-76252219D02*
X140409524Y-76299838D01*
X140409524Y-76299838D02*
X140361905Y-76347457D01*
X140361905Y-76347457D02*
X140314286Y-76442695D01*
X140314286Y-76442695D02*
X140314286Y-76680790D01*
X140314286Y-76680790D02*
X140361905Y-76776028D01*
X140361905Y-76776028D02*
X140409524Y-76823647D01*
X140409524Y-76823647D02*
X140504762Y-76871266D01*
X140504762Y-76871266D02*
X140695238Y-76871266D01*
X140695238Y-76871266D02*
X140790476Y-76823647D01*
X140790476Y-76823647D02*
X140838095Y-76776028D01*
X140838095Y-76776028D02*
X140885714Y-76680790D01*
D11*
X144778809Y-81174318D02*
X144174047Y-81174318D01*
X144174047Y-81174318D02*
X144174047Y-79904318D01*
X145202142Y-80509080D02*
X145625476Y-80509080D01*
X145806904Y-81174318D02*
X145202142Y-81174318D01*
X145202142Y-81174318D02*
X145202142Y-79904318D01*
X145202142Y-79904318D02*
X145806904Y-79904318D01*
X146351190Y-81174318D02*
X146351190Y-79904318D01*
X146351190Y-79904318D02*
X146653571Y-79904318D01*
X146653571Y-79904318D02*
X146835000Y-79964794D01*
X146835000Y-79964794D02*
X146955952Y-80085746D01*
X146955952Y-80085746D02*
X147016429Y-80206699D01*
X147016429Y-80206699D02*
X147076905Y-80448603D01*
X147076905Y-80448603D02*
X147076905Y-80630032D01*
X147076905Y-80630032D02*
X147016429Y-80871937D01*
X147016429Y-80871937D02*
X146955952Y-80992889D01*
X146955952Y-80992889D02*
X146835000Y-81113842D01*
X146835000Y-81113842D02*
X146653571Y-81174318D01*
X146653571Y-81174318D02*
X146351190Y-81174318D01*
X147560714Y-80025270D02*
X147621190Y-79964794D01*
X147621190Y-79964794D02*
X147742143Y-79904318D01*
X147742143Y-79904318D02*
X148044524Y-79904318D01*
X148044524Y-79904318D02*
X148165476Y-79964794D01*
X148165476Y-79964794D02*
X148225952Y-80025270D01*
X148225952Y-80025270D02*
X148286429Y-80146222D01*
X148286429Y-80146222D02*
X148286429Y-80267175D01*
X148286429Y-80267175D02*
X148225952Y-80448603D01*
X148225952Y-80448603D02*
X147500238Y-81174318D01*
X147500238Y-81174318D02*
X148286429Y-81174318D01*
X102778809Y-81149318D02*
X102174047Y-81149318D01*
X102174047Y-81149318D02*
X102174047Y-79879318D01*
X103202142Y-80484080D02*
X103625476Y-80484080D01*
X103806904Y-81149318D02*
X103202142Y-81149318D01*
X103202142Y-81149318D02*
X103202142Y-79879318D01*
X103202142Y-79879318D02*
X103806904Y-79879318D01*
X104351190Y-81149318D02*
X104351190Y-79879318D01*
X104351190Y-79879318D02*
X104653571Y-79879318D01*
X104653571Y-79879318D02*
X104835000Y-79939794D01*
X104835000Y-79939794D02*
X104955952Y-80060746D01*
X104955952Y-80060746D02*
X105016429Y-80181699D01*
X105016429Y-80181699D02*
X105076905Y-80423603D01*
X105076905Y-80423603D02*
X105076905Y-80605032D01*
X105076905Y-80605032D02*
X105016429Y-80846937D01*
X105016429Y-80846937D02*
X104955952Y-80967889D01*
X104955952Y-80967889D02*
X104835000Y-81088842D01*
X104835000Y-81088842D02*
X104653571Y-81149318D01*
X104653571Y-81149318D02*
X104351190Y-81149318D01*
X106286429Y-81149318D02*
X105560714Y-81149318D01*
X105923571Y-81149318D02*
X105923571Y-79879318D01*
X105923571Y-79879318D02*
X105802619Y-80060746D01*
X105802619Y-80060746D02*
X105681667Y-80181699D01*
X105681667Y-80181699D02*
X105560714Y-80242175D01*
X103660237Y-78874318D02*
X103660237Y-77604318D01*
X104990714Y-78753365D02*
X104930238Y-78813842D01*
X104930238Y-78813842D02*
X104748809Y-78874318D01*
X104748809Y-78874318D02*
X104627857Y-78874318D01*
X104627857Y-78874318D02*
X104446428Y-78813842D01*
X104446428Y-78813842D02*
X104325476Y-78692889D01*
X104325476Y-78692889D02*
X104264999Y-78571937D01*
X104264999Y-78571937D02*
X104204523Y-78330032D01*
X104204523Y-78330032D02*
X104204523Y-78148603D01*
X104204523Y-78148603D02*
X104264999Y-77906699D01*
X104264999Y-77906699D02*
X104325476Y-77785746D01*
X104325476Y-77785746D02*
X104446428Y-77664794D01*
X104446428Y-77664794D02*
X104627857Y-77604318D01*
X104627857Y-77604318D02*
X104748809Y-77604318D01*
X104748809Y-77604318D02*
X104930238Y-77664794D01*
X104930238Y-77664794D02*
X104990714Y-77725270D01*
X105414047Y-77604318D02*
X106200238Y-77604318D01*
X106200238Y-77604318D02*
X105776904Y-78088127D01*
X105776904Y-78088127D02*
X105958333Y-78088127D01*
X105958333Y-78088127D02*
X106079285Y-78148603D01*
X106079285Y-78148603D02*
X106139761Y-78209080D01*
X106139761Y-78209080D02*
X106200238Y-78330032D01*
X106200238Y-78330032D02*
X106200238Y-78632413D01*
X106200238Y-78632413D02*
X106139761Y-78753365D01*
X106139761Y-78753365D02*
X106079285Y-78813842D01*
X106079285Y-78813842D02*
X105958333Y-78874318D01*
X105958333Y-78874318D02*
X105595476Y-78874318D01*
X105595476Y-78874318D02*
X105474523Y-78813842D01*
X105474523Y-78813842D02*
X105414047Y-78753365D01*
D12*
X109656980Y-75342857D02*
X109704600Y-75390476D01*
X109704600Y-75390476D02*
X109752219Y-75533333D01*
X109752219Y-75533333D02*
X109752219Y-75628571D01*
X109752219Y-75628571D02*
X109704600Y-75771428D01*
X109704600Y-75771428D02*
X109609361Y-75866666D01*
X109609361Y-75866666D02*
X109514123Y-75914285D01*
X109514123Y-75914285D02*
X109323647Y-75961904D01*
X109323647Y-75961904D02*
X109180790Y-75961904D01*
X109180790Y-75961904D02*
X108990314Y-75914285D01*
X108990314Y-75914285D02*
X108895076Y-75866666D01*
X108895076Y-75866666D02*
X108799838Y-75771428D01*
X108799838Y-75771428D02*
X108752219Y-75628571D01*
X108752219Y-75628571D02*
X108752219Y-75533333D01*
X108752219Y-75533333D02*
X108799838Y-75390476D01*
X108799838Y-75390476D02*
X108847457Y-75342857D01*
X108847457Y-74961904D02*
X108799838Y-74914285D01*
X108799838Y-74914285D02*
X108752219Y-74819047D01*
X108752219Y-74819047D02*
X108752219Y-74580952D01*
X108752219Y-74580952D02*
X108799838Y-74485714D01*
X108799838Y-74485714D02*
X108847457Y-74438095D01*
X108847457Y-74438095D02*
X108942695Y-74390476D01*
X108942695Y-74390476D02*
X109037933Y-74390476D01*
X109037933Y-74390476D02*
X109180790Y-74438095D01*
X109180790Y-74438095D02*
X109752219Y-75009523D01*
X109752219Y-75009523D02*
X109752219Y-74390476D01*
X108752219Y-74057142D02*
X108752219Y-73438095D01*
X108752219Y-73438095D02*
X109133171Y-73771428D01*
X109133171Y-73771428D02*
X109133171Y-73628571D01*
X109133171Y-73628571D02*
X109180790Y-73533333D01*
X109180790Y-73533333D02*
X109228409Y-73485714D01*
X109228409Y-73485714D02*
X109323647Y-73438095D01*
X109323647Y-73438095D02*
X109561742Y-73438095D01*
X109561742Y-73438095D02*
X109656980Y-73485714D01*
X109656980Y-73485714D02*
X109704600Y-73533333D01*
X109704600Y-73533333D02*
X109752219Y-73628571D01*
X109752219Y-73628571D02*
X109752219Y-73914285D01*
X109752219Y-73914285D02*
X109704600Y-74009523D01*
X109704600Y-74009523D02*
X109656980Y-74057142D01*
D10*
X133223809Y-67978472D02*
X133223809Y-68454663D01*
X132890476Y-67454663D02*
X133223809Y-67978472D01*
X133223809Y-67978472D02*
X133557142Y-67454663D01*
X134414285Y-68454663D02*
X133842857Y-68454663D01*
X134128571Y-68454663D02*
X134128571Y-67454663D01*
X134128571Y-67454663D02*
X134033333Y-67597520D01*
X134033333Y-67597520D02*
X133938095Y-67692758D01*
X133938095Y-67692758D02*
X133842857Y-67740377D01*
X116977142Y-68177424D02*
X116929523Y-68225044D01*
X116929523Y-68225044D02*
X116786666Y-68272663D01*
X116786666Y-68272663D02*
X116691428Y-68272663D01*
X116691428Y-68272663D02*
X116548571Y-68225044D01*
X116548571Y-68225044D02*
X116453333Y-68129805D01*
X116453333Y-68129805D02*
X116405714Y-68034567D01*
X116405714Y-68034567D02*
X116358095Y-67844091D01*
X116358095Y-67844091D02*
X116358095Y-67701234D01*
X116358095Y-67701234D02*
X116405714Y-67510758D01*
X116405714Y-67510758D02*
X116453333Y-67415520D01*
X116453333Y-67415520D02*
X116548571Y-67320282D01*
X116548571Y-67320282D02*
X116691428Y-67272663D01*
X116691428Y-67272663D02*
X116786666Y-67272663D01*
X116786666Y-67272663D02*
X116929523Y-67320282D01*
X116929523Y-67320282D02*
X116977142Y-67367901D01*
X117929523Y-68272663D02*
X117358095Y-68272663D01*
X117643809Y-68272663D02*
X117643809Y-67272663D01*
X117643809Y-67272663D02*
X117548571Y-67415520D01*
X117548571Y-67415520D02*
X117453333Y-67510758D01*
X117453333Y-67510758D02*
X117358095Y-67558377D01*
X118786666Y-67272663D02*
X118596190Y-67272663D01*
X118596190Y-67272663D02*
X118500952Y-67320282D01*
X118500952Y-67320282D02*
X118453333Y-67367901D01*
X118453333Y-67367901D02*
X118358095Y-67510758D01*
X118358095Y-67510758D02*
X118310476Y-67701234D01*
X118310476Y-67701234D02*
X118310476Y-68082186D01*
X118310476Y-68082186D02*
X118358095Y-68177424D01*
X118358095Y-68177424D02*
X118405714Y-68225044D01*
X118405714Y-68225044D02*
X118500952Y-68272663D01*
X118500952Y-68272663D02*
X118691428Y-68272663D01*
X118691428Y-68272663D02*
X118786666Y-68225044D01*
X118786666Y-68225044D02*
X118834285Y-68177424D01*
X118834285Y-68177424D02*
X118881904Y-68082186D01*
X118881904Y-68082186D02*
X118881904Y-67844091D01*
X118881904Y-67844091D02*
X118834285Y-67748853D01*
X118834285Y-67748853D02*
X118786666Y-67701234D01*
X118786666Y-67701234D02*
X118691428Y-67653615D01*
X118691428Y-67653615D02*
X118500952Y-67653615D01*
X118500952Y-67653615D02*
X118405714Y-67701234D01*
X118405714Y-67701234D02*
X118358095Y-67748853D01*
X118358095Y-67748853D02*
X118310476Y-67844091D01*
X130699424Y-68238666D02*
X130747044Y-68286285D01*
X130747044Y-68286285D02*
X130794663Y-68429142D01*
X130794663Y-68429142D02*
X130794663Y-68524380D01*
X130794663Y-68524380D02*
X130747044Y-68667237D01*
X130747044Y-68667237D02*
X130651805Y-68762475D01*
X130651805Y-68762475D02*
X130556567Y-68810094D01*
X130556567Y-68810094D02*
X130366091Y-68857713D01*
X130366091Y-68857713D02*
X130223234Y-68857713D01*
X130223234Y-68857713D02*
X130032758Y-68810094D01*
X130032758Y-68810094D02*
X129937520Y-68762475D01*
X129937520Y-68762475D02*
X129842282Y-68667237D01*
X129842282Y-68667237D02*
X129794663Y-68524380D01*
X129794663Y-68524380D02*
X129794663Y-68429142D01*
X129794663Y-68429142D02*
X129842282Y-68286285D01*
X129842282Y-68286285D02*
X129889901Y-68238666D01*
X129889901Y-67857713D02*
X129842282Y-67810094D01*
X129842282Y-67810094D02*
X129794663Y-67714856D01*
X129794663Y-67714856D02*
X129794663Y-67476761D01*
X129794663Y-67476761D02*
X129842282Y-67381523D01*
X129842282Y-67381523D02*
X129889901Y-67333904D01*
X129889901Y-67333904D02*
X129985139Y-67286285D01*
X129985139Y-67286285D02*
X130080377Y-67286285D01*
X130080377Y-67286285D02*
X130223234Y-67333904D01*
X130223234Y-67333904D02*
X130794663Y-67905332D01*
X130794663Y-67905332D02*
X130794663Y-67286285D01*
X144683333Y-57255424D02*
X144635714Y-57303044D01*
X144635714Y-57303044D02*
X144492857Y-57350663D01*
X144492857Y-57350663D02*
X144397619Y-57350663D01*
X144397619Y-57350663D02*
X144254762Y-57303044D01*
X144254762Y-57303044D02*
X144159524Y-57207805D01*
X144159524Y-57207805D02*
X144111905Y-57112567D01*
X144111905Y-57112567D02*
X144064286Y-56922091D01*
X144064286Y-56922091D02*
X144064286Y-56779234D01*
X144064286Y-56779234D02*
X144111905Y-56588758D01*
X144111905Y-56588758D02*
X144159524Y-56493520D01*
X144159524Y-56493520D02*
X144254762Y-56398282D01*
X144254762Y-56398282D02*
X144397619Y-56350663D01*
X144397619Y-56350663D02*
X144492857Y-56350663D01*
X144492857Y-56350663D02*
X144635714Y-56398282D01*
X144635714Y-56398282D02*
X144683333Y-56445901D01*
X145588095Y-56350663D02*
X145111905Y-56350663D01*
X145111905Y-56350663D02*
X145064286Y-56826853D01*
X145064286Y-56826853D02*
X145111905Y-56779234D01*
X145111905Y-56779234D02*
X145207143Y-56731615D01*
X145207143Y-56731615D02*
X145445238Y-56731615D01*
X145445238Y-56731615D02*
X145540476Y-56779234D01*
X145540476Y-56779234D02*
X145588095Y-56826853D01*
X145588095Y-56826853D02*
X145635714Y-56922091D01*
X145635714Y-56922091D02*
X145635714Y-57160186D01*
X145635714Y-57160186D02*
X145588095Y-57255424D01*
X145588095Y-57255424D02*
X145540476Y-57303044D01*
X145540476Y-57303044D02*
X145445238Y-57350663D01*
X145445238Y-57350663D02*
X145207143Y-57350663D01*
X145207143Y-57350663D02*
X145111905Y-57303044D01*
X145111905Y-57303044D02*
X145064286Y-57255424D01*
X130538095Y-54754663D02*
X130538095Y-55564186D01*
X130538095Y-55564186D02*
X130585714Y-55659424D01*
X130585714Y-55659424D02*
X130633333Y-55707044D01*
X130633333Y-55707044D02*
X130728571Y-55754663D01*
X130728571Y-55754663D02*
X130919047Y-55754663D01*
X130919047Y-55754663D02*
X131014285Y-55707044D01*
X131014285Y-55707044D02*
X131061904Y-55659424D01*
X131061904Y-55659424D02*
X131109523Y-55564186D01*
X131109523Y-55564186D02*
X131109523Y-54754663D01*
X132109523Y-55754663D02*
X131538095Y-55754663D01*
X131823809Y-55754663D02*
X131823809Y-54754663D01*
X131823809Y-54754663D02*
X131728571Y-54897520D01*
X131728571Y-54897520D02*
X131633333Y-54992758D01*
X131633333Y-54992758D02*
X131538095Y-55040377D01*
X120583333Y-67534663D02*
X120250000Y-67058472D01*
X120011905Y-67534663D02*
X120011905Y-66534663D01*
X120011905Y-66534663D02*
X120392857Y-66534663D01*
X120392857Y-66534663D02*
X120488095Y-66582282D01*
X120488095Y-66582282D02*
X120535714Y-66629901D01*
X120535714Y-66629901D02*
X120583333Y-66725139D01*
X120583333Y-66725139D02*
X120583333Y-66867996D01*
X120583333Y-66867996D02*
X120535714Y-66963234D01*
X120535714Y-66963234D02*
X120488095Y-67010853D01*
X120488095Y-67010853D02*
X120392857Y-67058472D01*
X120392857Y-67058472D02*
X120011905Y-67058472D01*
X121440476Y-66534663D02*
X121250000Y-66534663D01*
X121250000Y-66534663D02*
X121154762Y-66582282D01*
X121154762Y-66582282D02*
X121107143Y-66629901D01*
X121107143Y-66629901D02*
X121011905Y-66772758D01*
X121011905Y-66772758D02*
X120964286Y-66963234D01*
X120964286Y-66963234D02*
X120964286Y-67344186D01*
X120964286Y-67344186D02*
X121011905Y-67439424D01*
X121011905Y-67439424D02*
X121059524Y-67487044D01*
X121059524Y-67487044D02*
X121154762Y-67534663D01*
X121154762Y-67534663D02*
X121345238Y-67534663D01*
X121345238Y-67534663D02*
X121440476Y-67487044D01*
X121440476Y-67487044D02*
X121488095Y-67439424D01*
X121488095Y-67439424D02*
X121535714Y-67344186D01*
X121535714Y-67344186D02*
X121535714Y-67106091D01*
X121535714Y-67106091D02*
X121488095Y-67010853D01*
X121488095Y-67010853D02*
X121440476Y-66963234D01*
X121440476Y-66963234D02*
X121345238Y-66915615D01*
X121345238Y-66915615D02*
X121154762Y-66915615D01*
X121154762Y-66915615D02*
X121059524Y-66963234D01*
X121059524Y-66963234D02*
X121011905Y-67010853D01*
X121011905Y-67010853D02*
X120964286Y-67106091D01*
X129391424Y-66936857D02*
X129439044Y-66984476D01*
X129439044Y-66984476D02*
X129486663Y-67127333D01*
X129486663Y-67127333D02*
X129486663Y-67222571D01*
X129486663Y-67222571D02*
X129439044Y-67365428D01*
X129439044Y-67365428D02*
X129343805Y-67460666D01*
X129343805Y-67460666D02*
X129248567Y-67508285D01*
X129248567Y-67508285D02*
X129058091Y-67555904D01*
X129058091Y-67555904D02*
X128915234Y-67555904D01*
X128915234Y-67555904D02*
X128724758Y-67508285D01*
X128724758Y-67508285D02*
X128629520Y-67460666D01*
X128629520Y-67460666D02*
X128534282Y-67365428D01*
X128534282Y-67365428D02*
X128486663Y-67222571D01*
X128486663Y-67222571D02*
X128486663Y-67127333D01*
X128486663Y-67127333D02*
X128534282Y-66984476D01*
X128534282Y-66984476D02*
X128581901Y-66936857D01*
X129486663Y-65984476D02*
X129486663Y-66555904D01*
X129486663Y-66270190D02*
X128486663Y-66270190D01*
X128486663Y-66270190D02*
X128629520Y-66365428D01*
X128629520Y-66365428D02*
X128724758Y-66460666D01*
X128724758Y-66460666D02*
X128772377Y-66555904D01*
X129486663Y-65508285D02*
X129486663Y-65317809D01*
X129486663Y-65317809D02*
X129439044Y-65222571D01*
X129439044Y-65222571D02*
X129391424Y-65174952D01*
X129391424Y-65174952D02*
X129248567Y-65079714D01*
X129248567Y-65079714D02*
X129058091Y-65032095D01*
X129058091Y-65032095D02*
X128677139Y-65032095D01*
X128677139Y-65032095D02*
X128581901Y-65079714D01*
X128581901Y-65079714D02*
X128534282Y-65127333D01*
X128534282Y-65127333D02*
X128486663Y-65222571D01*
X128486663Y-65222571D02*
X128486663Y-65413047D01*
X128486663Y-65413047D02*
X128534282Y-65508285D01*
X128534282Y-65508285D02*
X128581901Y-65555904D01*
X128581901Y-65555904D02*
X128677139Y-65603523D01*
X128677139Y-65603523D02*
X128915234Y-65603523D01*
X128915234Y-65603523D02*
X129010472Y-65555904D01*
X129010472Y-65555904D02*
X129058091Y-65508285D01*
X129058091Y-65508285D02*
X129105710Y-65413047D01*
X129105710Y-65413047D02*
X129105710Y-65222571D01*
X129105710Y-65222571D02*
X129058091Y-65127333D01*
X129058091Y-65127333D02*
X129010472Y-65079714D01*
X129010472Y-65079714D02*
X128915234Y-65032095D01*
X141075424Y-61888666D02*
X141123044Y-61936285D01*
X141123044Y-61936285D02*
X141170663Y-62079142D01*
X141170663Y-62079142D02*
X141170663Y-62174380D01*
X141170663Y-62174380D02*
X141123044Y-62317237D01*
X141123044Y-62317237D02*
X141027805Y-62412475D01*
X141027805Y-62412475D02*
X140932567Y-62460094D01*
X140932567Y-62460094D02*
X140742091Y-62507713D01*
X140742091Y-62507713D02*
X140599234Y-62507713D01*
X140599234Y-62507713D02*
X140408758Y-62460094D01*
X140408758Y-62460094D02*
X140313520Y-62412475D01*
X140313520Y-62412475D02*
X140218282Y-62317237D01*
X140218282Y-62317237D02*
X140170663Y-62174380D01*
X140170663Y-62174380D02*
X140170663Y-62079142D01*
X140170663Y-62079142D02*
X140218282Y-61936285D01*
X140218282Y-61936285D02*
X140265901Y-61888666D01*
X140170663Y-61031523D02*
X140170663Y-61221999D01*
X140170663Y-61221999D02*
X140218282Y-61317237D01*
X140218282Y-61317237D02*
X140265901Y-61364856D01*
X140265901Y-61364856D02*
X140408758Y-61460094D01*
X140408758Y-61460094D02*
X140599234Y-61507713D01*
X140599234Y-61507713D02*
X140980186Y-61507713D01*
X140980186Y-61507713D02*
X141075424Y-61460094D01*
X141075424Y-61460094D02*
X141123044Y-61412475D01*
X141123044Y-61412475D02*
X141170663Y-61317237D01*
X141170663Y-61317237D02*
X141170663Y-61126761D01*
X141170663Y-61126761D02*
X141123044Y-61031523D01*
X141123044Y-61031523D02*
X141075424Y-60983904D01*
X141075424Y-60983904D02*
X140980186Y-60936285D01*
X140980186Y-60936285D02*
X140742091Y-60936285D01*
X140742091Y-60936285D02*
X140646853Y-60983904D01*
X140646853Y-60983904D02*
X140599234Y-61031523D01*
X140599234Y-61031523D02*
X140551615Y-61126761D01*
X140551615Y-61126761D02*
X140551615Y-61317237D01*
X140551615Y-61317237D02*
X140599234Y-61412475D01*
X140599234Y-61412475D02*
X140646853Y-61460094D01*
X140646853Y-61460094D02*
X140742091Y-61507713D01*
X138535424Y-54532857D02*
X138583044Y-54580476D01*
X138583044Y-54580476D02*
X138630663Y-54723333D01*
X138630663Y-54723333D02*
X138630663Y-54818571D01*
X138630663Y-54818571D02*
X138583044Y-54961428D01*
X138583044Y-54961428D02*
X138487805Y-55056666D01*
X138487805Y-55056666D02*
X138392567Y-55104285D01*
X138392567Y-55104285D02*
X138202091Y-55151904D01*
X138202091Y-55151904D02*
X138059234Y-55151904D01*
X138059234Y-55151904D02*
X137868758Y-55104285D01*
X137868758Y-55104285D02*
X137773520Y-55056666D01*
X137773520Y-55056666D02*
X137678282Y-54961428D01*
X137678282Y-54961428D02*
X137630663Y-54818571D01*
X137630663Y-54818571D02*
X137630663Y-54723333D01*
X137630663Y-54723333D02*
X137678282Y-54580476D01*
X137678282Y-54580476D02*
X137725901Y-54532857D01*
X138630663Y-53580476D02*
X138630663Y-54151904D01*
X138630663Y-53866190D02*
X137630663Y-53866190D01*
X137630663Y-53866190D02*
X137773520Y-53961428D01*
X137773520Y-53961428D02*
X137868758Y-54056666D01*
X137868758Y-54056666D02*
X137916377Y-54151904D01*
X137630663Y-53247142D02*
X137630663Y-52628095D01*
X137630663Y-52628095D02*
X138011615Y-52961428D01*
X138011615Y-52961428D02*
X138011615Y-52818571D01*
X138011615Y-52818571D02*
X138059234Y-52723333D01*
X138059234Y-52723333D02*
X138106853Y-52675714D01*
X138106853Y-52675714D02*
X138202091Y-52628095D01*
X138202091Y-52628095D02*
X138440186Y-52628095D01*
X138440186Y-52628095D02*
X138535424Y-52675714D01*
X138535424Y-52675714D02*
X138583044Y-52723333D01*
X138583044Y-52723333D02*
X138630663Y-52818571D01*
X138630663Y-52818571D02*
X138630663Y-53104285D01*
X138630663Y-53104285D02*
X138583044Y-53199523D01*
X138583044Y-53199523D02*
X138535424Y-53247142D01*
X115034663Y-54316666D02*
X114558472Y-54649999D01*
X115034663Y-54888094D02*
X114034663Y-54888094D01*
X114034663Y-54888094D02*
X114034663Y-54507142D01*
X114034663Y-54507142D02*
X114082282Y-54411904D01*
X114082282Y-54411904D02*
X114129901Y-54364285D01*
X114129901Y-54364285D02*
X114225139Y-54316666D01*
X114225139Y-54316666D02*
X114367996Y-54316666D01*
X114367996Y-54316666D02*
X114463234Y-54364285D01*
X114463234Y-54364285D02*
X114510853Y-54411904D01*
X114510853Y-54411904D02*
X114558472Y-54507142D01*
X114558472Y-54507142D02*
X114558472Y-54888094D01*
X114463234Y-53745237D02*
X114415615Y-53840475D01*
X114415615Y-53840475D02*
X114367996Y-53888094D01*
X114367996Y-53888094D02*
X114272758Y-53935713D01*
X114272758Y-53935713D02*
X114225139Y-53935713D01*
X114225139Y-53935713D02*
X114129901Y-53888094D01*
X114129901Y-53888094D02*
X114082282Y-53840475D01*
X114082282Y-53840475D02*
X114034663Y-53745237D01*
X114034663Y-53745237D02*
X114034663Y-53554761D01*
X114034663Y-53554761D02*
X114082282Y-53459523D01*
X114082282Y-53459523D02*
X114129901Y-53411904D01*
X114129901Y-53411904D02*
X114225139Y-53364285D01*
X114225139Y-53364285D02*
X114272758Y-53364285D01*
X114272758Y-53364285D02*
X114367996Y-53411904D01*
X114367996Y-53411904D02*
X114415615Y-53459523D01*
X114415615Y-53459523D02*
X114463234Y-53554761D01*
X114463234Y-53554761D02*
X114463234Y-53745237D01*
X114463234Y-53745237D02*
X114510853Y-53840475D01*
X114510853Y-53840475D02*
X114558472Y-53888094D01*
X114558472Y-53888094D02*
X114653710Y-53935713D01*
X114653710Y-53935713D02*
X114844186Y-53935713D01*
X114844186Y-53935713D02*
X114939424Y-53888094D01*
X114939424Y-53888094D02*
X114987044Y-53840475D01*
X114987044Y-53840475D02*
X115034663Y-53745237D01*
X115034663Y-53745237D02*
X115034663Y-53554761D01*
X115034663Y-53554761D02*
X114987044Y-53459523D01*
X114987044Y-53459523D02*
X114939424Y-53411904D01*
X114939424Y-53411904D02*
X114844186Y-53364285D01*
X114844186Y-53364285D02*
X114653710Y-53364285D01*
X114653710Y-53364285D02*
X114558472Y-53411904D01*
X114558472Y-53411904D02*
X114510853Y-53459523D01*
X114510853Y-53459523D02*
X114463234Y-53554761D01*
X114963333Y-59634663D02*
X114630000Y-59158472D01*
X114391905Y-59634663D02*
X114391905Y-58634663D01*
X114391905Y-58634663D02*
X114772857Y-58634663D01*
X114772857Y-58634663D02*
X114868095Y-58682282D01*
X114868095Y-58682282D02*
X114915714Y-58729901D01*
X114915714Y-58729901D02*
X114963333Y-58825139D01*
X114963333Y-58825139D02*
X114963333Y-58967996D01*
X114963333Y-58967996D02*
X114915714Y-59063234D01*
X114915714Y-59063234D02*
X114868095Y-59110853D01*
X114868095Y-59110853D02*
X114772857Y-59158472D01*
X114772857Y-59158472D02*
X114391905Y-59158472D01*
X115344286Y-58729901D02*
X115391905Y-58682282D01*
X115391905Y-58682282D02*
X115487143Y-58634663D01*
X115487143Y-58634663D02*
X115725238Y-58634663D01*
X115725238Y-58634663D02*
X115820476Y-58682282D01*
X115820476Y-58682282D02*
X115868095Y-58729901D01*
X115868095Y-58729901D02*
X115915714Y-58825139D01*
X115915714Y-58825139D02*
X115915714Y-58920377D01*
X115915714Y-58920377D02*
X115868095Y-59063234D01*
X115868095Y-59063234D02*
X115296667Y-59634663D01*
X115296667Y-59634663D02*
X115915714Y-59634663D01*
X117457142Y-62389424D02*
X117409523Y-62437044D01*
X117409523Y-62437044D02*
X117266666Y-62484663D01*
X117266666Y-62484663D02*
X117171428Y-62484663D01*
X117171428Y-62484663D02*
X117028571Y-62437044D01*
X117028571Y-62437044D02*
X116933333Y-62341805D01*
X116933333Y-62341805D02*
X116885714Y-62246567D01*
X116885714Y-62246567D02*
X116838095Y-62056091D01*
X116838095Y-62056091D02*
X116838095Y-61913234D01*
X116838095Y-61913234D02*
X116885714Y-61722758D01*
X116885714Y-61722758D02*
X116933333Y-61627520D01*
X116933333Y-61627520D02*
X117028571Y-61532282D01*
X117028571Y-61532282D02*
X117171428Y-61484663D01*
X117171428Y-61484663D02*
X117266666Y-61484663D01*
X117266666Y-61484663D02*
X117409523Y-61532282D01*
X117409523Y-61532282D02*
X117457142Y-61579901D01*
X117838095Y-61579901D02*
X117885714Y-61532282D01*
X117885714Y-61532282D02*
X117980952Y-61484663D01*
X117980952Y-61484663D02*
X118219047Y-61484663D01*
X118219047Y-61484663D02*
X118314285Y-61532282D01*
X118314285Y-61532282D02*
X118361904Y-61579901D01*
X118361904Y-61579901D02*
X118409523Y-61675139D01*
X118409523Y-61675139D02*
X118409523Y-61770377D01*
X118409523Y-61770377D02*
X118361904Y-61913234D01*
X118361904Y-61913234D02*
X117790476Y-62484663D01*
X117790476Y-62484663D02*
X118409523Y-62484663D01*
X118790476Y-61579901D02*
X118838095Y-61532282D01*
X118838095Y-61532282D02*
X118933333Y-61484663D01*
X118933333Y-61484663D02*
X119171428Y-61484663D01*
X119171428Y-61484663D02*
X119266666Y-61532282D01*
X119266666Y-61532282D02*
X119314285Y-61579901D01*
X119314285Y-61579901D02*
X119361904Y-61675139D01*
X119361904Y-61675139D02*
X119361904Y-61770377D01*
X119361904Y-61770377D02*
X119314285Y-61913234D01*
X119314285Y-61913234D02*
X118742857Y-62484663D01*
X118742857Y-62484663D02*
X119361904Y-62484663D01*
X120583333Y-68874663D02*
X120250000Y-68398472D01*
X120011905Y-68874663D02*
X120011905Y-67874663D01*
X120011905Y-67874663D02*
X120392857Y-67874663D01*
X120392857Y-67874663D02*
X120488095Y-67922282D01*
X120488095Y-67922282D02*
X120535714Y-67969901D01*
X120535714Y-67969901D02*
X120583333Y-68065139D01*
X120583333Y-68065139D02*
X120583333Y-68207996D01*
X120583333Y-68207996D02*
X120535714Y-68303234D01*
X120535714Y-68303234D02*
X120488095Y-68350853D01*
X120488095Y-68350853D02*
X120392857Y-68398472D01*
X120392857Y-68398472D02*
X120011905Y-68398472D01*
X120916667Y-67874663D02*
X121583333Y-67874663D01*
X121583333Y-67874663D02*
X121154762Y-68874663D01*
X129645424Y-60110666D02*
X129693044Y-60158285D01*
X129693044Y-60158285D02*
X129740663Y-60301142D01*
X129740663Y-60301142D02*
X129740663Y-60396380D01*
X129740663Y-60396380D02*
X129693044Y-60539237D01*
X129693044Y-60539237D02*
X129597805Y-60634475D01*
X129597805Y-60634475D02*
X129502567Y-60682094D01*
X129502567Y-60682094D02*
X129312091Y-60729713D01*
X129312091Y-60729713D02*
X129169234Y-60729713D01*
X129169234Y-60729713D02*
X128978758Y-60682094D01*
X128978758Y-60682094D02*
X128883520Y-60634475D01*
X128883520Y-60634475D02*
X128788282Y-60539237D01*
X128788282Y-60539237D02*
X128740663Y-60396380D01*
X128740663Y-60396380D02*
X128740663Y-60301142D01*
X128740663Y-60301142D02*
X128788282Y-60158285D01*
X128788282Y-60158285D02*
X128835901Y-60110666D01*
X129740663Y-59158285D02*
X129740663Y-59729713D01*
X129740663Y-59443999D02*
X128740663Y-59443999D01*
X128740663Y-59443999D02*
X128883520Y-59539237D01*
X128883520Y-59539237D02*
X128978758Y-59634475D01*
X128978758Y-59634475D02*
X129026377Y-59729713D01*
X142553333Y-57350663D02*
X142077143Y-57350663D01*
X142077143Y-57350663D02*
X142077143Y-56350663D01*
X142791429Y-56350663D02*
X143410476Y-56350663D01*
X143410476Y-56350663D02*
X143077143Y-56731615D01*
X143077143Y-56731615D02*
X143220000Y-56731615D01*
X143220000Y-56731615D02*
X143315238Y-56779234D01*
X143315238Y-56779234D02*
X143362857Y-56826853D01*
X143362857Y-56826853D02*
X143410476Y-56922091D01*
X143410476Y-56922091D02*
X143410476Y-57160186D01*
X143410476Y-57160186D02*
X143362857Y-57255424D01*
X143362857Y-57255424D02*
X143315238Y-57303044D01*
X143315238Y-57303044D02*
X143220000Y-57350663D01*
X143220000Y-57350663D02*
X142934286Y-57350663D01*
X142934286Y-57350663D02*
X142839048Y-57303044D01*
X142839048Y-57303044D02*
X142791429Y-57255424D01*
X128121424Y-66936857D02*
X128169044Y-66984476D01*
X128169044Y-66984476D02*
X128216663Y-67127333D01*
X128216663Y-67127333D02*
X128216663Y-67222571D01*
X128216663Y-67222571D02*
X128169044Y-67365428D01*
X128169044Y-67365428D02*
X128073805Y-67460666D01*
X128073805Y-67460666D02*
X127978567Y-67508285D01*
X127978567Y-67508285D02*
X127788091Y-67555904D01*
X127788091Y-67555904D02*
X127645234Y-67555904D01*
X127645234Y-67555904D02*
X127454758Y-67508285D01*
X127454758Y-67508285D02*
X127359520Y-67460666D01*
X127359520Y-67460666D02*
X127264282Y-67365428D01*
X127264282Y-67365428D02*
X127216663Y-67222571D01*
X127216663Y-67222571D02*
X127216663Y-67127333D01*
X127216663Y-67127333D02*
X127264282Y-66984476D01*
X127264282Y-66984476D02*
X127311901Y-66936857D01*
X127311901Y-66555904D02*
X127264282Y-66508285D01*
X127264282Y-66508285D02*
X127216663Y-66413047D01*
X127216663Y-66413047D02*
X127216663Y-66174952D01*
X127216663Y-66174952D02*
X127264282Y-66079714D01*
X127264282Y-66079714D02*
X127311901Y-66032095D01*
X127311901Y-66032095D02*
X127407139Y-65984476D01*
X127407139Y-65984476D02*
X127502377Y-65984476D01*
X127502377Y-65984476D02*
X127645234Y-66032095D01*
X127645234Y-66032095D02*
X128216663Y-66603523D01*
X128216663Y-66603523D02*
X128216663Y-65984476D01*
X127216663Y-65365428D02*
X127216663Y-65270190D01*
X127216663Y-65270190D02*
X127264282Y-65174952D01*
X127264282Y-65174952D02*
X127311901Y-65127333D01*
X127311901Y-65127333D02*
X127407139Y-65079714D01*
X127407139Y-65079714D02*
X127597615Y-65032095D01*
X127597615Y-65032095D02*
X127835710Y-65032095D01*
X127835710Y-65032095D02*
X128026186Y-65079714D01*
X128026186Y-65079714D02*
X128121424Y-65127333D01*
X128121424Y-65127333D02*
X128169044Y-65174952D01*
X128169044Y-65174952D02*
X128216663Y-65270190D01*
X128216663Y-65270190D02*
X128216663Y-65365428D01*
X128216663Y-65365428D02*
X128169044Y-65460666D01*
X128169044Y-65460666D02*
X128121424Y-65508285D01*
X128121424Y-65508285D02*
X128026186Y-65555904D01*
X128026186Y-65555904D02*
X127835710Y-65603523D01*
X127835710Y-65603523D02*
X127597615Y-65603523D01*
X127597615Y-65603523D02*
X127407139Y-65555904D01*
X127407139Y-65555904D02*
X127311901Y-65508285D01*
X127311901Y-65508285D02*
X127264282Y-65460666D01*
X127264282Y-65460666D02*
X127216663Y-65365428D01*
X117625905Y-60454663D02*
X117625905Y-59454663D01*
X117625905Y-59454663D02*
X117864000Y-59454663D01*
X117864000Y-59454663D02*
X118006857Y-59502282D01*
X118006857Y-59502282D02*
X118102095Y-59597520D01*
X118102095Y-59597520D02*
X118149714Y-59692758D01*
X118149714Y-59692758D02*
X118197333Y-59883234D01*
X118197333Y-59883234D02*
X118197333Y-60026091D01*
X118197333Y-60026091D02*
X118149714Y-60216567D01*
X118149714Y-60216567D02*
X118102095Y-60311805D01*
X118102095Y-60311805D02*
X118006857Y-60407044D01*
X118006857Y-60407044D02*
X117864000Y-60454663D01*
X117864000Y-60454663D02*
X117625905Y-60454663D01*
X119054476Y-59787996D02*
X119054476Y-60454663D01*
X118816381Y-59407044D02*
X118578286Y-60121329D01*
X118578286Y-60121329D02*
X119197333Y-60121329D01*
X114933333Y-62234663D02*
X114600000Y-61758472D01*
X114361905Y-62234663D02*
X114361905Y-61234663D01*
X114361905Y-61234663D02*
X114742857Y-61234663D01*
X114742857Y-61234663D02*
X114838095Y-61282282D01*
X114838095Y-61282282D02*
X114885714Y-61329901D01*
X114885714Y-61329901D02*
X114933333Y-61425139D01*
X114933333Y-61425139D02*
X114933333Y-61567996D01*
X114933333Y-61567996D02*
X114885714Y-61663234D01*
X114885714Y-61663234D02*
X114838095Y-61710853D01*
X114838095Y-61710853D02*
X114742857Y-61758472D01*
X114742857Y-61758472D02*
X114361905Y-61758472D01*
X115266667Y-61234663D02*
X115885714Y-61234663D01*
X115885714Y-61234663D02*
X115552381Y-61615615D01*
X115552381Y-61615615D02*
X115695238Y-61615615D01*
X115695238Y-61615615D02*
X115790476Y-61663234D01*
X115790476Y-61663234D02*
X115838095Y-61710853D01*
X115838095Y-61710853D02*
X115885714Y-61806091D01*
X115885714Y-61806091D02*
X115885714Y-62044186D01*
X115885714Y-62044186D02*
X115838095Y-62139424D01*
X115838095Y-62139424D02*
X115790476Y-62187044D01*
X115790476Y-62187044D02*
X115695238Y-62234663D01*
X115695238Y-62234663D02*
X115409524Y-62234663D01*
X115409524Y-62234663D02*
X115314286Y-62187044D01*
X115314286Y-62187044D02*
X115266667Y-62139424D01*
X137773424Y-66460666D02*
X137821044Y-66508285D01*
X137821044Y-66508285D02*
X137868663Y-66651142D01*
X137868663Y-66651142D02*
X137868663Y-66746380D01*
X137868663Y-66746380D02*
X137821044Y-66889237D01*
X137821044Y-66889237D02*
X137725805Y-66984475D01*
X137725805Y-66984475D02*
X137630567Y-67032094D01*
X137630567Y-67032094D02*
X137440091Y-67079713D01*
X137440091Y-67079713D02*
X137297234Y-67079713D01*
X137297234Y-67079713D02*
X137106758Y-67032094D01*
X137106758Y-67032094D02*
X137011520Y-66984475D01*
X137011520Y-66984475D02*
X136916282Y-66889237D01*
X136916282Y-66889237D02*
X136868663Y-66746380D01*
X136868663Y-66746380D02*
X136868663Y-66651142D01*
X136868663Y-66651142D02*
X136916282Y-66508285D01*
X136916282Y-66508285D02*
X136963901Y-66460666D01*
X136868663Y-66127332D02*
X136868663Y-65508285D01*
X136868663Y-65508285D02*
X137249615Y-65841618D01*
X137249615Y-65841618D02*
X137249615Y-65698761D01*
X137249615Y-65698761D02*
X137297234Y-65603523D01*
X137297234Y-65603523D02*
X137344853Y-65555904D01*
X137344853Y-65555904D02*
X137440091Y-65508285D01*
X137440091Y-65508285D02*
X137678186Y-65508285D01*
X137678186Y-65508285D02*
X137773424Y-65555904D01*
X137773424Y-65555904D02*
X137821044Y-65603523D01*
X137821044Y-65603523D02*
X137868663Y-65698761D01*
X137868663Y-65698761D02*
X137868663Y-65984475D01*
X137868663Y-65984475D02*
X137821044Y-66079713D01*
X137821044Y-66079713D02*
X137773424Y-66127332D01*
X132947424Y-53728857D02*
X132995044Y-53776476D01*
X132995044Y-53776476D02*
X133042663Y-53919333D01*
X133042663Y-53919333D02*
X133042663Y-54014571D01*
X133042663Y-54014571D02*
X132995044Y-54157428D01*
X132995044Y-54157428D02*
X132899805Y-54252666D01*
X132899805Y-54252666D02*
X132804567Y-54300285D01*
X132804567Y-54300285D02*
X132614091Y-54347904D01*
X132614091Y-54347904D02*
X132471234Y-54347904D01*
X132471234Y-54347904D02*
X132280758Y-54300285D01*
X132280758Y-54300285D02*
X132185520Y-54252666D01*
X132185520Y-54252666D02*
X132090282Y-54157428D01*
X132090282Y-54157428D02*
X132042663Y-54014571D01*
X132042663Y-54014571D02*
X132042663Y-53919333D01*
X132042663Y-53919333D02*
X132090282Y-53776476D01*
X132090282Y-53776476D02*
X132137901Y-53728857D01*
X133042663Y-52776476D02*
X133042663Y-53347904D01*
X133042663Y-53062190D02*
X132042663Y-53062190D01*
X132042663Y-53062190D02*
X132185520Y-53157428D01*
X132185520Y-53157428D02*
X132280758Y-53252666D01*
X132280758Y-53252666D02*
X132328377Y-53347904D01*
X133042663Y-51824095D02*
X133042663Y-52395523D01*
X133042663Y-52109809D02*
X132042663Y-52109809D01*
X132042663Y-52109809D02*
X132185520Y-52205047D01*
X132185520Y-52205047D02*
X132280758Y-52300285D01*
X132280758Y-52300285D02*
X132328377Y-52395523D01*
X117625905Y-58112663D02*
X117625905Y-57112663D01*
X117625905Y-57112663D02*
X117864000Y-57112663D01*
X117864000Y-57112663D02*
X118006857Y-57160282D01*
X118006857Y-57160282D02*
X118102095Y-57255520D01*
X118102095Y-57255520D02*
X118149714Y-57350758D01*
X118149714Y-57350758D02*
X118197333Y-57541234D01*
X118197333Y-57541234D02*
X118197333Y-57684091D01*
X118197333Y-57684091D02*
X118149714Y-57874567D01*
X118149714Y-57874567D02*
X118102095Y-57969805D01*
X118102095Y-57969805D02*
X118006857Y-58065044D01*
X118006857Y-58065044D02*
X117864000Y-58112663D01*
X117864000Y-58112663D02*
X117625905Y-58112663D01*
X118530667Y-57112663D02*
X119149714Y-57112663D01*
X119149714Y-57112663D02*
X118816381Y-57493615D01*
X118816381Y-57493615D02*
X118959238Y-57493615D01*
X118959238Y-57493615D02*
X119054476Y-57541234D01*
X119054476Y-57541234D02*
X119102095Y-57588853D01*
X119102095Y-57588853D02*
X119149714Y-57684091D01*
X119149714Y-57684091D02*
X119149714Y-57922186D01*
X119149714Y-57922186D02*
X119102095Y-58017424D01*
X119102095Y-58017424D02*
X119054476Y-58065044D01*
X119054476Y-58065044D02*
X118959238Y-58112663D01*
X118959238Y-58112663D02*
X118673524Y-58112663D01*
X118673524Y-58112663D02*
X118578286Y-58065044D01*
X118578286Y-58065044D02*
X118530667Y-58017424D01*
X116532663Y-52218094D02*
X115532663Y-52218094D01*
X115532663Y-52218094D02*
X115532663Y-51979999D01*
X115532663Y-51979999D02*
X115580282Y-51837142D01*
X115580282Y-51837142D02*
X115675520Y-51741904D01*
X115675520Y-51741904D02*
X115770758Y-51694285D01*
X115770758Y-51694285D02*
X115961234Y-51646666D01*
X115961234Y-51646666D02*
X116104091Y-51646666D01*
X116104091Y-51646666D02*
X116294567Y-51694285D01*
X116294567Y-51694285D02*
X116389805Y-51741904D01*
X116389805Y-51741904D02*
X116485044Y-51837142D01*
X116485044Y-51837142D02*
X116532663Y-51979999D01*
X116532663Y-51979999D02*
X116532663Y-52218094D01*
X115627901Y-51265713D02*
X115580282Y-51218094D01*
X115580282Y-51218094D02*
X115532663Y-51122856D01*
X115532663Y-51122856D02*
X115532663Y-50884761D01*
X115532663Y-50884761D02*
X115580282Y-50789523D01*
X115580282Y-50789523D02*
X115627901Y-50741904D01*
X115627901Y-50741904D02*
X115723139Y-50694285D01*
X115723139Y-50694285D02*
X115818377Y-50694285D01*
X115818377Y-50694285D02*
X115961234Y-50741904D01*
X115961234Y-50741904D02*
X116532663Y-51313332D01*
X116532663Y-51313332D02*
X116532663Y-50694285D01*
X117007142Y-69447424D02*
X116959523Y-69495044D01*
X116959523Y-69495044D02*
X116816666Y-69542663D01*
X116816666Y-69542663D02*
X116721428Y-69542663D01*
X116721428Y-69542663D02*
X116578571Y-69495044D01*
X116578571Y-69495044D02*
X116483333Y-69399805D01*
X116483333Y-69399805D02*
X116435714Y-69304567D01*
X116435714Y-69304567D02*
X116388095Y-69114091D01*
X116388095Y-69114091D02*
X116388095Y-68971234D01*
X116388095Y-68971234D02*
X116435714Y-68780758D01*
X116435714Y-68780758D02*
X116483333Y-68685520D01*
X116483333Y-68685520D02*
X116578571Y-68590282D01*
X116578571Y-68590282D02*
X116721428Y-68542663D01*
X116721428Y-68542663D02*
X116816666Y-68542663D01*
X116816666Y-68542663D02*
X116959523Y-68590282D01*
X116959523Y-68590282D02*
X117007142Y-68637901D01*
X117959523Y-69542663D02*
X117388095Y-69542663D01*
X117673809Y-69542663D02*
X117673809Y-68542663D01*
X117673809Y-68542663D02*
X117578571Y-68685520D01*
X117578571Y-68685520D02*
X117483333Y-68780758D01*
X117483333Y-68780758D02*
X117388095Y-68828377D01*
X118292857Y-68542663D02*
X118959523Y-68542663D01*
X118959523Y-68542663D02*
X118530952Y-69542663D01*
X134820663Y-51474666D02*
X134344472Y-51807999D01*
X134820663Y-52046094D02*
X133820663Y-52046094D01*
X133820663Y-52046094D02*
X133820663Y-51665142D01*
X133820663Y-51665142D02*
X133868282Y-51569904D01*
X133868282Y-51569904D02*
X133915901Y-51522285D01*
X133915901Y-51522285D02*
X134011139Y-51474666D01*
X134011139Y-51474666D02*
X134153996Y-51474666D01*
X134153996Y-51474666D02*
X134249234Y-51522285D01*
X134249234Y-51522285D02*
X134296853Y-51569904D01*
X134296853Y-51569904D02*
X134344472Y-51665142D01*
X134344472Y-51665142D02*
X134344472Y-52046094D01*
X134820663Y-50522285D02*
X134820663Y-51093713D01*
X134820663Y-50807999D02*
X133820663Y-50807999D01*
X133820663Y-50807999D02*
X133963520Y-50903237D01*
X133963520Y-50903237D02*
X134058758Y-50998475D01*
X134058758Y-50998475D02*
X134106377Y-51093713D01*
X146790866Y-51406663D02*
X146790866Y-52120948D01*
X146790866Y-52120948D02*
X146743247Y-52263805D01*
X146743247Y-52263805D02*
X146648009Y-52359044D01*
X146648009Y-52359044D02*
X146505152Y-52406663D01*
X146505152Y-52406663D02*
X146409914Y-52406663D01*
X147790866Y-52406663D02*
X147219438Y-52406663D01*
X147505152Y-52406663D02*
X147505152Y-51406663D01*
X147505152Y-51406663D02*
X147409914Y-51549520D01*
X147409914Y-51549520D02*
X147314676Y-51644758D01*
X147314676Y-51644758D02*
X147219438Y-51692377D01*
X116532663Y-55776666D02*
X116056472Y-56109999D01*
X116532663Y-56348094D02*
X115532663Y-56348094D01*
X115532663Y-56348094D02*
X115532663Y-55967142D01*
X115532663Y-55967142D02*
X115580282Y-55871904D01*
X115580282Y-55871904D02*
X115627901Y-55824285D01*
X115627901Y-55824285D02*
X115723139Y-55776666D01*
X115723139Y-55776666D02*
X115865996Y-55776666D01*
X115865996Y-55776666D02*
X115961234Y-55824285D01*
X115961234Y-55824285D02*
X116008853Y-55871904D01*
X116008853Y-55871904D02*
X116056472Y-55967142D01*
X116056472Y-55967142D02*
X116056472Y-56348094D01*
X115865996Y-54919523D02*
X116532663Y-54919523D01*
X115485044Y-55157618D02*
X116199329Y-55395713D01*
X116199329Y-55395713D02*
X116199329Y-54776666D01*
X116532663Y-54158094D02*
X115532663Y-54158094D01*
X115532663Y-54158094D02*
X115532663Y-53919999D01*
X115532663Y-53919999D02*
X115580282Y-53777142D01*
X115580282Y-53777142D02*
X115675520Y-53681904D01*
X115675520Y-53681904D02*
X115770758Y-53634285D01*
X115770758Y-53634285D02*
X115961234Y-53586666D01*
X115961234Y-53586666D02*
X116104091Y-53586666D01*
X116104091Y-53586666D02*
X116294567Y-53634285D01*
X116294567Y-53634285D02*
X116389805Y-53681904D01*
X116389805Y-53681904D02*
X116485044Y-53777142D01*
X116485044Y-53777142D02*
X116532663Y-53919999D01*
X116532663Y-53919999D02*
X116532663Y-54158094D01*
X116532663Y-52634285D02*
X116532663Y-53205713D01*
X116532663Y-52919999D02*
X115532663Y-52919999D01*
X115532663Y-52919999D02*
X115675520Y-53015237D01*
X115675520Y-53015237D02*
X115770758Y-53110475D01*
X115770758Y-53110475D02*
X115818377Y-53205713D01*
X138771333Y-64970663D02*
X138295143Y-64970663D01*
X138295143Y-64970663D02*
X138295143Y-63970663D01*
X139533238Y-64303996D02*
X139533238Y-64970663D01*
X139295143Y-63923044D02*
X139057048Y-64637329D01*
X139057048Y-64637329D02*
X139676095Y-64637329D01*
X129899424Y-57030857D02*
X129947044Y-57078476D01*
X129947044Y-57078476D02*
X129994663Y-57221333D01*
X129994663Y-57221333D02*
X129994663Y-57316571D01*
X129994663Y-57316571D02*
X129947044Y-57459428D01*
X129947044Y-57459428D02*
X129851805Y-57554666D01*
X129851805Y-57554666D02*
X129756567Y-57602285D01*
X129756567Y-57602285D02*
X129566091Y-57649904D01*
X129566091Y-57649904D02*
X129423234Y-57649904D01*
X129423234Y-57649904D02*
X129232758Y-57602285D01*
X129232758Y-57602285D02*
X129137520Y-57554666D01*
X129137520Y-57554666D02*
X129042282Y-57459428D01*
X129042282Y-57459428D02*
X128994663Y-57316571D01*
X128994663Y-57316571D02*
X128994663Y-57221333D01*
X128994663Y-57221333D02*
X129042282Y-57078476D01*
X129042282Y-57078476D02*
X129089901Y-57030857D01*
X129994663Y-56078476D02*
X129994663Y-56649904D01*
X129994663Y-56364190D02*
X128994663Y-56364190D01*
X128994663Y-56364190D02*
X129137520Y-56459428D01*
X129137520Y-56459428D02*
X129232758Y-56554666D01*
X129232758Y-56554666D02*
X129280377Y-56649904D01*
X128994663Y-55459428D02*
X128994663Y-55364190D01*
X128994663Y-55364190D02*
X129042282Y-55268952D01*
X129042282Y-55268952D02*
X129089901Y-55221333D01*
X129089901Y-55221333D02*
X129185139Y-55173714D01*
X129185139Y-55173714D02*
X129375615Y-55126095D01*
X129375615Y-55126095D02*
X129613710Y-55126095D01*
X129613710Y-55126095D02*
X129804186Y-55173714D01*
X129804186Y-55173714D02*
X129899424Y-55221333D01*
X129899424Y-55221333D02*
X129947044Y-55268952D01*
X129947044Y-55268952D02*
X129994663Y-55364190D01*
X129994663Y-55364190D02*
X129994663Y-55459428D01*
X129994663Y-55459428D02*
X129947044Y-55554666D01*
X129947044Y-55554666D02*
X129899424Y-55602285D01*
X129899424Y-55602285D02*
X129804186Y-55649904D01*
X129804186Y-55649904D02*
X129613710Y-55697523D01*
X129613710Y-55697523D02*
X129375615Y-55697523D01*
X129375615Y-55697523D02*
X129185139Y-55649904D01*
X129185139Y-55649904D02*
X129089901Y-55602285D01*
X129089901Y-55602285D02*
X129042282Y-55554666D01*
X129042282Y-55554666D02*
X128994663Y-55459428D01*
X126851424Y-66936857D02*
X126899044Y-66984476D01*
X126899044Y-66984476D02*
X126946663Y-67127333D01*
X126946663Y-67127333D02*
X126946663Y-67222571D01*
X126946663Y-67222571D02*
X126899044Y-67365428D01*
X126899044Y-67365428D02*
X126803805Y-67460666D01*
X126803805Y-67460666D02*
X126708567Y-67508285D01*
X126708567Y-67508285D02*
X126518091Y-67555904D01*
X126518091Y-67555904D02*
X126375234Y-67555904D01*
X126375234Y-67555904D02*
X126184758Y-67508285D01*
X126184758Y-67508285D02*
X126089520Y-67460666D01*
X126089520Y-67460666D02*
X125994282Y-67365428D01*
X125994282Y-67365428D02*
X125946663Y-67222571D01*
X125946663Y-67222571D02*
X125946663Y-67127333D01*
X125946663Y-67127333D02*
X125994282Y-66984476D01*
X125994282Y-66984476D02*
X126041901Y-66936857D01*
X126041901Y-66555904D02*
X125994282Y-66508285D01*
X125994282Y-66508285D02*
X125946663Y-66413047D01*
X125946663Y-66413047D02*
X125946663Y-66174952D01*
X125946663Y-66174952D02*
X125994282Y-66079714D01*
X125994282Y-66079714D02*
X126041901Y-66032095D01*
X126041901Y-66032095D02*
X126137139Y-65984476D01*
X126137139Y-65984476D02*
X126232377Y-65984476D01*
X126232377Y-65984476D02*
X126375234Y-66032095D01*
X126375234Y-66032095D02*
X126946663Y-66603523D01*
X126946663Y-66603523D02*
X126946663Y-65984476D01*
X126946663Y-65032095D02*
X126946663Y-65603523D01*
X126946663Y-65317809D02*
X125946663Y-65317809D01*
X125946663Y-65317809D02*
X126089520Y-65413047D01*
X126089520Y-65413047D02*
X126184758Y-65508285D01*
X126184758Y-65508285D02*
X126232377Y-65603523D01*
X138771333Y-63605424D02*
X138723714Y-63653044D01*
X138723714Y-63653044D02*
X138580857Y-63700663D01*
X138580857Y-63700663D02*
X138485619Y-63700663D01*
X138485619Y-63700663D02*
X138342762Y-63653044D01*
X138342762Y-63653044D02*
X138247524Y-63557805D01*
X138247524Y-63557805D02*
X138199905Y-63462567D01*
X138199905Y-63462567D02*
X138152286Y-63272091D01*
X138152286Y-63272091D02*
X138152286Y-63129234D01*
X138152286Y-63129234D02*
X138199905Y-62938758D01*
X138199905Y-62938758D02*
X138247524Y-62843520D01*
X138247524Y-62843520D02*
X138342762Y-62748282D01*
X138342762Y-62748282D02*
X138485619Y-62700663D01*
X138485619Y-62700663D02*
X138580857Y-62700663D01*
X138580857Y-62700663D02*
X138723714Y-62748282D01*
X138723714Y-62748282D02*
X138771333Y-62795901D01*
X139104667Y-62700663D02*
X139771333Y-62700663D01*
X139771333Y-62700663D02*
X139342762Y-63700663D01*
X138803142Y-66399424D02*
X138755523Y-66447044D01*
X138755523Y-66447044D02*
X138612666Y-66494663D01*
X138612666Y-66494663D02*
X138517428Y-66494663D01*
X138517428Y-66494663D02*
X138374571Y-66447044D01*
X138374571Y-66447044D02*
X138279333Y-66351805D01*
X138279333Y-66351805D02*
X138231714Y-66256567D01*
X138231714Y-66256567D02*
X138184095Y-66066091D01*
X138184095Y-66066091D02*
X138184095Y-65923234D01*
X138184095Y-65923234D02*
X138231714Y-65732758D01*
X138231714Y-65732758D02*
X138279333Y-65637520D01*
X138279333Y-65637520D02*
X138374571Y-65542282D01*
X138374571Y-65542282D02*
X138517428Y-65494663D01*
X138517428Y-65494663D02*
X138612666Y-65494663D01*
X138612666Y-65494663D02*
X138755523Y-65542282D01*
X138755523Y-65542282D02*
X138803142Y-65589901D01*
X139755523Y-66494663D02*
X139184095Y-66494663D01*
X139469809Y-66494663D02*
X139469809Y-65494663D01*
X139469809Y-65494663D02*
X139374571Y-65637520D01*
X139374571Y-65637520D02*
X139279333Y-65732758D01*
X139279333Y-65732758D02*
X139184095Y-65780377D01*
X140136476Y-65589901D02*
X140184095Y-65542282D01*
X140184095Y-65542282D02*
X140279333Y-65494663D01*
X140279333Y-65494663D02*
X140517428Y-65494663D01*
X140517428Y-65494663D02*
X140612666Y-65542282D01*
X140612666Y-65542282D02*
X140660285Y-65589901D01*
X140660285Y-65589901D02*
X140707904Y-65685139D01*
X140707904Y-65685139D02*
X140707904Y-65780377D01*
X140707904Y-65780377D02*
X140660285Y-65923234D01*
X140660285Y-65923234D02*
X140088857Y-66494663D01*
X140088857Y-66494663D02*
X140707904Y-66494663D01*
X131010663Y-52166666D02*
X130534472Y-52499999D01*
X131010663Y-52738094D02*
X130010663Y-52738094D01*
X130010663Y-52738094D02*
X130010663Y-52357142D01*
X130010663Y-52357142D02*
X130058282Y-52261904D01*
X130058282Y-52261904D02*
X130105901Y-52214285D01*
X130105901Y-52214285D02*
X130201139Y-52166666D01*
X130201139Y-52166666D02*
X130343996Y-52166666D01*
X130343996Y-52166666D02*
X130439234Y-52214285D01*
X130439234Y-52214285D02*
X130486853Y-52261904D01*
X130486853Y-52261904D02*
X130534472Y-52357142D01*
X130534472Y-52357142D02*
X130534472Y-52738094D01*
X130010663Y-51261904D02*
X130010663Y-51738094D01*
X130010663Y-51738094D02*
X130486853Y-51785713D01*
X130486853Y-51785713D02*
X130439234Y-51738094D01*
X130439234Y-51738094D02*
X130391615Y-51642856D01*
X130391615Y-51642856D02*
X130391615Y-51404761D01*
X130391615Y-51404761D02*
X130439234Y-51309523D01*
X130439234Y-51309523D02*
X130486853Y-51261904D01*
X130486853Y-51261904D02*
X130582091Y-51214285D01*
X130582091Y-51214285D02*
X130820186Y-51214285D01*
X130820186Y-51214285D02*
X130915424Y-51261904D01*
X130915424Y-51261904D02*
X130963044Y-51309523D01*
X130963044Y-51309523D02*
X131010663Y-51404761D01*
X131010663Y-51404761D02*
X131010663Y-51642856D01*
X131010663Y-51642856D02*
X130963044Y-51738094D01*
X130963044Y-51738094D02*
X130915424Y-51785713D01*
X129266666Y-48754663D02*
X129266666Y-49468948D01*
X129266666Y-49468948D02*
X129219047Y-49611805D01*
X129219047Y-49611805D02*
X129123809Y-49707044D01*
X129123809Y-49707044D02*
X128980952Y-49754663D01*
X128980952Y-49754663D02*
X128885714Y-49754663D01*
X129695238Y-48849901D02*
X129742857Y-48802282D01*
X129742857Y-48802282D02*
X129838095Y-48754663D01*
X129838095Y-48754663D02*
X130076190Y-48754663D01*
X130076190Y-48754663D02*
X130171428Y-48802282D01*
X130171428Y-48802282D02*
X130219047Y-48849901D01*
X130219047Y-48849901D02*
X130266666Y-48945139D01*
X130266666Y-48945139D02*
X130266666Y-49040377D01*
X130266666Y-49040377D02*
X130219047Y-49183234D01*
X130219047Y-49183234D02*
X129647619Y-49754663D01*
X129647619Y-49754663D02*
X130266666Y-49754663D01*
X114085810Y-49730663D02*
X114085810Y-48730663D01*
X115133428Y-49635424D02*
X115085809Y-49683044D01*
X115085809Y-49683044D02*
X114942952Y-49730663D01*
X114942952Y-49730663D02*
X114847714Y-49730663D01*
X114847714Y-49730663D02*
X114704857Y-49683044D01*
X114704857Y-49683044D02*
X114609619Y-49587805D01*
X114609619Y-49587805D02*
X114562000Y-49492567D01*
X114562000Y-49492567D02*
X114514381Y-49302091D01*
X114514381Y-49302091D02*
X114514381Y-49159234D01*
X114514381Y-49159234D02*
X114562000Y-48968758D01*
X114562000Y-48968758D02*
X114609619Y-48873520D01*
X114609619Y-48873520D02*
X114704857Y-48778282D01*
X114704857Y-48778282D02*
X114847714Y-48730663D01*
X114847714Y-48730663D02*
X114942952Y-48730663D01*
X114942952Y-48730663D02*
X115085809Y-48778282D01*
X115085809Y-48778282D02*
X115133428Y-48825901D01*
X116085809Y-49730663D02*
X115514381Y-49730663D01*
X115800095Y-49730663D02*
X115800095Y-48730663D01*
X115800095Y-48730663D02*
X115704857Y-48873520D01*
X115704857Y-48873520D02*
X115609619Y-48968758D01*
X115609619Y-48968758D02*
X115514381Y-49016377D01*
X139043424Y-56986666D02*
X139091044Y-57034285D01*
X139091044Y-57034285D02*
X139138663Y-57177142D01*
X139138663Y-57177142D02*
X139138663Y-57272380D01*
X139138663Y-57272380D02*
X139091044Y-57415237D01*
X139091044Y-57415237D02*
X138995805Y-57510475D01*
X138995805Y-57510475D02*
X138900567Y-57558094D01*
X138900567Y-57558094D02*
X138710091Y-57605713D01*
X138710091Y-57605713D02*
X138567234Y-57605713D01*
X138567234Y-57605713D02*
X138376758Y-57558094D01*
X138376758Y-57558094D02*
X138281520Y-57510475D01*
X138281520Y-57510475D02*
X138186282Y-57415237D01*
X138186282Y-57415237D02*
X138138663Y-57272380D01*
X138138663Y-57272380D02*
X138138663Y-57177142D01*
X138138663Y-57177142D02*
X138186282Y-57034285D01*
X138186282Y-57034285D02*
X138233901Y-56986666D01*
X138471996Y-56129523D02*
X139138663Y-56129523D01*
X138091044Y-56367618D02*
X138805329Y-56605713D01*
X138805329Y-56605713D02*
X138805329Y-55986666D01*
X142639424Y-61888666D02*
X142687044Y-61936285D01*
X142687044Y-61936285D02*
X142734663Y-62079142D01*
X142734663Y-62079142D02*
X142734663Y-62174380D01*
X142734663Y-62174380D02*
X142687044Y-62317237D01*
X142687044Y-62317237D02*
X142591805Y-62412475D01*
X142591805Y-62412475D02*
X142496567Y-62460094D01*
X142496567Y-62460094D02*
X142306091Y-62507713D01*
X142306091Y-62507713D02*
X142163234Y-62507713D01*
X142163234Y-62507713D02*
X141972758Y-62460094D01*
X141972758Y-62460094D02*
X141877520Y-62412475D01*
X141877520Y-62412475D02*
X141782282Y-62317237D01*
X141782282Y-62317237D02*
X141734663Y-62174380D01*
X141734663Y-62174380D02*
X141734663Y-62079142D01*
X141734663Y-62079142D02*
X141782282Y-61936285D01*
X141782282Y-61936285D02*
X141829901Y-61888666D01*
X142163234Y-61317237D02*
X142115615Y-61412475D01*
X142115615Y-61412475D02*
X142067996Y-61460094D01*
X142067996Y-61460094D02*
X141972758Y-61507713D01*
X141972758Y-61507713D02*
X141925139Y-61507713D01*
X141925139Y-61507713D02*
X141829901Y-61460094D01*
X141829901Y-61460094D02*
X141782282Y-61412475D01*
X141782282Y-61412475D02*
X141734663Y-61317237D01*
X141734663Y-61317237D02*
X141734663Y-61126761D01*
X141734663Y-61126761D02*
X141782282Y-61031523D01*
X141782282Y-61031523D02*
X141829901Y-60983904D01*
X141829901Y-60983904D02*
X141925139Y-60936285D01*
X141925139Y-60936285D02*
X141972758Y-60936285D01*
X141972758Y-60936285D02*
X142067996Y-60983904D01*
X142067996Y-60983904D02*
X142115615Y-61031523D01*
X142115615Y-61031523D02*
X142163234Y-61126761D01*
X142163234Y-61126761D02*
X142163234Y-61317237D01*
X142163234Y-61317237D02*
X142210853Y-61412475D01*
X142210853Y-61412475D02*
X142258472Y-61460094D01*
X142258472Y-61460094D02*
X142353710Y-61507713D01*
X142353710Y-61507713D02*
X142544186Y-61507713D01*
X142544186Y-61507713D02*
X142639424Y-61460094D01*
X142639424Y-61460094D02*
X142687044Y-61412475D01*
X142687044Y-61412475D02*
X142734663Y-61317237D01*
X142734663Y-61317237D02*
X142734663Y-61126761D01*
X142734663Y-61126761D02*
X142687044Y-61031523D01*
X142687044Y-61031523D02*
X142639424Y-60983904D01*
X142639424Y-60983904D02*
X142544186Y-60936285D01*
X142544186Y-60936285D02*
X142353710Y-60936285D01*
X142353710Y-60936285D02*
X142258472Y-60983904D01*
X142258472Y-60983904D02*
X142210853Y-61031523D01*
X142210853Y-61031523D02*
X142163234Y-61126761D01*
X114437142Y-60809424D02*
X114389523Y-60857044D01*
X114389523Y-60857044D02*
X114246666Y-60904663D01*
X114246666Y-60904663D02*
X114151428Y-60904663D01*
X114151428Y-60904663D02*
X114008571Y-60857044D01*
X114008571Y-60857044D02*
X113913333Y-60761805D01*
X113913333Y-60761805D02*
X113865714Y-60666567D01*
X113865714Y-60666567D02*
X113818095Y-60476091D01*
X113818095Y-60476091D02*
X113818095Y-60333234D01*
X113818095Y-60333234D02*
X113865714Y-60142758D01*
X113865714Y-60142758D02*
X113913333Y-60047520D01*
X113913333Y-60047520D02*
X114008571Y-59952282D01*
X114008571Y-59952282D02*
X114151428Y-59904663D01*
X114151428Y-59904663D02*
X114246666Y-59904663D01*
X114246666Y-59904663D02*
X114389523Y-59952282D01*
X114389523Y-59952282D02*
X114437142Y-59999901D01*
X115389523Y-60904663D02*
X114818095Y-60904663D01*
X115103809Y-60904663D02*
X115103809Y-59904663D01*
X115103809Y-59904663D02*
X115008571Y-60047520D01*
X115008571Y-60047520D02*
X114913333Y-60142758D01*
X114913333Y-60142758D02*
X114818095Y-60190377D01*
X115960952Y-60333234D02*
X115865714Y-60285615D01*
X115865714Y-60285615D02*
X115818095Y-60237996D01*
X115818095Y-60237996D02*
X115770476Y-60142758D01*
X115770476Y-60142758D02*
X115770476Y-60095139D01*
X115770476Y-60095139D02*
X115818095Y-59999901D01*
X115818095Y-59999901D02*
X115865714Y-59952282D01*
X115865714Y-59952282D02*
X115960952Y-59904663D01*
X115960952Y-59904663D02*
X116151428Y-59904663D01*
X116151428Y-59904663D02*
X116246666Y-59952282D01*
X116246666Y-59952282D02*
X116294285Y-59999901D01*
X116294285Y-59999901D02*
X116341904Y-60095139D01*
X116341904Y-60095139D02*
X116341904Y-60142758D01*
X116341904Y-60142758D02*
X116294285Y-60237996D01*
X116294285Y-60237996D02*
X116246666Y-60285615D01*
X116246666Y-60285615D02*
X116151428Y-60333234D01*
X116151428Y-60333234D02*
X115960952Y-60333234D01*
X115960952Y-60333234D02*
X115865714Y-60380853D01*
X115865714Y-60380853D02*
X115818095Y-60428472D01*
X115818095Y-60428472D02*
X115770476Y-60523710D01*
X115770476Y-60523710D02*
X115770476Y-60714186D01*
X115770476Y-60714186D02*
X115818095Y-60809424D01*
X115818095Y-60809424D02*
X115865714Y-60857044D01*
X115865714Y-60857044D02*
X115960952Y-60904663D01*
X115960952Y-60904663D02*
X116151428Y-60904663D01*
X116151428Y-60904663D02*
X116246666Y-60857044D01*
X116246666Y-60857044D02*
X116294285Y-60809424D01*
X116294285Y-60809424D02*
X116341904Y-60714186D01*
X116341904Y-60714186D02*
X116341904Y-60523710D01*
X116341904Y-60523710D02*
X116294285Y-60428472D01*
X116294285Y-60428472D02*
X116246666Y-60380853D01*
X116246666Y-60380853D02*
X116151428Y-60333234D01*
X144749424Y-61888666D02*
X144797044Y-61936285D01*
X144797044Y-61936285D02*
X144844663Y-62079142D01*
X144844663Y-62079142D02*
X144844663Y-62174380D01*
X144844663Y-62174380D02*
X144797044Y-62317237D01*
X144797044Y-62317237D02*
X144701805Y-62412475D01*
X144701805Y-62412475D02*
X144606567Y-62460094D01*
X144606567Y-62460094D02*
X144416091Y-62507713D01*
X144416091Y-62507713D02*
X144273234Y-62507713D01*
X144273234Y-62507713D02*
X144082758Y-62460094D01*
X144082758Y-62460094D02*
X143987520Y-62412475D01*
X143987520Y-62412475D02*
X143892282Y-62317237D01*
X143892282Y-62317237D02*
X143844663Y-62174380D01*
X143844663Y-62174380D02*
X143844663Y-62079142D01*
X143844663Y-62079142D02*
X143892282Y-61936285D01*
X143892282Y-61936285D02*
X143939901Y-61888666D01*
X144844663Y-61412475D02*
X144844663Y-61221999D01*
X144844663Y-61221999D02*
X144797044Y-61126761D01*
X144797044Y-61126761D02*
X144749424Y-61079142D01*
X144749424Y-61079142D02*
X144606567Y-60983904D01*
X144606567Y-60983904D02*
X144416091Y-60936285D01*
X144416091Y-60936285D02*
X144035139Y-60936285D01*
X144035139Y-60936285D02*
X143939901Y-60983904D01*
X143939901Y-60983904D02*
X143892282Y-61031523D01*
X143892282Y-61031523D02*
X143844663Y-61126761D01*
X143844663Y-61126761D02*
X143844663Y-61317237D01*
X143844663Y-61317237D02*
X143892282Y-61412475D01*
X143892282Y-61412475D02*
X143939901Y-61460094D01*
X143939901Y-61460094D02*
X144035139Y-61507713D01*
X144035139Y-61507713D02*
X144273234Y-61507713D01*
X144273234Y-61507713D02*
X144368472Y-61460094D01*
X144368472Y-61460094D02*
X144416091Y-61412475D01*
X144416091Y-61412475D02*
X144463710Y-61317237D01*
X144463710Y-61317237D02*
X144463710Y-61126761D01*
X144463710Y-61126761D02*
X144416091Y-61031523D01*
X144416091Y-61031523D02*
X144368472Y-60983904D01*
X144368472Y-60983904D02*
X144273234Y-60936285D01*
X131437142Y-62081424D02*
X131389523Y-62129044D01*
X131389523Y-62129044D02*
X131246666Y-62176663D01*
X131246666Y-62176663D02*
X131151428Y-62176663D01*
X131151428Y-62176663D02*
X131008571Y-62129044D01*
X131008571Y-62129044D02*
X130913333Y-62033805D01*
X130913333Y-62033805D02*
X130865714Y-61938567D01*
X130865714Y-61938567D02*
X130818095Y-61748091D01*
X130818095Y-61748091D02*
X130818095Y-61605234D01*
X130818095Y-61605234D02*
X130865714Y-61414758D01*
X130865714Y-61414758D02*
X130913333Y-61319520D01*
X130913333Y-61319520D02*
X131008571Y-61224282D01*
X131008571Y-61224282D02*
X131151428Y-61176663D01*
X131151428Y-61176663D02*
X131246666Y-61176663D01*
X131246666Y-61176663D02*
X131389523Y-61224282D01*
X131389523Y-61224282D02*
X131437142Y-61271901D01*
X132389523Y-62176663D02*
X131818095Y-62176663D01*
X132103809Y-62176663D02*
X132103809Y-61176663D01*
X132103809Y-61176663D02*
X132008571Y-61319520D01*
X132008571Y-61319520D02*
X131913333Y-61414758D01*
X131913333Y-61414758D02*
X131818095Y-61462377D01*
X133294285Y-61176663D02*
X132818095Y-61176663D01*
X132818095Y-61176663D02*
X132770476Y-61652853D01*
X132770476Y-61652853D02*
X132818095Y-61605234D01*
X132818095Y-61605234D02*
X132913333Y-61557615D01*
X132913333Y-61557615D02*
X133151428Y-61557615D01*
X133151428Y-61557615D02*
X133246666Y-61605234D01*
X133246666Y-61605234D02*
X133294285Y-61652853D01*
X133294285Y-61652853D02*
X133341904Y-61748091D01*
X133341904Y-61748091D02*
X133341904Y-61986186D01*
X133341904Y-61986186D02*
X133294285Y-62081424D01*
X133294285Y-62081424D02*
X133246666Y-62129044D01*
X133246666Y-62129044D02*
X133151428Y-62176663D01*
X133151428Y-62176663D02*
X132913333Y-62176663D01*
X132913333Y-62176663D02*
X132818095Y-62129044D01*
X132818095Y-62129044D02*
X132770476Y-62081424D01*
X140803333Y-60144663D02*
X140327143Y-60144663D01*
X140327143Y-60144663D02*
X140327143Y-59144663D01*
X141660476Y-60144663D02*
X141089048Y-60144663D01*
X141374762Y-60144663D02*
X141374762Y-59144663D01*
X141374762Y-59144663D02*
X141279524Y-59287520D01*
X141279524Y-59287520D02*
X141184286Y-59382758D01*
X141184286Y-59382758D02*
X141089048Y-59430377D01*
X140143333Y-57350663D02*
X139667143Y-57350663D01*
X139667143Y-57350663D02*
X139667143Y-56350663D01*
X140429048Y-56445901D02*
X140476667Y-56398282D01*
X140476667Y-56398282D02*
X140571905Y-56350663D01*
X140571905Y-56350663D02*
X140810000Y-56350663D01*
X140810000Y-56350663D02*
X140905238Y-56398282D01*
X140905238Y-56398282D02*
X140952857Y-56445901D01*
X140952857Y-56445901D02*
X141000476Y-56541139D01*
X141000476Y-56541139D02*
X141000476Y-56636377D01*
X141000476Y-56636377D02*
X140952857Y-56779234D01*
X140952857Y-56779234D02*
X140381429Y-57350663D01*
X140381429Y-57350663D02*
X141000476Y-57350663D01*
X125123333Y-63954663D02*
X124647143Y-63954663D01*
X124647143Y-63954663D02*
X124647143Y-62954663D01*
X125932857Y-62954663D02*
X125456667Y-62954663D01*
X125456667Y-62954663D02*
X125409048Y-63430853D01*
X125409048Y-63430853D02*
X125456667Y-63383234D01*
X125456667Y-63383234D02*
X125551905Y-63335615D01*
X125551905Y-63335615D02*
X125790000Y-63335615D01*
X125790000Y-63335615D02*
X125885238Y-63383234D01*
X125885238Y-63383234D02*
X125932857Y-63430853D01*
X125932857Y-63430853D02*
X125980476Y-63526091D01*
X125980476Y-63526091D02*
X125980476Y-63764186D01*
X125980476Y-63764186D02*
X125932857Y-63859424D01*
X125932857Y-63859424D02*
X125885238Y-63907044D01*
X125885238Y-63907044D02*
X125790000Y-63954663D01*
X125790000Y-63954663D02*
X125551905Y-63954663D01*
X125551905Y-63954663D02*
X125456667Y-63907044D01*
X125456667Y-63907044D02*
X125409048Y-63859424D01*
X122303810Y-67514663D02*
X122303810Y-66514663D01*
X123351428Y-67419424D02*
X123303809Y-67467044D01*
X123303809Y-67467044D02*
X123160952Y-67514663D01*
X123160952Y-67514663D02*
X123065714Y-67514663D01*
X123065714Y-67514663D02*
X122922857Y-67467044D01*
X122922857Y-67467044D02*
X122827619Y-67371805D01*
X122827619Y-67371805D02*
X122780000Y-67276567D01*
X122780000Y-67276567D02*
X122732381Y-67086091D01*
X122732381Y-67086091D02*
X122732381Y-66943234D01*
X122732381Y-66943234D02*
X122780000Y-66752758D01*
X122780000Y-66752758D02*
X122827619Y-66657520D01*
X122827619Y-66657520D02*
X122922857Y-66562282D01*
X122922857Y-66562282D02*
X123065714Y-66514663D01*
X123065714Y-66514663D02*
X123160952Y-66514663D01*
X123160952Y-66514663D02*
X123303809Y-66562282D01*
X123303809Y-66562282D02*
X123351428Y-66609901D01*
X123732381Y-66609901D02*
X123780000Y-66562282D01*
X123780000Y-66562282D02*
X123875238Y-66514663D01*
X123875238Y-66514663D02*
X124113333Y-66514663D01*
X124113333Y-66514663D02*
X124208571Y-66562282D01*
X124208571Y-66562282D02*
X124256190Y-66609901D01*
X124256190Y-66609901D02*
X124303809Y-66705139D01*
X124303809Y-66705139D02*
X124303809Y-66800377D01*
X124303809Y-66800377D02*
X124256190Y-66943234D01*
X124256190Y-66943234D02*
X123684762Y-67514663D01*
X123684762Y-67514663D02*
X124303809Y-67514663D01*
X140059424Y-54532857D02*
X140107044Y-54580476D01*
X140107044Y-54580476D02*
X140154663Y-54723333D01*
X140154663Y-54723333D02*
X140154663Y-54818571D01*
X140154663Y-54818571D02*
X140107044Y-54961428D01*
X140107044Y-54961428D02*
X140011805Y-55056666D01*
X140011805Y-55056666D02*
X139916567Y-55104285D01*
X139916567Y-55104285D02*
X139726091Y-55151904D01*
X139726091Y-55151904D02*
X139583234Y-55151904D01*
X139583234Y-55151904D02*
X139392758Y-55104285D01*
X139392758Y-55104285D02*
X139297520Y-55056666D01*
X139297520Y-55056666D02*
X139202282Y-54961428D01*
X139202282Y-54961428D02*
X139154663Y-54818571D01*
X139154663Y-54818571D02*
X139154663Y-54723333D01*
X139154663Y-54723333D02*
X139202282Y-54580476D01*
X139202282Y-54580476D02*
X139249901Y-54532857D01*
X140154663Y-53580476D02*
X140154663Y-54151904D01*
X140154663Y-53866190D02*
X139154663Y-53866190D01*
X139154663Y-53866190D02*
X139297520Y-53961428D01*
X139297520Y-53961428D02*
X139392758Y-54056666D01*
X139392758Y-54056666D02*
X139440377Y-54151904D01*
X139487996Y-52723333D02*
X140154663Y-52723333D01*
X139107044Y-52961428D02*
X139821329Y-53199523D01*
X139821329Y-53199523D02*
X139821329Y-52580476D01*
D12*
X130450000Y-73950000D02*
X130450000Y-76450000D01*
X131250000Y-73950000D02*
X130450000Y-73950000D01*
X133250000Y-73950000D02*
X134050000Y-73950000D01*
D13*
X133400000Y-78250000D02*
X133400000Y-78250000D01*
X133400000Y-78350000D02*
X133400000Y-78350000D01*
D12*
X134050000Y-73950000D02*
X134050000Y-76450000D01*
D13*
X133400000Y-78250000D02*
G75*
G02*
X133400000Y-78350000I0J-50000D01*
G01*
X133400000Y-78350000D02*
G75*
G02*
X133400000Y-78250000I0J50000D01*
G01*
D12*
X117850000Y-78450000D02*
X117850000Y-72450000D01*
X123850000Y-78450000D02*
X117850000Y-78450000D01*
D13*
X114650000Y-73200000D02*
X114650000Y-73200000D01*
X114750000Y-73200000D02*
X114750000Y-73200000D01*
D12*
X117850000Y-72450000D02*
X123850000Y-72450000D01*
X123850000Y-72450000D02*
X123850000Y-78450000D01*
D13*
X114650000Y-73200000D02*
G75*
G02*
X114750000Y-73200000I50000J0D01*
G01*
X114750000Y-73200000D02*
G75*
G02*
X114650000Y-73200000I-50000J0D01*
G01*
X142600000Y-80700000D02*
X142600000Y-80700000D01*
X142500000Y-80700000D02*
X142500000Y-80700000D01*
X142600000Y-80700000D02*
G75*
G02*
X142500000Y-80700000I-50000J0D01*
G01*
X142500000Y-80700000D02*
G75*
G02*
X142600000Y-80700000I50000J0D01*
G01*
X109900000Y-80700000D02*
X109900000Y-80700000D01*
X109800000Y-80700000D02*
X109800000Y-80700000D01*
X109900000Y-80700000D02*
G75*
G02*
X109800000Y-80700000I-50000J0D01*
G01*
X109800000Y-80700000D02*
G75*
G02*
X109900000Y-80700000I50000J0D01*
G01*
X103395000Y-74300000D02*
X103395000Y-74300000D01*
X103495000Y-74300000D02*
X103495000Y-74300000D01*
X103395000Y-74300000D02*
G75*
G02*
X103495000Y-74300000I50000J0D01*
G01*
X103495000Y-74300000D02*
G75*
G02*
X103395000Y-74300000I-50000J0D01*
G01*
X132632400Y-66387200D02*
G75*
G02*
X132532400Y-66387200I-50000J0D01*
G01*
X132532400Y-66387200D02*
G75*
G02*
X132632400Y-66387200I50000J0D01*
G01*
X131185558Y-56672768D02*
G75*
G02*
X131085558Y-56672768I-50000J0D01*
G01*
X131085558Y-56672768D02*
G75*
G02*
X131185558Y-56672768I50000J0D01*
G01*
D14*
X121660000Y-59700000D02*
X120058716Y-59700000D01*
X120058716Y-59098556D01*
X121660000Y-59098556D01*
X121660000Y-59700000D01*
G36*
X121660000Y-59700000D02*
G01*
X120058716Y-59700000D01*
X120058716Y-59098556D01*
X121660000Y-59098556D01*
X121660000Y-59700000D01*
G37*
D12*
X120472400Y-57137000D02*
X120472400Y-56606000D01*
X117607000Y-51327600D02*
X117076000Y-51327600D01*
D13*
X146203600Y-59049200D02*
G75*
G02*
X146103600Y-59049200I-50000J0D01*
G01*
X146103600Y-59049200D02*
G75*
G02*
X146203600Y-59049200I50000J0D01*
G01*
D12*
X117063000Y-53572400D02*
X117594000Y-53572400D01*
D13*
X122840000Y-59520000D02*
G75*
G02*
X122740000Y-59520000I-50000J0D01*
G01*
X122740000Y-59520000D02*
G75*
G02*
X122840000Y-59520000I50000J0D01*
G01*
X123219200Y-66034000D02*
G75*
G02*
X123119200Y-66034000I-50000J0D01*
G01*
X123119200Y-66034000D02*
G75*
G02*
X123219200Y-66034000I50000J0D01*
G01*
%LPC*%
D15*
X133400000Y-77300000D03*
D16*
X132250000Y-74000000D03*
D15*
X131100000Y-77300000D03*
D17*
X116300000Y-73200000D03*
X125400000Y-73200000D03*
X116300000Y-77700000D03*
X125400000Y-77700000D03*
D18*
X101700000Y-75850000D03*
X101700000Y-74750000D03*
D19*
X105850000Y-72200000D03*
X104750000Y-72200000D03*
D18*
X113200000Y-77650000D03*
X113200000Y-76550000D03*
D19*
X109050000Y-78400000D03*
X107950000Y-78400000D03*
X139450000Y-78400000D03*
X140550000Y-78400000D03*
D20*
X142000000Y-80700000D03*
X140600000Y-80700000D03*
D21*
X141300000Y-80400000D03*
D20*
X109300000Y-80700000D03*
X107900000Y-80700000D03*
D21*
X108600000Y-80400000D03*
D22*
X104200000Y-74300000D03*
X104200000Y-74800000D03*
X104200000Y-75300000D03*
X104200000Y-75800000D03*
D23*
X104745000Y-75865000D03*
X105245000Y-75865000D03*
D22*
X105790000Y-75800000D03*
X105790000Y-75300000D03*
X105790000Y-74800000D03*
X105790000Y-74300000D03*
D23*
X105245000Y-74235000D03*
X104745000Y-74235000D03*
D24*
X107900000Y-75760000D03*
X107900000Y-74840000D03*
D25*
X132600000Y-65460000D03*
X134800000Y-65460000D03*
X134800000Y-63860000D03*
X132600000Y-63860000D03*
D26*
X114770000Y-67600000D03*
X115690000Y-67600000D03*
D24*
X130340000Y-65460000D03*
X130340000Y-66380000D03*
D26*
X144390000Y-58340000D03*
X145310000Y-58340000D03*
D27*
X131936350Y-57419999D03*
X131936350Y-57920001D03*
X131936350Y-58420000D03*
X131936350Y-58919999D03*
X131936350Y-59420001D03*
D28*
X132832599Y-60316250D03*
X133332601Y-60316250D03*
X133832600Y-60316250D03*
X134332599Y-60316250D03*
X134832601Y-60316250D03*
D27*
X135728850Y-59420001D03*
X135728850Y-58919999D03*
X135728850Y-58420000D03*
X135728850Y-57920001D03*
X135728850Y-57419999D03*
D28*
X134832601Y-56523750D03*
X134332599Y-56523750D03*
X133832600Y-56523750D03*
X133332601Y-56523750D03*
X132832599Y-56523750D03*
D29*
X133027600Y-58420000D03*
D30*
X133832600Y-57615000D03*
X133832600Y-59225000D03*
D29*
X134637600Y-58420000D03*
D31*
X117400000Y-64830000D03*
X119000000Y-64830000D03*
D24*
X129010000Y-64140000D03*
X129010000Y-63220000D03*
X139530000Y-61380000D03*
X139530000Y-60460000D03*
X135730000Y-53430000D03*
X135730000Y-54350000D03*
D18*
X114570000Y-56000000D03*
X114570000Y-57100000D03*
D19*
X114530000Y-63000000D03*
X115630000Y-63000000D03*
D32*
X119150000Y-63340000D03*
X117750000Y-63340000D03*
D31*
X119000000Y-66440000D03*
X117400000Y-66440000D03*
D24*
X130500000Y-59420000D03*
X130500000Y-60340000D03*
D33*
X142285000Y-58340000D03*
X143135000Y-58340000D03*
D24*
X127910000Y-64140000D03*
X127910000Y-63220000D03*
D34*
X120860000Y-61638300D03*
X120860000Y-58361700D03*
D19*
X114530000Y-65400000D03*
X115630000Y-65400000D03*
D24*
X137090000Y-63860000D03*
X137090000Y-64780000D03*
D26*
X132730000Y-55220000D03*
X133650000Y-55220000D03*
D35*
X120870000Y-56860000D03*
X119770000Y-56860000D03*
D36*
X117330000Y-50930000D03*
X117330000Y-52030000D03*
D26*
X114770000Y-68800000D03*
X115690000Y-68800000D03*
D37*
X134350000Y-52990000D03*
X134350000Y-54090000D03*
D38*
X149100000Y-59050000D03*
D39*
X149100000Y-54667500D03*
X149100000Y-63432500D03*
D18*
X117280000Y-55060000D03*
X117280000Y-56160000D03*
D36*
X117340000Y-53970000D03*
X117340000Y-52870000D03*
D33*
X138265000Y-60460000D03*
X137415000Y-60460000D03*
D26*
X129270000Y-58440000D03*
X130190000Y-58440000D03*
D24*
X126810000Y-64140000D03*
X126810000Y-63220000D03*
D26*
X137420000Y-59400000D03*
X138340000Y-59400000D03*
X137380000Y-61530000D03*
X138300000Y-61530000D03*
D18*
X129040000Y-52550000D03*
X129040000Y-51450000D03*
D40*
X126160000Y-54380000D03*
X120380000Y-54380000D03*
D41*
X126470000Y-55515000D03*
D42*
X125670000Y-55490000D03*
D43*
X124520000Y-55455000D03*
X123520000Y-55455000D03*
X123020000Y-55455000D03*
X122020000Y-55455000D03*
D41*
X120070000Y-55515000D03*
D42*
X120870000Y-55490000D03*
D43*
X121520000Y-55455000D03*
X122520000Y-55455000D03*
X124020000Y-55455000D03*
X125020000Y-55455000D03*
D44*
X127590000Y-54880000D03*
D45*
X127590000Y-50700000D03*
X118950000Y-50700000D03*
D44*
X118950000Y-54880000D03*
D46*
X99630000Y-67800000D03*
X101130000Y-67800000D03*
X102630000Y-67800000D03*
X104130000Y-67800000D03*
X105630000Y-67800000D03*
X107130000Y-67800000D03*
X108630000Y-67800000D03*
X110130000Y-67800000D03*
X111630000Y-67800000D03*
X111630000Y-50300000D03*
X110130000Y-50300000D03*
X108630000Y-50300000D03*
X107130000Y-50300000D03*
X105630000Y-50300000D03*
X104130000Y-50300000D03*
X102630000Y-50300000D03*
X101130000Y-50300000D03*
X99630000Y-50300000D03*
D47*
X105830000Y-58090000D03*
X105830000Y-56990000D03*
X104730000Y-56990000D03*
X104730000Y-58090000D03*
X104730000Y-59190000D03*
X105830000Y-59190000D03*
X106930000Y-59190000D03*
X106930000Y-58090000D03*
X106930000Y-56990000D03*
D24*
X137490000Y-56360000D03*
X137490000Y-57280000D03*
X142280000Y-60320000D03*
X142280000Y-59400000D03*
D26*
X114520000Y-64200000D03*
X115440000Y-64200000D03*
D24*
X144390000Y-60220000D03*
X144390000Y-59300000D03*
D26*
X135220000Y-61670000D03*
X134300000Y-61670000D03*
D33*
X137485000Y-58340000D03*
X138335000Y-58340000D03*
X139885000Y-58340000D03*
X140735000Y-58340000D03*
D48*
X123790000Y-59520000D03*
X126790000Y-59520000D03*
D49*
X123200000Y-65460000D03*
X123200000Y-64510000D03*
X123200000Y-63560000D03*
X120700000Y-63560000D03*
X120700000Y-65460000D03*
D24*
X136830000Y-53430000D03*
X136830000Y-54350000D03*
%LPD*%
M02*
