M48
; DRILL file {KiCad 8.0.4-8.0.4-0~ubuntu24.04.1} date 2024-07-27T18:13:57+0200
; FORMAT={-:-/ absolute / inch / decimal}
; #@! TF.CreationDate,2024-07-27T18:13:57+02:00
; #@! TF.GenerationSoftware,Kicad,Pcbnew,8.0.4-8.0.4-0~ubuntu24.04.1
; #@! TF.FileFunction,Plated,1,2,PTH
FMAT,2
INCH
; #@! TA.AperFunction,Plated,PTH,ViaDrill
T1C0.0118
; #@! TA.AperFunction,Plated,PTH,ComponentDrill
T2C0.0236
; #@! TA.AperFunction,Plated,PTH,ComponentDrill
T3C0.0866
%
G90
G05
T1
X3.9213Y-2.0315
X3.9803Y-2.0315
X4.0118Y-2.9055
X4.0984Y-2.0315
X4.1012Y-2.222
X4.1012Y-2.2654
X4.1012Y-2.3087
X4.1016Y-2.352
X4.122Y-2.8071
X4.1449Y-2.222
X4.1449Y-2.2654
X4.1449Y-2.352
X4.1453Y-2.3087
X4.1882Y-2.222
X4.1882Y-2.2654
X4.1882Y-2.3087
X4.1882Y-2.352
X4.2311Y-2.2654
X4.2311Y-2.3087
X4.2315Y-2.222
X4.2315Y-2.352
X4.2323Y-2.9134
X4.2453Y-2.6191
X4.2689Y-2.597
X4.2756Y-2.0315
X4.2911Y-2.5715
X4.2913Y-3.0512
X4.3138Y-2.5493
X4.3346Y-2.0315
X4.3346Y-2.7165
X4.3386Y-3.1417
X4.3602Y-2.9783
X4.3949Y-2.6098
X4.4343Y-2.0315
X4.4823Y-2.8307
X4.4843Y-2.6614
X4.5106Y-2.287
X4.5747Y-2.5276
X4.5866Y-2.122
X4.6173Y-2.2445
X4.6177Y-1.9768
X4.6201Y-2.5965
X4.6201Y-2.687
X4.6535Y-2.6437
X4.689Y-2.5965
X4.7126Y-2.7087
X4.7953Y-2.5039
X4.8406Y-2.8307
X4.8898Y-2.6732
X4.8976Y-2.5394
X4.8976Y-2.5748
X4.9173Y-2.4843
X4.9436Y-2.2542
X4.9744Y-2.7146
X4.98Y-2.2307
X5.0039Y-2.687
X5.0315Y-2.6575
X5.0354Y-2.5591
X5.0354Y-2.7146
X5.0496Y-2.2878
X5.063Y-3.1181
X5.0783Y-2.1154
X5.0866Y-2.2529
X5.0895Y-2.1926
X5.0898Y-2.1567
X5.0904Y-2.3583
X5.1122Y-2.2713
X5.1189Y-2.0244
X5.1299Y-2.6535
X5.16Y-2.4665
X5.1937Y-2.174
X5.1986Y-2.0955
X5.2043Y-2.4665
X5.2374Y-2.2681
X5.2374Y-2.3319
X5.2535Y-2.4444
X5.2555Y-2.0386
X5.2571Y-2.0862
X5.2689Y-2.3004
X5.2953Y-3.0039
X5.3008Y-2.2685
X5.3008Y-2.3319
X5.3103Y-2.1776
X5.3228Y-2.4665
X5.3437Y-2.0717
X5.3831Y-2.4665
X5.387Y-2.0717
X5.4295Y-2.5504
X5.4449Y-2.4551
X5.4461Y-2.2189
X5.4764Y-3.0866
X5.4933Y-2.4512
X5.6413Y-2.3748
X5.6516Y-3.1457
X5.724Y-2.3709
X5.724Y-2.4972
X5.7248Y-2.1524
T3
X3.9685Y-3.1299
X5.8996Y-1.9921
X5.9016Y-3.1299
T2
G00X4.6831Y-2.0118
M15
G01X4.6831Y-1.9803
M16
G05
G00X4.6831Y-2.1823
M15
G01X4.6831Y-2.139
M16
G05
G00X5.0232Y-2.0118
M15
G01X5.0232Y-1.9803
M16
G05
G00X5.0232Y-2.1823
M15
G01X5.0232Y-2.139
M16
G05
M30
