G04 #@! TF.GenerationSoftware,KiCad,Pcbnew,8.0.4-8.0.4-0~ubuntu24.04.1*
G04 #@! TF.CreationDate,2024-07-27T18:13:50+02:00*
G04 #@! TF.ProjectId,chrononauts-board,6368726f-6e6f-46e6-9175-74732d626f61,rev?*
G04 #@! TF.SameCoordinates,Original*
G04 #@! TF.FileFunction,Legend,Top*
G04 #@! TF.FilePolarity,Positive*
%FSLAX46Y46*%
G04 Gerber Fmt 4.6, Leading zero omitted, Abs format (unit mm)*
G04 Created by KiCad (PCBNEW 8.0.4-8.0.4-0~ubuntu24.04.1) date 2024-07-27 18:13:50*
%MOMM*%
%LPD*%
G01*
G04 APERTURE LIST*
%ADD10C,0.153000*%
%ADD11C,0.100000*%
%ADD12C,0.200000*%
%ADD13C,0.010000*%
%ADD14R,0.600000X0.600000*%
%ADD15R,0.400000X0.500000*%
%ADD16R,2.100000X1.400000*%
%ADD17R,0.410000X0.280000*%
%ADD18R,0.280000X0.410000*%
%ADD19R,1.100000X0.900000*%
%ADD20R,1.400000X0.900000*%
%ADD21C,2.600000*%
%ADD22C,3.800000*%
%ADD23R,1.400000X1.200000*%
%ADD24R,0.600000X0.620000*%
%ADD25R,0.620000X0.600000*%
%ADD26R,0.947699X0.254800*%
%ADD27R,0.254800X0.947699*%
%ADD28R,0.650000X0.720000*%
%ADD29R,0.720000X0.650000*%
%ADD30R,0.900000X0.950000*%
%ADD31R,0.600000X0.750000*%
%ADD32R,0.750000X0.600000*%
%ADD33R,0.940000X0.750000*%
%ADD34R,0.350000X0.650000*%
%ADD35R,1.219200X0.914400*%
%ADD36R,0.430000X0.320000*%
%ADD37R,0.320000X0.430000*%
%ADD38R,0.600000X0.700000*%
%ADD39R,5.080000X2.290000*%
%ADD40R,5.080000X2.415000*%
%ADD41C,0.650000*%
%ADD42R,0.600000X1.030000*%
%ADD43R,0.600000X1.080000*%
%ADD44R,0.300000X1.150000*%
%ADD45O,1.050000X2.100000*%
%ADD46O,1.000000X2.000000*%
%ADD47R,0.900000X1.500000*%
%ADD48R,0.700000X0.700000*%
%ADD49R,1.100000X3.700000*%
%ADD50R,1.200000X0.600000*%
G04 APERTURE END LIST*
D10*
X132533332Y-49607044D02*
X132438094Y-49654663D01*
X132438094Y-49654663D02*
X132247618Y-49654663D01*
X132247618Y-49654663D02*
X132152380Y-49607044D01*
X132152380Y-49607044D02*
X132104761Y-49559424D01*
X132104761Y-49559424D02*
X132057142Y-49464186D01*
X132057142Y-49464186D02*
X132057142Y-49178472D01*
X132057142Y-49178472D02*
X132104761Y-49083234D01*
X132104761Y-49083234D02*
X132152380Y-49035615D01*
X132152380Y-49035615D02*
X132247618Y-48987996D01*
X132247618Y-48987996D02*
X132438094Y-48987996D01*
X132438094Y-48987996D02*
X132533332Y-49035615D01*
X132961904Y-49654663D02*
X132961904Y-48654663D01*
X133390475Y-49654663D02*
X133390475Y-49130853D01*
X133390475Y-49130853D02*
X133342856Y-49035615D01*
X133342856Y-49035615D02*
X133247618Y-48987996D01*
X133247618Y-48987996D02*
X133104761Y-48987996D01*
X133104761Y-48987996D02*
X133009523Y-49035615D01*
X133009523Y-49035615D02*
X132961904Y-49083234D01*
X133866666Y-49654663D02*
X133866666Y-48987996D01*
X133866666Y-49178472D02*
X133914285Y-49083234D01*
X133914285Y-49083234D02*
X133961904Y-49035615D01*
X133961904Y-49035615D02*
X134057142Y-48987996D01*
X134057142Y-48987996D02*
X134152380Y-48987996D01*
X134628571Y-49654663D02*
X134533333Y-49607044D01*
X134533333Y-49607044D02*
X134485714Y-49559424D01*
X134485714Y-49559424D02*
X134438095Y-49464186D01*
X134438095Y-49464186D02*
X134438095Y-49178472D01*
X134438095Y-49178472D02*
X134485714Y-49083234D01*
X134485714Y-49083234D02*
X134533333Y-49035615D01*
X134533333Y-49035615D02*
X134628571Y-48987996D01*
X134628571Y-48987996D02*
X134771428Y-48987996D01*
X134771428Y-48987996D02*
X134866666Y-49035615D01*
X134866666Y-49035615D02*
X134914285Y-49083234D01*
X134914285Y-49083234D02*
X134961904Y-49178472D01*
X134961904Y-49178472D02*
X134961904Y-49464186D01*
X134961904Y-49464186D02*
X134914285Y-49559424D01*
X134914285Y-49559424D02*
X134866666Y-49607044D01*
X134866666Y-49607044D02*
X134771428Y-49654663D01*
X134771428Y-49654663D02*
X134628571Y-49654663D01*
X135390476Y-48987996D02*
X135390476Y-49654663D01*
X135390476Y-49083234D02*
X135438095Y-49035615D01*
X135438095Y-49035615D02*
X135533333Y-48987996D01*
X135533333Y-48987996D02*
X135676190Y-48987996D01*
X135676190Y-48987996D02*
X135771428Y-49035615D01*
X135771428Y-49035615D02*
X135819047Y-49130853D01*
X135819047Y-49130853D02*
X135819047Y-49654663D01*
X136438095Y-49654663D02*
X136342857Y-49607044D01*
X136342857Y-49607044D02*
X136295238Y-49559424D01*
X136295238Y-49559424D02*
X136247619Y-49464186D01*
X136247619Y-49464186D02*
X136247619Y-49178472D01*
X136247619Y-49178472D02*
X136295238Y-49083234D01*
X136295238Y-49083234D02*
X136342857Y-49035615D01*
X136342857Y-49035615D02*
X136438095Y-48987996D01*
X136438095Y-48987996D02*
X136580952Y-48987996D01*
X136580952Y-48987996D02*
X136676190Y-49035615D01*
X136676190Y-49035615D02*
X136723809Y-49083234D01*
X136723809Y-49083234D02*
X136771428Y-49178472D01*
X136771428Y-49178472D02*
X136771428Y-49464186D01*
X136771428Y-49464186D02*
X136723809Y-49559424D01*
X136723809Y-49559424D02*
X136676190Y-49607044D01*
X136676190Y-49607044D02*
X136580952Y-49654663D01*
X136580952Y-49654663D02*
X136438095Y-49654663D01*
X137200000Y-48987996D02*
X137200000Y-49654663D01*
X137200000Y-49083234D02*
X137247619Y-49035615D01*
X137247619Y-49035615D02*
X137342857Y-48987996D01*
X137342857Y-48987996D02*
X137485714Y-48987996D01*
X137485714Y-48987996D02*
X137580952Y-49035615D01*
X137580952Y-49035615D02*
X137628571Y-49130853D01*
X137628571Y-49130853D02*
X137628571Y-49654663D01*
X138533333Y-49654663D02*
X138533333Y-49130853D01*
X138533333Y-49130853D02*
X138485714Y-49035615D01*
X138485714Y-49035615D02*
X138390476Y-48987996D01*
X138390476Y-48987996D02*
X138200000Y-48987996D01*
X138200000Y-48987996D02*
X138104762Y-49035615D01*
X138533333Y-49607044D02*
X138438095Y-49654663D01*
X138438095Y-49654663D02*
X138200000Y-49654663D01*
X138200000Y-49654663D02*
X138104762Y-49607044D01*
X138104762Y-49607044D02*
X138057143Y-49511805D01*
X138057143Y-49511805D02*
X138057143Y-49416567D01*
X138057143Y-49416567D02*
X138104762Y-49321329D01*
X138104762Y-49321329D02*
X138200000Y-49273710D01*
X138200000Y-49273710D02*
X138438095Y-49273710D01*
X138438095Y-49273710D02*
X138533333Y-49226091D01*
X139438095Y-48987996D02*
X139438095Y-49654663D01*
X139009524Y-48987996D02*
X139009524Y-49511805D01*
X139009524Y-49511805D02*
X139057143Y-49607044D01*
X139057143Y-49607044D02*
X139152381Y-49654663D01*
X139152381Y-49654663D02*
X139295238Y-49654663D01*
X139295238Y-49654663D02*
X139390476Y-49607044D01*
X139390476Y-49607044D02*
X139438095Y-49559424D01*
X139771429Y-48987996D02*
X140152381Y-48987996D01*
X139914286Y-48654663D02*
X139914286Y-49511805D01*
X139914286Y-49511805D02*
X139961905Y-49607044D01*
X139961905Y-49607044D02*
X140057143Y-49654663D01*
X140057143Y-49654663D02*
X140152381Y-49654663D01*
X140438096Y-49607044D02*
X140533334Y-49654663D01*
X140533334Y-49654663D02*
X140723810Y-49654663D01*
X140723810Y-49654663D02*
X140819048Y-49607044D01*
X140819048Y-49607044D02*
X140866667Y-49511805D01*
X140866667Y-49511805D02*
X140866667Y-49464186D01*
X140866667Y-49464186D02*
X140819048Y-49368948D01*
X140819048Y-49368948D02*
X140723810Y-49321329D01*
X140723810Y-49321329D02*
X140580953Y-49321329D01*
X140580953Y-49321329D02*
X140485715Y-49273710D01*
X140485715Y-49273710D02*
X140438096Y-49178472D01*
X140438096Y-49178472D02*
X140438096Y-49130853D01*
X140438096Y-49130853D02*
X140485715Y-49035615D01*
X140485715Y-49035615D02*
X140580953Y-48987996D01*
X140580953Y-48987996D02*
X140723810Y-48987996D01*
X140723810Y-48987996D02*
X140819048Y-49035615D01*
X141295239Y-49273710D02*
X142057144Y-49273710D01*
X142533334Y-49654663D02*
X142533334Y-48654663D01*
X142533334Y-49035615D02*
X142628572Y-48987996D01*
X142628572Y-48987996D02*
X142819048Y-48987996D01*
X142819048Y-48987996D02*
X142914286Y-49035615D01*
X142914286Y-49035615D02*
X142961905Y-49083234D01*
X142961905Y-49083234D02*
X143009524Y-49178472D01*
X143009524Y-49178472D02*
X143009524Y-49464186D01*
X143009524Y-49464186D02*
X142961905Y-49559424D01*
X142961905Y-49559424D02*
X142914286Y-49607044D01*
X142914286Y-49607044D02*
X142819048Y-49654663D01*
X142819048Y-49654663D02*
X142628572Y-49654663D01*
X142628572Y-49654663D02*
X142533334Y-49607044D01*
X143580953Y-49654663D02*
X143485715Y-49607044D01*
X143485715Y-49607044D02*
X143438096Y-49559424D01*
X143438096Y-49559424D02*
X143390477Y-49464186D01*
X143390477Y-49464186D02*
X143390477Y-49178472D01*
X143390477Y-49178472D02*
X143438096Y-49083234D01*
X143438096Y-49083234D02*
X143485715Y-49035615D01*
X143485715Y-49035615D02*
X143580953Y-48987996D01*
X143580953Y-48987996D02*
X143723810Y-48987996D01*
X143723810Y-48987996D02*
X143819048Y-49035615D01*
X143819048Y-49035615D02*
X143866667Y-49083234D01*
X143866667Y-49083234D02*
X143914286Y-49178472D01*
X143914286Y-49178472D02*
X143914286Y-49464186D01*
X143914286Y-49464186D02*
X143866667Y-49559424D01*
X143866667Y-49559424D02*
X143819048Y-49607044D01*
X143819048Y-49607044D02*
X143723810Y-49654663D01*
X143723810Y-49654663D02*
X143580953Y-49654663D01*
X144771429Y-49654663D02*
X144771429Y-49130853D01*
X144771429Y-49130853D02*
X144723810Y-49035615D01*
X144723810Y-49035615D02*
X144628572Y-48987996D01*
X144628572Y-48987996D02*
X144438096Y-48987996D01*
X144438096Y-48987996D02*
X144342858Y-49035615D01*
X144771429Y-49607044D02*
X144676191Y-49654663D01*
X144676191Y-49654663D02*
X144438096Y-49654663D01*
X144438096Y-49654663D02*
X144342858Y-49607044D01*
X144342858Y-49607044D02*
X144295239Y-49511805D01*
X144295239Y-49511805D02*
X144295239Y-49416567D01*
X144295239Y-49416567D02*
X144342858Y-49321329D01*
X144342858Y-49321329D02*
X144438096Y-49273710D01*
X144438096Y-49273710D02*
X144676191Y-49273710D01*
X144676191Y-49273710D02*
X144771429Y-49226091D01*
X145247620Y-49654663D02*
X145247620Y-48987996D01*
X145247620Y-49178472D02*
X145295239Y-49083234D01*
X145295239Y-49083234D02*
X145342858Y-49035615D01*
X145342858Y-49035615D02*
X145438096Y-48987996D01*
X145438096Y-48987996D02*
X145533334Y-48987996D01*
X146295239Y-49654663D02*
X146295239Y-48654663D01*
X146295239Y-49607044D02*
X146200001Y-49654663D01*
X146200001Y-49654663D02*
X146009525Y-49654663D01*
X146009525Y-49654663D02*
X145914287Y-49607044D01*
X145914287Y-49607044D02*
X145866668Y-49559424D01*
X145866668Y-49559424D02*
X145819049Y-49464186D01*
X145819049Y-49464186D02*
X145819049Y-49178472D01*
X145819049Y-49178472D02*
X145866668Y-49083234D01*
X145866668Y-49083234D02*
X145914287Y-49035615D01*
X145914287Y-49035615D02*
X146009525Y-48987996D01*
X146009525Y-48987996D02*
X146200001Y-48987996D01*
X146200001Y-48987996D02*
X146295239Y-49035615D01*
X137930952Y-81154663D02*
X137454762Y-81154663D01*
X137454762Y-81154663D02*
X137454762Y-80154663D01*
X138264286Y-80630853D02*
X138597619Y-80630853D01*
X138740476Y-81154663D02*
X138264286Y-81154663D01*
X138264286Y-81154663D02*
X138264286Y-80154663D01*
X138264286Y-80154663D02*
X138740476Y-80154663D01*
X139169048Y-81154663D02*
X139169048Y-80154663D01*
X139169048Y-80154663D02*
X139407143Y-80154663D01*
X139407143Y-80154663D02*
X139550000Y-80202282D01*
X139550000Y-80202282D02*
X139645238Y-80297520D01*
X139645238Y-80297520D02*
X139692857Y-80392758D01*
X139692857Y-80392758D02*
X139740476Y-80583234D01*
X139740476Y-80583234D02*
X139740476Y-80726091D01*
X139740476Y-80726091D02*
X139692857Y-80916567D01*
X139692857Y-80916567D02*
X139645238Y-81011805D01*
X139645238Y-81011805D02*
X139550000Y-81107044D01*
X139550000Y-81107044D02*
X139407143Y-81154663D01*
X139407143Y-81154663D02*
X139169048Y-81154663D01*
X140121429Y-80249901D02*
X140169048Y-80202282D01*
X140169048Y-80202282D02*
X140264286Y-80154663D01*
X140264286Y-80154663D02*
X140502381Y-80154663D01*
X140502381Y-80154663D02*
X140597619Y-80202282D01*
X140597619Y-80202282D02*
X140645238Y-80249901D01*
X140645238Y-80249901D02*
X140692857Y-80345139D01*
X140692857Y-80345139D02*
X140692857Y-80440377D01*
X140692857Y-80440377D02*
X140645238Y-80583234D01*
X140645238Y-80583234D02*
X140073810Y-81154663D01*
X140073810Y-81154663D02*
X140692857Y-81154663D01*
X104430952Y-81154663D02*
X103954762Y-81154663D01*
X103954762Y-81154663D02*
X103954762Y-80154663D01*
X104764286Y-80630853D02*
X105097619Y-80630853D01*
X105240476Y-81154663D02*
X104764286Y-81154663D01*
X104764286Y-81154663D02*
X104764286Y-80154663D01*
X104764286Y-80154663D02*
X105240476Y-80154663D01*
X105669048Y-81154663D02*
X105669048Y-80154663D01*
X105669048Y-80154663D02*
X105907143Y-80154663D01*
X105907143Y-80154663D02*
X106050000Y-80202282D01*
X106050000Y-80202282D02*
X106145238Y-80297520D01*
X106145238Y-80297520D02*
X106192857Y-80392758D01*
X106192857Y-80392758D02*
X106240476Y-80583234D01*
X106240476Y-80583234D02*
X106240476Y-80726091D01*
X106240476Y-80726091D02*
X106192857Y-80916567D01*
X106192857Y-80916567D02*
X106145238Y-81011805D01*
X106145238Y-81011805D02*
X106050000Y-81107044D01*
X106050000Y-81107044D02*
X105907143Y-81154663D01*
X105907143Y-81154663D02*
X105669048Y-81154663D01*
X107192857Y-81154663D02*
X106621429Y-81154663D01*
X106907143Y-81154663D02*
X106907143Y-80154663D01*
X106907143Y-80154663D02*
X106811905Y-80297520D01*
X106811905Y-80297520D02*
X106716667Y-80392758D01*
X106716667Y-80392758D02*
X106621429Y-80440377D01*
X112788095Y-79857044D02*
X112930952Y-79904663D01*
X112930952Y-79904663D02*
X113169047Y-79904663D01*
X113169047Y-79904663D02*
X113264285Y-79857044D01*
X113264285Y-79857044D02*
X113311904Y-79809424D01*
X113311904Y-79809424D02*
X113359523Y-79714186D01*
X113359523Y-79714186D02*
X113359523Y-79618948D01*
X113359523Y-79618948D02*
X113311904Y-79523710D01*
X113311904Y-79523710D02*
X113264285Y-79476091D01*
X113264285Y-79476091D02*
X113169047Y-79428472D01*
X113169047Y-79428472D02*
X112978571Y-79380853D01*
X112978571Y-79380853D02*
X112883333Y-79333234D01*
X112883333Y-79333234D02*
X112835714Y-79285615D01*
X112835714Y-79285615D02*
X112788095Y-79190377D01*
X112788095Y-79190377D02*
X112788095Y-79095139D01*
X112788095Y-79095139D02*
X112835714Y-78999901D01*
X112835714Y-78999901D02*
X112883333Y-78952282D01*
X112883333Y-78952282D02*
X112978571Y-78904663D01*
X112978571Y-78904663D02*
X113216666Y-78904663D01*
X113216666Y-78904663D02*
X113359523Y-78952282D01*
X113692857Y-78904663D02*
X114311904Y-78904663D01*
X114311904Y-78904663D02*
X113978571Y-79285615D01*
X113978571Y-79285615D02*
X114121428Y-79285615D01*
X114121428Y-79285615D02*
X114216666Y-79333234D01*
X114216666Y-79333234D02*
X114264285Y-79380853D01*
X114264285Y-79380853D02*
X114311904Y-79476091D01*
X114311904Y-79476091D02*
X114311904Y-79714186D01*
X114311904Y-79714186D02*
X114264285Y-79809424D01*
X114264285Y-79809424D02*
X114216666Y-79857044D01*
X114216666Y-79857044D02*
X114121428Y-79904663D01*
X114121428Y-79904663D02*
X113835714Y-79904663D01*
X113835714Y-79904663D02*
X113740476Y-79857044D01*
X113740476Y-79857044D02*
X113692857Y-79809424D01*
X104023810Y-77804663D02*
X104023810Y-76804663D01*
X105071428Y-77709424D02*
X105023809Y-77757044D01*
X105023809Y-77757044D02*
X104880952Y-77804663D01*
X104880952Y-77804663D02*
X104785714Y-77804663D01*
X104785714Y-77804663D02*
X104642857Y-77757044D01*
X104642857Y-77757044D02*
X104547619Y-77661805D01*
X104547619Y-77661805D02*
X104500000Y-77566567D01*
X104500000Y-77566567D02*
X104452381Y-77376091D01*
X104452381Y-77376091D02*
X104452381Y-77233234D01*
X104452381Y-77233234D02*
X104500000Y-77042758D01*
X104500000Y-77042758D02*
X104547619Y-76947520D01*
X104547619Y-76947520D02*
X104642857Y-76852282D01*
X104642857Y-76852282D02*
X104785714Y-76804663D01*
X104785714Y-76804663D02*
X104880952Y-76804663D01*
X104880952Y-76804663D02*
X105023809Y-76852282D01*
X105023809Y-76852282D02*
X105071428Y-76899901D01*
X105404762Y-76804663D02*
X106023809Y-76804663D01*
X106023809Y-76804663D02*
X105690476Y-77185615D01*
X105690476Y-77185615D02*
X105833333Y-77185615D01*
X105833333Y-77185615D02*
X105928571Y-77233234D01*
X105928571Y-77233234D02*
X105976190Y-77280853D01*
X105976190Y-77280853D02*
X106023809Y-77376091D01*
X106023809Y-77376091D02*
X106023809Y-77614186D01*
X106023809Y-77614186D02*
X105976190Y-77709424D01*
X105976190Y-77709424D02*
X105928571Y-77757044D01*
X105928571Y-77757044D02*
X105833333Y-77804663D01*
X105833333Y-77804663D02*
X105547619Y-77804663D01*
X105547619Y-77804663D02*
X105452381Y-77757044D01*
X105452381Y-77757044D02*
X105404762Y-77709424D01*
X130540476Y-78304663D02*
X130873809Y-79304663D01*
X130873809Y-79304663D02*
X131207142Y-78304663D01*
X132111904Y-79304663D02*
X131778571Y-78828472D01*
X131540476Y-79304663D02*
X131540476Y-78304663D01*
X131540476Y-78304663D02*
X131921428Y-78304663D01*
X131921428Y-78304663D02*
X132016666Y-78352282D01*
X132016666Y-78352282D02*
X132064285Y-78399901D01*
X132064285Y-78399901D02*
X132111904Y-78495139D01*
X132111904Y-78495139D02*
X132111904Y-78637996D01*
X132111904Y-78637996D02*
X132064285Y-78733234D01*
X132064285Y-78733234D02*
X132016666Y-78780853D01*
X132016666Y-78780853D02*
X131921428Y-78828472D01*
X131921428Y-78828472D02*
X131540476Y-78828472D01*
X133064285Y-79304663D02*
X132492857Y-79304663D01*
X132778571Y-79304663D02*
X132778571Y-78304663D01*
X132778571Y-78304663D02*
X132683333Y-78447520D01*
X132683333Y-78447520D02*
X132588095Y-78542758D01*
X132588095Y-78542758D02*
X132492857Y-78590377D01*
X134573809Y-66978472D02*
X134573809Y-67454663D01*
X134240476Y-66454663D02*
X134573809Y-66978472D01*
X134573809Y-66978472D02*
X134907142Y-66454663D01*
X135764285Y-67454663D02*
X135192857Y-67454663D01*
X135478571Y-67454663D02*
X135478571Y-66454663D01*
X135478571Y-66454663D02*
X135383333Y-66597520D01*
X135383333Y-66597520D02*
X135288095Y-66692758D01*
X135288095Y-66692758D02*
X135192857Y-66740377D01*
X117057142Y-67859424D02*
X117009523Y-67907044D01*
X117009523Y-67907044D02*
X116866666Y-67954663D01*
X116866666Y-67954663D02*
X116771428Y-67954663D01*
X116771428Y-67954663D02*
X116628571Y-67907044D01*
X116628571Y-67907044D02*
X116533333Y-67811805D01*
X116533333Y-67811805D02*
X116485714Y-67716567D01*
X116485714Y-67716567D02*
X116438095Y-67526091D01*
X116438095Y-67526091D02*
X116438095Y-67383234D01*
X116438095Y-67383234D02*
X116485714Y-67192758D01*
X116485714Y-67192758D02*
X116533333Y-67097520D01*
X116533333Y-67097520D02*
X116628571Y-67002282D01*
X116628571Y-67002282D02*
X116771428Y-66954663D01*
X116771428Y-66954663D02*
X116866666Y-66954663D01*
X116866666Y-66954663D02*
X117009523Y-67002282D01*
X117009523Y-67002282D02*
X117057142Y-67049901D01*
X118009523Y-67954663D02*
X117438095Y-67954663D01*
X117723809Y-67954663D02*
X117723809Y-66954663D01*
X117723809Y-66954663D02*
X117628571Y-67097520D01*
X117628571Y-67097520D02*
X117533333Y-67192758D01*
X117533333Y-67192758D02*
X117438095Y-67240377D01*
X118866666Y-66954663D02*
X118676190Y-66954663D01*
X118676190Y-66954663D02*
X118580952Y-67002282D01*
X118580952Y-67002282D02*
X118533333Y-67049901D01*
X118533333Y-67049901D02*
X118438095Y-67192758D01*
X118438095Y-67192758D02*
X118390476Y-67383234D01*
X118390476Y-67383234D02*
X118390476Y-67764186D01*
X118390476Y-67764186D02*
X118438095Y-67859424D01*
X118438095Y-67859424D02*
X118485714Y-67907044D01*
X118485714Y-67907044D02*
X118580952Y-67954663D01*
X118580952Y-67954663D02*
X118771428Y-67954663D01*
X118771428Y-67954663D02*
X118866666Y-67907044D01*
X118866666Y-67907044D02*
X118914285Y-67859424D01*
X118914285Y-67859424D02*
X118961904Y-67764186D01*
X118961904Y-67764186D02*
X118961904Y-67526091D01*
X118961904Y-67526091D02*
X118914285Y-67430853D01*
X118914285Y-67430853D02*
X118866666Y-67383234D01*
X118866666Y-67383234D02*
X118771428Y-67335615D01*
X118771428Y-67335615D02*
X118580952Y-67335615D01*
X118580952Y-67335615D02*
X118485714Y-67383234D01*
X118485714Y-67383234D02*
X118438095Y-67430853D01*
X118438095Y-67430853D02*
X118390476Y-67526091D01*
X130699424Y-68238666D02*
X130747044Y-68286285D01*
X130747044Y-68286285D02*
X130794663Y-68429142D01*
X130794663Y-68429142D02*
X130794663Y-68524380D01*
X130794663Y-68524380D02*
X130747044Y-68667237D01*
X130747044Y-68667237D02*
X130651805Y-68762475D01*
X130651805Y-68762475D02*
X130556567Y-68810094D01*
X130556567Y-68810094D02*
X130366091Y-68857713D01*
X130366091Y-68857713D02*
X130223234Y-68857713D01*
X130223234Y-68857713D02*
X130032758Y-68810094D01*
X130032758Y-68810094D02*
X129937520Y-68762475D01*
X129937520Y-68762475D02*
X129842282Y-68667237D01*
X129842282Y-68667237D02*
X129794663Y-68524380D01*
X129794663Y-68524380D02*
X129794663Y-68429142D01*
X129794663Y-68429142D02*
X129842282Y-68286285D01*
X129842282Y-68286285D02*
X129889901Y-68238666D01*
X129889901Y-67857713D02*
X129842282Y-67810094D01*
X129842282Y-67810094D02*
X129794663Y-67714856D01*
X129794663Y-67714856D02*
X129794663Y-67476761D01*
X129794663Y-67476761D02*
X129842282Y-67381523D01*
X129842282Y-67381523D02*
X129889901Y-67333904D01*
X129889901Y-67333904D02*
X129985139Y-67286285D01*
X129985139Y-67286285D02*
X130080377Y-67286285D01*
X130080377Y-67286285D02*
X130223234Y-67333904D01*
X130223234Y-67333904D02*
X130794663Y-67905332D01*
X130794663Y-67905332D02*
X130794663Y-67286285D01*
X144683333Y-57255424D02*
X144635714Y-57303044D01*
X144635714Y-57303044D02*
X144492857Y-57350663D01*
X144492857Y-57350663D02*
X144397619Y-57350663D01*
X144397619Y-57350663D02*
X144254762Y-57303044D01*
X144254762Y-57303044D02*
X144159524Y-57207805D01*
X144159524Y-57207805D02*
X144111905Y-57112567D01*
X144111905Y-57112567D02*
X144064286Y-56922091D01*
X144064286Y-56922091D02*
X144064286Y-56779234D01*
X144064286Y-56779234D02*
X144111905Y-56588758D01*
X144111905Y-56588758D02*
X144159524Y-56493520D01*
X144159524Y-56493520D02*
X144254762Y-56398282D01*
X144254762Y-56398282D02*
X144397619Y-56350663D01*
X144397619Y-56350663D02*
X144492857Y-56350663D01*
X144492857Y-56350663D02*
X144635714Y-56398282D01*
X144635714Y-56398282D02*
X144683333Y-56445901D01*
X145588095Y-56350663D02*
X145111905Y-56350663D01*
X145111905Y-56350663D02*
X145064286Y-56826853D01*
X145064286Y-56826853D02*
X145111905Y-56779234D01*
X145111905Y-56779234D02*
X145207143Y-56731615D01*
X145207143Y-56731615D02*
X145445238Y-56731615D01*
X145445238Y-56731615D02*
X145540476Y-56779234D01*
X145540476Y-56779234D02*
X145588095Y-56826853D01*
X145588095Y-56826853D02*
X145635714Y-56922091D01*
X145635714Y-56922091D02*
X145635714Y-57160186D01*
X145635714Y-57160186D02*
X145588095Y-57255424D01*
X145588095Y-57255424D02*
X145540476Y-57303044D01*
X145540476Y-57303044D02*
X145445238Y-57350663D01*
X145445238Y-57350663D02*
X145207143Y-57350663D01*
X145207143Y-57350663D02*
X145111905Y-57303044D01*
X145111905Y-57303044D02*
X145064286Y-57255424D01*
X130538095Y-54754663D02*
X130538095Y-55564186D01*
X130538095Y-55564186D02*
X130585714Y-55659424D01*
X130585714Y-55659424D02*
X130633333Y-55707044D01*
X130633333Y-55707044D02*
X130728571Y-55754663D01*
X130728571Y-55754663D02*
X130919047Y-55754663D01*
X130919047Y-55754663D02*
X131014285Y-55707044D01*
X131014285Y-55707044D02*
X131061904Y-55659424D01*
X131061904Y-55659424D02*
X131109523Y-55564186D01*
X131109523Y-55564186D02*
X131109523Y-54754663D01*
X132109523Y-55754663D02*
X131538095Y-55754663D01*
X131823809Y-55754663D02*
X131823809Y-54754663D01*
X131823809Y-54754663D02*
X131728571Y-54897520D01*
X131728571Y-54897520D02*
X131633333Y-54992758D01*
X131633333Y-54992758D02*
X131538095Y-55040377D01*
X123833333Y-69254663D02*
X123500000Y-68778472D01*
X123261905Y-69254663D02*
X123261905Y-68254663D01*
X123261905Y-68254663D02*
X123642857Y-68254663D01*
X123642857Y-68254663D02*
X123738095Y-68302282D01*
X123738095Y-68302282D02*
X123785714Y-68349901D01*
X123785714Y-68349901D02*
X123833333Y-68445139D01*
X123833333Y-68445139D02*
X123833333Y-68587996D01*
X123833333Y-68587996D02*
X123785714Y-68683234D01*
X123785714Y-68683234D02*
X123738095Y-68730853D01*
X123738095Y-68730853D02*
X123642857Y-68778472D01*
X123642857Y-68778472D02*
X123261905Y-68778472D01*
X124690476Y-68254663D02*
X124500000Y-68254663D01*
X124500000Y-68254663D02*
X124404762Y-68302282D01*
X124404762Y-68302282D02*
X124357143Y-68349901D01*
X124357143Y-68349901D02*
X124261905Y-68492758D01*
X124261905Y-68492758D02*
X124214286Y-68683234D01*
X124214286Y-68683234D02*
X124214286Y-69064186D01*
X124214286Y-69064186D02*
X124261905Y-69159424D01*
X124261905Y-69159424D02*
X124309524Y-69207044D01*
X124309524Y-69207044D02*
X124404762Y-69254663D01*
X124404762Y-69254663D02*
X124595238Y-69254663D01*
X124595238Y-69254663D02*
X124690476Y-69207044D01*
X124690476Y-69207044D02*
X124738095Y-69159424D01*
X124738095Y-69159424D02*
X124785714Y-69064186D01*
X124785714Y-69064186D02*
X124785714Y-68826091D01*
X124785714Y-68826091D02*
X124738095Y-68730853D01*
X124738095Y-68730853D02*
X124690476Y-68683234D01*
X124690476Y-68683234D02*
X124595238Y-68635615D01*
X124595238Y-68635615D02*
X124404762Y-68635615D01*
X124404762Y-68635615D02*
X124309524Y-68683234D01*
X124309524Y-68683234D02*
X124261905Y-68730853D01*
X124261905Y-68730853D02*
X124214286Y-68826091D01*
X128859424Y-66642857D02*
X128907044Y-66690476D01*
X128907044Y-66690476D02*
X128954663Y-66833333D01*
X128954663Y-66833333D02*
X128954663Y-66928571D01*
X128954663Y-66928571D02*
X128907044Y-67071428D01*
X128907044Y-67071428D02*
X128811805Y-67166666D01*
X128811805Y-67166666D02*
X128716567Y-67214285D01*
X128716567Y-67214285D02*
X128526091Y-67261904D01*
X128526091Y-67261904D02*
X128383234Y-67261904D01*
X128383234Y-67261904D02*
X128192758Y-67214285D01*
X128192758Y-67214285D02*
X128097520Y-67166666D01*
X128097520Y-67166666D02*
X128002282Y-67071428D01*
X128002282Y-67071428D02*
X127954663Y-66928571D01*
X127954663Y-66928571D02*
X127954663Y-66833333D01*
X127954663Y-66833333D02*
X128002282Y-66690476D01*
X128002282Y-66690476D02*
X128049901Y-66642857D01*
X128954663Y-65690476D02*
X128954663Y-66261904D01*
X128954663Y-65976190D02*
X127954663Y-65976190D01*
X127954663Y-65976190D02*
X128097520Y-66071428D01*
X128097520Y-66071428D02*
X128192758Y-66166666D01*
X128192758Y-66166666D02*
X128240377Y-66261904D01*
X128954663Y-65214285D02*
X128954663Y-65023809D01*
X128954663Y-65023809D02*
X128907044Y-64928571D01*
X128907044Y-64928571D02*
X128859424Y-64880952D01*
X128859424Y-64880952D02*
X128716567Y-64785714D01*
X128716567Y-64785714D02*
X128526091Y-64738095D01*
X128526091Y-64738095D02*
X128145139Y-64738095D01*
X128145139Y-64738095D02*
X128049901Y-64785714D01*
X128049901Y-64785714D02*
X128002282Y-64833333D01*
X128002282Y-64833333D02*
X127954663Y-64928571D01*
X127954663Y-64928571D02*
X127954663Y-65119047D01*
X127954663Y-65119047D02*
X128002282Y-65214285D01*
X128002282Y-65214285D02*
X128049901Y-65261904D01*
X128049901Y-65261904D02*
X128145139Y-65309523D01*
X128145139Y-65309523D02*
X128383234Y-65309523D01*
X128383234Y-65309523D02*
X128478472Y-65261904D01*
X128478472Y-65261904D02*
X128526091Y-65214285D01*
X128526091Y-65214285D02*
X128573710Y-65119047D01*
X128573710Y-65119047D02*
X128573710Y-64928571D01*
X128573710Y-64928571D02*
X128526091Y-64833333D01*
X128526091Y-64833333D02*
X128478472Y-64785714D01*
X128478472Y-64785714D02*
X128383234Y-64738095D01*
X141075424Y-61888666D02*
X141123044Y-61936285D01*
X141123044Y-61936285D02*
X141170663Y-62079142D01*
X141170663Y-62079142D02*
X141170663Y-62174380D01*
X141170663Y-62174380D02*
X141123044Y-62317237D01*
X141123044Y-62317237D02*
X141027805Y-62412475D01*
X141027805Y-62412475D02*
X140932567Y-62460094D01*
X140932567Y-62460094D02*
X140742091Y-62507713D01*
X140742091Y-62507713D02*
X140599234Y-62507713D01*
X140599234Y-62507713D02*
X140408758Y-62460094D01*
X140408758Y-62460094D02*
X140313520Y-62412475D01*
X140313520Y-62412475D02*
X140218282Y-62317237D01*
X140218282Y-62317237D02*
X140170663Y-62174380D01*
X140170663Y-62174380D02*
X140170663Y-62079142D01*
X140170663Y-62079142D02*
X140218282Y-61936285D01*
X140218282Y-61936285D02*
X140265901Y-61888666D01*
X140170663Y-61031523D02*
X140170663Y-61221999D01*
X140170663Y-61221999D02*
X140218282Y-61317237D01*
X140218282Y-61317237D02*
X140265901Y-61364856D01*
X140265901Y-61364856D02*
X140408758Y-61460094D01*
X140408758Y-61460094D02*
X140599234Y-61507713D01*
X140599234Y-61507713D02*
X140980186Y-61507713D01*
X140980186Y-61507713D02*
X141075424Y-61460094D01*
X141075424Y-61460094D02*
X141123044Y-61412475D01*
X141123044Y-61412475D02*
X141170663Y-61317237D01*
X141170663Y-61317237D02*
X141170663Y-61126761D01*
X141170663Y-61126761D02*
X141123044Y-61031523D01*
X141123044Y-61031523D02*
X141075424Y-60983904D01*
X141075424Y-60983904D02*
X140980186Y-60936285D01*
X140980186Y-60936285D02*
X140742091Y-60936285D01*
X140742091Y-60936285D02*
X140646853Y-60983904D01*
X140646853Y-60983904D02*
X140599234Y-61031523D01*
X140599234Y-61031523D02*
X140551615Y-61126761D01*
X140551615Y-61126761D02*
X140551615Y-61317237D01*
X140551615Y-61317237D02*
X140599234Y-61412475D01*
X140599234Y-61412475D02*
X140646853Y-61460094D01*
X140646853Y-61460094D02*
X140742091Y-61507713D01*
X138535424Y-54532857D02*
X138583044Y-54580476D01*
X138583044Y-54580476D02*
X138630663Y-54723333D01*
X138630663Y-54723333D02*
X138630663Y-54818571D01*
X138630663Y-54818571D02*
X138583044Y-54961428D01*
X138583044Y-54961428D02*
X138487805Y-55056666D01*
X138487805Y-55056666D02*
X138392567Y-55104285D01*
X138392567Y-55104285D02*
X138202091Y-55151904D01*
X138202091Y-55151904D02*
X138059234Y-55151904D01*
X138059234Y-55151904D02*
X137868758Y-55104285D01*
X137868758Y-55104285D02*
X137773520Y-55056666D01*
X137773520Y-55056666D02*
X137678282Y-54961428D01*
X137678282Y-54961428D02*
X137630663Y-54818571D01*
X137630663Y-54818571D02*
X137630663Y-54723333D01*
X137630663Y-54723333D02*
X137678282Y-54580476D01*
X137678282Y-54580476D02*
X137725901Y-54532857D01*
X138630663Y-53580476D02*
X138630663Y-54151904D01*
X138630663Y-53866190D02*
X137630663Y-53866190D01*
X137630663Y-53866190D02*
X137773520Y-53961428D01*
X137773520Y-53961428D02*
X137868758Y-54056666D01*
X137868758Y-54056666D02*
X137916377Y-54151904D01*
X137630663Y-53247142D02*
X137630663Y-52628095D01*
X137630663Y-52628095D02*
X138011615Y-52961428D01*
X138011615Y-52961428D02*
X138011615Y-52818571D01*
X138011615Y-52818571D02*
X138059234Y-52723333D01*
X138059234Y-52723333D02*
X138106853Y-52675714D01*
X138106853Y-52675714D02*
X138202091Y-52628095D01*
X138202091Y-52628095D02*
X138440186Y-52628095D01*
X138440186Y-52628095D02*
X138535424Y-52675714D01*
X138535424Y-52675714D02*
X138583044Y-52723333D01*
X138583044Y-52723333D02*
X138630663Y-52818571D01*
X138630663Y-52818571D02*
X138630663Y-53104285D01*
X138630663Y-53104285D02*
X138583044Y-53199523D01*
X138583044Y-53199523D02*
X138535424Y-53247142D01*
X115034663Y-54316666D02*
X114558472Y-54649999D01*
X115034663Y-54888094D02*
X114034663Y-54888094D01*
X114034663Y-54888094D02*
X114034663Y-54507142D01*
X114034663Y-54507142D02*
X114082282Y-54411904D01*
X114082282Y-54411904D02*
X114129901Y-54364285D01*
X114129901Y-54364285D02*
X114225139Y-54316666D01*
X114225139Y-54316666D02*
X114367996Y-54316666D01*
X114367996Y-54316666D02*
X114463234Y-54364285D01*
X114463234Y-54364285D02*
X114510853Y-54411904D01*
X114510853Y-54411904D02*
X114558472Y-54507142D01*
X114558472Y-54507142D02*
X114558472Y-54888094D01*
X114463234Y-53745237D02*
X114415615Y-53840475D01*
X114415615Y-53840475D02*
X114367996Y-53888094D01*
X114367996Y-53888094D02*
X114272758Y-53935713D01*
X114272758Y-53935713D02*
X114225139Y-53935713D01*
X114225139Y-53935713D02*
X114129901Y-53888094D01*
X114129901Y-53888094D02*
X114082282Y-53840475D01*
X114082282Y-53840475D02*
X114034663Y-53745237D01*
X114034663Y-53745237D02*
X114034663Y-53554761D01*
X114034663Y-53554761D02*
X114082282Y-53459523D01*
X114082282Y-53459523D02*
X114129901Y-53411904D01*
X114129901Y-53411904D02*
X114225139Y-53364285D01*
X114225139Y-53364285D02*
X114272758Y-53364285D01*
X114272758Y-53364285D02*
X114367996Y-53411904D01*
X114367996Y-53411904D02*
X114415615Y-53459523D01*
X114415615Y-53459523D02*
X114463234Y-53554761D01*
X114463234Y-53554761D02*
X114463234Y-53745237D01*
X114463234Y-53745237D02*
X114510853Y-53840475D01*
X114510853Y-53840475D02*
X114558472Y-53888094D01*
X114558472Y-53888094D02*
X114653710Y-53935713D01*
X114653710Y-53935713D02*
X114844186Y-53935713D01*
X114844186Y-53935713D02*
X114939424Y-53888094D01*
X114939424Y-53888094D02*
X114987044Y-53840475D01*
X114987044Y-53840475D02*
X115034663Y-53745237D01*
X115034663Y-53745237D02*
X115034663Y-53554761D01*
X115034663Y-53554761D02*
X114987044Y-53459523D01*
X114987044Y-53459523D02*
X114939424Y-53411904D01*
X114939424Y-53411904D02*
X114844186Y-53364285D01*
X114844186Y-53364285D02*
X114653710Y-53364285D01*
X114653710Y-53364285D02*
X114558472Y-53411904D01*
X114558472Y-53411904D02*
X114510853Y-53459523D01*
X114510853Y-53459523D02*
X114463234Y-53554761D01*
X114963333Y-59634663D02*
X114630000Y-59158472D01*
X114391905Y-59634663D02*
X114391905Y-58634663D01*
X114391905Y-58634663D02*
X114772857Y-58634663D01*
X114772857Y-58634663D02*
X114868095Y-58682282D01*
X114868095Y-58682282D02*
X114915714Y-58729901D01*
X114915714Y-58729901D02*
X114963333Y-58825139D01*
X114963333Y-58825139D02*
X114963333Y-58967996D01*
X114963333Y-58967996D02*
X114915714Y-59063234D01*
X114915714Y-59063234D02*
X114868095Y-59110853D01*
X114868095Y-59110853D02*
X114772857Y-59158472D01*
X114772857Y-59158472D02*
X114391905Y-59158472D01*
X115344286Y-58729901D02*
X115391905Y-58682282D01*
X115391905Y-58682282D02*
X115487143Y-58634663D01*
X115487143Y-58634663D02*
X115725238Y-58634663D01*
X115725238Y-58634663D02*
X115820476Y-58682282D01*
X115820476Y-58682282D02*
X115868095Y-58729901D01*
X115868095Y-58729901D02*
X115915714Y-58825139D01*
X115915714Y-58825139D02*
X115915714Y-58920377D01*
X115915714Y-58920377D02*
X115868095Y-59063234D01*
X115868095Y-59063234D02*
X115296667Y-59634663D01*
X115296667Y-59634663D02*
X115915714Y-59634663D01*
X118059424Y-64542857D02*
X118107044Y-64590476D01*
X118107044Y-64590476D02*
X118154663Y-64733333D01*
X118154663Y-64733333D02*
X118154663Y-64828571D01*
X118154663Y-64828571D02*
X118107044Y-64971428D01*
X118107044Y-64971428D02*
X118011805Y-65066666D01*
X118011805Y-65066666D02*
X117916567Y-65114285D01*
X117916567Y-65114285D02*
X117726091Y-65161904D01*
X117726091Y-65161904D02*
X117583234Y-65161904D01*
X117583234Y-65161904D02*
X117392758Y-65114285D01*
X117392758Y-65114285D02*
X117297520Y-65066666D01*
X117297520Y-65066666D02*
X117202282Y-64971428D01*
X117202282Y-64971428D02*
X117154663Y-64828571D01*
X117154663Y-64828571D02*
X117154663Y-64733333D01*
X117154663Y-64733333D02*
X117202282Y-64590476D01*
X117202282Y-64590476D02*
X117249901Y-64542857D01*
X117249901Y-64161904D02*
X117202282Y-64114285D01*
X117202282Y-64114285D02*
X117154663Y-64019047D01*
X117154663Y-64019047D02*
X117154663Y-63780952D01*
X117154663Y-63780952D02*
X117202282Y-63685714D01*
X117202282Y-63685714D02*
X117249901Y-63638095D01*
X117249901Y-63638095D02*
X117345139Y-63590476D01*
X117345139Y-63590476D02*
X117440377Y-63590476D01*
X117440377Y-63590476D02*
X117583234Y-63638095D01*
X117583234Y-63638095D02*
X118154663Y-64209523D01*
X118154663Y-64209523D02*
X118154663Y-63590476D01*
X117249901Y-63209523D02*
X117202282Y-63161904D01*
X117202282Y-63161904D02*
X117154663Y-63066666D01*
X117154663Y-63066666D02*
X117154663Y-62828571D01*
X117154663Y-62828571D02*
X117202282Y-62733333D01*
X117202282Y-62733333D02*
X117249901Y-62685714D01*
X117249901Y-62685714D02*
X117345139Y-62638095D01*
X117345139Y-62638095D02*
X117440377Y-62638095D01*
X117440377Y-62638095D02*
X117583234Y-62685714D01*
X117583234Y-62685714D02*
X118154663Y-63257142D01*
X118154663Y-63257142D02*
X118154663Y-62638095D01*
X123833333Y-67654663D02*
X123500000Y-67178472D01*
X123261905Y-67654663D02*
X123261905Y-66654663D01*
X123261905Y-66654663D02*
X123642857Y-66654663D01*
X123642857Y-66654663D02*
X123738095Y-66702282D01*
X123738095Y-66702282D02*
X123785714Y-66749901D01*
X123785714Y-66749901D02*
X123833333Y-66845139D01*
X123833333Y-66845139D02*
X123833333Y-66987996D01*
X123833333Y-66987996D02*
X123785714Y-67083234D01*
X123785714Y-67083234D02*
X123738095Y-67130853D01*
X123738095Y-67130853D02*
X123642857Y-67178472D01*
X123642857Y-67178472D02*
X123261905Y-67178472D01*
X124166667Y-66654663D02*
X124833333Y-66654663D01*
X124833333Y-66654663D02*
X124404762Y-67654663D01*
X129645424Y-60110666D02*
X129693044Y-60158285D01*
X129693044Y-60158285D02*
X129740663Y-60301142D01*
X129740663Y-60301142D02*
X129740663Y-60396380D01*
X129740663Y-60396380D02*
X129693044Y-60539237D01*
X129693044Y-60539237D02*
X129597805Y-60634475D01*
X129597805Y-60634475D02*
X129502567Y-60682094D01*
X129502567Y-60682094D02*
X129312091Y-60729713D01*
X129312091Y-60729713D02*
X129169234Y-60729713D01*
X129169234Y-60729713D02*
X128978758Y-60682094D01*
X128978758Y-60682094D02*
X128883520Y-60634475D01*
X128883520Y-60634475D02*
X128788282Y-60539237D01*
X128788282Y-60539237D02*
X128740663Y-60396380D01*
X128740663Y-60396380D02*
X128740663Y-60301142D01*
X128740663Y-60301142D02*
X128788282Y-60158285D01*
X128788282Y-60158285D02*
X128835901Y-60110666D01*
X129740663Y-59158285D02*
X129740663Y-59729713D01*
X129740663Y-59443999D02*
X128740663Y-59443999D01*
X128740663Y-59443999D02*
X128883520Y-59539237D01*
X128883520Y-59539237D02*
X128978758Y-59634475D01*
X128978758Y-59634475D02*
X129026377Y-59729713D01*
X142553333Y-57350663D02*
X142077143Y-57350663D01*
X142077143Y-57350663D02*
X142077143Y-56350663D01*
X142791429Y-56350663D02*
X143410476Y-56350663D01*
X143410476Y-56350663D02*
X143077143Y-56731615D01*
X143077143Y-56731615D02*
X143220000Y-56731615D01*
X143220000Y-56731615D02*
X143315238Y-56779234D01*
X143315238Y-56779234D02*
X143362857Y-56826853D01*
X143362857Y-56826853D02*
X143410476Y-56922091D01*
X143410476Y-56922091D02*
X143410476Y-57160186D01*
X143410476Y-57160186D02*
X143362857Y-57255424D01*
X143362857Y-57255424D02*
X143315238Y-57303044D01*
X143315238Y-57303044D02*
X143220000Y-57350663D01*
X143220000Y-57350663D02*
X142934286Y-57350663D01*
X142934286Y-57350663D02*
X142839048Y-57303044D01*
X142839048Y-57303044D02*
X142791429Y-57255424D01*
X127459424Y-66642857D02*
X127507044Y-66690476D01*
X127507044Y-66690476D02*
X127554663Y-66833333D01*
X127554663Y-66833333D02*
X127554663Y-66928571D01*
X127554663Y-66928571D02*
X127507044Y-67071428D01*
X127507044Y-67071428D02*
X127411805Y-67166666D01*
X127411805Y-67166666D02*
X127316567Y-67214285D01*
X127316567Y-67214285D02*
X127126091Y-67261904D01*
X127126091Y-67261904D02*
X126983234Y-67261904D01*
X126983234Y-67261904D02*
X126792758Y-67214285D01*
X126792758Y-67214285D02*
X126697520Y-67166666D01*
X126697520Y-67166666D02*
X126602282Y-67071428D01*
X126602282Y-67071428D02*
X126554663Y-66928571D01*
X126554663Y-66928571D02*
X126554663Y-66833333D01*
X126554663Y-66833333D02*
X126602282Y-66690476D01*
X126602282Y-66690476D02*
X126649901Y-66642857D01*
X126649901Y-66261904D02*
X126602282Y-66214285D01*
X126602282Y-66214285D02*
X126554663Y-66119047D01*
X126554663Y-66119047D02*
X126554663Y-65880952D01*
X126554663Y-65880952D02*
X126602282Y-65785714D01*
X126602282Y-65785714D02*
X126649901Y-65738095D01*
X126649901Y-65738095D02*
X126745139Y-65690476D01*
X126745139Y-65690476D02*
X126840377Y-65690476D01*
X126840377Y-65690476D02*
X126983234Y-65738095D01*
X126983234Y-65738095D02*
X127554663Y-66309523D01*
X127554663Y-66309523D02*
X127554663Y-65690476D01*
X126554663Y-65071428D02*
X126554663Y-64976190D01*
X126554663Y-64976190D02*
X126602282Y-64880952D01*
X126602282Y-64880952D02*
X126649901Y-64833333D01*
X126649901Y-64833333D02*
X126745139Y-64785714D01*
X126745139Y-64785714D02*
X126935615Y-64738095D01*
X126935615Y-64738095D02*
X127173710Y-64738095D01*
X127173710Y-64738095D02*
X127364186Y-64785714D01*
X127364186Y-64785714D02*
X127459424Y-64833333D01*
X127459424Y-64833333D02*
X127507044Y-64880952D01*
X127507044Y-64880952D02*
X127554663Y-64976190D01*
X127554663Y-64976190D02*
X127554663Y-65071428D01*
X127554663Y-65071428D02*
X127507044Y-65166666D01*
X127507044Y-65166666D02*
X127459424Y-65214285D01*
X127459424Y-65214285D02*
X127364186Y-65261904D01*
X127364186Y-65261904D02*
X127173710Y-65309523D01*
X127173710Y-65309523D02*
X126935615Y-65309523D01*
X126935615Y-65309523D02*
X126745139Y-65261904D01*
X126745139Y-65261904D02*
X126649901Y-65214285D01*
X126649901Y-65214285D02*
X126602282Y-65166666D01*
X126602282Y-65166666D02*
X126554663Y-65071428D01*
X117625905Y-60454663D02*
X117625905Y-59454663D01*
X117625905Y-59454663D02*
X117864000Y-59454663D01*
X117864000Y-59454663D02*
X118006857Y-59502282D01*
X118006857Y-59502282D02*
X118102095Y-59597520D01*
X118102095Y-59597520D02*
X118149714Y-59692758D01*
X118149714Y-59692758D02*
X118197333Y-59883234D01*
X118197333Y-59883234D02*
X118197333Y-60026091D01*
X118197333Y-60026091D02*
X118149714Y-60216567D01*
X118149714Y-60216567D02*
X118102095Y-60311805D01*
X118102095Y-60311805D02*
X118006857Y-60407044D01*
X118006857Y-60407044D02*
X117864000Y-60454663D01*
X117864000Y-60454663D02*
X117625905Y-60454663D01*
X119054476Y-59787996D02*
X119054476Y-60454663D01*
X118816381Y-59407044D02*
X118578286Y-60121329D01*
X118578286Y-60121329D02*
X119197333Y-60121329D01*
X109659424Y-75542857D02*
X109707044Y-75590476D01*
X109707044Y-75590476D02*
X109754663Y-75733333D01*
X109754663Y-75733333D02*
X109754663Y-75828571D01*
X109754663Y-75828571D02*
X109707044Y-75971428D01*
X109707044Y-75971428D02*
X109611805Y-76066666D01*
X109611805Y-76066666D02*
X109516567Y-76114285D01*
X109516567Y-76114285D02*
X109326091Y-76161904D01*
X109326091Y-76161904D02*
X109183234Y-76161904D01*
X109183234Y-76161904D02*
X108992758Y-76114285D01*
X108992758Y-76114285D02*
X108897520Y-76066666D01*
X108897520Y-76066666D02*
X108802282Y-75971428D01*
X108802282Y-75971428D02*
X108754663Y-75828571D01*
X108754663Y-75828571D02*
X108754663Y-75733333D01*
X108754663Y-75733333D02*
X108802282Y-75590476D01*
X108802282Y-75590476D02*
X108849901Y-75542857D01*
X108849901Y-75161904D02*
X108802282Y-75114285D01*
X108802282Y-75114285D02*
X108754663Y-75019047D01*
X108754663Y-75019047D02*
X108754663Y-74780952D01*
X108754663Y-74780952D02*
X108802282Y-74685714D01*
X108802282Y-74685714D02*
X108849901Y-74638095D01*
X108849901Y-74638095D02*
X108945139Y-74590476D01*
X108945139Y-74590476D02*
X109040377Y-74590476D01*
X109040377Y-74590476D02*
X109183234Y-74638095D01*
X109183234Y-74638095D02*
X109754663Y-75209523D01*
X109754663Y-75209523D02*
X109754663Y-74590476D01*
X108754663Y-74257142D02*
X108754663Y-73638095D01*
X108754663Y-73638095D02*
X109135615Y-73971428D01*
X109135615Y-73971428D02*
X109135615Y-73828571D01*
X109135615Y-73828571D02*
X109183234Y-73733333D01*
X109183234Y-73733333D02*
X109230853Y-73685714D01*
X109230853Y-73685714D02*
X109326091Y-73638095D01*
X109326091Y-73638095D02*
X109564186Y-73638095D01*
X109564186Y-73638095D02*
X109659424Y-73685714D01*
X109659424Y-73685714D02*
X109707044Y-73733333D01*
X109707044Y-73733333D02*
X109754663Y-73828571D01*
X109754663Y-73828571D02*
X109754663Y-74114285D01*
X109754663Y-74114285D02*
X109707044Y-74209523D01*
X109707044Y-74209523D02*
X109659424Y-74257142D01*
X107857142Y-77554663D02*
X107523809Y-77078472D01*
X107285714Y-77554663D02*
X107285714Y-76554663D01*
X107285714Y-76554663D02*
X107666666Y-76554663D01*
X107666666Y-76554663D02*
X107761904Y-76602282D01*
X107761904Y-76602282D02*
X107809523Y-76649901D01*
X107809523Y-76649901D02*
X107857142Y-76745139D01*
X107857142Y-76745139D02*
X107857142Y-76887996D01*
X107857142Y-76887996D02*
X107809523Y-76983234D01*
X107809523Y-76983234D02*
X107761904Y-77030853D01*
X107761904Y-77030853D02*
X107666666Y-77078472D01*
X107666666Y-77078472D02*
X107285714Y-77078472D01*
X108809523Y-77554663D02*
X108238095Y-77554663D01*
X108523809Y-77554663D02*
X108523809Y-76554663D01*
X108523809Y-76554663D02*
X108428571Y-76697520D01*
X108428571Y-76697520D02*
X108333333Y-76792758D01*
X108333333Y-76792758D02*
X108238095Y-76840377D01*
X109428571Y-76554663D02*
X109523809Y-76554663D01*
X109523809Y-76554663D02*
X109619047Y-76602282D01*
X109619047Y-76602282D02*
X109666666Y-76649901D01*
X109666666Y-76649901D02*
X109714285Y-76745139D01*
X109714285Y-76745139D02*
X109761904Y-76935615D01*
X109761904Y-76935615D02*
X109761904Y-77173710D01*
X109761904Y-77173710D02*
X109714285Y-77364186D01*
X109714285Y-77364186D02*
X109666666Y-77459424D01*
X109666666Y-77459424D02*
X109619047Y-77507044D01*
X109619047Y-77507044D02*
X109523809Y-77554663D01*
X109523809Y-77554663D02*
X109428571Y-77554663D01*
X109428571Y-77554663D02*
X109333333Y-77507044D01*
X109333333Y-77507044D02*
X109285714Y-77459424D01*
X109285714Y-77459424D02*
X109238095Y-77364186D01*
X109238095Y-77364186D02*
X109190476Y-77173710D01*
X109190476Y-77173710D02*
X109190476Y-76935615D01*
X109190476Y-76935615D02*
X109238095Y-76745139D01*
X109238095Y-76745139D02*
X109285714Y-76649901D01*
X109285714Y-76649901D02*
X109333333Y-76602282D01*
X109333333Y-76602282D02*
X109428571Y-76554663D01*
X114933333Y-62234663D02*
X114600000Y-61758472D01*
X114361905Y-62234663D02*
X114361905Y-61234663D01*
X114361905Y-61234663D02*
X114742857Y-61234663D01*
X114742857Y-61234663D02*
X114838095Y-61282282D01*
X114838095Y-61282282D02*
X114885714Y-61329901D01*
X114885714Y-61329901D02*
X114933333Y-61425139D01*
X114933333Y-61425139D02*
X114933333Y-61567996D01*
X114933333Y-61567996D02*
X114885714Y-61663234D01*
X114885714Y-61663234D02*
X114838095Y-61710853D01*
X114838095Y-61710853D02*
X114742857Y-61758472D01*
X114742857Y-61758472D02*
X114361905Y-61758472D01*
X115266667Y-61234663D02*
X115885714Y-61234663D01*
X115885714Y-61234663D02*
X115552381Y-61615615D01*
X115552381Y-61615615D02*
X115695238Y-61615615D01*
X115695238Y-61615615D02*
X115790476Y-61663234D01*
X115790476Y-61663234D02*
X115838095Y-61710853D01*
X115838095Y-61710853D02*
X115885714Y-61806091D01*
X115885714Y-61806091D02*
X115885714Y-62044186D01*
X115885714Y-62044186D02*
X115838095Y-62139424D01*
X115838095Y-62139424D02*
X115790476Y-62187044D01*
X115790476Y-62187044D02*
X115695238Y-62234663D01*
X115695238Y-62234663D02*
X115409524Y-62234663D01*
X115409524Y-62234663D02*
X115314286Y-62187044D01*
X115314286Y-62187044D02*
X115266667Y-62139424D01*
X100954663Y-75992857D02*
X100478472Y-76326190D01*
X100954663Y-76564285D02*
X99954663Y-76564285D01*
X99954663Y-76564285D02*
X99954663Y-76183333D01*
X99954663Y-76183333D02*
X100002282Y-76088095D01*
X100002282Y-76088095D02*
X100049901Y-76040476D01*
X100049901Y-76040476D02*
X100145139Y-75992857D01*
X100145139Y-75992857D02*
X100287996Y-75992857D01*
X100287996Y-75992857D02*
X100383234Y-76040476D01*
X100383234Y-76040476D02*
X100430853Y-76088095D01*
X100430853Y-76088095D02*
X100478472Y-76183333D01*
X100478472Y-76183333D02*
X100478472Y-76564285D01*
X100954663Y-75040476D02*
X100954663Y-75611904D01*
X100954663Y-75326190D02*
X99954663Y-75326190D01*
X99954663Y-75326190D02*
X100097520Y-75421428D01*
X100097520Y-75421428D02*
X100192758Y-75516666D01*
X100192758Y-75516666D02*
X100240377Y-75611904D01*
X100287996Y-74183333D02*
X100954663Y-74183333D01*
X99907044Y-74421428D02*
X100621329Y-74659523D01*
X100621329Y-74659523D02*
X100621329Y-74040476D01*
X137773424Y-66460666D02*
X137821044Y-66508285D01*
X137821044Y-66508285D02*
X137868663Y-66651142D01*
X137868663Y-66651142D02*
X137868663Y-66746380D01*
X137868663Y-66746380D02*
X137821044Y-66889237D01*
X137821044Y-66889237D02*
X137725805Y-66984475D01*
X137725805Y-66984475D02*
X137630567Y-67032094D01*
X137630567Y-67032094D02*
X137440091Y-67079713D01*
X137440091Y-67079713D02*
X137297234Y-67079713D01*
X137297234Y-67079713D02*
X137106758Y-67032094D01*
X137106758Y-67032094D02*
X137011520Y-66984475D01*
X137011520Y-66984475D02*
X136916282Y-66889237D01*
X136916282Y-66889237D02*
X136868663Y-66746380D01*
X136868663Y-66746380D02*
X136868663Y-66651142D01*
X136868663Y-66651142D02*
X136916282Y-66508285D01*
X136916282Y-66508285D02*
X136963901Y-66460666D01*
X136868663Y-66127332D02*
X136868663Y-65508285D01*
X136868663Y-65508285D02*
X137249615Y-65841618D01*
X137249615Y-65841618D02*
X137249615Y-65698761D01*
X137249615Y-65698761D02*
X137297234Y-65603523D01*
X137297234Y-65603523D02*
X137344853Y-65555904D01*
X137344853Y-65555904D02*
X137440091Y-65508285D01*
X137440091Y-65508285D02*
X137678186Y-65508285D01*
X137678186Y-65508285D02*
X137773424Y-65555904D01*
X137773424Y-65555904D02*
X137821044Y-65603523D01*
X137821044Y-65603523D02*
X137868663Y-65698761D01*
X137868663Y-65698761D02*
X137868663Y-65984475D01*
X137868663Y-65984475D02*
X137821044Y-66079713D01*
X137821044Y-66079713D02*
X137773424Y-66127332D01*
X132947424Y-53728857D02*
X132995044Y-53776476D01*
X132995044Y-53776476D02*
X133042663Y-53919333D01*
X133042663Y-53919333D02*
X133042663Y-54014571D01*
X133042663Y-54014571D02*
X132995044Y-54157428D01*
X132995044Y-54157428D02*
X132899805Y-54252666D01*
X132899805Y-54252666D02*
X132804567Y-54300285D01*
X132804567Y-54300285D02*
X132614091Y-54347904D01*
X132614091Y-54347904D02*
X132471234Y-54347904D01*
X132471234Y-54347904D02*
X132280758Y-54300285D01*
X132280758Y-54300285D02*
X132185520Y-54252666D01*
X132185520Y-54252666D02*
X132090282Y-54157428D01*
X132090282Y-54157428D02*
X132042663Y-54014571D01*
X132042663Y-54014571D02*
X132042663Y-53919333D01*
X132042663Y-53919333D02*
X132090282Y-53776476D01*
X132090282Y-53776476D02*
X132137901Y-53728857D01*
X133042663Y-52776476D02*
X133042663Y-53347904D01*
X133042663Y-53062190D02*
X132042663Y-53062190D01*
X132042663Y-53062190D02*
X132185520Y-53157428D01*
X132185520Y-53157428D02*
X132280758Y-53252666D01*
X132280758Y-53252666D02*
X132328377Y-53347904D01*
X133042663Y-51824095D02*
X133042663Y-52395523D01*
X133042663Y-52109809D02*
X132042663Y-52109809D01*
X132042663Y-52109809D02*
X132185520Y-52205047D01*
X132185520Y-52205047D02*
X132280758Y-52300285D01*
X132280758Y-52300285D02*
X132328377Y-52395523D01*
X117625905Y-58112663D02*
X117625905Y-57112663D01*
X117625905Y-57112663D02*
X117864000Y-57112663D01*
X117864000Y-57112663D02*
X118006857Y-57160282D01*
X118006857Y-57160282D02*
X118102095Y-57255520D01*
X118102095Y-57255520D02*
X118149714Y-57350758D01*
X118149714Y-57350758D02*
X118197333Y-57541234D01*
X118197333Y-57541234D02*
X118197333Y-57684091D01*
X118197333Y-57684091D02*
X118149714Y-57874567D01*
X118149714Y-57874567D02*
X118102095Y-57969805D01*
X118102095Y-57969805D02*
X118006857Y-58065044D01*
X118006857Y-58065044D02*
X117864000Y-58112663D01*
X117864000Y-58112663D02*
X117625905Y-58112663D01*
X118530667Y-57112663D02*
X119149714Y-57112663D01*
X119149714Y-57112663D02*
X118816381Y-57493615D01*
X118816381Y-57493615D02*
X118959238Y-57493615D01*
X118959238Y-57493615D02*
X119054476Y-57541234D01*
X119054476Y-57541234D02*
X119102095Y-57588853D01*
X119102095Y-57588853D02*
X119149714Y-57684091D01*
X119149714Y-57684091D02*
X119149714Y-57922186D01*
X119149714Y-57922186D02*
X119102095Y-58017424D01*
X119102095Y-58017424D02*
X119054476Y-58065044D01*
X119054476Y-58065044D02*
X118959238Y-58112663D01*
X118959238Y-58112663D02*
X118673524Y-58112663D01*
X118673524Y-58112663D02*
X118578286Y-58065044D01*
X118578286Y-58065044D02*
X118530667Y-58017424D01*
X116532663Y-52218094D02*
X115532663Y-52218094D01*
X115532663Y-52218094D02*
X115532663Y-51979999D01*
X115532663Y-51979999D02*
X115580282Y-51837142D01*
X115580282Y-51837142D02*
X115675520Y-51741904D01*
X115675520Y-51741904D02*
X115770758Y-51694285D01*
X115770758Y-51694285D02*
X115961234Y-51646666D01*
X115961234Y-51646666D02*
X116104091Y-51646666D01*
X116104091Y-51646666D02*
X116294567Y-51694285D01*
X116294567Y-51694285D02*
X116389805Y-51741904D01*
X116389805Y-51741904D02*
X116485044Y-51837142D01*
X116485044Y-51837142D02*
X116532663Y-51979999D01*
X116532663Y-51979999D02*
X116532663Y-52218094D01*
X115627901Y-51265713D02*
X115580282Y-51218094D01*
X115580282Y-51218094D02*
X115532663Y-51122856D01*
X115532663Y-51122856D02*
X115532663Y-50884761D01*
X115532663Y-50884761D02*
X115580282Y-50789523D01*
X115580282Y-50789523D02*
X115627901Y-50741904D01*
X115627901Y-50741904D02*
X115723139Y-50694285D01*
X115723139Y-50694285D02*
X115818377Y-50694285D01*
X115818377Y-50694285D02*
X115961234Y-50741904D01*
X115961234Y-50741904D02*
X116532663Y-51313332D01*
X116532663Y-51313332D02*
X116532663Y-50694285D01*
X117057142Y-69259424D02*
X117009523Y-69307044D01*
X117009523Y-69307044D02*
X116866666Y-69354663D01*
X116866666Y-69354663D02*
X116771428Y-69354663D01*
X116771428Y-69354663D02*
X116628571Y-69307044D01*
X116628571Y-69307044D02*
X116533333Y-69211805D01*
X116533333Y-69211805D02*
X116485714Y-69116567D01*
X116485714Y-69116567D02*
X116438095Y-68926091D01*
X116438095Y-68926091D02*
X116438095Y-68783234D01*
X116438095Y-68783234D02*
X116485714Y-68592758D01*
X116485714Y-68592758D02*
X116533333Y-68497520D01*
X116533333Y-68497520D02*
X116628571Y-68402282D01*
X116628571Y-68402282D02*
X116771428Y-68354663D01*
X116771428Y-68354663D02*
X116866666Y-68354663D01*
X116866666Y-68354663D02*
X117009523Y-68402282D01*
X117009523Y-68402282D02*
X117057142Y-68449901D01*
X118009523Y-69354663D02*
X117438095Y-69354663D01*
X117723809Y-69354663D02*
X117723809Y-68354663D01*
X117723809Y-68354663D02*
X117628571Y-68497520D01*
X117628571Y-68497520D02*
X117533333Y-68592758D01*
X117533333Y-68592758D02*
X117438095Y-68640377D01*
X118342857Y-68354663D02*
X119009523Y-68354663D01*
X119009523Y-68354663D02*
X118580952Y-69354663D01*
X134820663Y-51474666D02*
X134344472Y-51807999D01*
X134820663Y-52046094D02*
X133820663Y-52046094D01*
X133820663Y-52046094D02*
X133820663Y-51665142D01*
X133820663Y-51665142D02*
X133868282Y-51569904D01*
X133868282Y-51569904D02*
X133915901Y-51522285D01*
X133915901Y-51522285D02*
X134011139Y-51474666D01*
X134011139Y-51474666D02*
X134153996Y-51474666D01*
X134153996Y-51474666D02*
X134249234Y-51522285D01*
X134249234Y-51522285D02*
X134296853Y-51569904D01*
X134296853Y-51569904D02*
X134344472Y-51665142D01*
X134344472Y-51665142D02*
X134344472Y-52046094D01*
X134820663Y-50522285D02*
X134820663Y-51093713D01*
X134820663Y-50807999D02*
X133820663Y-50807999D01*
X133820663Y-50807999D02*
X133963520Y-50903237D01*
X133963520Y-50903237D02*
X134058758Y-50998475D01*
X134058758Y-50998475D02*
X134106377Y-51093713D01*
X146858866Y-52004663D02*
X146858866Y-52718948D01*
X146858866Y-52718948D02*
X146811247Y-52861805D01*
X146811247Y-52861805D02*
X146716009Y-52957044D01*
X146716009Y-52957044D02*
X146573152Y-53004663D01*
X146573152Y-53004663D02*
X146477914Y-53004663D01*
X147858866Y-53004663D02*
X147287438Y-53004663D01*
X147573152Y-53004663D02*
X147573152Y-52004663D01*
X147573152Y-52004663D02*
X147477914Y-52147520D01*
X147477914Y-52147520D02*
X147382676Y-52242758D01*
X147382676Y-52242758D02*
X147287438Y-52290377D01*
X116532663Y-55776666D02*
X116056472Y-56109999D01*
X116532663Y-56348094D02*
X115532663Y-56348094D01*
X115532663Y-56348094D02*
X115532663Y-55967142D01*
X115532663Y-55967142D02*
X115580282Y-55871904D01*
X115580282Y-55871904D02*
X115627901Y-55824285D01*
X115627901Y-55824285D02*
X115723139Y-55776666D01*
X115723139Y-55776666D02*
X115865996Y-55776666D01*
X115865996Y-55776666D02*
X115961234Y-55824285D01*
X115961234Y-55824285D02*
X116008853Y-55871904D01*
X116008853Y-55871904D02*
X116056472Y-55967142D01*
X116056472Y-55967142D02*
X116056472Y-56348094D01*
X115865996Y-54919523D02*
X116532663Y-54919523D01*
X115485044Y-55157618D02*
X116199329Y-55395713D01*
X116199329Y-55395713D02*
X116199329Y-54776666D01*
X116527065Y-54114223D02*
X115527065Y-54114223D01*
X115527065Y-54114223D02*
X115527065Y-53876128D01*
X115527065Y-53876128D02*
X115574684Y-53733271D01*
X115574684Y-53733271D02*
X115669922Y-53638033D01*
X115669922Y-53638033D02*
X115765160Y-53590414D01*
X115765160Y-53590414D02*
X115955636Y-53542795D01*
X115955636Y-53542795D02*
X116098493Y-53542795D01*
X116098493Y-53542795D02*
X116288969Y-53590414D01*
X116288969Y-53590414D02*
X116384207Y-53638033D01*
X116384207Y-53638033D02*
X116479446Y-53733271D01*
X116479446Y-53733271D02*
X116527065Y-53876128D01*
X116527065Y-53876128D02*
X116527065Y-54114223D01*
X116527065Y-52590414D02*
X116527065Y-53161842D01*
X116527065Y-52876128D02*
X115527065Y-52876128D01*
X115527065Y-52876128D02*
X115669922Y-52971366D01*
X115669922Y-52971366D02*
X115765160Y-53066604D01*
X115765160Y-53066604D02*
X115812779Y-53161842D01*
X138771333Y-64970663D02*
X138295143Y-64970663D01*
X138295143Y-64970663D02*
X138295143Y-63970663D01*
X139533238Y-64303996D02*
X139533238Y-64970663D01*
X139295143Y-63923044D02*
X139057048Y-64637329D01*
X139057048Y-64637329D02*
X139676095Y-64637329D01*
X129899424Y-57030857D02*
X129947044Y-57078476D01*
X129947044Y-57078476D02*
X129994663Y-57221333D01*
X129994663Y-57221333D02*
X129994663Y-57316571D01*
X129994663Y-57316571D02*
X129947044Y-57459428D01*
X129947044Y-57459428D02*
X129851805Y-57554666D01*
X129851805Y-57554666D02*
X129756567Y-57602285D01*
X129756567Y-57602285D02*
X129566091Y-57649904D01*
X129566091Y-57649904D02*
X129423234Y-57649904D01*
X129423234Y-57649904D02*
X129232758Y-57602285D01*
X129232758Y-57602285D02*
X129137520Y-57554666D01*
X129137520Y-57554666D02*
X129042282Y-57459428D01*
X129042282Y-57459428D02*
X128994663Y-57316571D01*
X128994663Y-57316571D02*
X128994663Y-57221333D01*
X128994663Y-57221333D02*
X129042282Y-57078476D01*
X129042282Y-57078476D02*
X129089901Y-57030857D01*
X129994663Y-56078476D02*
X129994663Y-56649904D01*
X129994663Y-56364190D02*
X128994663Y-56364190D01*
X128994663Y-56364190D02*
X129137520Y-56459428D01*
X129137520Y-56459428D02*
X129232758Y-56554666D01*
X129232758Y-56554666D02*
X129280377Y-56649904D01*
X128994663Y-55459428D02*
X128994663Y-55364190D01*
X128994663Y-55364190D02*
X129042282Y-55268952D01*
X129042282Y-55268952D02*
X129089901Y-55221333D01*
X129089901Y-55221333D02*
X129185139Y-55173714D01*
X129185139Y-55173714D02*
X129375615Y-55126095D01*
X129375615Y-55126095D02*
X129613710Y-55126095D01*
X129613710Y-55126095D02*
X129804186Y-55173714D01*
X129804186Y-55173714D02*
X129899424Y-55221333D01*
X129899424Y-55221333D02*
X129947044Y-55268952D01*
X129947044Y-55268952D02*
X129994663Y-55364190D01*
X129994663Y-55364190D02*
X129994663Y-55459428D01*
X129994663Y-55459428D02*
X129947044Y-55554666D01*
X129947044Y-55554666D02*
X129899424Y-55602285D01*
X129899424Y-55602285D02*
X129804186Y-55649904D01*
X129804186Y-55649904D02*
X129613710Y-55697523D01*
X129613710Y-55697523D02*
X129375615Y-55697523D01*
X129375615Y-55697523D02*
X129185139Y-55649904D01*
X129185139Y-55649904D02*
X129089901Y-55602285D01*
X129089901Y-55602285D02*
X129042282Y-55554666D01*
X129042282Y-55554666D02*
X128994663Y-55459428D01*
X126059424Y-66642857D02*
X126107044Y-66690476D01*
X126107044Y-66690476D02*
X126154663Y-66833333D01*
X126154663Y-66833333D02*
X126154663Y-66928571D01*
X126154663Y-66928571D02*
X126107044Y-67071428D01*
X126107044Y-67071428D02*
X126011805Y-67166666D01*
X126011805Y-67166666D02*
X125916567Y-67214285D01*
X125916567Y-67214285D02*
X125726091Y-67261904D01*
X125726091Y-67261904D02*
X125583234Y-67261904D01*
X125583234Y-67261904D02*
X125392758Y-67214285D01*
X125392758Y-67214285D02*
X125297520Y-67166666D01*
X125297520Y-67166666D02*
X125202282Y-67071428D01*
X125202282Y-67071428D02*
X125154663Y-66928571D01*
X125154663Y-66928571D02*
X125154663Y-66833333D01*
X125154663Y-66833333D02*
X125202282Y-66690476D01*
X125202282Y-66690476D02*
X125249901Y-66642857D01*
X125249901Y-66261904D02*
X125202282Y-66214285D01*
X125202282Y-66214285D02*
X125154663Y-66119047D01*
X125154663Y-66119047D02*
X125154663Y-65880952D01*
X125154663Y-65880952D02*
X125202282Y-65785714D01*
X125202282Y-65785714D02*
X125249901Y-65738095D01*
X125249901Y-65738095D02*
X125345139Y-65690476D01*
X125345139Y-65690476D02*
X125440377Y-65690476D01*
X125440377Y-65690476D02*
X125583234Y-65738095D01*
X125583234Y-65738095D02*
X126154663Y-66309523D01*
X126154663Y-66309523D02*
X126154663Y-65690476D01*
X126154663Y-64738095D02*
X126154663Y-65309523D01*
X126154663Y-65023809D02*
X125154663Y-65023809D01*
X125154663Y-65023809D02*
X125297520Y-65119047D01*
X125297520Y-65119047D02*
X125392758Y-65214285D01*
X125392758Y-65214285D02*
X125440377Y-65309523D01*
X111204663Y-75042857D02*
X110728472Y-75376190D01*
X111204663Y-75614285D02*
X110204663Y-75614285D01*
X110204663Y-75614285D02*
X110204663Y-75233333D01*
X110204663Y-75233333D02*
X110252282Y-75138095D01*
X110252282Y-75138095D02*
X110299901Y-75090476D01*
X110299901Y-75090476D02*
X110395139Y-75042857D01*
X110395139Y-75042857D02*
X110537996Y-75042857D01*
X110537996Y-75042857D02*
X110633234Y-75090476D01*
X110633234Y-75090476D02*
X110680853Y-75138095D01*
X110680853Y-75138095D02*
X110728472Y-75233333D01*
X110728472Y-75233333D02*
X110728472Y-75614285D01*
X111204663Y-74090476D02*
X111204663Y-74661904D01*
X111204663Y-74376190D02*
X110204663Y-74376190D01*
X110204663Y-74376190D02*
X110347520Y-74471428D01*
X110347520Y-74471428D02*
X110442758Y-74566666D01*
X110442758Y-74566666D02*
X110490377Y-74661904D01*
X111204663Y-73138095D02*
X111204663Y-73709523D01*
X111204663Y-73423809D02*
X110204663Y-73423809D01*
X110204663Y-73423809D02*
X110347520Y-73519047D01*
X110347520Y-73519047D02*
X110442758Y-73614285D01*
X110442758Y-73614285D02*
X110490377Y-73709523D01*
X138771333Y-63605424D02*
X138723714Y-63653044D01*
X138723714Y-63653044D02*
X138580857Y-63700663D01*
X138580857Y-63700663D02*
X138485619Y-63700663D01*
X138485619Y-63700663D02*
X138342762Y-63653044D01*
X138342762Y-63653044D02*
X138247524Y-63557805D01*
X138247524Y-63557805D02*
X138199905Y-63462567D01*
X138199905Y-63462567D02*
X138152286Y-63272091D01*
X138152286Y-63272091D02*
X138152286Y-63129234D01*
X138152286Y-63129234D02*
X138199905Y-62938758D01*
X138199905Y-62938758D02*
X138247524Y-62843520D01*
X138247524Y-62843520D02*
X138342762Y-62748282D01*
X138342762Y-62748282D02*
X138485619Y-62700663D01*
X138485619Y-62700663D02*
X138580857Y-62700663D01*
X138580857Y-62700663D02*
X138723714Y-62748282D01*
X138723714Y-62748282D02*
X138771333Y-62795901D01*
X139104667Y-62700663D02*
X139771333Y-62700663D01*
X139771333Y-62700663D02*
X139342762Y-63700663D01*
X138803142Y-66399424D02*
X138755523Y-66447044D01*
X138755523Y-66447044D02*
X138612666Y-66494663D01*
X138612666Y-66494663D02*
X138517428Y-66494663D01*
X138517428Y-66494663D02*
X138374571Y-66447044D01*
X138374571Y-66447044D02*
X138279333Y-66351805D01*
X138279333Y-66351805D02*
X138231714Y-66256567D01*
X138231714Y-66256567D02*
X138184095Y-66066091D01*
X138184095Y-66066091D02*
X138184095Y-65923234D01*
X138184095Y-65923234D02*
X138231714Y-65732758D01*
X138231714Y-65732758D02*
X138279333Y-65637520D01*
X138279333Y-65637520D02*
X138374571Y-65542282D01*
X138374571Y-65542282D02*
X138517428Y-65494663D01*
X138517428Y-65494663D02*
X138612666Y-65494663D01*
X138612666Y-65494663D02*
X138755523Y-65542282D01*
X138755523Y-65542282D02*
X138803142Y-65589901D01*
X139755523Y-66494663D02*
X139184095Y-66494663D01*
X139469809Y-66494663D02*
X139469809Y-65494663D01*
X139469809Y-65494663D02*
X139374571Y-65637520D01*
X139374571Y-65637520D02*
X139279333Y-65732758D01*
X139279333Y-65732758D02*
X139184095Y-65780377D01*
X140136476Y-65589901D02*
X140184095Y-65542282D01*
X140184095Y-65542282D02*
X140279333Y-65494663D01*
X140279333Y-65494663D02*
X140517428Y-65494663D01*
X140517428Y-65494663D02*
X140612666Y-65542282D01*
X140612666Y-65542282D02*
X140660285Y-65589901D01*
X140660285Y-65589901D02*
X140707904Y-65685139D01*
X140707904Y-65685139D02*
X140707904Y-65780377D01*
X140707904Y-65780377D02*
X140660285Y-65923234D01*
X140660285Y-65923234D02*
X140088857Y-66494663D01*
X140088857Y-66494663D02*
X140707904Y-66494663D01*
X131010663Y-52166666D02*
X130534472Y-52499999D01*
X131010663Y-52738094D02*
X130010663Y-52738094D01*
X130010663Y-52738094D02*
X130010663Y-52357142D01*
X130010663Y-52357142D02*
X130058282Y-52261904D01*
X130058282Y-52261904D02*
X130105901Y-52214285D01*
X130105901Y-52214285D02*
X130201139Y-52166666D01*
X130201139Y-52166666D02*
X130343996Y-52166666D01*
X130343996Y-52166666D02*
X130439234Y-52214285D01*
X130439234Y-52214285D02*
X130486853Y-52261904D01*
X130486853Y-52261904D02*
X130534472Y-52357142D01*
X130534472Y-52357142D02*
X130534472Y-52738094D01*
X130010663Y-51261904D02*
X130010663Y-51738094D01*
X130010663Y-51738094D02*
X130486853Y-51785713D01*
X130486853Y-51785713D02*
X130439234Y-51738094D01*
X130439234Y-51738094D02*
X130391615Y-51642856D01*
X130391615Y-51642856D02*
X130391615Y-51404761D01*
X130391615Y-51404761D02*
X130439234Y-51309523D01*
X130439234Y-51309523D02*
X130486853Y-51261904D01*
X130486853Y-51261904D02*
X130582091Y-51214285D01*
X130582091Y-51214285D02*
X130820186Y-51214285D01*
X130820186Y-51214285D02*
X130915424Y-51261904D01*
X130915424Y-51261904D02*
X130963044Y-51309523D01*
X130963044Y-51309523D02*
X131010663Y-51404761D01*
X131010663Y-51404761D02*
X131010663Y-51642856D01*
X131010663Y-51642856D02*
X130963044Y-51738094D01*
X130963044Y-51738094D02*
X130915424Y-51785713D01*
X129266666Y-48754663D02*
X129266666Y-49468948D01*
X129266666Y-49468948D02*
X129219047Y-49611805D01*
X129219047Y-49611805D02*
X129123809Y-49707044D01*
X129123809Y-49707044D02*
X128980952Y-49754663D01*
X128980952Y-49754663D02*
X128885714Y-49754663D01*
X129695238Y-48849901D02*
X129742857Y-48802282D01*
X129742857Y-48802282D02*
X129838095Y-48754663D01*
X129838095Y-48754663D02*
X130076190Y-48754663D01*
X130076190Y-48754663D02*
X130171428Y-48802282D01*
X130171428Y-48802282D02*
X130219047Y-48849901D01*
X130219047Y-48849901D02*
X130266666Y-48945139D01*
X130266666Y-48945139D02*
X130266666Y-49040377D01*
X130266666Y-49040377D02*
X130219047Y-49183234D01*
X130219047Y-49183234D02*
X129647619Y-49754663D01*
X129647619Y-49754663D02*
X130266666Y-49754663D01*
X114004663Y-51476189D02*
X113004663Y-51476189D01*
X113909424Y-50428571D02*
X113957044Y-50476190D01*
X113957044Y-50476190D02*
X114004663Y-50619047D01*
X114004663Y-50619047D02*
X114004663Y-50714285D01*
X114004663Y-50714285D02*
X113957044Y-50857142D01*
X113957044Y-50857142D02*
X113861805Y-50952380D01*
X113861805Y-50952380D02*
X113766567Y-50999999D01*
X113766567Y-50999999D02*
X113576091Y-51047618D01*
X113576091Y-51047618D02*
X113433234Y-51047618D01*
X113433234Y-51047618D02*
X113242758Y-50999999D01*
X113242758Y-50999999D02*
X113147520Y-50952380D01*
X113147520Y-50952380D02*
X113052282Y-50857142D01*
X113052282Y-50857142D02*
X113004663Y-50714285D01*
X113004663Y-50714285D02*
X113004663Y-50619047D01*
X113004663Y-50619047D02*
X113052282Y-50476190D01*
X113052282Y-50476190D02*
X113099901Y-50428571D01*
X114004663Y-49476190D02*
X114004663Y-50047618D01*
X114004663Y-49761904D02*
X113004663Y-49761904D01*
X113004663Y-49761904D02*
X113147520Y-49857142D01*
X113147520Y-49857142D02*
X113242758Y-49952380D01*
X113242758Y-49952380D02*
X113290377Y-50047618D01*
X139043424Y-56986666D02*
X139091044Y-57034285D01*
X139091044Y-57034285D02*
X139138663Y-57177142D01*
X139138663Y-57177142D02*
X139138663Y-57272380D01*
X139138663Y-57272380D02*
X139091044Y-57415237D01*
X139091044Y-57415237D02*
X138995805Y-57510475D01*
X138995805Y-57510475D02*
X138900567Y-57558094D01*
X138900567Y-57558094D02*
X138710091Y-57605713D01*
X138710091Y-57605713D02*
X138567234Y-57605713D01*
X138567234Y-57605713D02*
X138376758Y-57558094D01*
X138376758Y-57558094D02*
X138281520Y-57510475D01*
X138281520Y-57510475D02*
X138186282Y-57415237D01*
X138186282Y-57415237D02*
X138138663Y-57272380D01*
X138138663Y-57272380D02*
X138138663Y-57177142D01*
X138138663Y-57177142D02*
X138186282Y-57034285D01*
X138186282Y-57034285D02*
X138233901Y-56986666D01*
X138471996Y-56129523D02*
X139138663Y-56129523D01*
X138091044Y-56367618D02*
X138805329Y-56605713D01*
X138805329Y-56605713D02*
X138805329Y-55986666D01*
X142639424Y-61888666D02*
X142687044Y-61936285D01*
X142687044Y-61936285D02*
X142734663Y-62079142D01*
X142734663Y-62079142D02*
X142734663Y-62174380D01*
X142734663Y-62174380D02*
X142687044Y-62317237D01*
X142687044Y-62317237D02*
X142591805Y-62412475D01*
X142591805Y-62412475D02*
X142496567Y-62460094D01*
X142496567Y-62460094D02*
X142306091Y-62507713D01*
X142306091Y-62507713D02*
X142163234Y-62507713D01*
X142163234Y-62507713D02*
X141972758Y-62460094D01*
X141972758Y-62460094D02*
X141877520Y-62412475D01*
X141877520Y-62412475D02*
X141782282Y-62317237D01*
X141782282Y-62317237D02*
X141734663Y-62174380D01*
X141734663Y-62174380D02*
X141734663Y-62079142D01*
X141734663Y-62079142D02*
X141782282Y-61936285D01*
X141782282Y-61936285D02*
X141829901Y-61888666D01*
X142163234Y-61317237D02*
X142115615Y-61412475D01*
X142115615Y-61412475D02*
X142067996Y-61460094D01*
X142067996Y-61460094D02*
X141972758Y-61507713D01*
X141972758Y-61507713D02*
X141925139Y-61507713D01*
X141925139Y-61507713D02*
X141829901Y-61460094D01*
X141829901Y-61460094D02*
X141782282Y-61412475D01*
X141782282Y-61412475D02*
X141734663Y-61317237D01*
X141734663Y-61317237D02*
X141734663Y-61126761D01*
X141734663Y-61126761D02*
X141782282Y-61031523D01*
X141782282Y-61031523D02*
X141829901Y-60983904D01*
X141829901Y-60983904D02*
X141925139Y-60936285D01*
X141925139Y-60936285D02*
X141972758Y-60936285D01*
X141972758Y-60936285D02*
X142067996Y-60983904D01*
X142067996Y-60983904D02*
X142115615Y-61031523D01*
X142115615Y-61031523D02*
X142163234Y-61126761D01*
X142163234Y-61126761D02*
X142163234Y-61317237D01*
X142163234Y-61317237D02*
X142210853Y-61412475D01*
X142210853Y-61412475D02*
X142258472Y-61460094D01*
X142258472Y-61460094D02*
X142353710Y-61507713D01*
X142353710Y-61507713D02*
X142544186Y-61507713D01*
X142544186Y-61507713D02*
X142639424Y-61460094D01*
X142639424Y-61460094D02*
X142687044Y-61412475D01*
X142687044Y-61412475D02*
X142734663Y-61317237D01*
X142734663Y-61317237D02*
X142734663Y-61126761D01*
X142734663Y-61126761D02*
X142687044Y-61031523D01*
X142687044Y-61031523D02*
X142639424Y-60983904D01*
X142639424Y-60983904D02*
X142544186Y-60936285D01*
X142544186Y-60936285D02*
X142353710Y-60936285D01*
X142353710Y-60936285D02*
X142258472Y-60983904D01*
X142258472Y-60983904D02*
X142210853Y-61031523D01*
X142210853Y-61031523D02*
X142163234Y-61126761D01*
X114437142Y-60809424D02*
X114389523Y-60857044D01*
X114389523Y-60857044D02*
X114246666Y-60904663D01*
X114246666Y-60904663D02*
X114151428Y-60904663D01*
X114151428Y-60904663D02*
X114008571Y-60857044D01*
X114008571Y-60857044D02*
X113913333Y-60761805D01*
X113913333Y-60761805D02*
X113865714Y-60666567D01*
X113865714Y-60666567D02*
X113818095Y-60476091D01*
X113818095Y-60476091D02*
X113818095Y-60333234D01*
X113818095Y-60333234D02*
X113865714Y-60142758D01*
X113865714Y-60142758D02*
X113913333Y-60047520D01*
X113913333Y-60047520D02*
X114008571Y-59952282D01*
X114008571Y-59952282D02*
X114151428Y-59904663D01*
X114151428Y-59904663D02*
X114246666Y-59904663D01*
X114246666Y-59904663D02*
X114389523Y-59952282D01*
X114389523Y-59952282D02*
X114437142Y-59999901D01*
X115389523Y-60904663D02*
X114818095Y-60904663D01*
X115103809Y-60904663D02*
X115103809Y-59904663D01*
X115103809Y-59904663D02*
X115008571Y-60047520D01*
X115008571Y-60047520D02*
X114913333Y-60142758D01*
X114913333Y-60142758D02*
X114818095Y-60190377D01*
X115960952Y-60333234D02*
X115865714Y-60285615D01*
X115865714Y-60285615D02*
X115818095Y-60237996D01*
X115818095Y-60237996D02*
X115770476Y-60142758D01*
X115770476Y-60142758D02*
X115770476Y-60095139D01*
X115770476Y-60095139D02*
X115818095Y-59999901D01*
X115818095Y-59999901D02*
X115865714Y-59952282D01*
X115865714Y-59952282D02*
X115960952Y-59904663D01*
X115960952Y-59904663D02*
X116151428Y-59904663D01*
X116151428Y-59904663D02*
X116246666Y-59952282D01*
X116246666Y-59952282D02*
X116294285Y-59999901D01*
X116294285Y-59999901D02*
X116341904Y-60095139D01*
X116341904Y-60095139D02*
X116341904Y-60142758D01*
X116341904Y-60142758D02*
X116294285Y-60237996D01*
X116294285Y-60237996D02*
X116246666Y-60285615D01*
X116246666Y-60285615D02*
X116151428Y-60333234D01*
X116151428Y-60333234D02*
X115960952Y-60333234D01*
X115960952Y-60333234D02*
X115865714Y-60380853D01*
X115865714Y-60380853D02*
X115818095Y-60428472D01*
X115818095Y-60428472D02*
X115770476Y-60523710D01*
X115770476Y-60523710D02*
X115770476Y-60714186D01*
X115770476Y-60714186D02*
X115818095Y-60809424D01*
X115818095Y-60809424D02*
X115865714Y-60857044D01*
X115865714Y-60857044D02*
X115960952Y-60904663D01*
X115960952Y-60904663D02*
X116151428Y-60904663D01*
X116151428Y-60904663D02*
X116246666Y-60857044D01*
X116246666Y-60857044D02*
X116294285Y-60809424D01*
X116294285Y-60809424D02*
X116341904Y-60714186D01*
X116341904Y-60714186D02*
X116341904Y-60523710D01*
X116341904Y-60523710D02*
X116294285Y-60428472D01*
X116294285Y-60428472D02*
X116246666Y-60380853D01*
X116246666Y-60380853D02*
X116151428Y-60333234D01*
X144749424Y-61888666D02*
X144797044Y-61936285D01*
X144797044Y-61936285D02*
X144844663Y-62079142D01*
X144844663Y-62079142D02*
X144844663Y-62174380D01*
X144844663Y-62174380D02*
X144797044Y-62317237D01*
X144797044Y-62317237D02*
X144701805Y-62412475D01*
X144701805Y-62412475D02*
X144606567Y-62460094D01*
X144606567Y-62460094D02*
X144416091Y-62507713D01*
X144416091Y-62507713D02*
X144273234Y-62507713D01*
X144273234Y-62507713D02*
X144082758Y-62460094D01*
X144082758Y-62460094D02*
X143987520Y-62412475D01*
X143987520Y-62412475D02*
X143892282Y-62317237D01*
X143892282Y-62317237D02*
X143844663Y-62174380D01*
X143844663Y-62174380D02*
X143844663Y-62079142D01*
X143844663Y-62079142D02*
X143892282Y-61936285D01*
X143892282Y-61936285D02*
X143939901Y-61888666D01*
X144844663Y-61412475D02*
X144844663Y-61221999D01*
X144844663Y-61221999D02*
X144797044Y-61126761D01*
X144797044Y-61126761D02*
X144749424Y-61079142D01*
X144749424Y-61079142D02*
X144606567Y-60983904D01*
X144606567Y-60983904D02*
X144416091Y-60936285D01*
X144416091Y-60936285D02*
X144035139Y-60936285D01*
X144035139Y-60936285D02*
X143939901Y-60983904D01*
X143939901Y-60983904D02*
X143892282Y-61031523D01*
X143892282Y-61031523D02*
X143844663Y-61126761D01*
X143844663Y-61126761D02*
X143844663Y-61317237D01*
X143844663Y-61317237D02*
X143892282Y-61412475D01*
X143892282Y-61412475D02*
X143939901Y-61460094D01*
X143939901Y-61460094D02*
X144035139Y-61507713D01*
X144035139Y-61507713D02*
X144273234Y-61507713D01*
X144273234Y-61507713D02*
X144368472Y-61460094D01*
X144368472Y-61460094D02*
X144416091Y-61412475D01*
X144416091Y-61412475D02*
X144463710Y-61317237D01*
X144463710Y-61317237D02*
X144463710Y-61126761D01*
X144463710Y-61126761D02*
X144416091Y-61031523D01*
X144416091Y-61031523D02*
X144368472Y-60983904D01*
X144368472Y-60983904D02*
X144273234Y-60936285D01*
X131437142Y-62081424D02*
X131389523Y-62129044D01*
X131389523Y-62129044D02*
X131246666Y-62176663D01*
X131246666Y-62176663D02*
X131151428Y-62176663D01*
X131151428Y-62176663D02*
X131008571Y-62129044D01*
X131008571Y-62129044D02*
X130913333Y-62033805D01*
X130913333Y-62033805D02*
X130865714Y-61938567D01*
X130865714Y-61938567D02*
X130818095Y-61748091D01*
X130818095Y-61748091D02*
X130818095Y-61605234D01*
X130818095Y-61605234D02*
X130865714Y-61414758D01*
X130865714Y-61414758D02*
X130913333Y-61319520D01*
X130913333Y-61319520D02*
X131008571Y-61224282D01*
X131008571Y-61224282D02*
X131151428Y-61176663D01*
X131151428Y-61176663D02*
X131246666Y-61176663D01*
X131246666Y-61176663D02*
X131389523Y-61224282D01*
X131389523Y-61224282D02*
X131437142Y-61271901D01*
X132389523Y-62176663D02*
X131818095Y-62176663D01*
X132103809Y-62176663D02*
X132103809Y-61176663D01*
X132103809Y-61176663D02*
X132008571Y-61319520D01*
X132008571Y-61319520D02*
X131913333Y-61414758D01*
X131913333Y-61414758D02*
X131818095Y-61462377D01*
X133294285Y-61176663D02*
X132818095Y-61176663D01*
X132818095Y-61176663D02*
X132770476Y-61652853D01*
X132770476Y-61652853D02*
X132818095Y-61605234D01*
X132818095Y-61605234D02*
X132913333Y-61557615D01*
X132913333Y-61557615D02*
X133151428Y-61557615D01*
X133151428Y-61557615D02*
X133246666Y-61605234D01*
X133246666Y-61605234D02*
X133294285Y-61652853D01*
X133294285Y-61652853D02*
X133341904Y-61748091D01*
X133341904Y-61748091D02*
X133341904Y-61986186D01*
X133341904Y-61986186D02*
X133294285Y-62081424D01*
X133294285Y-62081424D02*
X133246666Y-62129044D01*
X133246666Y-62129044D02*
X133151428Y-62176663D01*
X133151428Y-62176663D02*
X132913333Y-62176663D01*
X132913333Y-62176663D02*
X132818095Y-62129044D01*
X132818095Y-62129044D02*
X132770476Y-62081424D01*
X140803333Y-60144663D02*
X140327143Y-60144663D01*
X140327143Y-60144663D02*
X140327143Y-59144663D01*
X141660476Y-60144663D02*
X141089048Y-60144663D01*
X141374762Y-60144663D02*
X141374762Y-59144663D01*
X141374762Y-59144663D02*
X141279524Y-59287520D01*
X141279524Y-59287520D02*
X141184286Y-59382758D01*
X141184286Y-59382758D02*
X141089048Y-59430377D01*
X140143333Y-57350663D02*
X139667143Y-57350663D01*
X139667143Y-57350663D02*
X139667143Y-56350663D01*
X140429048Y-56445901D02*
X140476667Y-56398282D01*
X140476667Y-56398282D02*
X140571905Y-56350663D01*
X140571905Y-56350663D02*
X140810000Y-56350663D01*
X140810000Y-56350663D02*
X140905238Y-56398282D01*
X140905238Y-56398282D02*
X140952857Y-56445901D01*
X140952857Y-56445901D02*
X141000476Y-56541139D01*
X141000476Y-56541139D02*
X141000476Y-56636377D01*
X141000476Y-56636377D02*
X140952857Y-56779234D01*
X140952857Y-56779234D02*
X140381429Y-57350663D01*
X140381429Y-57350663D02*
X141000476Y-57350663D01*
X104657142Y-71354663D02*
X104323809Y-70878472D01*
X104085714Y-71354663D02*
X104085714Y-70354663D01*
X104085714Y-70354663D02*
X104466666Y-70354663D01*
X104466666Y-70354663D02*
X104561904Y-70402282D01*
X104561904Y-70402282D02*
X104609523Y-70449901D01*
X104609523Y-70449901D02*
X104657142Y-70545139D01*
X104657142Y-70545139D02*
X104657142Y-70687996D01*
X104657142Y-70687996D02*
X104609523Y-70783234D01*
X104609523Y-70783234D02*
X104561904Y-70830853D01*
X104561904Y-70830853D02*
X104466666Y-70878472D01*
X104466666Y-70878472D02*
X104085714Y-70878472D01*
X105609523Y-71354663D02*
X105038095Y-71354663D01*
X105323809Y-71354663D02*
X105323809Y-70354663D01*
X105323809Y-70354663D02*
X105228571Y-70497520D01*
X105228571Y-70497520D02*
X105133333Y-70592758D01*
X105133333Y-70592758D02*
X105038095Y-70640377D01*
X105942857Y-70354663D02*
X106561904Y-70354663D01*
X106561904Y-70354663D02*
X106228571Y-70735615D01*
X106228571Y-70735615D02*
X106371428Y-70735615D01*
X106371428Y-70735615D02*
X106466666Y-70783234D01*
X106466666Y-70783234D02*
X106514285Y-70830853D01*
X106514285Y-70830853D02*
X106561904Y-70926091D01*
X106561904Y-70926091D02*
X106561904Y-71164186D01*
X106561904Y-71164186D02*
X106514285Y-71259424D01*
X106514285Y-71259424D02*
X106466666Y-71307044D01*
X106466666Y-71307044D02*
X106371428Y-71354663D01*
X106371428Y-71354663D02*
X106085714Y-71354663D01*
X106085714Y-71354663D02*
X105990476Y-71307044D01*
X105990476Y-71307044D02*
X105942857Y-71259424D01*
X129133333Y-62454663D02*
X128657143Y-62454663D01*
X128657143Y-62454663D02*
X128657143Y-61454663D01*
X129942857Y-61454663D02*
X129466667Y-61454663D01*
X129466667Y-61454663D02*
X129419048Y-61930853D01*
X129419048Y-61930853D02*
X129466667Y-61883234D01*
X129466667Y-61883234D02*
X129561905Y-61835615D01*
X129561905Y-61835615D02*
X129800000Y-61835615D01*
X129800000Y-61835615D02*
X129895238Y-61883234D01*
X129895238Y-61883234D02*
X129942857Y-61930853D01*
X129942857Y-61930853D02*
X129990476Y-62026091D01*
X129990476Y-62026091D02*
X129990476Y-62264186D01*
X129990476Y-62264186D02*
X129942857Y-62359424D01*
X129942857Y-62359424D02*
X129895238Y-62407044D01*
X129895238Y-62407044D02*
X129800000Y-62454663D01*
X129800000Y-62454663D02*
X129561905Y-62454663D01*
X129561905Y-62454663D02*
X129466667Y-62407044D01*
X129466667Y-62407044D02*
X129419048Y-62359424D01*
X140583333Y-77654663D02*
X140250000Y-77178472D01*
X140011905Y-77654663D02*
X140011905Y-76654663D01*
X140011905Y-76654663D02*
X140392857Y-76654663D01*
X140392857Y-76654663D02*
X140488095Y-76702282D01*
X140488095Y-76702282D02*
X140535714Y-76749901D01*
X140535714Y-76749901D02*
X140583333Y-76845139D01*
X140583333Y-76845139D02*
X140583333Y-76987996D01*
X140583333Y-76987996D02*
X140535714Y-77083234D01*
X140535714Y-77083234D02*
X140488095Y-77130853D01*
X140488095Y-77130853D02*
X140392857Y-77178472D01*
X140392857Y-77178472D02*
X140011905Y-77178472D01*
X141059524Y-77654663D02*
X141250000Y-77654663D01*
X141250000Y-77654663D02*
X141345238Y-77607044D01*
X141345238Y-77607044D02*
X141392857Y-77559424D01*
X141392857Y-77559424D02*
X141488095Y-77416567D01*
X141488095Y-77416567D02*
X141535714Y-77226091D01*
X141535714Y-77226091D02*
X141535714Y-76845139D01*
X141535714Y-76845139D02*
X141488095Y-76749901D01*
X141488095Y-76749901D02*
X141440476Y-76702282D01*
X141440476Y-76702282D02*
X141345238Y-76654663D01*
X141345238Y-76654663D02*
X141154762Y-76654663D01*
X141154762Y-76654663D02*
X141059524Y-76702282D01*
X141059524Y-76702282D02*
X141011905Y-76749901D01*
X141011905Y-76749901D02*
X140964286Y-76845139D01*
X140964286Y-76845139D02*
X140964286Y-77083234D01*
X140964286Y-77083234D02*
X141011905Y-77178472D01*
X141011905Y-77178472D02*
X141059524Y-77226091D01*
X141059524Y-77226091D02*
X141154762Y-77273710D01*
X141154762Y-77273710D02*
X141345238Y-77273710D01*
X141345238Y-77273710D02*
X141440476Y-77226091D01*
X141440476Y-77226091D02*
X141488095Y-77178472D01*
X141488095Y-77178472D02*
X141535714Y-77083234D01*
X117623810Y-66654663D02*
X117623810Y-65654663D01*
X118671428Y-66559424D02*
X118623809Y-66607044D01*
X118623809Y-66607044D02*
X118480952Y-66654663D01*
X118480952Y-66654663D02*
X118385714Y-66654663D01*
X118385714Y-66654663D02*
X118242857Y-66607044D01*
X118242857Y-66607044D02*
X118147619Y-66511805D01*
X118147619Y-66511805D02*
X118100000Y-66416567D01*
X118100000Y-66416567D02*
X118052381Y-66226091D01*
X118052381Y-66226091D02*
X118052381Y-66083234D01*
X118052381Y-66083234D02*
X118100000Y-65892758D01*
X118100000Y-65892758D02*
X118147619Y-65797520D01*
X118147619Y-65797520D02*
X118242857Y-65702282D01*
X118242857Y-65702282D02*
X118385714Y-65654663D01*
X118385714Y-65654663D02*
X118480952Y-65654663D01*
X118480952Y-65654663D02*
X118623809Y-65702282D01*
X118623809Y-65702282D02*
X118671428Y-65749901D01*
X119052381Y-65749901D02*
X119100000Y-65702282D01*
X119100000Y-65702282D02*
X119195238Y-65654663D01*
X119195238Y-65654663D02*
X119433333Y-65654663D01*
X119433333Y-65654663D02*
X119528571Y-65702282D01*
X119528571Y-65702282D02*
X119576190Y-65749901D01*
X119576190Y-65749901D02*
X119623809Y-65845139D01*
X119623809Y-65845139D02*
X119623809Y-65940377D01*
X119623809Y-65940377D02*
X119576190Y-66083234D01*
X119576190Y-66083234D02*
X119004762Y-66654663D01*
X119004762Y-66654663D02*
X119623809Y-66654663D01*
X140059424Y-54532857D02*
X140107044Y-54580476D01*
X140107044Y-54580476D02*
X140154663Y-54723333D01*
X140154663Y-54723333D02*
X140154663Y-54818571D01*
X140154663Y-54818571D02*
X140107044Y-54961428D01*
X140107044Y-54961428D02*
X140011805Y-55056666D01*
X140011805Y-55056666D02*
X139916567Y-55104285D01*
X139916567Y-55104285D02*
X139726091Y-55151904D01*
X139726091Y-55151904D02*
X139583234Y-55151904D01*
X139583234Y-55151904D02*
X139392758Y-55104285D01*
X139392758Y-55104285D02*
X139297520Y-55056666D01*
X139297520Y-55056666D02*
X139202282Y-54961428D01*
X139202282Y-54961428D02*
X139154663Y-54818571D01*
X139154663Y-54818571D02*
X139154663Y-54723333D01*
X139154663Y-54723333D02*
X139202282Y-54580476D01*
X139202282Y-54580476D02*
X139249901Y-54532857D01*
X140154663Y-53580476D02*
X140154663Y-54151904D01*
X140154663Y-53866190D02*
X139154663Y-53866190D01*
X139154663Y-53866190D02*
X139297520Y-53961428D01*
X139297520Y-53961428D02*
X139392758Y-54056666D01*
X139392758Y-54056666D02*
X139440377Y-54151904D01*
X139487996Y-52723333D02*
X140154663Y-52723333D01*
X139107044Y-52961428D02*
X139821329Y-53199523D01*
X139821329Y-53199523D02*
X139821329Y-52580476D01*
D11*
X143350000Y-80700000D02*
X143350000Y-80700000D01*
X143250000Y-80700000D02*
X143250000Y-80700000D01*
X143350000Y-80700000D02*
G75*
G02*
X143250000Y-80700000I-50000J0D01*
G01*
X143250000Y-80700000D02*
G75*
G02*
X143350000Y-80700000I50000J0D01*
G01*
X109900000Y-80700000D02*
X109900000Y-80700000D01*
X109800000Y-80700000D02*
X109800000Y-80700000D01*
X109900000Y-80700000D02*
G75*
G02*
X109800000Y-80700000I-50000J0D01*
G01*
X109800000Y-80700000D02*
G75*
G02*
X109900000Y-80700000I50000J0D01*
G01*
X112300000Y-73200000D02*
G75*
G02*
X112200000Y-73200000I-50000J0D01*
G01*
X112200000Y-73200000D02*
G75*
G02*
X112300000Y-73200000I50000J0D01*
G01*
D12*
X121400000Y-72450000D02*
X121400000Y-78450000D01*
X115400000Y-72450000D02*
X121400000Y-72450000D01*
D11*
X112300000Y-73200000D02*
X112300000Y-73200000D01*
X112200000Y-73200000D02*
X112200000Y-73200000D01*
D12*
X121400000Y-78450000D02*
X115400000Y-78450000D01*
X115400000Y-78450000D02*
X115400000Y-72450000D01*
D11*
X103395000Y-74300000D02*
X103395000Y-74300000D01*
X103495000Y-74300000D02*
X103495000Y-74300000D01*
X103395000Y-74300000D02*
G75*
G02*
X103495000Y-74300000I50000J0D01*
G01*
X103495000Y-74300000D02*
G75*
G02*
X103395000Y-74300000I-50000J0D01*
G01*
D12*
X130450000Y-73950000D02*
X130450000Y-76450000D01*
X131250000Y-73950000D02*
X130450000Y-73950000D01*
X133250000Y-73950000D02*
X134050000Y-73950000D01*
D11*
X133400000Y-78250000D02*
X133400000Y-78250000D01*
X133400000Y-78350000D02*
X133400000Y-78350000D01*
D12*
X134050000Y-73950000D02*
X134050000Y-76450000D01*
D11*
X133400000Y-78250000D02*
G75*
G02*
X133400000Y-78350000I0J-50000D01*
G01*
X133400000Y-78350000D02*
G75*
G02*
X133400000Y-78250000I0J50000D01*
G01*
X132632400Y-66387200D02*
G75*
G02*
X132532400Y-66387200I-50000J0D01*
G01*
X132532400Y-66387200D02*
G75*
G02*
X132632400Y-66387200I50000J0D01*
G01*
X131185558Y-56672768D02*
G75*
G02*
X131085558Y-56672768I-50000J0D01*
G01*
X131085558Y-56672768D02*
G75*
G02*
X131185558Y-56672768I50000J0D01*
G01*
D13*
X121660000Y-59700000D02*
X120058716Y-59700000D01*
X120058716Y-59098556D01*
X121660000Y-59098556D01*
X121660000Y-59700000D01*
G36*
X121660000Y-59700000D02*
G01*
X120058716Y-59700000D01*
X120058716Y-59098556D01*
X121660000Y-59098556D01*
X121660000Y-59700000D01*
G37*
D12*
X120472400Y-57137000D02*
X120472400Y-56606000D01*
X117607000Y-51327600D02*
X117076000Y-51327600D01*
D11*
X146203600Y-59049200D02*
G75*
G02*
X146103600Y-59049200I-50000J0D01*
G01*
X146103600Y-59049200D02*
G75*
G02*
X146203600Y-59049200I50000J0D01*
G01*
D12*
X117057402Y-53528529D02*
X117588402Y-53528529D01*
D11*
X122840000Y-59520000D02*
G75*
G02*
X122740000Y-59520000I-50000J0D01*
G01*
X122740000Y-59520000D02*
G75*
G02*
X122840000Y-59520000I50000J0D01*
G01*
X123219200Y-66034000D02*
G75*
G02*
X123119200Y-66034000I-50000J0D01*
G01*
X123119200Y-66034000D02*
G75*
G02*
X123219200Y-66034000I50000J0D01*
G01*
%LPC*%
D14*
X142750000Y-80700000D03*
X141350000Y-80700000D03*
D15*
X142050000Y-80400000D03*
D14*
X109300000Y-80700000D03*
X107900000Y-80700000D03*
D15*
X108600000Y-80400000D03*
D16*
X122950000Y-77700000D03*
X113850000Y-77700000D03*
X122950000Y-73200000D03*
X113850000Y-73200000D03*
D17*
X104200000Y-74300000D03*
X104200000Y-74800000D03*
X104200000Y-75300000D03*
X104200000Y-75800000D03*
D18*
X104745000Y-75865000D03*
X105245000Y-75865000D03*
D17*
X105790000Y-75800000D03*
X105790000Y-75300000D03*
X105790000Y-74800000D03*
X105790000Y-74300000D03*
D18*
X105245000Y-74235000D03*
X104745000Y-74235000D03*
D19*
X133400000Y-77300000D03*
D20*
X132250000Y-74000000D03*
D19*
X131100000Y-77300000D03*
D21*
X100800000Y-79500000D03*
D22*
X100800000Y-79500000D03*
D21*
X149900000Y-79500000D03*
D22*
X149900000Y-79500000D03*
D21*
X149850000Y-50600000D03*
D22*
X149850000Y-50600000D03*
D23*
X132600000Y-65460000D03*
X134800000Y-65460000D03*
X134800000Y-63860000D03*
X132600000Y-63860000D03*
D24*
X114770000Y-67600000D03*
X115690000Y-67600000D03*
D25*
X130340000Y-65460000D03*
X130340000Y-66380000D03*
D24*
X144390000Y-58340000D03*
X145310000Y-58340000D03*
D26*
X131936350Y-57419999D03*
X131936350Y-57920001D03*
X131936350Y-58420000D03*
X131936350Y-58919999D03*
X131936350Y-59420001D03*
D27*
X132832599Y-60316250D03*
X133332601Y-60316250D03*
X133832600Y-60316250D03*
X134332599Y-60316250D03*
X134832601Y-60316250D03*
D26*
X135728850Y-59420001D03*
X135728850Y-58919999D03*
X135728850Y-58420000D03*
X135728850Y-57920001D03*
X135728850Y-57419999D03*
D27*
X134832601Y-56523750D03*
X134332599Y-56523750D03*
X133832600Y-56523750D03*
X133332601Y-56523750D03*
X132832599Y-56523750D03*
D28*
X133027600Y-58420000D03*
D29*
X133832600Y-57615000D03*
X133832600Y-59225000D03*
D28*
X134637600Y-58420000D03*
D30*
X122300000Y-68800000D03*
X120700000Y-68800000D03*
D25*
X127950000Y-64000000D03*
X127950000Y-63080000D03*
X139530000Y-61380000D03*
X139530000Y-60460000D03*
X135730000Y-53430000D03*
X135730000Y-54350000D03*
D31*
X114570000Y-56000000D03*
X114570000Y-57100000D03*
D32*
X114530000Y-63000000D03*
X115630000Y-63000000D03*
D33*
X119100000Y-63500000D03*
X119100000Y-64900000D03*
D30*
X120700000Y-67200000D03*
X122300000Y-67200000D03*
D25*
X130500000Y-60340000D03*
X130500000Y-59420000D03*
D34*
X142285000Y-58340000D03*
X143135000Y-58340000D03*
D25*
X126850000Y-64000000D03*
X126850000Y-63080000D03*
D35*
X120860000Y-61638300D03*
X120860000Y-58361700D03*
D25*
X107900000Y-75760000D03*
X107900000Y-74840000D03*
D32*
X109050000Y-78400000D03*
X107950000Y-78400000D03*
X114530000Y-65400000D03*
X115630000Y-65400000D03*
D31*
X101900000Y-74800000D03*
X101900000Y-75900000D03*
D25*
X137090000Y-63860000D03*
X137090000Y-64780000D03*
D24*
X132730000Y-55220000D03*
X133650000Y-55220000D03*
D36*
X120870000Y-56860000D03*
X119770000Y-56860000D03*
D37*
X117330000Y-50930000D03*
X117330000Y-52030000D03*
D24*
X114770000Y-68800000D03*
X115690000Y-68800000D03*
D38*
X134350000Y-52990000D03*
X134350000Y-54090000D03*
D39*
X149100000Y-59050000D03*
D40*
X149100000Y-54667500D03*
X149100000Y-63432500D03*
D31*
X117280000Y-55060000D03*
X117280000Y-56160000D03*
D37*
X117334402Y-52826129D03*
X117334402Y-53926129D03*
D34*
X138265000Y-60460000D03*
X137415000Y-60460000D03*
D24*
X129270000Y-58440000D03*
X130190000Y-58440000D03*
D25*
X125750000Y-64000000D03*
X125750000Y-63080000D03*
D31*
X110750000Y-76550000D03*
X110750000Y-77650000D03*
D24*
X137420000Y-59400000D03*
X138340000Y-59400000D03*
X137380000Y-61530000D03*
X138300000Y-61530000D03*
D31*
X129040000Y-52550000D03*
X129040000Y-51450000D03*
D41*
X126160000Y-54380000D03*
X120380000Y-54380000D03*
D42*
X126470000Y-55515000D03*
D43*
X125670000Y-55490000D03*
D44*
X124520000Y-55455000D03*
X123520000Y-55455000D03*
X123020000Y-55455000D03*
X122020000Y-55455000D03*
D42*
X120070000Y-55515000D03*
D43*
X120870000Y-55490000D03*
D44*
X121520000Y-55455000D03*
X122520000Y-55455000D03*
X124020000Y-55455000D03*
X125020000Y-55455000D03*
D45*
X127590000Y-54880000D03*
D46*
X127590000Y-50700000D03*
X118950000Y-50700000D03*
D45*
X118950000Y-54880000D03*
D47*
X99630000Y-67800000D03*
X101130000Y-67800000D03*
X102630000Y-67800000D03*
X104130000Y-67800000D03*
X105630000Y-67800000D03*
X107130000Y-67800000D03*
X108630000Y-67800000D03*
X110130000Y-67800000D03*
X111630000Y-67800000D03*
X111630000Y-50300000D03*
X110130000Y-50300000D03*
X108630000Y-50300000D03*
X107130000Y-50300000D03*
X105630000Y-50300000D03*
X104130000Y-50300000D03*
X102630000Y-50300000D03*
X101130000Y-50300000D03*
X99630000Y-50300000D03*
D48*
X105830000Y-58090000D03*
X105830000Y-56990000D03*
X104730000Y-56990000D03*
X104730000Y-58090000D03*
X104730000Y-59190000D03*
X105830000Y-59190000D03*
X106930000Y-59190000D03*
X106930000Y-58090000D03*
X106930000Y-56990000D03*
D25*
X137490000Y-56360000D03*
X137490000Y-57280000D03*
X142280000Y-60320000D03*
X142280000Y-59400000D03*
D24*
X114520000Y-64200000D03*
X115440000Y-64200000D03*
D25*
X144390000Y-60220000D03*
X144390000Y-59300000D03*
D24*
X135220000Y-61670000D03*
X134300000Y-61670000D03*
D34*
X137485000Y-58340000D03*
X138335000Y-58340000D03*
X139885000Y-58340000D03*
X140735000Y-58340000D03*
D32*
X105850000Y-72200000D03*
X104750000Y-72200000D03*
D49*
X123790000Y-59520000D03*
X126790000Y-59520000D03*
D32*
X140200000Y-78400000D03*
X141300000Y-78400000D03*
D50*
X123200000Y-65460000D03*
X123200000Y-64510000D03*
X123200000Y-63560000D03*
X120700000Y-63560000D03*
X120700000Y-65460000D03*
D25*
X136830000Y-53430000D03*
X136830000Y-54350000D03*
%LPD*%
M02*
