M48
; DRILL file {KiCad 8.0.4-8.0.4-0~ubuntu24.04.1} date 2024-07-22T22:19:08+0200
; FORMAT={-:-/ absolute / inch / decimal}
; #@! TF.CreationDate,2024-07-22T22:19:08+02:00
; #@! TF.GenerationSoftware,Kicad,Pcbnew,8.0.4-8.0.4-0~ubuntu24.04.1
; #@! TF.FileFunction,Plated,1,2,PTH
FMAT,2
INCH
; #@! TA.AperFunction,Plated,PTH,ViaDrill
T1C0.0118
; #@! TA.AperFunction,Plated,PTH,ViaDrill
T2C0.0157
; #@! TA.AperFunction,Plated,PTH,ComponentDrill
T3C0.0236
%
G90
G05
T1
X4.1012Y-2.222
X4.1012Y-2.2654
X4.1012Y-2.3087
X4.1016Y-2.352
X4.1449Y-2.222
X4.1449Y-2.2654
X4.1449Y-2.352
X4.1453Y-2.3087
X4.1882Y-2.222
X4.1882Y-2.2654
X4.1882Y-2.3087
X4.1882Y-2.352
X4.2311Y-2.2654
X4.2311Y-2.3087
X4.2315Y-2.222
X4.2315Y-2.352
X4.2453Y-2.6191
X4.2689Y-2.597
X4.2911Y-2.5715
X4.3138Y-2.5493
X4.3949Y-2.6098
X4.4343Y-2.0315
X4.4866Y-2.7087
X4.5106Y-2.287
X4.5764Y-2.5276
X4.5913Y-2.1248
X4.6173Y-2.2445
X4.6177Y-1.9768
X4.622Y-2.6547
X4.6358Y-2.4516
X4.9039Y-2.5173
X4.9436Y-2.2542
X4.9531Y-2.5256
X4.98Y-2.2307
X5.0496Y-2.2878
X5.0783Y-2.1154
X5.0866Y-2.2529
X5.0894Y-2.3406
X5.0895Y-2.1926
X5.0898Y-2.1567
X5.0898Y-2.3752
X5.0992Y-2.6134
X5.1122Y-2.2713
X5.1189Y-2.0244
X5.16Y-2.4665
X5.1937Y-2.174
X5.1986Y-2.0955
X5.2043Y-2.4665
X5.2374Y-2.2681
X5.2374Y-2.3319
X5.2535Y-2.4444
X5.2555Y-2.0386
X5.2571Y-2.0862
X5.2689Y-2.3004
X5.3008Y-2.2685
X5.3008Y-2.3319
X5.3103Y-2.1776
X5.3322Y-2.4665
X5.3437Y-2.0717
X5.3831Y-2.4665
X5.387Y-2.0717
X5.4295Y-2.5504
X5.4449Y-2.4551
X5.4461Y-2.2189
X5.4933Y-2.4512
X5.6413Y-2.3748
X5.724Y-2.3709
X5.724Y-2.4972
X5.7248Y-2.1524
T2
X3.9646Y-2.9449
X3.9803Y-2.0394
X4.122Y-2.7913
X4.2795Y-1.9291
X4.2874Y-2.9449
X4.2953Y-3.0472
X4.3031Y-2.1654
X4.3346Y-2.0329
X4.3386Y-2.6181
X4.3465Y-3.1772
X4.4055Y-2.501
X4.4567Y-2.9685
X4.5787Y-2.8189
X4.937Y-2.8228
X5.2047Y-2.8622
X5.3268Y-2.9724
X5.4921Y-3.0433
X5.6299Y-3.1378
T3
G00X4.6831Y-2.0118
M15
G01X4.6831Y-1.9803
M16
G05
G00X4.6831Y-2.1823
M15
G01X4.6831Y-2.139
M16
G05
G00X5.0232Y-2.0118
M15
G01X5.0232Y-1.9803
M16
G05
G00X5.0232Y-2.1823
M15
G01X5.0232Y-2.139
M16
G05
M30
